<svg width="24" height="24" viewBox="0 0 24 24" fill="none" xmlns="http://www.w3.org/2000/svg">
<path d="M22.6406 13.5141C22.7054 13.0365 22.7414 12.5517 22.7414 12.0573C22.7414 6.12451 17.9054 1.31491 11.9414 1.31491C11.3486 1.31491 10.7678 1.36291 10.2014 1.45651C9.18861 0.794115 7.98141 0.407715 6.68301 0.407715C3.12141 0.407715 0.239014 3.29491 0.239014 6.85411C0.239014 8.15011 0.620614 9.35251 1.27582 10.3629C1.18701 10.9149 1.14141 11.4813 1.14141 12.0573C1.14141 17.9925 5.97501 22.8021 11.9414 22.8021C12.6158 22.8021 13.271 22.7373 13.907 22.6221C14.8958 23.2365 16.0622 23.5941 17.3126 23.5941C20.8742 23.5917 23.759 20.7045 23.759 17.1453C23.759 15.7989 23.3462 14.5485 22.6406 13.5141ZM12.9518 19.9749C9.51981 20.1549 7.91421 19.3941 6.44301 18.0141C4.79901 16.4733 5.45901 14.7141 6.79821 14.6229C8.13501 14.5341 8.93902 16.1397 9.65422 16.5861C10.367 17.0301 13.0814 18.0453 14.5142 16.4061C16.0742 14.6229 13.4774 13.6989 11.5718 13.4205C8.85262 13.0173 5.41821 11.5461 5.68461 8.64691C5.95101 5.75011 8.14702 4.26451 10.4558 4.05571C13.3982 3.78931 15.3158 4.50211 16.8302 5.79571C18.5822 7.29091 17.6342 8.96131 16.5182 9.09571C15.407 9.23011 14.1566 6.63811 11.7038 6.59971C9.17661 6.55891 7.46782 9.23011 10.5878 9.98851C13.7102 10.7469 17.0534 11.0589 18.2582 13.9125C19.463 16.7637 16.3862 19.7949 12.9518 19.9749Z" fill="white"/>
</svg>
