<svg width="16" height="16" viewBox="0 0 16 16" fill="none" xmlns="http://www.w3.org/2000/svg">
<g clip-path="url(#clip0_128_1573)">
<path d="M7.55759 0.183312C7.5574 0.1835 7.55718 0.183657 7.55699 0.183875L4.307 3.44963C4.06353 3.69428 4.06443 4.09 4.30912 4.33353C4.55378 4.57703 4.9495 4.57609 5.193 4.33144L7.37499 2.13881L7.37499 15.375C7.37499 15.7202 7.65481 16 7.99999 16C8.34518 16 8.62499 15.7202 8.62499 15.375L8.62499 2.13884L10.807 4.33141C11.0505 4.57606 11.4462 4.577 11.6909 4.3335C11.9356 4.08997 11.9364 3.69422 11.693 3.44959L8.44299 0.183843C8.4428 0.183656 8.44259 0.183499 8.4424 0.183281C8.19809 -0.0615007 7.80109 -0.0607187 7.55759 0.183312Z" fill="#639CFF"/>
</g>
<defs>
<clipPath id="clip0_128_1573">
<rect width="16" height="16" fill="white" transform="translate(0 16) rotate(-90)"/>
</clipPath>
</defs>
</svg>
