<svg width="24" height="16" viewBox="0 0 24 16" fill="none" xmlns="http://www.w3.org/2000/svg">
<path d="M12.0002 6.57118L22.1925 0.215998C22.0816 0.19843 21.9692 0.187012 21.8539 0.187012H2.1465C2.03121 0.187012 1.91856 0.19887 1.80811 0.215998L12.0002 6.57118Z" fill="white"/>
<path d="M12.6416 9.02863C12.628 9.03741 12.6131 9.04312 12.599 9.05147C12.5843 9.05959 12.5685 9.0675 12.5538 9.07496C12.4737 9.11624 12.3911 9.1494 12.3068 9.17136C12.298 9.17378 12.2896 9.1751 12.2813 9.17685C12.1884 9.19859 12.0951 9.21199 12.0015 9.21199C12.0013 9.21199 12.0009 9.21199 12.0007 9.21199C12.0004 9.21199 12 9.21199 11.9996 9.21199C11.906 9.21199 11.8125 9.19881 11.72 9.17685C11.7115 9.17488 11.7027 9.17356 11.6941 9.17136C11.6098 9.14918 11.5279 9.11602 11.4473 9.07496C11.4321 9.0675 11.4168 9.05959 11.4018 9.05147C11.3876 9.04334 11.3728 9.03763 11.3588 9.02863L0.0335975 1.9668C0.0131755 2.08603 0 2.20813 0 2.33373V13.6666C0 14.852 0.960711 15.8129 2.14628 15.8129H21.8537C23.0391 15.8129 24 14.852 24 13.6666V2.33373C24 2.20813 23.987 2.08625 23.9662 1.9668L12.6416 9.02863Z" fill="white"/>
</svg>
