<svg width="16" height="12" viewBox="0 0 16 12" fill="none" xmlns="http://www.w3.org/2000/svg">
<path d="M8.00018 5.04762L14.7951 0.810828C14.7211 0.799116 14.6462 0.791504 14.5693 0.791504H1.43104C1.35418 0.791504 1.27908 0.799409 1.20544 0.810828L8.00018 5.04762Z" fill="#FAA61A"/>
<path d="M8.42776 6.68591C8.41869 6.69177 8.40873 6.69558 8.39936 6.70114C8.38955 6.70656 8.37901 6.71183 8.36921 6.7168C8.31577 6.74433 8.26073 6.76643 8.20451 6.78107C8.19866 6.78268 8.19309 6.78356 8.18753 6.78473C8.12561 6.79922 8.06339 6.80815 8.00103 6.80815C8.00088 6.80815 8.00059 6.80815 8.00044 6.80815C8.00029 6.80815 8 6.80815 7.99971 6.80815C7.93734 6.80815 7.87498 6.79937 7.81335 6.78473C7.80764 6.78341 7.80178 6.78253 7.79607 6.78107C7.73986 6.76628 7.68525 6.74418 7.63153 6.7168C7.62143 6.71183 7.61118 6.70656 7.60122 6.70114C7.59171 6.69572 7.5819 6.69192 7.57253 6.68591L0.0223983 1.97803C0.00878365 2.05752 0 2.13891 0 2.22265V9.7779C0 10.5681 0.640474 11.2088 1.43086 11.2088H14.5691C15.3594 11.2088 16 10.5681 16 9.7779V2.22265C16 2.13891 15.9914 2.05767 15.9775 1.97803L8.42776 6.68591Z" fill="#FAA61A"/>
</svg>
