<svg width="40" height="40" viewBox="0 0 40 40" fill="none" xmlns="http://www.w3.org/2000/svg">
<circle cx="20" cy="20" r="20" fill="#102752"/>
<g clip-path="url(#clip0_32_638)">
<path d="M19.6776 21.8403C18.3056 20.7121 17.3895 19.3201 16.9079 18.528L16.5487 17.8507C16.6743 17.7159 17.6322 16.6902 18.0473 16.1337C18.569 15.4348 17.8126 14.8037 17.8126 14.8037C17.8126 14.8037 15.6845 12.6752 15.1995 12.253C14.7145 11.8302 14.1561 12.065 14.1561 12.065C13.1368 12.7237 12.08 13.2963 12.0166 16.0503C12.0142 18.6288 13.9716 21.2882 16.0882 23.347C18.2082 25.6722 21.119 28.0027 23.9332 28C26.6869 27.9372 27.2594 26.8806 27.918 25.8612C27.918 25.8612 28.153 25.3033 27.7307 24.8179C27.308 24.3326 25.1793 22.204 25.1793 22.204C25.1793 22.204 24.5485 21.4475 23.8495 21.9696C23.3286 22.359 22.3932 23.2251 22.1678 23.4351C22.1683 23.4359 20.6034 22.6016 19.6776 21.8403Z" fill="white"/>
</g>
<defs>
<clipPath id="clip0_32_638">
<rect width="16" height="16" fill="white" transform="translate(12 12)"/>
</clipPath>
</defs>
</svg>
