<svg width="40" height="40" viewBox="0 0 40 40" fill="none" xmlns="http://www.w3.org/2000/svg">
<circle cx="20" cy="20" r="20" fill="#179BD7"/>
<path d="M27.0936 21.0095C27.1368 20.6911 27.1608 20.3679 27.1608 20.0383C27.1608 16.0832 23.9368 12.8768 19.9608 12.8768C19.5656 12.8768 19.1784 12.9088 18.8008 12.9712C18.1256 12.5296 17.3208 12.272 16.4552 12.272C14.0808 12.272 12.1592 14.1968 12.1592 16.5696C12.1592 17.4336 12.4136 18.2352 12.8504 18.9088C12.7912 19.2768 12.7608 19.6544 12.7608 20.0383C12.7608 23.9951 15.9832 27.2015 19.9608 27.2015C20.4104 27.2015 20.8472 27.1583 21.2712 27.0815C21.9304 27.4911 22.708 27.7295 23.5416 27.7295C25.916 27.7279 27.8392 25.8031 27.8392 23.4303C27.8392 22.5327 27.564 21.6991 27.0936 21.0095ZM20.6344 25.3167C18.3464 25.4367 17.276 24.9295 16.2952 24.0095C15.1992 22.9823 15.6392 21.8095 16.532 21.7487C17.4232 21.6895 17.9592 22.7599 18.436 23.0575C18.9112 23.3535 20.7208 24.0303 21.676 22.9375C22.716 21.7487 20.9848 21.1327 19.7144 20.9471C17.9016 20.6783 15.612 19.6976 15.7896 17.7648C15.9672 15.8336 17.4312 14.8432 18.9704 14.704C20.932 14.5264 22.2104 15.0016 23.22 15.864C24.388 16.8608 23.756 17.9744 23.012 18.064C22.2712 18.1536 21.4376 16.4256 19.8024 16.4C18.1176 16.3728 16.9784 18.1536 19.0584 18.6592C21.14 19.1648 23.3688 19.3728 24.172 21.2751C24.9752 23.1759 22.924 25.1967 20.6344 25.3167Z" fill="white"/>
</svg>
