<svg width="40" height="40" viewBox="0 0 40 40" fill="none" xmlns="http://www.w3.org/2000/svg">
<circle cx="20" cy="20" r="20" fill="#FE793D"/>
<path d="M19.9998 19.0476L26.7947 14.8108C26.7208 14.7991 26.6458 14.7915 26.569 14.7915H13.4307C13.3538 14.7915 13.2787 14.7994 13.2051 14.8108L19.9998 19.0476Z" fill="white"/>
<path d="M20.4278 20.6857C20.4187 20.6915 20.4087 20.6953 20.3994 20.7009C20.3896 20.7063 20.379 20.7116 20.3692 20.7166C20.3158 20.7441 20.2607 20.7662 20.2045 20.7808C20.1987 20.7824 20.1931 20.7833 20.1875 20.7845C20.1256 20.799 20.0634 20.8079 20.001 20.8079C20.0009 20.8079 20.0006 20.8079 20.0004 20.8079C20.0003 20.8079 20 20.8079 19.9997 20.8079C19.9373 20.8079 19.875 20.7991 19.8133 20.7845C19.8076 20.7832 19.8018 20.7823 19.7961 20.7808C19.7399 20.766 19.6853 20.7439 19.6315 20.7166C19.6214 20.7116 19.6112 20.7063 19.6012 20.7009C19.5917 20.6955 19.5819 20.6917 19.5725 20.6857L12.0224 15.9778C12.0088 16.0573 12 16.1387 12 16.2224V23.7777C12 24.5679 12.6405 25.2085 13.4309 25.2085H26.5691C27.3594 25.2085 28 24.5679 28 23.7777V16.2224C28 16.1387 27.9914 16.0574 27.9775 15.9778L20.4278 20.6857Z" fill="white"/>
</svg>
