<svg width="40" height="40" viewBox="0 0 40 40" fill="none" xmlns="http://www.w3.org/2000/svg">
<circle cx="20" cy="20" r="20" fill="#1BD741"/>
<path d="M20.1426 12.1597C15.8914 12.1597 12.445 15.5789 12.445 19.7981C12.445 21.2413 12.8482 22.5901 13.549 23.7421L12.1602 27.8397L16.4226 26.4861C17.525 27.0909 18.7938 27.4365 20.1426 27.4365C24.3938 27.4365 27.8402 24.0157 27.8402 19.7981C27.8402 15.5789 24.3938 12.1597 20.1426 12.1597ZM23.9698 22.6989C23.789 23.1485 22.9698 23.5581 22.6082 23.5757C22.2466 23.5949 22.237 23.8557 20.269 23.0013C18.301 22.1469 17.117 20.0669 17.0242 19.9325C16.9314 19.7997 16.2626 18.8461 16.2978 17.8861C16.3346 16.9261 16.8594 16.4733 17.0466 16.2861C17.2338 16.0973 17.4482 16.0637 17.5794 16.0621C17.7346 16.0589 17.8354 16.0573 17.949 16.0621C18.0642 16.0669 18.2354 16.0381 18.3842 16.4349C18.533 16.8317 18.8898 17.8045 18.9346 17.9053C18.9794 18.0045 19.0082 18.1197 18.9378 18.2477C18.8674 18.3757 18.8306 18.4557 18.7298 18.5661C18.6274 18.6765 18.5138 18.8125 18.4226 18.8973C18.3202 18.9901 18.213 19.0925 18.3218 19.2925C18.429 19.4925 18.8002 20.1453 19.3634 20.6829C20.0882 21.3741 20.7138 21.6045 20.9074 21.7085C21.101 21.8141 21.2162 21.8013 21.3346 21.6765C21.453 21.5501 21.8466 21.1261 21.9858 20.9357C22.125 20.7453 22.2546 20.7821 22.4322 20.8541C22.6098 20.9261 23.557 21.4333 23.7506 21.5389C23.9442 21.6429 24.0722 21.6973 24.1186 21.7805C24.165 21.8589 24.1506 22.2493 23.9698 22.6989Z" fill="white"/>
</svg>
