<svg width="16" height="16" viewBox="0 0 16 16" fill="none" xmlns="http://www.w3.org/2000/svg">
<path d="M8.00423 0.501487C4.97051 0.50094 2.2353 2.32827 1.07437 5.13111C-0.086337 7.93406 0.555698 11.1602 2.70153 13.3047C5.63025 16.2334 10.3784 16.2334 13.307 13.3047C16.2356 10.3762 16.2356 5.62804 13.307 2.69933C11.9037 1.28808 9.99436 0.496679 8.00423 0.501487ZM8.00423 14.8049C4.25396 14.8049 1.20145 11.7523 1.20145 8.00202C1.20145 4.25176 4.25396 1.19925 8.00423 1.19925C11.7545 1.19925 14.8071 4.25176 14.8071 8.00202C14.8071 11.7523 11.7545 14.8049 8.00423 14.8049Z" fill="#639CFF"/>
<path d="M11.5696 5.69622L7.06589 10.0011L4.60985 7.54858C4.47403 7.41276 4.25387 7.41276 4.11794 7.54858C3.98213 7.6845 3.98213 7.90467 4.11794 8.04059L6.81469 10.7373C6.88014 10.8031 6.96951 10.8396 7.06239 10.8384C7.15242 10.8393 7.23907 10.8041 7.3031 10.7407L12.0511 6.20211C12.1887 6.0687 12.1932 5.8493 12.0612 5.71042C11.929 5.57166 11.7097 5.56532 11.5696 5.69622Z" fill="#639CFF"/>
</svg>
