<svg width="48" height="48" viewBox="0 0 48 48" fill="none" xmlns="http://www.w3.org/2000/svg">
<g clip-path="url(#clip0_128_1207)">
<path d="M47.1596 2.06472C46.6891 1.7106 46.0797 1.5978 45.5139 1.7604C43.3419 2.38406 40.5737 2.20791 37.069 1.98526C34.8747 1.84573 32.3878 1.68753 29.5313 1.68753C27.293 1.68753 25.2818 2.67447 23.9063 4.23453C22.5308 2.67447 20.52 1.68753 18.2813 1.68753C15.4252 1.68753 12.9379 1.84573 10.7436 1.98526C7.23893 2.20828 4.47074 2.38443 2.29873 1.7604C1.73294 1.5978 1.12356 1.7106 0.653347 2.06472C0.182765 2.41922 -0.0937248 2.97366 -0.0937248 3.56253V34.6685C-0.0988518 36.6754 0.678981 38.5632 2.09622 39.9841C3.51346 41.405 5.39945 42.1876 7.40629 42.1876H21.0001C22.0357 42.1876 22.8751 41.3482 22.8751 40.3126C22.8751 39.2769 22.0357 38.4376 21.0001 38.4376H7.40629C6.40287 38.4376 5.45987 38.0465 4.75125 37.336C4.04263 36.6256 3.65372 35.6815 3.65628 34.6733V33.6787C4.76041 34.3188 6.04068 34.6876 7.40629 34.6876H21.3751C21.7918 34.6876 22.0771 34.9465 22.2053 35.1885C22.5418 35.8239 23.1915 36.1865 23.8638 36.1865C24.1597 36.1865 24.46 36.1165 24.7394 35.9682C25.3041 35.6694 25.6524 35.123 25.7231 34.5338C25.7597 34.3876 25.7813 34.2357 25.7813 34.0782V9.18754C25.7813 7.11991 27.4633 5.43753 29.5313 5.43753C32.2684 5.43753 34.6923 5.59171 36.831 5.72757C39.6278 5.90555 41.9997 6.05643 44.1563 5.82242V19.3125C44.1563 20.3482 44.9957 21.1876 46.0313 21.1876C47.067 21.1876 47.9063 20.3482 47.9063 19.3125V3.56253C47.9063 2.97366 47.6299 2.41922 47.1596 2.06472ZM7.40629 30.9376C5.33866 30.9376 3.65628 29.2552 3.65628 27.1876V5.82242C5.8129 6.05643 8.18449 5.90555 10.9812 5.72757C13.1203 5.59171 15.5442 5.43753 18.2813 5.43753C20.3489 5.43753 22.0313 7.11991 22.0313 9.18754V30.9837C21.816 30.9533 21.597 30.9376 21.3751 30.9376H7.40629ZM18.8438 12.2813C18.8438 13.3169 18.0044 14.1563 16.9688 14.1563H8.81254C7.77689 14.1563 6.93754 13.3169 6.93754 12.2813C6.93754 11.2456 7.77689 10.4063 8.81254 10.4063H16.9688C18.0044 10.4063 18.8438 11.2456 18.8438 12.2813ZM16.0313 19.7813C16.0313 20.8169 15.1919 21.6563 14.1563 21.6563H8.81254C7.77689 21.6563 6.93754 20.8169 6.93754 19.7813C6.93754 18.7457 7.77689 17.9063 8.81254 17.9063H14.1563C15.1919 17.9063 16.0313 18.7457 16.0313 19.7813ZM38.3054 25.5524L28.0115 35.8236C27.7929 36.0418 27.6314 36.3106 27.5417 36.6061L25.2997 43.9864C25.1013 44.6408 25.2745 45.3516 25.7516 45.8409C26.1094 46.2075 26.5954 46.4067 27.0942 46.4067C27.2608 46.4067 27.4293 46.3844 27.5944 46.3382L35.1626 44.242C35.4738 44.1556 35.7576 43.9904 35.9865 43.7619L46.2591 33.5091C48.452 31.3159 48.452 27.7471 46.2591 25.5539C44.0659 23.3607 40.4972 23.3607 38.3054 25.5524ZM33.686 40.7594L29.8789 41.814L30.9929 38.1461L37.9388 31.2155L40.5909 33.8676L33.686 40.7594ZM43.6085 30.8559L43.2452 31.2184L40.5935 28.5667L40.9557 28.2056C41.6866 27.4743 42.8761 27.4743 43.607 28.2056C44.3383 28.9366 44.3383 30.126 43.6085 30.8559Z" fill="#639CFF"/>
</g>
<defs>
<clipPath id="clip0_128_1207">
<rect width="48" height="48" fill="white"/>
</clipPath>
</defs>
</svg>
