<svg width="46" height="48" viewBox="0 0 46 48" fill="none" xmlns="http://www.w3.org/2000/svg">
<path d="M36.6407 27.5625C31.9882 27.5625 28.2032 31.3476 28.2032 36C28.2032 37.5757 28.6378 39.0516 29.3928 40.3148L24.9085 44.7991C24.1763 45.5313 24.1763 46.7185 24.9085 47.4508C25.2747 47.8168 25.7545 47.9999 26.2344 47.9999C26.7143 47.9999 27.1942 47.8168 27.5603 47.4508L31.9808 43.0303C33.317 43.9189 34.9192 44.4375 36.6407 44.4375C41.2931 44.4375 45.0782 40.6524 45.0782 36C45.0782 31.3476 41.2931 27.5625 36.6407 27.5625ZM36.6407 40.6875C34.056 40.6875 31.9532 38.5847 31.9532 36C31.9532 33.4153 34.056 31.3125 36.6407 31.3125C39.2254 31.3125 41.3282 33.4153 41.3282 36C41.3282 38.5847 39.2254 40.6875 36.6407 40.6875Z" fill="#639CFF"/>
<path d="M22.0156 36.75H12.1719V9.375C12.1719 8.33944 11.3324 7.5 10.2969 7.5C9.26131 7.5 8.42188 8.33944 8.42188 9.375V36.75H6.54688C5.88959 36.75 5.25875 36.8644 4.67188 37.0725V5.625C4.67188 4.59113 5.513 3.75 6.54688 3.75H37.5781V21.375C37.5781 22.4106 38.4176 23.25 39.4531 23.25C40.4887 23.25 41.3281 22.4106 41.3281 21.375V1.875C41.3281 0.839438 40.4887 0 39.4531 0H6.54688C3.44525 0 0.921875 2.52338 0.921875 5.625V42.375C0.921875 45.4766 3.44525 48 6.54688 48H17.8906C18.9262 48 19.7656 47.1606 19.7656 46.125C19.7656 45.0894 18.9262 44.25 17.8906 44.25H6.54688C5.513 44.25 4.67188 43.4089 4.67188 42.375C4.67188 41.3411 5.513 40.5 6.54688 40.5H22.0156C23.0512 40.5 23.8906 39.6606 23.8906 38.625C23.8906 37.5894 23.0512 36.75 22.0156 36.75Z" fill="#639CFF"/>
</svg>
