<svg width="48" height="48" viewBox="0 0 48 48" fill="none" xmlns="http://www.w3.org/2000/svg">
<path d="M43.9248 28.7414C43.5367 27.7814 42.4438 27.3175 41.4838 27.7058C40.5237 28.0939 40.06 29.1868 40.4481 30.1468L42.6564 35.6093L36.0978 32.7181C35.6231 32.5089 35.0828 32.5056 34.6056 32.7092C32.3642 33.6656 29.9631 34.1504 27.469 34.1504C17.4309 34.1504 10.6878 26.2909 10.6878 18.9502C10.6878 10.5688 18.2158 3.74999 27.469 3.74999C36.7222 3.74999 44.2502 10.5688 44.2502 18.9502C44.2502 19.6041 44.1893 20.3871 44.0833 21.0983C43.9304 22.1225 44.6368 23.0766 45.6611 23.2294C46.6854 23.3826 47.6395 22.6758 47.7922 21.6516C47.9263 20.7526 48.0002 19.7931 48.0002 18.9502C48.0002 13.8568 45.8434 9.07761 41.9268 5.49308C38.0566 1.95084 32.9221 0 27.469 0C22.016 0 16.8815 1.95084 13.0112 5.49299C9.51132 8.69623 7.41807 12.8539 7.01204 17.3369C2.60983 20.2521 0.000306654 24.9236 0.000306654 29.9554C0.000306654 33.0987 0.990586 36.081 2.87561 38.6476L0.136994 45.4222C-0.149037 46.1296 0.0222441 46.9399 0.570212 47.4711C0.927305 47.8174 1.39784 48 1.87568 48C2.13096 47.9999 2.3884 47.9479 2.63158 47.8406L10.528 44.3597C12.5144 45.0991 14.6141 45.4734 16.7814 45.4734C16.8283 45.4734 16.8743 45.4698 16.9204 45.4664C20.0551 45.4427 23.1026 44.6182 25.742 43.0751C28.1062 41.6929 30.051 39.7941 31.4144 37.5517C32.7455 37.3126 34.0466 36.9515 35.3094 36.4688L45.3688 40.9031C45.6121 41.0103 45.8695 41.0625 46.1247 41.0625C46.6026 41.0624 47.0732 40.8798 47.4303 40.5336C47.9783 40.0024 48.1496 39.1922 47.8635 38.4847L43.9248 28.7414ZM16.7816 41.7187C16.756 41.7187 16.7311 41.7215 16.7057 41.7225C14.7911 41.7128 12.9484 41.3365 11.2274 40.6022C10.7503 40.3985 10.21 40.4018 9.73529 40.6111L5.34433 42.5467L6.76079 39.0428C7.02264 38.3951 6.90254 37.6554 6.44936 37.1237C4.68358 35.0521 3.7503 32.5735 3.7503 29.9554C3.7503 26.9591 5.01077 24.12 7.21614 21.9674C7.90276 25.7103 9.8401 29.2908 12.7626 32.1035C16.3992 35.6035 21.2095 37.6311 26.4037 37.8752C23.9651 40.2757 20.4754 41.7187 16.7816 41.7187Z" fill="#639CFF"/>
</svg>
