<svg width="16" height="16" viewBox="0 0 16 16" fill="none" xmlns="http://www.w3.org/2000/svg">
<path d="M14.1231 6.87862C14.041 3.06934 10.8741 0 7.03125 0C3.14503 0 0 3.14475 0 7.03125C0 10.9175 3.14478 14.0625 7.03125 14.0625C8.35341 14.0625 9.65722 13.6993 10.7575 13.0321L12.3113 15.7631C12.4908 16.0784 12.9467 16.0786 13.1262 15.763L15.6075 11.4008C15.6095 11.3973 15.6115 11.3938 15.6134 11.3902C15.8663 10.9175 16 10.3827 16 9.84372C16 8.53669 15.2317 7.40581 14.1231 6.87862ZM4.77628 1.37003C4.28422 2.057 3.93947 2.89747 3.71209 3.71206C2.90281 3.93797 2.05872 4.28272 1.37 4.776C1.98937 3.22688 3.22709 1.98934 4.77628 1.37003ZM3.47406 4.76669C3.37284 5.34162 3.31037 5.94444 3.28938 6.5625H1.03216C1.38622 5.67737 2.56872 5.07853 3.47406 4.76669ZM3.28938 7.5C3.31037 8.11803 3.37281 8.72084 3.47403 9.29581C2.56884 8.98403 1.38622 8.38519 1.03212 7.5H3.28938ZM1.37 9.28647C2.05872 9.77972 2.90281 10.1245 3.71209 10.3504C3.93938 11.1646 4.28406 12.0052 4.77628 12.6924C3.22709 12.0731 1.98937 10.8356 1.37 9.28647ZM6.5625 13.0303C5.67741 12.6763 5.07856 11.4938 4.76669 10.5884C5.34166 10.6897 5.94447 10.7521 6.5625 10.7731V13.0303ZM6.5625 9.83528C5.83572 9.80897 5.13487 9.72159 4.48434 9.57816C4.34087 8.92763 4.2535 8.22678 4.22722 7.5H6.5625V9.83528ZM6.5625 6.56247H4.22722C4.25353 5.83569 4.34091 5.13484 4.48434 4.48428C5.13487 4.34087 5.83572 4.2535 6.5625 4.22719V6.56247ZM6.5625 3.28938C5.94447 3.31037 5.34166 3.37281 4.76669 3.47403C5.07847 2.56888 5.67731 1.38622 6.5625 1.03212V3.28938ZM12.757 4.79209C12.0663 4.2985 11.2146 3.94984 10.4007 3.72147C10.1648 2.89938 9.80828 2.05678 9.3065 1.36897C10.8783 1.99 12.1331 3.23447 12.757 4.79209ZM13.0906 6.5625H10.8353C10.8137 5.94975 10.7497 5.35122 10.6462 4.77925C11.5424 5.08944 12.7318 5.68638 13.0906 6.5625ZM7.5 1.03034C8.39903 1.38259 9.01863 2.57353 9.34037 3.48016C8.751 3.37519 8.13294 3.31072 7.5 3.28934V1.03034ZM7.5 4.22716C8.24528 4.25397 8.96478 4.34481 9.63256 4.49394C9.78019 5.14291 9.87019 5.8405 9.89744 6.56247H7.5V4.22716ZM9.89753 7.49375C9.88813 7.74928 9.871 8.00922 9.84647 8.25891C9.62063 8.66659 9.47909 9.12709 9.4455 9.61684C8.84194 9.73606 8.17309 9.81097 7.50003 9.83503V7.49375H9.89753ZM7.5 13.033V10.773C8.13463 10.7517 8.76819 10.688 9.35647 10.5865C8.91544 11.8502 8.22403 12.7532 7.5 13.033ZM9.31866 12.6985C9.55341 12.3819 9.76581 12.0182 9.95172 11.6159L10.2936 12.2168C9.98572 12.4056 9.65894 12.5667 9.31866 12.6985ZM14.7895 10.9427L12.7187 14.5833L10.701 11.037C10.6998 11.035 10.6987 11.033 10.6975 11.0309C10.4865 10.6728 10.375 10.2623 10.375 9.84372C10.375 8.55137 11.4264 7.49997 12.7188 7.49997C14.0111 7.49997 15.0625 8.55137 15.0625 9.84372C15.0625 10.227 14.9681 10.6069 14.7895 10.9427Z" fill="#639CFF"/>
<path d="M12.7188 8.4375C11.9433 8.4375 11.3125 9.06834 11.3125 9.84375C11.3125 10.6192 11.9433 11.25 12.7188 11.25C13.4942 11.25 14.125 10.6192 14.125 9.84375C14.125 9.06834 13.4942 8.4375 12.7188 8.4375ZM12.7188 10.3125C12.4603 10.3125 12.25 10.1022 12.25 9.84375C12.25 9.58528 12.4603 9.375 12.7188 9.375C12.9772 9.375 13.1875 9.58528 13.1875 9.84375C13.1875 10.1022 12.9772 10.3125 12.7188 10.3125Z" fill="#639CFF"/>
</svg>
