<svg width="16" height="16" viewBox="0 0 16 16" fill="none" xmlns="http://www.w3.org/2000/svg">
<path d="M14.5938 1.90625H1.40625C0.630844 1.90625 0 2.53709 0 3.3125V12.6875C0 13.4629 0.630844 14.0938 1.40625 14.0938H14.5938C15.3692 14.0938 16 13.4629 16 12.6875V3.3125C16 2.53709 15.3692 1.90625 14.5938 1.90625ZM15.0625 12.6875C15.0625 12.946 14.8522 13.1562 14.5938 13.1562H1.40625C1.14778 13.1562 0.9375 12.946 0.9375 12.6875V3.3125C0.9375 3.05403 1.14778 2.84375 1.40625 2.84375H14.5938C14.8522 2.84375 15.0625 3.05403 15.0625 3.3125V12.6875Z" fill="#639CFF"/>
<path d="M4.6875 7.53125C3.13669 7.53125 1.875 8.79294 1.875 10.3438V10.8125C1.875 11.5879 2.50584 12.2188 3.28125 12.2188H6.09375C6.86916 12.2188 7.5 11.5879 7.5 10.8125V10.3438C7.5 8.79294 6.23831 7.53125 4.6875 7.53125ZM6.5625 10.8125C6.5625 11.071 6.35222 11.2812 6.09375 11.2812H3.28125C3.02278 11.2812 2.8125 11.071 2.8125 10.8125V10.3438C2.8125 9.30988 3.65363 8.46875 4.6875 8.46875C5.72137 8.46875 6.5625 9.30988 6.5625 10.3438V10.8125Z" fill="#639CFF"/>
<path d="M4.6875 3.78125C3.65363 3.78125 2.8125 4.62238 2.8125 5.65625C2.8125 6.69012 3.65363 7.53125 4.6875 7.53125C5.72137 7.53125 6.5625 6.69012 6.5625 5.65625C6.5625 4.62238 5.72137 3.78125 4.6875 3.78125ZM4.6875 6.59375C4.17056 6.59375 3.75 6.17319 3.75 5.65625C3.75 5.13931 4.17056 4.71875 4.6875 4.71875C5.20444 4.71875 5.625 5.13931 5.625 5.65625C5.625 6.17319 5.20444 6.59375 4.6875 6.59375Z" fill="#639CFF"/>
<path d="M13.6562 10.3438H8.96875C8.70987 10.3438 8.5 10.5536 8.5 10.8125C8.5 11.0714 8.70987 11.2812 8.96875 11.2812H13.6562C13.9151 11.2812 14.125 11.0714 14.125 10.8125C14.125 10.5536 13.9151 10.3438 13.6562 10.3438Z" fill="#639CFF"/>
<path d="M13.6562 8.46875H8.96875C8.70987 8.46875 8.5 8.67862 8.5 8.9375C8.5 9.19638 8.70987 9.40625 8.96875 9.40625H13.6562C13.9151 9.40625 14.125 9.19638 14.125 8.9375C14.125 8.67862 13.9151 8.46875 13.6562 8.46875Z" fill="#639CFF"/>
<path d="M13.6562 6.59375H8.96875C8.70987 6.59375 8.5 6.80362 8.5 7.0625C8.5 7.32138 8.70987 7.53125 8.96875 7.53125H13.6562C13.9151 7.53125 14.125 7.32138 14.125 7.0625C14.125 6.80362 13.9151 6.59375 13.6562 6.59375Z" fill="#639CFF"/>
<path d="M12.7188 4.71875H9.90625C9.64737 4.71875 9.4375 4.92862 9.4375 5.1875C9.4375 5.44638 9.64737 5.65625 9.90625 5.65625H12.7188C12.9776 5.65625 13.1875 5.44638 13.1875 5.1875C13.1875 4.92862 12.9776 4.71875 12.7188 4.71875Z" fill="#639CFF"/>
</svg>
