<svg width="8" height="16" viewBox="0 0 8 16" fill="none" xmlns="http://www.w3.org/2000/svg">
<path d="M7.34211 5.37513C7.24014 5.29055 7.10116 5.26611 6.97627 5.31075L4.20547 6.30347L2.36888 0.738484C2.31495 0.57495 2.15647 0.469099 1.98483 0.482022C1.81307 0.494945 1.67221 0.623117 1.64319 0.792761L0.0510814 10.0997C0.0292298 10.2281 0.0754 10.3587 0.173027 10.4445C0.270772 10.5305 0.406111 10.5597 0.530642 10.5215L3.43197 9.63232L5.24318 15.2219C5.29335 15.3762 5.43715 15.4809 5.59951 15.481C5.60914 15.481 5.61901 15.4807 5.62876 15.48C5.80181 15.4665 5.94291 15.3363 5.97004 15.1649L7.47322 5.72265C7.49402 5.59189 7.4442 5.45972 7.34211 5.37513ZM5.47498 13.5043L4.03183 9.04973C3.96886 8.85483 3.76092 8.74662 3.56508 8.80677L0.893073 9.62586L2.12851 2.40332L3.61371 6.90381C3.67856 7.10035 3.89074 7.20738 4.0874 7.14241C4.09034 7.14147 4.09351 7.14041 4.09645 7.13936L6.63276 6.23052L5.47498 13.5043Z" fill="#639CFF"/>
</svg>
