<svg width="24" height="24" viewBox="0 0 24 24" fill="none" xmlns="http://www.w3.org/2000/svg">
<path d="M12.6368 4.52634L5.94291 11.2088C5.83369 11.3179 5.75306 11.4522 5.7082 11.5999L4.58733 15.2901C4.48795 15.6172 4.57458 15.9726 4.81331 16.2172C5.05233 16.4631 5.409 16.557 5.73459 16.4661L9.51858 15.4178C9.67439 15.3747 9.81637 15.2919 9.93075 15.1777L16.6137 8.50448C17.7048 7.45753 17.7047 5.57391 16.6137 4.52695C15.5171 3.43036 13.7328 3.43027 12.6368 4.52634ZM8.78039 13.6766L6.8768 14.204L7.43395 12.3697L12.4541 7.35816L13.7801 8.68416L8.78039 13.6766ZM15.2884 7.17806L15.1069 7.35923L13.7811 6.03342L13.9621 5.85277C14.3276 5.48719 14.9224 5.48719 15.2879 5.85277C15.6534 6.21825 15.6534 6.813 15.2884 7.17806ZM22.125 14.625V3.75C22.125 2.71613 21.2839 1.875 20.25 1.875H3.75C2.71613 1.875 1.875 2.71613 1.875 3.75V20.25C1.875 21.2839 2.71613 22.125 3.75 22.125H20.25C21.2839 22.125 22.125 21.2839 22.125 20.25H5.48438C4.2405 20.2005 4.24144 18.4241 5.48438 18.375H23.0625C23.5803 18.375 24 18.7947 24 19.3125V20.25C24 22.3177 22.3177 24 20.25 24H3.75C1.68225 24 0 22.3177 0 20.25V3.75C0 1.68225 1.68225 0 3.75 0H20.25C22.3177 0 24 1.68225 24 3.75V14.625C23.9505 15.8689 22.1741 15.8679 22.125 14.625Z" fill="#639CFF"/>
</svg>
