<svg width="24" height="24" viewBox="0 0 24 24" fill="none" xmlns="http://www.w3.org/2000/svg">
<path d="M5.625 9.51562H3.77255C4.08548 5.25 7.65591 1.875 12 1.875C15.4375 1.875 18.5481 4.04016 19.7402 7.26277C19.9199 7.74834 20.4591 7.99636 20.9448 7.81678C21.4304 7.63711 21.6784 7.09786 21.4988 6.61223C20.7883 4.69148 19.526 3.04786 17.8485 1.85902C16.1324 0.642844 14.11 0 12 0C9.29555 0 6.75291 1.05319 4.84055 2.96555C2.95312 4.85297 1.90336 7.35441 1.87627 10.0194C0.755859 10.6686 0 11.8801 0 13.2656V16.4531C0 18.5209 1.68225 20.2031 3.75 20.2031H5.625C6.14278 20.2031 6.5625 19.7834 6.5625 19.2656V10.4531C6.5625 9.93534 6.14278 9.51562 5.625 9.51562ZM4.6875 18.3281H3.75C2.71613 18.3281 1.875 17.487 1.875 16.4531V13.2656C1.875 12.2318 2.71613 11.3906 3.75 11.3906H4.6875V18.3281Z" fill="#639CFF"/>
<path d="M20.25 9.51562H18.375C17.8572 9.51562 17.4375 9.93534 17.4375 10.4531V16.875V19.2656V20.25C17.4375 20.7669 17.0169 21.1875 16.5 21.1875H13.6406V21.2172C13.3208 20.6405 12.7061 20.25 12 20.25C10.9645 20.25 10.125 21.0895 10.125 22.125C10.125 23.1605 10.9645 24 12 24C12.7061 24 13.3208 23.6095 13.6406 23.0328V23.0625H16.5C18.0508 23.0625 19.3125 21.8008 19.3125 20.25V20.2031H20.25C22.3177 20.2031 24 18.5209 24 16.4531V13.2656C24 11.1979 22.3177 9.51562 20.25 9.51562ZM22.125 16.4531C22.125 17.487 21.2839 18.3281 20.25 18.3281H19.3125V16.875V11.3906H20.25C21.2839 11.3906 22.125 12.2318 22.125 13.2656V16.4531Z" fill="#639CFF"/>
</svg>
