<svg width="24" height="24" viewBox="0 0 24 24" fill="none" xmlns="http://www.w3.org/2000/svg">
<g clip-path="url(#clip0_2_33)">
<path d="M14.3012 13.5538C14.4583 12.7443 14.2772 12.009 13.8046 11.5362C13.378 11.1097 12.7461 10.92 12.025 11.0026C11.9933 11.0061 11.9616 11.0112 11.93 11.0158L12.6609 11.759C13.0237 12.1282 13.0187 12.7214 12.6498 13.0842C12.4672 13.2636 12.2299 13.3531 11.9928 13.3531C11.7503 13.3531 11.5081 13.2596 11.3246 13.073L10.1165 11.8444C10.0002 11.939 9.88725 12.0401 9.77866 12.1485C9.671 12.2562 9.57066 12.3684 9.47672 12.4838L10.6819 13.6688C11.0509 14.0317 11.0558 14.625 10.6931 14.994C10.5096 15.1805 10.2674 15.2741 10.0248 15.2741C9.78764 15.2741 9.55033 15.1846 9.36796 15.0051L8.64652 14.2958C8.64158 14.3287 8.63645 14.3619 8.63261 14.3948C8.55021 15.1157 8.73972 15.7478 9.16636 16.1744C9.63071 16.6388 10.3523 16.8224 11.1465 16.6783C11.6553 16.5857 12.1435 16.9235 12.2359 17.4327C12.3284 17.942 11.9906 18.4297 11.4814 18.5222C11.1904 18.575 10.9027 18.601 10.6219 18.601C9.54301 18.6011 8.55955 18.2181 7.84104 17.4996C7.00205 16.6606 6.62193 15.4821 6.77079 14.1817C6.82426 13.7137 6.94547 13.2497 7.12766 12.8022L6.55674 12.2408C6.18778 11.8779 6.18284 11.2846 6.54557 10.9156C6.90849 10.5467 7.50175 10.5417 7.8707 10.9045L8.13602 11.1654C8.2371 11.0482 8.34275 10.934 8.45353 10.8234C8.56504 10.7119 8.68003 10.6053 8.79813 10.5037L8.56028 10.2618C8.19736 9.89282 8.20231 9.29956 8.57145 8.93665C8.94041 8.57391 9.53367 8.57867 9.89658 8.94781L10.4356 9.49603C10.8822 9.31458 11.3449 9.19391 11.8119 9.14044C13.1125 8.99194 14.2906 9.37189 15.1297 10.2109C16.05 11.1313 16.4186 12.4797 16.141 13.9109C16.0425 14.4188 15.5512 14.7512 15.0426 14.6523C14.5346 14.5538 14.2027 14.062 14.3012 13.5538ZM23.9871 2.24323V2.28058C23.9878 3.59125 23.5769 4.73621 22.7656 5.68286C22.341 6.17834 21.8096 6.61304 21.1794 6.98199L21.6769 11.8658C21.7915 12.9921 21.398 14.0969 20.5969 14.8973C20.5954 14.8987 20.594 14.9002 20.5923 14.9017L16.0183 19.4086C15.6498 19.7719 15.0563 19.7675 14.6932 19.3989C14.3299 19.0303 14.3343 18.4369 14.7029 18.0738L19.2741 13.5696C19.6733 13.1697 19.8696 12.618 19.8121 12.0557L19.376 7.77228C17.977 8.21997 16.7777 8.28845 16.7176 8.29175C16.701 8.29266 16.6843 8.29303 16.6676 8.29303C16.1727 8.29303 15.7591 7.90521 15.7327 7.40515C15.7056 6.88879 16.1018 6.44806 16.618 6.42023C16.6471 6.41858 17.8825 6.34113 19.1808 5.85736L19.0879 4.94604L11.9582 4.2215C11.3948 4.16455 10.8423 4.36121 10.4422 4.76184L2.41874 12.759C1.69108 13.4877 1.69144 14.6759 2.42094 15.4059L8.57493 21.5651C9.31248 22.3033 10.5014 22.3156 11.2252 21.5923C11.5914 21.2265 12.1849 21.2267 12.5505 21.5929C12.9164 21.9589 12.916 22.5524 12.5498 22.918C11.8276 23.6396 10.8775 24 9.9246 24C8.95798 24.0002 7.98826 23.6296 7.24906 22.8898L1.09507 16.7307C-0.363914 15.2704 -0.364464 12.8941 1.09397 11.4333L9.11765 3.43616C9.91599 2.63635 11.0207 2.24231 12.1477 2.35693L16.798 2.82953C18.0858 0.330505 21.5128 0.0159302 21.6662 0.0032959C21.6921 0.00109863 21.7179 0 21.7439 0C22.9808 0 23.9871 1.00635 23.9871 2.24323ZM22.113 2.24323C22.113 2.05115 21.9654 1.89276 21.7777 1.87573C21.4947 1.90887 19.9099 2.13281 18.9508 3.04834L20.0377 3.15875C20.4801 3.2038 20.83 3.55353 20.875 3.99609L20.9622 4.85028C21.7344 4.17828 22.1136 3.32849 22.113 2.28113V2.24323Z" fill="#639CFF"/>
</g>
<defs>
<clipPath id="clip0_2_33">
<rect width="24" height="24" fill="white"/>
</clipPath>
</defs>
</svg>
