<svg width="32" height="32" viewBox="0 0 32 32" fill="none" xmlns="http://www.w3.org/2000/svg">
<path d="M26.1804 20.75V6.9375C26.1804 5.55908 25.0591 4.4375 23.6804 4.4375H15.8125V13.375C15.8125 15.4429 14.1304 17.125 12.0625 17.125C9.99463 17.125 8.3125 15.4429 8.3125 13.375V8C8.3125 7.30957 8.87207 6.75 9.5625 6.75C10.2529 6.75 10.8125 7.30957 10.8125 8V13.375C10.8125 14.0642 11.3733 14.625 12.0625 14.625C12.7517 14.625 13.3125 14.0642 13.3125 13.375V3.75C13.3125 3.06079 12.7517 2.5 12.0625 2.5C11.4856 2.5 10.9731 2.90698 10.8442 3.46753C10.7041 4.07764 10.1389 4.47852 9.5332 4.43262C9.50171 4.43506 9.46997 4.4375 9.4375 4.4375H8.3125C6.93408 4.4375 5.8125 5.55908 5.8125 6.9375V27C5.8125 28.3784 6.93408 29.5 8.3125 29.5H23.6807C25.0591 29.5 26.1807 28.3784 26.1807 27C26.1807 26.3096 26.7402 25.75 27.4307 25.75C28.1208 25.75 28.6807 26.3096 28.6807 27C28.6807 29.7571 26.4375 32 23.6807 32H8.3125C5.55542 32 3.3125 29.7571 3.3125 27V6.9375C3.3125 4.18042 5.55542 1.9375 8.3125 1.9375H8.77686C9.4209 0.760986 10.6602 0 12.0625 0C13.4731 0 14.7039 0.783203 15.344 1.9375H23.6804C26.4375 1.9375 28.6804 4.18042 28.6804 6.9375V20.75C28.6804 21.4404 28.1208 22 27.4304 22C26.7402 22 26.1804 21.4404 26.1804 20.75V20.75ZM9.5625 24.5C8.87207 24.5 8.3125 25.0596 8.3125 25.75C8.3125 26.4404 8.87207 27 9.5625 27H18.625C19.3154 27 19.875 26.4404 19.875 25.75C19.875 25.0596 19.3154 24.5 18.625 24.5H9.5625ZM23.625 20.8125C23.625 20.1221 23.0654 19.5625 22.375 19.5625H9.5625C8.87207 19.5625 8.3125 20.1221 8.3125 20.8125C8.3125 21.5029 8.87207 22.0625 9.5625 22.0625H22.375C23.0654 22.0625 23.625 21.5029 23.625 20.8125ZM22.375 14.6875H19.5C18.8096 14.6875 18.25 15.2471 18.25 15.9375C18.25 16.6279 18.8096 17.1875 19.5 17.1875H22.375C23.0654 17.1875 23.625 16.6279 23.625 15.9375C23.625 15.2471 23.0654 14.6875 22.375 14.6875ZM22.375 9.75H19.5C18.8096 9.75 18.25 10.3096 18.25 11C18.25 11.6904 18.8096 12.25 19.5 12.25H22.375C23.0654 12.25 23.625 11.6904 23.625 11C23.625 10.3096 23.0654 9.75 22.375 9.75Z" fill="white"/>
</svg>
