<svg width="32" height="32" viewBox="0 0 32 32" fill="none" xmlns="http://www.w3.org/2000/svg">
<g clip-path="url(#clip0_128_1038)">
<path d="M22.441 23.3124H18.7535C18.0631 23.3124 17.5035 23.872 17.5035 24.5624C17.5035 25.2528 18.0631 25.8124 18.7535 25.8124H22.441C23.1314 25.8124 23.691 25.2528 23.691 24.5624C23.691 23.872 23.1314 23.3124 22.441 23.3124Z" fill="white"/>
<path d="M22.441 15.7499H18.7535C18.0631 15.7499 17.5035 16.3095 17.5035 16.9999C17.5035 17.6903 18.0631 18.2499 18.7535 18.2499H22.441C23.1314 18.2499 23.691 17.6903 23.691 16.9999C23.691 16.3095 23.1314 15.7499 22.441 15.7499Z" fill="white"/>
<path d="M27.434 21.9999C28.1244 21.9999 28.684 21.4403 28.684 20.7499V4.99988C28.684 2.24288 26.441 -0.00012207 23.684 -0.00012207H8.31598C5.55898 -0.00012207 3.31598 2.24288 3.31598 4.99988V26.9999C3.31598 29.7569 5.55898 31.9999 8.31598 31.9999H23.684C26.441 31.9999 28.684 29.7569 28.684 26.9999C28.684 26.3095 28.1244 25.7499 27.434 25.7499C26.7437 25.7499 26.184 26.3095 26.184 26.9999C26.184 28.3784 25.0625 29.4999 23.684 29.4999H8.31598C6.93748 29.4999 5.81598 28.3784 5.81598 26.9999V4.99988C5.81598 3.62138 6.93748 2.49988 8.31598 2.49988H23.684C25.0625 2.49988 26.184 3.62138 26.184 4.99988V20.7499C26.184 21.4403 26.7437 21.9999 27.434 21.9999Z" fill="white"/>
<path d="M15.9871 4.97386C15.455 4.53423 14.667 4.60911 14.2273 5.14136L11.527 8.40967L10.4615 7.31548C9.97995 6.82092 9.18851 6.81036 8.69388 7.29198C8.19932 7.77361 8.18876 8.56498 8.67038 9.05961L10.0113 10.4367C10.0223 10.448 10.0336 10.4592 10.0451 10.4701C10.4503 10.8558 10.9911 11.0703 11.5474 11.0703C11.5951 11.0702 11.6432 11.0686 11.6912 11.0654C12.294 11.0252 12.857 10.7334 13.2374 10.2645L16.1546 6.73367C16.5943 6.20142 16.5193 5.41354 15.9871 4.97386Z" fill="white"/>
<path d="M15.9872 20.216C15.455 19.7764 14.6671 19.8513 14.2274 20.3835L11.5263 23.6527L10.4592 22.5628C9.97609 22.0696 9.18471 22.0613 8.69146 22.5443C8.19821 23.0273 8.18996 23.8188 8.6729 24.312L10.0138 25.6813C10.024 25.6918 10.0345 25.7021 10.0451 25.7122C10.4503 26.0979 10.9912 26.3124 11.5475 26.3124C11.5953 26.3123 11.6433 26.3108 11.6913 26.3076C12.294 26.2674 12.857 25.9756 13.2375 25.5067L16.1547 21.9758C16.5944 21.4436 16.5194 20.6557 15.9872 20.216Z" fill="white"/>
<path d="M22.441 8.06238H18.7535C18.0631 8.06238 17.5035 8.622 17.5035 9.31238C17.5035 10.0028 18.0631 10.5624 18.7535 10.5624H22.441C23.1314 10.5624 23.691 10.0028 23.691 9.31238C23.691 8.622 23.1314 8.06238 22.441 8.06238Z" fill="white"/>
<path d="M15.9872 12.6535C15.455 12.2139 14.6671 12.2889 14.2274 12.821L11.5263 16.0902L10.4592 15.0004C9.97609 14.5071 9.18471 14.4989 8.69146 14.9819C8.19821 15.4649 8.18996 16.2563 8.6729 16.7495L10.0138 18.1189C10.024 18.1293 10.0345 18.1396 10.0451 18.1497C10.4503 18.5354 10.9912 18.75 11.5475 18.75C11.5953 18.7498 11.6433 18.7483 11.6913 18.7451C12.294 18.7049 12.857 18.4132 13.2375 17.9442L16.1547 14.4134C16.5944 13.8811 16.5194 13.0932 15.9872 12.6535Z" fill="white"/>
</g>
<defs>
<clipPath id="clip0_128_1038">
<rect width="32" height="32" fill="white" transform="translate(0 -0.00012207)"/>
</clipPath>
</defs>
</svg>
