<svg width="24" height="24" viewBox="0 0 24 24" fill="none" xmlns="http://www.w3.org/2000/svg">
<path d="M19.7112 4.61877C19.5387 4.43829 19.3042 4.33689 19.0597 4.33689C18.8151 4.33689 18.581 4.43829 18.4085 4.61877L12.1522 11.1422L5.57297 4.28135C5.21323 3.90622 4.62977 3.90622 4.27031 4.28135C3.91057 4.65679 3.91057 5.26492 4.27031 5.64036L10.8496 12.5012L4.27031 19.3617C4.09724 19.5416 4 19.7864 4 20.0414C4 20.2961 4.09724 20.5403 4.27031 20.7208C4.44367 20.9024 4.68041 21.0032 4.92613 20.9999C5.17126 20.9987 5.40656 20.8988 5.58252 20.7208L12.1618 13.8599L18.4175 20.3833C18.5908 20.5653 18.8276 20.6661 19.0736 20.6628C19.3187 20.6616 19.554 20.5614 19.7297 20.3833C19.9028 20.2032 20 19.9587 20 19.704C20 19.4493 19.9028 19.2045 19.7297 19.0246L13.4737 12.5012L19.7297 5.97748C20.0758 5.59328 20.0674 4.9924 19.7112 4.61877Z" fill="#639CFF"/>
</svg>
