<svg width="16" height="16" viewBox="0 0 16 16" fill="none" xmlns="http://www.w3.org/2000/svg">
<path d="M12.1125 2.05873C12.1125 1.18674 11.4057 0.47998 10.5337 0.47998H5.06632C4.19433 0.47998 3.48746 1.18674 3.48746 2.05873V13.9012C3.48746 14.7732 4.19433 15.48 5.06632 15.48H10.5337C11.4057 15.48 12.1125 14.7732 12.1125 13.9012V2.05873ZM4.23746 3.21748H11.3625V11.955H4.23746V3.21748ZM5.05871 1.22998H10.5413C10.9982 1.22998 11.3625 1.61084 11.3625 2.06787V2.46748H4.23746V2.06787C4.23746 1.61084 4.60179 1.22998 5.05871 1.22998ZM10.5413 14.73H5.05871C4.60824 14.7333 4.24062 14.3705 4.23746 13.92V12.705H11.3625V13.9104C11.3647 14.3609 11.0014 14.7278 10.5509 14.73H10.5413Z" fill="#102752"/>
<path d="M8.5339 13.3423H7.06613C6.85894 13.3423 6.69113 13.5101 6.69113 13.7173C6.69113 13.9245 6.85894 14.0923 7.06613 14.0923H8.5339C8.74097 14.0923 8.9089 13.9245 8.9089 13.7173C8.9089 13.5101 8.74097 13.3423 8.5339 13.3423Z" fill="#102752"/>
</svg>
