<svg width="32" height="32" viewBox="0 0 32 32" fill="none" xmlns="http://www.w3.org/2000/svg">
<path d="M23.7239 9.27793H21.7239V5.04493C21.7239 4.48293 21.2759 4.02393 20.7239 4.02393H11.2769C10.7249 4.02393 10.2769 4.48193 10.2769 5.04493V9.27793H8.27686V5.04493C8.27686 3.37993 9.62286 2.02393 11.2769 2.02393H20.7239C22.3779 2.02393 23.7239 3.37893 23.7239 5.04493V9.27793Z" fill="white"/>
<path d="M28 9.95996C29.103 9.95996 30 10.857 30 11.96V26.975C30 28.078 29.103 28.975 28 28.975H4C2.897 28.975 2 28.078 2 26.975V11.96C2 10.857 2.897 9.95996 4 9.95996H28ZM28 7.95996H4C1.8 7.95996 0 9.75996 0 11.96V26.975C0 29.175 1.8 30.975 4 30.975H28C30.2 30.975 32 29.175 32 26.975V11.96C32 9.75996 30.2 7.95996 28 7.95996Z" fill="white"/>
<path d="M31.126 14.6609H1.12598V16.6609H31.126V14.6609Z" fill="white"/>
<path d="M17.126 12.8489H15.126V18.4739H17.126V12.8489Z" fill="white"/>
</svg>
