<svg width="48" height="48" viewBox="0 0 48 48" fill="none" xmlns="http://www.w3.org/2000/svg">
<g clip-path="url(#clip0_128_1185)">
<path d="M37.9687 24.0941C34.8671 24.0941 32.3437 26.6175 32.3437 29.7191C32.3437 32.8207 34.8671 35.3441 37.9687 35.3441H45.9374C45.9692 35.3441 46.0002 35.3409 46.0316 35.3393C46.0628 35.3408 46.0934 35.344 46.1249 35.344C47.1605 35.344 47.9999 34.5046 47.9999 33.469V18.7503C47.9999 16.2541 46.773 14.0402 44.8916 12.6762L38.5129 2.21187C38.2528 1.78512 37.8331 1.47987 37.3469 1.364C36.8607 1.24793 36.3485 1.3309 35.9237 1.59434L31.2196 4.51146L29.0983 0.921404C28.8432 0.48978 28.426 0.178343 27.9397 0.056468C27.4535 -0.0654067 26.9385 0.0126869 26.5102 0.272936L8.4477 11.2503H5.62499C4.60677 11.2503 3.77549 10.4345 3.75056 9.42217C3.77549 8.40986 4.60677 7.59405 5.62499 7.59405H9.09373C10.1293 7.59405 10.9687 6.75461 10.9687 5.71905C10.9687 4.68349 10.1293 3.84405 9.09373 3.84405H5.62499C2.97206 3.84405 0.742405 5.69036 0.152812 8.16545C0.0547499 8.39289 0 8.6432 0 8.90654V9.37529V9.46904V40.5002C0 44.6357 3.36449 48.0002 7.49999 48.0002H40.4999C43.7334 48.0002 46.593 45.9404 47.6156 42.8748C47.9434 41.8925 47.4127 40.8305 46.4303 40.5029C45.4481 40.1752 44.386 40.7058 44.0584 41.6881C43.5472 43.2206 42.1172 44.2502 40.4999 44.2502H7.49999C5.43224 44.2502 3.74999 42.568 3.74999 40.5002V14.6786C4.33677 14.8868 4.9678 15.0003 5.62499 15.0003H40.4999C42.5677 15.0003 44.2499 16.6825 44.2499 18.7503V24.0941H37.9687ZM44.2499 31.594H37.9687C36.9348 31.5941 36.0937 30.753 36.0937 29.719C36.0937 28.6851 36.9348 27.844 37.9687 27.844H44.2499V31.594ZM15.6682 11.2504L26.8356 4.46355L28.8322 7.84239C28.8705 7.93473 28.9146 8.02577 28.969 8.11352C29.0098 8.17923 29.0549 8.24045 29.1021 8.29933L30.8458 11.2504H15.6682ZM35.2016 11.2503L33.1278 7.74067L36.2943 5.77708L39.6307 11.2503H35.2016Z" fill="#639CFF"/>
</g>
<defs>
<clipPath id="clip0_128_1185">
<rect width="48" height="48" fill="white"/>
</clipPath>
</defs>
</svg>
