<svg width="32" height="32" viewBox="0 0 32 32" fill="none" xmlns="http://www.w3.org/2000/svg">
<path d="M8.5 0C6.43225 0 4.75 1.68225 4.75 3.75C4.75 5.81775 6.43225 7.5 8.5 7.5C10.5677 7.5 12.25 5.81775 12.25 3.75C12.25 1.68225 10.5677 0 8.5 0ZM8.5 5C7.81075 5 7.25 4.43925 7.25 3.75C7.25 3.06075 7.81075 2.5 8.5 2.5C9.18925 2.5 9.75 3.06075 9.75 3.75C9.75 4.43925 9.18925 5 8.5 5Z" fill="white"/>
<path d="M30.75 22C31.4404 22 32 21.4404 32 20.75V16.125C32 15.4346 31.4404 14.875 30.75 14.875H19.1389C19.6387 14.7114 20 14.2419 20 13.6875C20 12.9971 19.4404 12.4375 18.75 12.4375H14.0502L9.51219 8.94669C9.29363 8.77863 9.02569 8.6875 8.75 8.6875C6.68225 8.6875 5 10.3698 5 12.4375V19.8125C5 20.2507 5.07625 20.6712 5.215 21.0625H2.5V12C2.5 11.3096 1.94037 10.75 1.25 10.75C0.559625 10.75 0 11.3096 0 12V30.75C0 31.4404 0.559625 32 1.25 32C1.94037 32 2.5 31.4404 2.5 30.75V23.5625H8C8.68925 23.5625 9.25 24.1233 9.25 24.8125V30.75C9.25 31.4404 9.80963 32 10.5 32C11.1904 32 11.75 31.4404 11.75 30.75V24.8125C11.75 24.3743 11.6737 23.9538 11.535 23.5625H14.0422C14.1351 23.5625 14.2254 23.5516 14.3125 23.5324V27C14.3125 29.757 16.5555 32 19.3125 32H27C29.757 32 32 29.757 32 27C32 26.3096 31.4404 25.75 30.75 25.75C30.0596 25.75 29.5 26.3096 29.5 27C29.5 28.3785 28.3785 29.5 27 29.5H19.3125C17.934 29.5 16.8125 28.3785 16.8125 27V17.375H29.5V20.75C29.5 21.4404 30.0596 22 30.75 22ZM14.3125 16.125V21.0926C14.2254 21.0734 14.1351 21.0625 14.0422 21.0625H8.75C8.06075 21.0625 7.5 20.5017 7.5 19.8125V12.4375C7.5 11.8724 7.87694 11.3937 8.3925 11.2396L12.8628 14.6783C13.0814 14.8464 13.3493 14.9375 13.625 14.9375H15.1736C14.6738 15.1011 14.3125 15.5706 14.3125 16.125Z" fill="white"/>
</svg>
