<svg width="24" height="24" viewBox="0 0 24 24" fill="none" xmlns="http://www.w3.org/2000/svg">
<path d="M12.0063 0.752474C7.45577 0.751655 3.35296 3.49265 1.61156 7.69691C-0.129506 11.9013 0.833547 16.7405 4.0523 19.9573C8.44537 24.3504 15.5676 24.3504 19.9605 19.9573C24.3534 15.5646 24.3534 8.44231 19.9605 4.04924C17.8556 1.93236 14.9915 0.745263 12.0063 0.752474ZM12.0063 22.2076C6.38094 22.2076 1.80217 17.6287 1.80217 12.0033C1.80217 6.37788 6.38094 1.79911 12.0063 1.79911C17.6317 1.79911 22.2107 6.37788 22.2107 12.0033C22.2107 17.6287 17.6317 22.2076 12.0063 22.2076Z" fill="#639CFF"/>
<path d="M17.3544 8.54408L10.5988 15.0014L6.91476 11.3226C6.71104 11.1189 6.38079 11.1189 6.1769 11.3226C5.97318 11.5265 5.97318 11.8568 6.1769 12.0606L10.222 16.1058C10.3202 16.2044 10.4543 16.2592 10.5936 16.2574C10.7286 16.2587 10.8586 16.2059 10.9546 16.1108L18.0766 9.30292C18.2831 9.10281 18.2898 8.7737 18.0918 8.56539C17.8935 8.35724 17.5646 8.34774 17.3544 8.54408Z" fill="#639CFF"/>
</svg>
