<svg width="16" height="16" viewBox="0 0 16 16" fill="none" xmlns="http://www.w3.org/2000/svg">
<path d="M13.7 2.72656H2.27143C1.28538 2.7269 0.486164 3.52623 0.485718 4.51228V11.18C0.486164 12.1661 1.28538 12.9655 2.27143 12.9657H13.7C14.6861 12.9655 15.4853 12.1661 15.4857 11.18V4.51228C15.4853 3.52623 14.6861 2.7269 13.7 2.72656ZM2.27143 3.44085H13.7C14.2144 3.44219 14.6558 3.80725 14.7536 4.31217L7.98572 8.0837L1.21786 4.31217C1.31563 3.80725 1.75703 3.44219 2.27143 3.44085ZM13.7 12.248H2.27143C1.68047 12.2462 1.20168 11.7675 1.2 11.1766V5.11942L7.81072 8.80502C7.86429 8.83449 7.92445 8.85056 7.98572 8.85156C8.04721 8.85223 8.10759 8.83616 8.16072 8.80502L14.7714 5.11942V11.1766C14.771 11.7681 14.2915 12.2474 13.7 12.248Z" fill="#102752"/>
</svg>
