<svg width="16" height="16" viewBox="0 0 16 16" fill="none" xmlns="http://www.w3.org/2000/svg">
<path d="M1.86206 1.86557V15.7253C1.86206 15.8725 1.9814 15.9918 2.12862 15.9918H12.2569C12.404 15.9918 12.5233 15.8725 12.5233 15.7253V4.53097C12.5233 4.52505 12.5205 4.52 12.5199 4.51418C12.5186 4.49079 12.514 4.46774 12.5063 4.44567C12.5034 4.43711 12.5013 4.42887 12.4975 4.42053C12.4846 4.39155 12.4666 4.36509 12.4442 4.34247L9.77889 1.67718C9.75627 1.65467 9.7297 1.63667 9.7005 1.62382C9.69248 1.62042 9.68436 1.61757 9.67602 1.61504C9.65373 1.60736 9.63056 1.60274 9.60696 1.60121C9.60246 1.60198 9.59719 1.59912 9.59159 1.59912H2.12862C1.9814 1.59912 1.86206 1.71835 1.86206 1.86557ZM11.6134 4.26441H9.85804V2.50903L11.6134 4.26441ZM2.39507 2.13214H9.32503V4.53097C9.32503 4.67809 9.44437 4.79743 9.59148 4.79743H11.9903V15.4588H2.39507V2.13214Z" fill="#102752"/>
<path d="M13.0564 13.8597V14.3927H13.856C14.0032 14.3927 14.1226 14.2735 14.1226 14.1262V0.266562C14.1226 0.119338 14.0032 0 13.856 0H3.72774C3.58052 0 3.46118 0.119338 3.46118 0.266562V1.06614H3.99431V0.533014H13.5894V13.8597H13.0564Z" fill="#102752"/>
<path d="M3.99426 5.33057H10.391V5.86359H3.99426V5.33057Z" fill="#102752"/>
<path d="M3.99426 3.73145H6.12654V4.26457H3.99426V3.73145Z" fill="#102752"/>
<path d="M3.99426 6.92969H8.25882V7.46281H3.99426V6.92969Z" fill="#102752"/>
<path d="M8.79187 6.92969H10.391V7.46281H8.79187V6.92969Z" fill="#102752"/>
<path d="M3.99426 8.5293H10.391V9.06242H3.99426V8.5293Z" fill="#102752"/>
<path d="M3.99426 11.7275H10.391V12.2607H3.99426V11.7275Z" fill="#102752"/>
<path d="M6.39307 10.1284H10.3911V10.6614H6.39307V10.1284Z" fill="#102752"/>
<path d="M3.99426 10.1284H5.85998V10.6614H3.99426V10.1284Z" fill="#102752"/>
<path d="M3.99426 13.3267H5.0604V13.8597H3.99426V13.3267Z" fill="#102752"/>
<path d="M5.59344 13.3267H10.391V13.8597H5.59344V13.3267Z" fill="#102752"/>
</svg>
