<svg width="24" height="22" viewBox="0 0 24 22" fill="none" xmlns="http://www.w3.org/2000/svg">
<path d="M21.6774 0.161133H2.32258C1.04516 0.161133 0 1.20629 0 2.48371C0 3.76113 1.04516 4.80629 2.32258 4.80629H21.6774C22.9548 4.80629 24 3.76113 24 2.48371C24 1.20629 22.9548 0.161133 21.6774 0.161133Z" fill="white"/>
<path d="M21.6774 8.67725H2.32258C1.04516 8.67725 0 9.72241 0 10.9998C0 12.2772 1.04516 13.3224 2.32258 13.3224H21.6774C22.9548 13.3224 24 12.2772 24 10.9998C24 9.72241 22.9548 8.67725 21.6774 8.67725Z" fill="white"/>
<path d="M21.6774 17.1934H2.32258C1.04516 17.1934 0 18.2385 0 19.5159C0 20.7934 1.04516 21.8385 2.32258 21.8385H21.6774C22.9548 21.8385 24 20.7934 24 19.5159C24 18.2385 22.9548 17.1934 21.6774 17.1934Z" fill="white"/>
</svg>
