<svg width="26" height="32" viewBox="0 0 26 32" fill="none" xmlns="http://www.w3.org/2000/svg">
<path d="M23.1804 20.7502V6.93774C23.1804 5.55933 22.0591 4.43774 20.6804 4.43774H12.8125V13.3752C12.8125 15.4431 11.1304 17.1252 9.0625 17.1252C6.99463 17.1252 5.3125 15.4431 5.3125 13.3752V8.00024C5.3125 7.30981 5.87207 6.75024 6.5625 6.75024C7.25293 6.75024 7.8125 7.30981 7.8125 8.00024V13.3752C7.8125 14.0645 8.37329 14.6252 9.0625 14.6252C9.75171 14.6252 10.3125 14.0645 10.3125 13.3752V3.75024C10.3125 3.06104 9.75171 2.50024 9.0625 2.50024C8.4856 2.50024 7.97314 2.90723 7.84424 3.46777C7.7041 4.07788 7.13892 4.47876 6.5332 4.43286C6.50171 4.4353 6.46997 4.43774 6.4375 4.43774H5.3125C3.93408 4.43774 2.8125 5.55933 2.8125 6.93774V27.0002C2.8125 28.3787 3.93408 29.5002 5.3125 29.5002H20.6807C22.0591 29.5002 23.1807 28.3787 23.1807 27.0002C23.1807 26.3098 23.7402 25.7502 24.4307 25.7502C25.1208 25.7502 25.6807 26.3098 25.6807 27.0002C25.6807 29.7573 23.4375 32.0002 20.6807 32.0002H5.3125C2.55542 32.0002 0.3125 29.7573 0.3125 27.0002V6.93774C0.3125 4.18066 2.55542 1.93774 5.3125 1.93774H5.77686C6.4209 0.76123 7.66016 0.000244141 9.0625 0.000244141C10.4731 0.000244141 11.7039 0.783447 12.344 1.93774H20.6804C23.4375 1.93774 25.6804 4.18066 25.6804 6.93774V20.7502C25.6804 21.4407 25.1208 22.0002 24.4304 22.0002C23.7402 22.0002 23.1804 21.4407 23.1804 20.7502ZM6.5625 24.5002C5.87207 24.5002 5.3125 25.0598 5.3125 25.7502C5.3125 26.4407 5.87207 27.0002 6.5625 27.0002H15.625C16.3154 27.0002 16.875 26.4407 16.875 25.7502C16.875 25.0598 16.3154 24.5002 15.625 24.5002H6.5625ZM20.625 20.8127C20.625 20.1223 20.0654 19.5627 19.375 19.5627H6.5625C5.87207 19.5627 5.3125 20.1223 5.3125 20.8127C5.3125 21.5032 5.87207 22.0627 6.5625 22.0627H19.375C20.0654 22.0627 20.625 21.5032 20.625 20.8127ZM19.375 14.6877H16.5C15.8096 14.6877 15.25 15.2473 15.25 15.9377C15.25 16.6282 15.8096 17.1877 16.5 17.1877H19.375C20.0654 17.1877 20.625 16.6282 20.625 15.9377C20.625 15.2473 20.0654 14.6877 19.375 14.6877ZM19.375 9.75024H16.5C15.8096 9.75024 15.25 10.3098 15.25 11.0002C15.25 11.6907 15.8096 12.2502 16.5 12.2502H19.375C20.0654 12.2502 20.625 11.6907 20.625 11.0002C20.625 10.3098 20.0654 9.75024 19.375 9.75024Z" fill="white"/>
</svg>
