<svg width="32" height="32" viewBox="0 0 32 32" fill="none" xmlns="http://www.w3.org/2000/svg">
<g clip-path="url(#clip0_128_1056)">
<path d="M28.2188 16.9998C28.9091 16.9998 29.4688 16.4401 29.4688 15.7498V1.24976C29.4688 0.559381 28.9091 -0.000244141 28.2188 -0.000244141H6.28125C4.2135 -0.000244141 2.53125 1.68201 2.53125 3.74976V28.2498C2.53125 30.3175 4.2135 31.9998 6.28125 31.9998H28.2188C28.9091 31.9998 29.4688 31.4401 29.4688 30.7498C29.4688 30.0594 28.9091 29.4998 28.2188 29.4998H6.28125C5.592 29.4998 5.03125 28.939 5.03125 28.2498C5.03125 27.5605 5.592 26.9998 6.28125 26.9998H28.2188C28.9091 26.9998 29.4688 26.4401 29.4688 25.7498V21.9998C29.4688 21.3094 28.9091 20.7498 28.2188 20.7498C27.5284 20.7498 26.9688 21.3094 26.9688 21.9998V24.4998H10.0312V17.3105C10.0312 16.6201 9.47162 16.0605 8.78125 16.0605C8.09088 16.0605 7.53125 16.6201 7.53125 17.3105V24.4998H6.28125C5.84306 24.4998 5.4225 24.576 5.03125 24.7148V3.74976C5.03125 3.06051 5.592 2.49976 6.28125 2.49976H7.53125V12.3748C7.53125 12.8496 7.80038 13.2836 8.22581 13.4946C8.65125 13.7056 9.1595 13.6573 9.53763 13.3699L11.9062 11.5698L14.2749 13.3699C14.4966 13.5384 14.7631 13.6248 15.0314 13.6248C15.2206 13.6248 15.4107 13.5818 15.5867 13.4946C16.0121 13.2836 16.2812 12.8496 16.2812 12.3748V2.49976H26.9688V15.7498C26.9688 16.4401 27.5284 16.9998 28.2188 16.9998ZM13.7812 9.85476L12.6626 9.00457C12.2156 8.66482 11.5969 8.66482 11.1499 9.00457L10.0312 9.85476V2.49976H13.7812V9.85476Z" fill="white"/>
</g>
<defs>
<clipPath id="clip0_128_1056">
<rect width="32" height="32" fill="white" transform="translate(0 -0.000244141)"/>
</clipPath>
</defs>
</svg>
