<svg width="10" height="16" viewBox="0 0 10 16" fill="none" xmlns="http://www.w3.org/2000/svg">
<path d="M9.11246 2.05873C9.11246 1.18674 8.4057 0.47998 7.53371 0.47998H2.06632C1.19433 0.47998 0.487457 1.18674 0.487457 2.05873V13.9012C0.487457 14.7732 1.19433 15.48 2.06632 15.48H7.53371C8.4057 15.48 9.11246 14.7732 9.11246 13.9012V2.05873ZM1.23746 3.21748H8.36246V11.955H1.23746V3.21748ZM2.05871 1.22998H7.54132C7.99824 1.22998 8.36246 1.61084 8.36246 2.06787V2.46748H1.23746V2.06787C1.23746 1.61084 1.60179 1.22998 2.05871 1.22998ZM7.54132 14.73H2.05871C1.60824 14.7333 1.24062 14.3705 1.23746 13.92V12.705H8.36246V13.9104C8.36468 14.3609 8.0014 14.7278 7.55093 14.73H7.54132Z" fill="white"/>
</svg>
