<svg width="32" height="32" viewBox="0 0 32 32" fill="none" xmlns="http://www.w3.org/2000/svg">
<circle cx="16" cy="16" r="16" fill="#179BD7"/>
<g clip-path="url(#clip0_128_739)">
<path d="M21.9115 16.8414C21.9475 16.576 21.9675 16.3067 21.9675 16.032C21.9675 12.7361 19.2808 10.0641 15.9675 10.0641C15.6381 10.0641 15.3155 10.0907 15.0008 10.1427C14.4381 9.77473 13.7675 9.56006 13.0461 9.56006C11.0675 9.56006 9.46614 11.1641 9.46614 13.1414C9.46614 13.8614 9.67814 14.5294 10.0421 15.0907C9.99281 15.3974 9.96747 15.7121 9.96747 16.032C9.96747 19.3294 12.6528 22.0014 15.9675 22.0014C16.3421 22.0014 16.7061 21.9654 17.0595 21.9014C17.6088 22.2427 18.2568 22.4414 18.9515 22.4414C20.9301 22.44 22.5328 20.836 22.5328 18.8587C22.5328 18.1107 22.3035 17.416 21.9115 16.8414ZM16.5288 20.4307C14.6221 20.5307 13.7301 20.108 12.9128 19.3414C11.9995 18.4854 12.3661 17.508 13.1101 17.4574C13.8528 17.408 14.2995 18.3 14.6968 18.548C15.0928 18.7947 16.6008 19.3587 17.3968 18.448C18.2635 17.4574 16.8208 16.944 15.7621 16.7894C14.2515 16.5654 12.3435 15.7481 12.4915 14.1374C12.6395 12.5281 13.8595 11.7027 15.1421 11.5867C16.7768 11.4387 17.8421 11.8347 18.6835 12.5534C19.6568 13.3841 19.1301 14.3121 18.5101 14.3867C17.8928 14.4614 17.1981 13.0214 15.8355 13.0001C14.4315 12.9774 13.4821 14.4614 15.2155 14.8827C16.9501 15.3041 18.8075 15.4774 19.4768 17.0627C20.1461 18.6467 18.4368 20.3307 16.5288 20.4307Z" fill="white"/>
</g>
<defs>
<clipPath id="clip0_128_739">
<rect width="13.3333" height="13.3333" fill="white" transform="translate(9.33333 9.3335)"/>
</clipPath>
</defs>
</svg>
