<svg width="32" height="32" viewBox="0 0 32 32" fill="none" xmlns="http://www.w3.org/2000/svg">
<path d="M29.0374 23.2347C28.9631 23.2346 28.8901 23.2153 28.8254 23.1788C28.7607 23.1422 28.7065 23.0896 28.668 23.0261C28.6295 22.9625 28.6081 22.8901 28.6058 22.8158C28.6035 22.7415 28.6203 22.6679 28.6547 22.602C29.6436 20.6885 30.1905 18.5775 30.2551 16.4245C30.3197 14.2716 29.9003 12.1316 29.0279 10.1622C28.9811 10.0575 28.9778 9.93852 29.0188 9.83139C29.0597 9.72426 29.1416 9.63779 29.2463 9.591C29.351 9.54421 29.47 9.54093 29.5771 9.58188C29.6843 9.62283 29.7707 9.70467 29.8175 9.80938C30.743 11.8981 31.1877 14.1679 31.1191 16.4514C31.0505 18.7349 30.4702 20.9739 29.421 23.0033C29.3843 23.0732 29.3291 23.1318 29.2615 23.1725C29.1939 23.2133 29.1164 23.2348 29.0374 23.2347Z" fill="white"/>
<path d="M22.8631 29.4357C22.7663 29.4357 22.6724 29.4033 22.5962 29.3437C22.5201 29.284 22.4661 29.2005 22.443 29.1066C22.4199 29.0126 22.429 28.9137 22.4688 28.8255C22.5085 28.7373 22.5767 28.665 22.6624 28.6201C23.0382 28.4234 23.3976 28.215 23.7254 28.0005C23.8215 27.9379 23.9386 27.9161 24.0508 27.9399C24.1631 27.9636 24.2613 28.031 24.3238 28.1272C24.3864 28.2233 24.4082 28.3404 24.3844 28.4527C24.3607 28.5649 24.2933 28.6631 24.1971 28.7257C23.8447 28.9548 23.462 29.1771 23.0629 29.3864C23.0012 29.4187 22.9327 29.4356 22.8631 29.4357Z" fill="white"/>
<path d="M16.0108 31.1321C11.994 31.1333 8.14107 29.5397 5.29863 26.7014C5.21986 26.6199 5.17628 26.5107 5.17726 26.3973C5.17825 26.2839 5.22373 26.1754 5.3039 26.0952C5.38408 26.0151 5.49254 25.9696 5.60592 25.9686C5.7193 25.9676 5.82854 26.0112 5.91009 26.09C7.70349 27.8801 9.9406 29.1613 12.3922 29.8022C14.8437 30.443 17.4216 30.4206 19.8617 29.7371C19.9721 29.7062 20.0903 29.7203 20.1903 29.7765C20.2903 29.8327 20.3639 29.9263 20.3948 30.0368C20.4258 30.1472 20.4116 30.2655 20.3554 30.3655C20.2992 30.4654 20.2056 30.539 20.0952 30.57C18.7658 30.943 17.3916 31.1322 16.0108 31.1321Z" fill="white"/>
<path d="M26.3265 26.893C26.2375 26.893 26.1507 26.8655 26.0779 26.8144C26.0051 26.7632 25.9499 26.6909 25.9197 26.6072C25.8895 26.5235 25.8859 26.4325 25.9093 26.3467C25.9328 26.2609 25.9821 26.1843 26.0506 26.1276C26.0653 26.1155 26.0774 26.1025 26.0899 26.0899C26.3684 25.811 26.6344 25.52 26.8804 25.2251C26.9161 25.1795 26.9605 25.1416 27.011 25.1135C27.0615 25.0854 27.1172 25.0677 27.1747 25.0615C27.2322 25.0553 27.2904 25.0607 27.3458 25.0773C27.4011 25.094 27.4526 25.1216 27.4971 25.1585C27.5417 25.1954 27.5783 25.2409 27.605 25.2922C27.6316 25.3436 27.6477 25.3997 27.6522 25.4574C27.6568 25.515 27.6497 25.573 27.6315 25.6279C27.6132 25.6828 27.5841 25.7334 27.546 25.7769C27.283 26.0934 26.9994 26.4043 26.7018 26.7014C26.6705 26.7337 26.6374 26.7643 26.6028 26.7931C26.5252 26.8576 26.4274 26.893 26.3265 26.893Z" fill="white"/>
<path d="M2.65338 22.6093C2.57082 22.6093 2.48997 22.5857 2.42039 22.5413C2.35081 22.4968 2.29541 22.4334 2.26073 22.3585C0.768362 19.1322 0.458987 15.4836 1.38682 12.0521C2.31465 8.6206 4.4205 5.62507 7.33536 3.59043C10.2502 1.5558 13.7881 0.61185 17.3291 0.924006C20.8701 1.23616 24.1883 2.78451 26.7022 5.29772C26.7424 5.33789 26.7743 5.38559 26.796 5.43809C26.8178 5.49058 26.829 5.54684 26.829 5.60366C26.829 5.66048 26.8178 5.71674 26.796 5.76924C26.7743 5.82173 26.7424 5.86943 26.7022 5.90961C26.6621 5.94979 26.6144 5.98166 26.5619 6.0034C26.5094 6.02514 26.4531 6.03633 26.3963 6.03633C26.3395 6.03633 26.2832 6.02514 26.2307 6.0034C26.1782 5.98166 26.1305 5.94979 26.0904 5.90961C23.72 3.54005 20.5913 2.08023 17.2527 1.78599C13.914 1.49174 10.5782 2.38182 7.82995 4.30026C5.08167 6.21871 3.09619 9.04313 2.22143 12.2786C1.34668 15.5141 1.63844 18.9542 3.0456 21.9961C3.07608 22.062 3.08949 22.1345 3.0846 22.2069C3.07971 22.2793 3.05666 22.3493 3.01759 22.4105C2.97851 22.4717 2.92467 22.522 2.86102 22.5569C2.79737 22.5918 2.72596 22.6101 2.65338 22.6101V22.6093Z" fill="white"/>
<path d="M26.3965 6.03596H23.1701C23.0555 6.03596 22.9455 5.9904 22.8644 5.90931C22.7833 5.82821 22.7377 5.71822 22.7377 5.60353C22.7377 5.48884 22.7833 5.37885 22.8644 5.29775C22.9455 5.21666 23.0555 5.1711 23.1701 5.1711H25.9641V2.37845C25.9641 2.26376 26.0096 2.15377 26.0907 2.07267C26.1718 1.99158 26.2818 1.94602 26.3965 1.94602C26.5112 1.94602 26.6212 1.99158 26.7023 2.07267C26.7834 2.15377 26.829 2.26376 26.829 2.37845V5.60483C26.8286 5.71929 26.7829 5.82895 26.7018 5.90976C26.6208 5.99058 26.511 6.03596 26.3965 6.03596Z" fill="white"/>
<path d="M5.60351 30.054C5.48883 30.054 5.37883 30.0085 5.29774 29.9274C5.21664 29.8463 5.17108 29.7363 5.17108 29.6216V26.3965C5.17108 26.2818 5.21664 26.1718 5.29774 26.0907C5.37883 26.0096 5.48883 25.9641 5.60351 25.9641H8.82989C8.94458 25.9641 9.05457 26.0096 9.13567 26.0907C9.21676 26.1718 9.26233 26.2818 9.26233 26.3965C9.26233 26.5112 9.21676 26.6212 9.13567 26.7023C9.05457 26.7834 8.94458 26.8289 8.82989 26.8289H6.03595V29.6216C6.03595 29.7363 5.99039 29.8463 5.90929 29.9274C5.82819 30.0085 5.7182 30.054 5.60351 30.054Z" fill="white"/>
<path d="M16 25.5135C14.1184 25.5135 12.2791 24.9555 10.7146 23.9102C9.15008 22.8648 7.93071 21.379 7.21066 19.6406C6.4906 17.9023 6.3022 15.9894 6.66928 14.144C7.03637 12.2985 7.94244 10.6034 9.27293 9.27292C10.6034 7.94243 12.2986 7.03635 14.144 6.66927C15.9894 6.30219 17.9023 6.49059 19.6407 7.21065C21.379 7.9307 22.8648 9.15007 23.9102 10.7146C24.9556 12.279 25.5135 14.1184 25.5135 16C25.5107 18.5222 24.5074 20.9404 22.7239 22.7239C20.9404 24.5074 18.5223 25.5106 16 25.5135ZM16 7.35134C14.2895 7.35134 12.6173 7.85857 11.1951 8.8089C9.7728 9.75922 8.66428 11.11 8.00969 12.6903C7.35509 14.2706 7.18382 16.0096 7.51753 17.6873C7.85124 19.3649 8.67495 20.906 9.88448 22.1155C11.094 23.325 12.6351 24.1487 14.3127 24.4825C15.9904 24.8162 17.7294 24.6449 19.3097 23.9903C20.89 23.3357 22.2408 22.2272 23.1911 20.8049C24.1414 19.3827 24.6486 17.7105 24.6486 16C24.646 13.707 23.734 11.5087 22.1126 9.88738C20.4912 8.26601 18.293 7.35397 16 7.35134Z" fill="white"/>
<path d="M17.2635 19.6377C18.0613 19.6377 18.754 19.4052 19.3415 18.9402C19.5605 18.7668 19.8793 18.7578 20.0784 18.9538L20.1738 19.0477C20.3621 19.2331 20.376 19.5361 20.1786 19.7118C19.8585 19.9967 19.4897 20.2238 19.072 20.3933C18.5022 20.6245 17.8787 20.7401 17.2016 20.7401C16.4831 20.7401 15.8183 20.608 15.2072 20.3438C14.5961 20.0712 14.08 19.6914 13.6588 19.2041C13.2377 18.7169 12.9404 18.1512 12.767 17.5071H11.4548C11.3996 17.5071 11.3548 17.4623 11.3548 17.4071V16.9134C11.3548 16.8582 11.3996 16.8134 11.4548 16.8134H12.6431C12.6266 16.5987 12.6183 16.4294 12.6183 16.3056C12.6183 16.1817 12.6266 16.0124 12.6431 15.7977H11.4548C11.3996 15.7977 11.3548 15.7529 11.3548 15.6977V15.204C11.3548 15.1488 11.3996 15.104 11.4548 15.104H12.767C12.9404 14.4599 13.2377 13.8942 13.6588 13.407C14.08 12.9198 14.5961 12.544 15.2072 12.2798C15.8183 12.0072 16.4831 11.871 17.2016 11.871C17.887 11.871 18.5105 11.9866 19.072 12.2178C19.4869 12.3862 19.8536 12.6093 20.1722 12.8871C20.3727 13.062 20.3603 13.3675 20.1707 13.5541L20.0785 13.6449C19.8794 13.8409 19.5605 13.8318 19.3407 13.6592C18.7585 13.202 18.0661 12.9734 17.2635 12.9734C16.512 12.9734 15.8514 13.1675 15.2816 13.5556C14.7117 13.9438 14.3112 14.4599 14.08 15.104H17.9067C17.9619 15.104 18.0067 15.1488 18.0067 15.204V15.7977H13.9066C13.8818 15.9546 13.8694 16.1239 13.8694 16.3056C13.8694 16.479 13.8818 16.6483 13.9066 16.8134H17.9067C17.9619 16.8134 18.0067 16.8582 18.0067 16.9134V17.4071C18.0067 17.4623 17.9619 17.5071 17.9067 17.5071H14.08C14.3112 18.1512 14.7117 18.6674 15.2816 19.0555C15.8514 19.4436 16.512 19.6377 17.2635 19.6377Z" fill="white"/>
</svg>
