<svg width="48" height="48" viewBox="0 0 48 48" fill="none" xmlns="http://www.w3.org/2000/svg">
<path d="M11.25 19.0312H7.54509C8.17097 10.5 15.3118 3.75 24 3.75C30.8751 3.75 37.0961 8.08031 39.4805 14.5255C39.8397 15.4967 40.9182 15.9927 41.8896 15.6336C42.8607 15.2742 43.3568 14.1957 42.9976 13.2245C41.5765 9.38297 39.0519 6.09572 35.6969 3.71803C32.2647 1.28569 28.22 0 24 0C18.5911 0 13.5058 2.10637 9.68109 5.93109C5.90625 9.70594 3.80672 14.7088 3.75253 20.0388C1.51172 21.3372 0 23.7603 0 26.5312V32.9062C0 37.0417 3.3645 40.4062 7.5 40.4062H11.25C12.2856 40.4062 13.125 39.5668 13.125 38.5312V20.9062C13.125 19.8707 12.2856 19.0312 11.25 19.0312ZM9.375 36.6562H7.5C5.43225 36.6562 3.75 34.974 3.75 32.9062V26.5312C3.75 24.4635 5.43225 22.7812 7.5 22.7812H9.375V36.6562Z" fill="#639CFF"/>
<path d="M40.5 19.0312H36.75C35.7144 19.0312 34.875 19.8707 34.875 20.9062V33.75V38.5312V40.5C34.875 41.5339 34.0339 42.375 33 42.375H27.2812V42.4344C26.6417 41.281 25.4123 40.5 24 40.5C21.929 40.5 20.25 42.179 20.25 44.25C20.25 46.321 21.929 48 24 48C25.4123 48 26.6417 47.219 27.2812 46.0656V46.125H33C36.1016 46.125 38.625 43.6016 38.625 40.5V40.4062H40.5C44.6355 40.4062 48 37.0417 48 32.9062V26.5312C48 22.3958 44.6355 19.0312 40.5 19.0312ZM44.25 32.9062C44.25 34.974 42.5677 36.6562 40.5 36.6562H38.625V33.75V22.7812H40.5C42.5677 22.7812 44.25 24.4635 44.25 26.5312V32.9062Z" fill="#639CFF"/>
</svg>
