<svg width="48" height="48" viewBox="0 0 48 48" fill="none" xmlns="http://www.w3.org/2000/svg">
<path d="M39.2706 31.125V10.4062C39.2706 8.33862 37.5886 6.65625 35.5206 6.65625H23.7188V20.0625C23.7188 23.1643 21.1956 25.6875 18.0938 25.6875C14.9919 25.6875 12.4688 23.1643 12.4688 20.0625V12C12.4688 10.9644 13.3081 10.125 14.3438 10.125C15.3794 10.125 16.2188 10.9644 16.2188 12V20.0625C16.2188 21.0963 17.0599 21.9375 18.0938 21.9375C19.1276 21.9375 19.9688 21.0963 19.9688 20.0625V5.625C19.9688 4.59119 19.1276 3.75 18.0938 3.75C17.2284 3.75 16.4597 4.36047 16.2664 5.20129C16.0562 6.11646 15.2084 6.71777 14.2998 6.64893C14.2526 6.65259 14.205 6.65625 14.1562 6.65625H12.4688C10.4011 6.65625 8.71875 8.33862 8.71875 10.4062V40.5C8.71875 42.5676 10.4011 44.25 12.4688 44.25H35.521C37.5886 44.25 39.271 42.5676 39.271 40.5C39.271 39.4644 40.1104 38.625 41.146 38.625C42.1813 38.625 43.021 39.4644 43.021 40.5C43.021 44.6356 39.6562 48 35.521 48H12.4688C8.33313 48 4.96875 44.6356 4.96875 40.5V10.4062C4.96875 6.27063 8.33313 2.90625 12.4688 2.90625H13.1653C14.1313 1.14148 15.9902 0 18.0938 0C20.2097 0 22.0558 1.1748 23.016 2.90625H35.5206C39.6562 2.90625 43.0206 6.27063 43.0206 10.4062V31.125C43.0206 32.1606 42.1813 33 41.1456 33C40.1104 33 39.2706 32.1606 39.2706 31.125ZM14.3438 36.75C13.3081 36.75 12.4688 37.5894 12.4688 38.625C12.4688 39.6606 13.3081 40.5 14.3438 40.5H27.9375C28.9731 40.5 29.8125 39.6606 29.8125 38.625C29.8125 37.5894 28.9731 36.75 27.9375 36.75H14.3438ZM35.4375 31.2188C35.4375 30.1831 34.5981 29.3438 33.5625 29.3438H14.3438C13.3081 29.3438 12.4688 30.1831 12.4688 31.2188C12.4688 32.2544 13.3081 33.0938 14.3438 33.0938H33.5625C34.5981 33.0938 35.4375 32.2544 35.4375 31.2188ZM33.5625 22.0312H29.25C28.2144 22.0312 27.375 22.8706 27.375 23.9062C27.375 24.9419 28.2144 25.7812 29.25 25.7812H33.5625C34.5981 25.7812 35.4375 24.9419 35.4375 23.9062C35.4375 22.8706 34.5981 22.0312 33.5625 22.0312ZM33.5625 14.625H29.25C28.2144 14.625 27.375 15.4644 27.375 16.5C27.375 17.5356 28.2144 18.375 29.25 18.375H33.5625C34.5981 18.375 35.4375 17.5356 35.4375 16.5C35.4375 15.4644 34.5981 14.625 33.5625 14.625Z" fill="#639CFF"/>
</svg>
