<svg width="24" height="24" viewBox="0 0 24 24" fill="none" xmlns="http://www.w3.org/2000/svg">
<g clip-path="url(#clip0_206_4041)">
<path d="M1.23998 23.1594C0.923838 23.1594 0.607699 23.0462 0.367506 22.8185C-0.114689 22.3649 -0.114689 21.6294 0.367506 21.1757L21.8975 0.919834C22.3797 0.466175 23.1615 0.466175 23.6437 0.919834C24.1259 1.37349 24.1259 2.10899 23.6437 2.56293L2.11396 22.8185C1.87195 23.0448 1.55582 23.1594 1.23998 23.1594Z" fill="#48525E"/>
<path d="M22.7715 23.1594C22.4554 23.1594 22.1395 23.0462 21.899 22.8185L0.367506 2.56293C-0.114689 2.10899 -0.114689 1.37349 0.367506 0.919834C0.849701 0.466175 1.63146 0.466175 2.11396 0.919834L23.6437 21.1757C24.1259 21.6294 24.1259 22.3649 23.6437 22.8185C23.4017 23.0448 23.0858 23.1594 22.7715 23.1594Z" fill="#48525E"/>
</g>
<defs>
<clipPath id="clip0_206_4041">
<rect width="24" height="22.5797" fill="white" transform="translate(0 0.57959)"/>
</clipPath>
</defs>
</svg>
