<svg width="24" height="24" viewBox="0 0 24 24" fill="none" xmlns="http://www.w3.org/2000/svg">
<g clip-path="url(#clip0_128_306)">
<path d="M23.4676 4.0472L12.2716 0.0471978C12.0949 -0.0152036 11.902 -0.0152036 11.7252 0.0471978L0.532046 4.0472C0.214797 4.16155 0.00332642 4.46257 0.00332642 4.7998C0.00332642 5.13703 0.214797 5.43804 0.532046 5.5524L6.00005 7.506V10C6.00005 11.5552 11.386 11.6 12 11.6C12.614 11.6 18 11.5552 18 10V7.506L19.2 7.08V8C19.2 8.44183 19.5582 8.8 20 8.8H20.8C21.2419 8.8 21.6 8.44183 21.6 8V6.8C21.5989 6.61477 21.5542 6.43241 21.4696 6.2676L23.4696 5.5524C23.7869 5.43804 23.9984 5.13703 23.9984 4.7998C23.9984 4.46257 23.7869 4.16155 23.4696 4.0472H23.4676ZM17.2 9.12C15.6764 8.4264 12.466 8.4 12 8.4C11.534 8.4 8.32365 8.4264 6.80005 9.12V5.6352C7.04005 5.3272 8.92645 4.8 12 4.8C15.0736 4.8 16.96 5.3272 17.2 5.6352V9.12ZM12 10.8C9.04005 10.8 7.18125 10.3112 6.83365 10C7.18125 9.6888 9.04085 9.2 12 9.2C14.9592 9.2 16.8188 9.6888 17.1664 10C16.8188 10.3112 14.96 10.8 12 10.8ZM19.3876 6.162L18 6.6568V5.6C18 4.0448 12.614 4 12 4C11.386 4 6.00005 4.0448 6.00005 5.6V6.6564L0.800046 4.8L12.0056 0.799998L20 3.6568V5.6736C19.7471 5.76348 19.5315 5.93541 19.3876 6.162ZM20.8 8H20V6.8C20 6.57908 20.1791 6.4 20.4 6.4C20.621 6.4 20.8 6.57908 20.8 6.8V8ZM20.8 5.6576V3.9428L23.2 4.8L20.8 5.6576Z" fill="white"/>
<path d="M22.8 12.4C22.776 12.3999 22.752 12.4021 22.7284 12.4064C19.1793 12.9582 15.5916 13.2236 12 13.2C8.40837 13.2236 4.82067 12.9582 1.2716 12.4064C1.24794 12.4024 1.224 12.4002 1.2 12.4C0.92 12.4 0 12.7172 0 16.8C0 20.8828 0.92 21.2 1.2 21.2C1.22402 21.1995 1.24796 21.1971 1.2716 21.1928C3.99868 20.7608 6.75137 20.5099 9.5116 20.4416L8.7308 22.3144C8.61084 22.6143 8.68377 22.9569 8.91546 23.1819C9.14714 23.4069 9.49175 23.4698 9.788 23.3412L10.094 23.2104L10.2264 23.5148C10.3515 23.8099 10.6414 24.0012 10.962 24H10.972C11.295 23.9975 11.5845 23.8004 11.7052 23.5008L12.4 21.8376L13.0924 23.4944C13.2121 23.7968 13.5028 23.9966 13.828 24H13.84C14.1584 24.0013 14.4468 23.8124 14.5728 23.52L14.7064 23.2132L15.0076 23.3424C15.3051 23.4737 15.6526 23.4112 15.8856 23.1843C16.1187 22.9574 16.1905 22.6117 16.0672 22.3108L15.3016 20.4748C17.7902 20.5629 20.2712 20.8034 22.7304 21.1948C22.7534 21.1986 22.7767 21.2003 22.8 21.2C23.08 21.2 24 20.8828 24 16.8C24 12.7172 23.08 12.4 22.8 12.4ZM13.28 13.988C13.4461 14.5988 13.5429 15.2263 13.5684 15.8588C12.6614 15.4371 11.5977 15.5359 10.784 16.1176C10.7635 15.3993 10.6715 14.6848 10.5092 13.9848C10.9937 13.9949 11.4907 14 12 14C12.4372 14 12.8616 13.9952 13.28 13.988ZM12.4 20.4C11.2954 20.4 10.4 19.5046 10.4 18.4C10.4 17.2954 11.2954 16.4 12.4 16.4C13.5046 16.4 14.4 17.2954 14.4 18.4C14.3987 19.504 13.504 20.3987 12.4 20.4ZM1.2 13.4C1.50649 14.5062 1.64139 15.6529 1.6 16.8C1.64139 17.9471 1.50649 19.0938 1.2 20.2C0.893514 19.0938 0.75861 17.9471 0.8 16.8C0.75861 15.6529 0.893514 14.5062 1.2 13.4ZM2.008 20.268C2.2268 19.6336 2.4 18.572 2.4 16.8C2.4 15.028 2.2268 13.9664 2.0076 13.3312C4.54944 13.6822 7.10861 13.8936 9.6736 13.9644C9.91352 14.8899 10.0234 15.8442 10 16.8C10 16.858 10 16.9132 9.9976 16.9688C9.51759 17.7654 9.46922 18.7497 9.8688 19.5896L9.8512 19.632C7.22689 19.6963 4.60831 19.9089 2.008 20.2688V20.268ZM10.9628 23.2L10.6708 22.528C10.583 22.3262 10.3487 22.2333 10.1464 22.32L9.4732 22.6176L10.4112 20.3688C10.7963 20.759 11.2876 21.0275 11.824 21.1408L10.9628 23.2ZM14.6536 22.32C14.4513 22.2333 14.217 22.3262 14.1292 22.528L13.8332 23.1932L12.9756 21.14C13.5124 21.0266 14.0041 20.758 14.3896 20.3676L15.3256 22.6076L14.6536 22.32ZM22.72 20.38C20.1501 19.9845 17.5588 19.744 14.96 19.66L14.9316 19.5912C15.4346 18.5312 15.219 17.2695 14.3924 16.4368C14.3893 15.6073 14.2935 14.7807 14.1068 13.9724C16.9911 13.9078 19.8682 13.6564 22.72 13.2196C22.9056 13.5348 23.2 14.7816 23.2 16.8C23.2 18.8184 22.9036 20.0648 22.72 20.38Z" fill="white"/>
</g>
<defs>
<clipPath id="clip0_128_306">
<rect width="24" height="24" fill="white"/>
</clipPath>
</defs>
</svg>
