<svg width="24" height="24" viewBox="0 0 24 24" fill="none" xmlns="http://www.w3.org/2000/svg">
<path d="M20.2667 11.5344H19.9062V8.65621C19.9062 4.28341 16.3444 0.72168 11.9716 0.72168C7.59882 0.72168 4.03709 4.28341 4.03709 8.65621V11.5344H3.67657C2.40365 11.5352 1.37168 12.5672 1.37085 13.8401V16.2146C1.37168 17.4876 2.40365 18.5192 3.67657 18.5204H5.74913C6.04149 18.5195 6.2783 18.2826 6.27913 17.9902V12.0644C6.2783 11.772 6.04149 11.5352 5.74913 11.5344H5.09178V8.65621C5.09178 4.86647 8.17641 1.78167 11.9662 1.78167C15.7561 1.78167 18.841 4.86647 18.841 8.65621V11.5344H18.1837C17.8913 11.5352 17.6543 11.772 17.6535 12.0644V17.9902C17.6543 18.2826 17.8913 18.5195 18.1837 18.5204H18.841V19.2253C18.8394 20.1145 18.1188 20.835 17.2295 20.8365H16.1907C16.1388 20.838 16.0872 20.8452 16.037 20.8576C15.809 20.0604 15.08 19.511 14.2508 19.5114H11.6431C10.6184 19.5114 9.78796 20.342 9.78796 21.3665C9.78796 22.391 10.6184 23.2217 11.6431 23.2217H14.2508C15.0793 23.22 15.8071 22.6713 16.037 21.8755C16.0869 21.8906 16.1386 21.8978 16.1907 21.8965H17.2295C18.7044 21.8954 19.8995 20.7 19.901 19.2253V18.5204H20.2612C21.5345 18.5192 22.5661 17.4876 22.5669 16.2146V13.8454C22.5699 13.2335 22.3286 12.6456 21.897 12.2118C21.4653 11.7783 20.8788 11.5344 20.2667 11.5344V11.5344ZM5.21897 17.4602H3.67657C2.9892 17.4592 2.43201 16.902 2.43101 16.2146V13.8454C2.43201 13.1579 2.9892 12.6008 3.67657 12.5998H5.21897V17.4602ZM14.2561 22.1617H11.6483C11.2093 22.1617 10.8531 21.8056 10.8531 21.3665C10.8531 20.9274 11.2093 20.5715 11.6483 20.5715H14.2561C14.6951 20.5715 15.0513 20.9274 15.0513 21.3665C15.0513 21.8056 14.6951 22.1617 14.2561 22.1617ZM21.5122 16.2146C21.5112 16.902 20.9541 17.4592 20.2667 17.4602H18.7241V12.5945H20.2667C20.9541 12.5955 21.5112 13.1527 21.5122 13.8401V16.2146Z" fill="#639CFF"/>
</svg>
