<svg width="16" height="16" viewBox="0 0 16 16" fill="none" xmlns="http://www.w3.org/2000/svg">
<path d="M15.0938 9.00954C15.137 8.69114 15.161 8.36794 15.161 8.03834C15.161 4.08317 11.937 0.876769 7.96102 0.876769C7.56582 0.876769 7.17862 0.90877 6.80102 0.97117C6.12582 0.529573 5.32102 0.271973 4.45542 0.271973C2.08102 0.271973 0.159424 2.19677 0.159424 4.56957C0.159424 5.43357 0.413824 6.23517 0.850625 6.90877C0.791424 7.27677 0.761024 7.65437 0.761024 8.03834C0.761024 11.9951 3.98342 15.2015 7.96102 15.2015C8.41061 15.2015 8.84741 15.1583 9.27141 15.0815C9.93061 15.4911 10.7082 15.7295 11.5418 15.7295C13.9162 15.7279 15.8394 13.8031 15.8394 11.4303C15.8394 10.5327 15.5642 9.69914 15.0938 9.00954ZM8.63461 13.3167C6.34662 13.4367 5.27622 12.9295 4.29542 12.0095C3.19942 10.9823 3.63942 9.80954 4.53222 9.74874C5.42342 9.68954 5.95942 10.7599 6.43622 11.0575C6.91142 11.3535 8.72101 12.0303 9.67621 10.9375C10.7162 9.74874 8.98501 9.13274 7.71462 8.94714C5.90182 8.67834 3.61222 7.69757 3.78982 5.76477C3.96742 3.83357 5.43142 2.84317 6.97062 2.70397C8.93221 2.52637 10.2106 3.00157 11.2202 3.86397C12.3882 4.86077 11.7562 5.97437 11.0122 6.06397C10.2714 6.15357 9.43781 4.42557 7.80262 4.39997C6.11782 4.37277 4.97863 6.15357 7.05863 6.65917C9.14021 7.16477 11.369 7.37277 12.1722 9.27514C12.9754 11.1759 10.9242 13.1967 8.63461 13.3167Z" fill="#179BD7"/>
</svg>
