<svg width="32" height="32" viewBox="0 0 32 32" fill="none" xmlns="http://www.w3.org/2000/svg">
<g clip-path="url(#clip0_735_308)">
<path d="M29.4684 26.9999C30.1588 26.9999 30.7184 26.4402 30.7184 25.7499C30.7184 25.0595 30.1588 24.4999 29.4684 24.4999H28.4869C28.2351 24.3057 27.7809 23.7937 27.7809 22.6249C27.7809 21.456 28.2351 20.944 28.4869 20.7499H29.4684C30.1588 20.7499 30.7184 20.1903 30.7184 19.4999C30.7184 18.8095 30.1588 18.2499 29.4684 18.2499H23.5207C23.9608 17.7364 23.914 16.9633 23.4086 16.5084C22.8956 16.0465 22.1052 16.088 21.6433 16.6011C20.4718 17.9024 19.1193 18.1874 18.6969 18.1874C18.6917 18.1874 18.6865 18.1881 18.6813 18.1882C18.676 18.1881 18.671 18.1874 18.6657 18.1874C17.8126 18.1874 17.5291 18.0661 17.0144 17.8458C16.7815 17.746 16.5175 17.6331 16.1804 17.5205L15.7495 17.3766L15.3267 17.543C15.0839 17.6386 14.88 17.7274 14.7 17.8058C14.0985 18.0678 13.824 18.1874 12.8649 18.1874C12.3864 18.1874 11.1935 17.8968 10.1033 16.7967C8.70661 15.3874 7.96842 13.1065 7.96842 10.2004C7.96842 8.96221 8.45567 7.96409 9.35505 7.32541C9.97998 7.8279 10.7105 8.26334 11.5431 8.51509C12.062 8.67203 12.5589 8.7504 13.0319 8.7504C13.6785 8.7504 14.2802 8.60378 14.8305 8.31103C14.8783 8.28559 15.7582 7.81003 16.3532 7.01784C16.6378 6.97347 16.8619 6.90303 17.0685 6.83778C17.4572 6.71516 17.9408 6.56253 19.3955 6.56253C22.0045 6.56253 23.5621 7.92253 23.5621 10.2004C23.5621 10.2917 23.5725 10.3805 23.5911 10.4662C23.5826 11.0128 23.548 11.54 23.4875 12.0363C23.404 12.7215 23.8918 13.3448 24.5771 13.4283C24.6285 13.4345 24.6794 13.4375 24.7298 13.4375C25.3526 13.4375 25.8918 12.9726 25.9691 12.3386C26.0515 11.6623 26.0933 10.9429 26.0933 10.2003C26.0933 10.097 26.0793 9.99715 26.0557 9.90109C25.9138 6.39584 23.2736 4.06247 19.3957 4.06247C18.631 4.06247 18.0608 4.1016 17.6175 4.1591C17.9482 3.51229 18.4316 2.78848 19.1202 2.20085C19.6453 1.75273 19.7078 0.96373 19.2597 0.438606C18.8115 -0.0865184 18.0225 -0.148956 17.4974 0.299168C16.7081 0.97273 16.117 1.75373 15.6791 2.49748C15.1797 2.00148 14.522 1.62742 13.7109 1.38217C10.6705 0.462856 7.3903 2.32116 7.2188 2.42023C7.21718 2.42123 7.21549 2.42216 7.2138 2.42316C6.61799 2.77073 6.41486 3.5361 6.76174 4.13229C6.76611 4.13979 6.77049 4.14716 6.77499 4.15447C6.88824 4.37004 7.17674 4.88766 7.62949 5.50053C6.25549 6.61128 5.46868 8.28353 5.46868 10.2006C5.46868 14.3944 6.80599 16.8638 8.04061 18.2501H4.40624C2.68312 18.2501 1.28125 19.6519 1.28125 21.3751V23.8751C1.28125 24.4837 1.45681 25.0519 1.759 25.5327C1.45894 25.9452 1.28125 26.4521 1.28125 27.0001V28.875C1.28125 30.5982 2.68312 32 4.40624 32H27.9866C27.9888 32 27.9911 32.0003 27.9933 32.0003C27.996 32.0003 27.9987 32 28.0014 32H29.4684C30.1588 32 30.7184 31.4404 30.7184 30.75C30.7184 30.0596 30.1588 29.5 29.4684 29.5H28.3646C28.2065 29.3403 27.9763 28.9821 27.9763 28.25C27.9763 27.5179 28.2065 27.1596 28.3646 26.9999H29.4684V26.9999ZM12.9874 3.77529C13.8548 4.0376 14.0585 4.42329 14.1254 4.55004C14.288 4.85778 14.2895 5.21378 14.2908 5.49991C14.2909 5.53278 14.2911 5.56528 14.2915 5.59753C14.1277 5.77847 13.8453 6.00366 13.6566 6.10403C13.5266 6.17322 13.131 6.38366 12.267 6.12235C11.1377 5.78078 10.2384 4.82735 9.66567 4.0546C10.5747 3.7286 11.8566 3.43335 12.9874 3.77529ZM25.6264 29.4999H4.40618C4.06156 29.4999 3.78118 29.2195 3.78118 28.8749L3.77962 26.9999C3.77962 26.9999 3.78012 26.9999 3.78118 26.9999C3.86456 26.9999 3.94593 26.9913 4.02474 26.9757C4.14987 26.9911 4.27699 26.9999 4.40618 26.9999H17.031C17.7214 26.9999 18.281 26.4402 18.281 25.7499C18.281 25.0595 17.7214 24.4999 17.031 24.4999H4.40618C4.06156 24.4999 3.78118 24.2195 3.78118 23.8749V21.3749C3.78118 21.0303 4.06156 20.7499 4.40618 20.7499H25.5786C25.3951 21.2796 25.281 21.9013 25.281 22.6249C25.281 23.3484 25.3951 23.9702 25.5786 24.4999H23.281C22.5906 24.4999 22.031 25.0595 22.031 25.7499C22.031 26.4402 22.5906 26.9999 23.281 26.9999H25.6264C25.5321 27.3702 25.4764 27.7854 25.4764 28.2499C25.4764 28.7144 25.5322 29.1295 25.6264 29.4999Z" fill="white"/>
</g>
<defs>
<clipPath id="clip0_735_308">
<rect width="32" height="32" fill="white"/>
</clipPath>
</defs>
</svg>
