<svg width="64" height="64" viewBox="0 0 64 64" fill="none" xmlns="http://www.w3.org/2000/svg">
<g clip-path="url(#clip0_128_2060)">
<path d="M64 6.60547V9.02061H39.633V6.60547H64ZM4.84404 20.3205H43.2259L47.8991 24.3245V26.7356L28.1548 43.3222C26.5694 44.6743 24.2368 44.6754 22.6502 43.3245L0.0923213 24.2236C0.544729 21.957 2.53269 20.3234 4.84404 20.3205ZM50.789 52.6771C50.7901 53.4885 50.586 54.2867 50.1961 54.9977L37.8463 42.4323C37.59 42.1657 37.2104 42.0573 36.8521 42.1485C36.4937 42.2402 36.2116 42.5166 36.1141 42.8738C36.0166 43.2305 36.1187 43.6118 36.3807 43.8727L48.8452 56.5556C48.0086 57.1835 46.9908 57.5229 45.9449 57.5212H4.84404C3.7953 57.5223 2.77466 57.1812 1.9375 56.5499L14.3337 43.871C14.594 43.6095 14.6938 43.2282 14.5952 42.8721C14.4971 42.5166 14.215 42.2408 13.8572 42.1502C13.4989 42.0596 13.1198 42.1685 12.8641 42.4346L0.588881 54.9902C0.201266 54.2809 -0.00114194 53.4856 4.84599e-06 52.6771V26.8377L21.3228 44.8927C23.6732 46.895 27.1296 46.895 29.4805 44.8927L47.8991 29.4203V36.9713C47.8991 37.3274 48.0831 37.6582 48.3865 37.8451C48.6892 38.0326 49.0671 38.0499 49.3859 37.8904L50.789 37.1892V52.6771ZM54.0378 23.0722C53.8102 23.2677 53.6789 23.5527 53.6789 23.8526V33.4484L51.5504 34.512C51.4168 34.5476 51.2924 34.6101 51.1835 34.6949L49.9541 35.3096V23.8526C49.9541 23.5527 49.8228 23.2677 49.5952 23.0722L39.633 14.5355V11.0757H64V14.5355L54.0378 23.0722Z" fill="#FB4C1F"/>
</g>
<defs>
<clipPath id="clip0_128_2060">
<rect width="64" height="64" fill="white"/>
</clipPath>
</defs>
</svg>
