<svg width="24" height="24" viewBox="0 0 24 24" fill="none" xmlns="http://www.w3.org/2000/svg">
<path d="M18.1687 3.08814C18.1687 1.78015 17.1086 0.720011 15.8006 0.720011H7.5995C6.29151 0.720011 5.2312 1.78015 5.2312 3.08814V20.8519C5.2312 22.1599 6.29151 23.22 7.5995 23.22H15.8006C17.1086 23.22 18.1687 22.1599 18.1687 20.8519V3.08814ZM6.3562 4.82627H17.0437V17.9325H6.3562V4.82627ZM7.58808 1.84501H15.812C16.4974 1.84501 17.0437 2.4163 17.0437 3.10185V3.70127H6.3562V3.10185C6.3562 2.4163 6.9027 1.84501 7.58808 1.84501ZM15.812 22.095H7.58808C6.91237 22.1 6.36095 21.5557 6.3562 20.88V19.0575H17.0437V20.8656C17.047 21.5413 16.5021 22.0917 15.8264 22.095H15.812Z" fill="#102752"/>
<path d="M12.8009 20.0138H10.5992C10.2884 20.0138 10.0367 20.2655 10.0367 20.5763C10.0367 20.887 10.2884 21.1388 10.5992 21.1388H12.8009C13.1115 21.1388 13.3634 20.887 13.3634 20.5763C13.3634 20.2655 13.1115 20.0138 12.8009 20.0138Z" fill="#102752"/>
</svg>
