<svg width="32" height="32" viewBox="0 0 32 32" fill="none" xmlns="http://www.w3.org/2000/svg">
<path d="M22.4409 23.3125H18.7534C18.063 23.3125 17.5034 23.8721 17.5034 24.5625C17.5034 25.2529 18.063 25.8125 18.7534 25.8125H22.4409C23.1313 25.8125 23.6909 25.2529 23.6909 24.5625C23.6909 23.8721 23.1313 23.3125 22.4409 23.3125Z" fill="white"/>
<path d="M22.4409 15.75H18.7534C18.063 15.75 17.5034 16.3096 17.5034 17C17.5034 17.6904 18.063 18.25 18.7534 18.25H22.4409C23.1313 18.25 23.6909 17.6904 23.6909 17C23.6909 16.3096 23.1313 15.75 22.4409 15.75Z" fill="white"/>
<path d="M27.434 22C28.1244 22 28.684 21.4404 28.684 20.75V5C28.684 2.243 26.441 0 23.684 0H8.31592C5.55892 0 3.31592 2.243 3.31592 5V27C3.31592 29.757 5.55892 32 8.31592 32H23.6839C26.441 32 28.6839 29.757 28.684 27C28.684 26.3096 28.1244 25.75 27.434 25.75C26.7436 25.75 26.184 26.3096 26.184 27C26.184 28.3785 25.0625 29.5 23.684 29.5H8.31592C6.93742 29.5 5.81592 28.3785 5.81592 27V5C5.81592 3.6215 6.93742 2.5 8.31592 2.5H23.684C25.0625 2.5 26.184 3.6215 26.184 5V20.75C26.184 21.4404 26.7436 22 27.434 22Z" fill="white"/>
<path d="M15.9871 4.97386C15.4549 4.53423 14.667 4.60911 14.2273 5.14136L11.527 8.40967L10.4615 7.31548C9.97991 6.82092 9.18848 6.81036 8.69385 7.29198C8.19929 7.77361 8.18872 8.56498 8.67035 9.05961L10.0112 10.4367C10.0223 10.448 10.0335 10.4592 10.045 10.4701C10.4502 10.8558 10.991 11.0703 11.5474 11.0703C11.5951 11.0702 11.6432 11.0686 11.6912 11.0654C12.294 11.0252 12.8569 10.7334 13.2374 10.2645L16.1546 6.73367C16.5943 6.20142 16.5193 5.41354 15.9871 4.97386Z" fill="white"/>
<path d="M15.987 20.2163C15.4549 19.7766 14.667 19.8516 14.2273 20.3838L11.5262 23.6529L10.459 22.5631C9.97597 22.0698 9.18459 22.0616 8.69134 22.5446C8.19809 23.0276 8.18984 23.819 8.67278 24.3123L10.0137 25.6816C10.0239 25.692 10.0343 25.7023 10.045 25.7124C10.4502 26.0981 10.991 26.3127 11.5473 26.3127C11.5952 26.3126 11.6432 26.311 11.6912 26.3078C12.2939 26.2676 12.8568 25.9759 13.2373 25.5069L16.1545 21.9761C16.5943 21.4438 16.5193 20.656 15.987 20.2163Z" fill="white"/>
<path d="M22.4409 8.0625H18.7534C18.063 8.0625 17.5034 8.62213 17.5034 9.3125C17.5034 10.0029 18.063 10.5625 18.7534 10.5625H22.4409C23.1313 10.5625 23.6909 10.0029 23.6909 9.3125C23.6909 8.62213 23.1313 8.0625 22.4409 8.0625Z" fill="white"/>
<path d="M15.987 12.6535C15.4549 12.2139 14.667 12.2889 14.2273 12.821L11.5262 16.0902L10.459 15.0004C9.97597 14.5071 9.18459 14.4989 8.69134 14.9819C8.19809 15.4649 8.18984 16.2563 8.67278 16.7495L10.0137 18.1189C10.0239 18.1293 10.0343 18.1396 10.045 18.1497C10.4502 18.5354 10.991 18.75 11.5473 18.75C11.5952 18.7498 11.6432 18.7483 11.6912 18.7451C12.2939 18.7049 12.8568 18.4132 13.2373 17.9442L16.1545 14.4134C16.5943 13.8811 16.5193 13.0932 15.987 12.6535Z" fill="white"/>
</svg>
