<svg width="32" height="32" viewBox="0 0 32 32" fill="none" xmlns="http://www.w3.org/2000/svg">
<path d="M30.75 23.5001C30.0596 23.5001 29.5 24.0597 29.5 24.7501C29.5 26.1286 28.3785 27.2501 27 27.2501H17.4584L14.5844 23.5216L23.6561 11.983L29.7852 19.2949C29.7974 19.3097 29.8099 19.3242 29.8227 19.3383C29.8231 19.3388 29.8236 19.3393 29.824 19.3398C29.8255 19.3415 29.8271 19.3432 29.8286 19.3449C29.9424 19.4692 30.0762 19.5655 30.2209 19.6329C30.3695 19.7024 30.5341 19.7436 30.7076 19.7493C30.7108 19.7494 30.714 19.7496 30.7172 19.7496C30.7178 19.7496 30.7183 19.7496 30.7188 19.7497C30.8081 19.7519 30.8978 19.7447 30.9861 19.7278L30.9894 19.7272C30.9932 19.7264 30.9971 19.7257 31.0011 19.7249C31.0026 19.7246 31.0042 19.7242 31.0059 19.7239C31.0092 19.7232 31.0126 19.7225 31.016 19.7217C31.0179 19.7213 31.0198 19.7209 31.0216 19.7205C31.0247 19.7198 31.0278 19.7191 31.0308 19.7184C31.033 19.7179 31.0352 19.7174 31.0373 19.7169C31.0401 19.7162 31.0428 19.7156 31.0456 19.7149C31.0479 19.7144 31.0503 19.7137 31.0526 19.7132C31.0552 19.7126 31.0578 19.7119 31.0604 19.7112C31.0627 19.7106 31.0651 19.71 31.0674 19.7094C31.0701 19.7087 31.0726 19.708 31.0753 19.7073C31.0776 19.7067 31.08 19.706 31.0824 19.7054L31.0897 19.7034C31.0922 19.7026 31.0948 19.7019 31.0974 19.7012C31.0999 19.7005 31.1023 19.6997 31.1047 19.6991C31.1068 19.6985 31.1088 19.6979 31.1108 19.6972C31.1139 19.6963 31.117 19.6954 31.12 19.6944C31.1217 19.6939 31.1234 19.6934 31.125 19.6929C31.1281 19.6919 31.1312 19.6909 31.1343 19.6899C31.1362 19.6893 31.1381 19.6887 31.1399 19.6881C31.143 19.6871 31.1461 19.686 31.1492 19.685C31.1506 19.6845 31.1521 19.684 31.1535 19.6836C31.1569 19.6824 31.1604 19.6812 31.1639 19.68C31.1652 19.6796 31.1665 19.6791 31.1678 19.6786C31.1714 19.6774 31.1749 19.6761 31.1784 19.6748C31.1795 19.6744 31.1806 19.674 31.1817 19.6736C31.1856 19.6721 31.1894 19.6707 31.1933 19.6692L31.1952 19.6685C31.1994 19.6669 31.2037 19.6652 31.2079 19.6636C31.2082 19.6635 31.2084 19.6634 31.2087 19.6632C31.2132 19.6614 31.2178 19.6596 31.2224 19.6577C31.2779 19.6351 31.3323 19.6081 31.3851 19.5769C31.3858 19.5765 31.3866 19.5761 31.3873 19.5756C31.3909 19.5735 31.3944 19.5714 31.398 19.5692C31.4654 19.5283 31.5286 19.4812 31.5868 19.4286C31.5879 19.4277 31.5889 19.4267 31.5899 19.4258C31.5909 19.4249 31.5918 19.4241 31.5928 19.4232C31.7181 19.3089 31.8151 19.1744 31.8829 19.0288C31.9526 18.8796 31.9937 18.7144 31.9993 18.5402C31.9993 18.5379 31.9994 18.5357 31.9994 18.5335C31.9994 18.5321 31.9995 18.5306 31.9995 18.5292C31.9996 18.525 31.9997 18.5207 31.9998 18.5164C31.9998 18.5163 31.9998 18.5162 31.9998 18.5161C31.9998 18.5096 31.9998 18.5029 31.9998 18.4963V7.25012C31.9998 4.49312 29.7568 2.25012 26.9998 2.25012H5C2.243 2.25012 0 4.49306 0 7.25012V24.7501C0 27.5071 2.243 29.7501 5 29.7501H16.8359C16.8388 29.7501 16.8418 29.7502 16.8447 29.7502C16.8486 29.7502 16.8525 29.7502 16.8564 29.7501H27C29.757 29.7501 32 27.5071 32 24.7501C32 24.0597 31.4404 23.5001 30.75 23.5001ZM5 27.2501C3.6215 27.2501 2.5 26.1286 2.5 24.7501V7.25012C2.5 5.87162 3.6215 4.75012 5 4.75012H27C28.3785 4.75012 29.5 5.87162 29.5 7.25012V15.0631L24.5829 9.19712C24.3411 8.9085 23.9827 8.74456 23.6054 8.75025C23.2289 8.75612 22.8751 8.9315 22.6424 9.2275L13.01 21.4791L9.74 17.2369C9.50338 16.9299 9.13762 16.7501 8.75 16.7501H8.74938C8.3615 16.7502 7.99569 16.9305 7.75919 17.2379L5.00825 20.8141C4.58738 21.3613 4.68969 22.1461 5.23688 22.5671C5.78419 22.988 6.56894 22.8856 6.98981 22.3384L8.751 20.0489L14.302 27.2501H5Z" fill="white"/>
<path d="M8.75 6.75012C6.68225 6.75012 5 8.43237 5 10.5001C5 12.5679 6.68225 14.2501 8.75 14.2501C10.8177 14.2501 12.5 12.5679 12.5 10.5001C12.5 8.43237 10.8177 6.75012 8.75 6.75012ZM8.75 11.7501C8.06075 11.7501 7.5 11.1894 7.5 10.5001C7.5 9.81087 8.06075 9.25012 8.75 9.25012C9.43925 9.25012 10 9.81087 10 10.5001C10 11.1894 9.43925 11.7501 8.75 11.7501Z" fill="white"/>
</svg>
