<svg width="26" height="32" viewBox="0 0 26 32" fill="none" xmlns="http://www.w3.org/2000/svg">
<path d="M19.441 23.3124H15.7535C15.0631 23.3124 14.5035 23.872 14.5035 24.5624C14.5035 25.2528 15.0631 25.8124 15.7535 25.8124H19.441C20.1314 25.8124 20.691 25.2528 20.691 24.5624C20.691 23.872 20.1314 23.3124 19.441 23.3124Z" fill="white"/>
<path d="M19.441 15.7499H15.7535C15.0631 15.7499 14.5035 16.3095 14.5035 16.9999C14.5035 17.6903 15.0631 18.2499 15.7535 18.2499H19.441C20.1314 18.2499 20.691 17.6903 20.691 16.9999C20.691 16.3095 20.1314 15.7499 19.441 15.7499Z" fill="white"/>
<path d="M24.434 21.9999C25.1244 21.9999 25.684 21.4403 25.684 20.7499V4.99988C25.684 2.24288 23.441 -0.00012207 20.684 -0.00012207H5.31598C2.55898 -0.00012207 0.315979 2.24288 0.315979 4.99988V26.9999C0.315979 29.7569 2.55898 31.9999 5.31598 31.9999H20.684C23.441 31.9999 25.684 29.7569 25.684 26.9999C25.684 26.3095 25.1244 25.7499 24.434 25.7499C23.7437 25.7499 23.184 26.3095 23.184 26.9999C23.184 28.3784 22.0625 29.4999 20.684 29.4999H5.31598C3.93748 29.4999 2.81598 28.3784 2.81598 26.9999V4.99988C2.81598 3.62138 3.93748 2.49988 5.31598 2.49988H20.684C22.0625 2.49988 23.184 3.62138 23.184 4.99988V20.7499C23.184 21.4403 23.7437 21.9999 24.434 21.9999Z" fill="white"/>
<path d="M12.9871 4.97386C12.455 4.53423 11.667 4.60911 11.2273 5.14136L8.52701 8.40967L7.46151 7.31548C6.97995 6.82092 6.18851 6.81036 5.69388 7.29198C5.19932 7.77361 5.18876 8.56498 5.67038 9.05961L7.01126 10.4367C7.02232 10.448 7.03357 10.4592 7.04507 10.4701C7.45026 10.8558 7.99107 11.0703 8.54739 11.0703C8.59514 11.0702 8.6432 11.0686 8.6912 11.0654C9.29401 11.0252 9.85695 10.7334 10.2374 10.2645L13.1546 6.73367C13.5943 6.20142 13.5193 5.41354 12.9871 4.97386Z" fill="white"/>
<path d="M12.9872 20.216C12.455 19.7764 11.6671 19.8513 11.2274 20.3835L8.52634 23.6527L7.45915 22.5628C6.97609 22.0696 6.18471 22.0613 5.69146 22.5443C5.19821 23.0273 5.18996 23.8188 5.6729 24.312L7.01378 25.6813C7.02403 25.6918 7.03446 25.7021 7.04509 25.7122C7.45028 26.0979 7.99115 26.3124 8.54747 26.3124C8.59528 26.3123 8.64328 26.3108 8.69128 26.3076C9.29403 26.2674 9.85697 25.9756 10.2375 25.5067L13.1547 21.9758C13.5944 21.4436 13.5194 20.6557 12.9872 20.216Z" fill="white"/>
<path d="M19.441 8.06238H15.7535C15.0631 8.06238 14.5035 8.622 14.5035 9.31238C14.5035 10.0028 15.0631 10.5624 15.7535 10.5624H19.441C20.1314 10.5624 20.691 10.0028 20.691 9.31238C20.691 8.622 20.1314 8.06238 19.441 8.06238Z" fill="white"/>
<path d="M12.9872 12.6535C12.455 12.2139 11.6671 12.2889 11.2274 12.821L8.52634 16.0902L7.45915 15.0004C6.97609 14.5071 6.18471 14.4989 5.69146 14.9819C5.19821 15.4649 5.18996 16.2563 5.6729 16.7495L7.01378 18.1189C7.02403 18.1293 7.03446 18.1396 7.04509 18.1497C7.45028 18.5354 7.99115 18.75 8.54747 18.75C8.59528 18.7498 8.64328 18.7483 8.69128 18.7451C9.29403 18.7049 9.85697 18.4132 10.2375 17.9442L13.1547 14.4134C13.5944 13.8811 13.5194 13.0932 12.9872 12.6535Z" fill="white"/>
</svg>
