<svg width="32" height="32" viewBox="0 0 32 32" fill="none" xmlns="http://www.w3.org/2000/svg">
<g clip-path="url(#clip0_128_987)">
<path d="M26.1804 20.7502V6.93774C26.1804 5.55933 25.0591 4.43774 23.6804 4.43774H15.8125V13.3752C15.8125 15.4431 14.1304 17.1252 12.0625 17.1252C9.99463 17.1252 8.3125 15.4431 8.3125 13.3752V8.00024C8.3125 7.30981 8.87207 6.75024 9.5625 6.75024C10.2529 6.75024 10.8125 7.30981 10.8125 8.00024V13.3752C10.8125 14.0645 11.3733 14.6252 12.0625 14.6252C12.7517 14.6252 13.3125 14.0645 13.3125 13.3752V3.75024C13.3125 3.06104 12.7517 2.50024 12.0625 2.50024C11.4856 2.50024 10.9731 2.90723 10.8442 3.46777C10.7041 4.07788 10.1389 4.47876 9.5332 4.43286C9.50171 4.4353 9.46997 4.43774 9.4375 4.43774H8.3125C6.93408 4.43774 5.8125 5.55933 5.8125 6.93774V27.0002C5.8125 28.3787 6.93408 29.5002 8.3125 29.5002H23.6807C25.0591 29.5002 26.1807 28.3787 26.1807 27.0002C26.1807 26.3098 26.7402 25.7502 27.4307 25.7502C28.1208 25.7502 28.6807 26.3098 28.6807 27.0002C28.6807 29.7573 26.4375 32.0002 23.6807 32.0002H8.3125C5.55542 32.0002 3.3125 29.7573 3.3125 27.0002V6.93774C3.3125 4.18066 5.55542 1.93774 8.3125 1.93774H8.77686C9.4209 0.76123 10.6602 0.000244141 12.0625 0.000244141C13.4731 0.000244141 14.7039 0.783447 15.344 1.93774H23.6804C26.4375 1.93774 28.6804 4.18066 28.6804 6.93774V20.7502C28.6804 21.4407 28.1208 22.0002 27.4304 22.0002C26.7402 22.0002 26.1804 21.4407 26.1804 20.7502ZM9.5625 24.5002C8.87207 24.5002 8.3125 25.0598 8.3125 25.7502C8.3125 26.4407 8.87207 27.0002 9.5625 27.0002H18.625C19.3154 27.0002 19.875 26.4407 19.875 25.7502C19.875 25.0598 19.3154 24.5002 18.625 24.5002H9.5625ZM23.625 20.8127C23.625 20.1223 23.0654 19.5627 22.375 19.5627H9.5625C8.87207 19.5627 8.3125 20.1223 8.3125 20.8127C8.3125 21.5032 8.87207 22.0627 9.5625 22.0627H22.375C23.0654 22.0627 23.625 21.5032 23.625 20.8127ZM22.375 14.6877H19.5C18.8096 14.6877 18.25 15.2473 18.25 15.9377C18.25 16.6282 18.8096 17.1877 19.5 17.1877H22.375C23.0654 17.1877 23.625 16.6282 23.625 15.9377C23.625 15.2473 23.0654 14.6877 22.375 14.6877ZM22.375 9.75024H19.5C18.8096 9.75024 18.25 10.3098 18.25 11.0002C18.25 11.6907 18.8096 12.2502 19.5 12.2502H22.375C23.0654 12.2502 23.625 11.6907 23.625 11.0002C23.625 10.3098 23.0654 9.75024 22.375 9.75024Z" fill="white"/>
</g>
<defs>
<clipPath id="clip0_128_987">
<rect width="32" height="32" fill="white" transform="translate(0 0.000244141)"/>
</clipPath>
</defs>
</svg>
