<svg width="16" height="16" viewBox="0 0 16 16" fill="none" xmlns="http://www.w3.org/2000/svg">
<path d="M8.14234 0.159668C3.89111 0.159668 0.444712 3.57887 0.444712 7.79809C0.444712 9.24129 0.847911 10.5901 1.54871 11.7421L0.159912 15.8397L4.42231 14.4861C5.52471 15.0909 6.79351 15.4365 8.14234 15.4365C12.3935 15.4365 15.8399 12.0157 15.8399 7.79809C15.8399 3.57887 12.3935 0.159668 8.14234 0.159668ZM11.9695 10.6989C11.7887 11.1485 10.9695 11.5581 10.6079 11.5757C10.2463 11.5949 10.2367 11.8557 8.26874 11.0013C6.30071 10.1469 5.11671 8.06689 5.02391 7.93249C4.93111 7.79969 4.26231 6.84607 4.29751 5.88607C4.33431 4.92607 4.85911 4.47327 5.04631 4.28607C5.23351 4.09727 5.44791 4.06367 5.57911 4.06207C5.73431 4.05887 5.83511 4.05727 5.94871 4.06207C6.06391 4.06687 6.23511 4.03807 6.38391 4.43487C6.53271 4.83167 6.88951 5.80447 6.93431 5.90527C6.97911 6.00447 7.00791 6.11967 6.93751 6.24767C6.86711 6.37567 6.83031 6.45567 6.72951 6.56607C6.62711 6.67647 6.51351 6.81247 6.42231 6.89727C6.31991 6.99007 6.21271 7.09247 6.32151 7.29247C6.42871 7.49247 6.79991 8.14529 7.36311 8.68289C8.08794 9.37409 8.71354 9.60449 8.90714 9.70849C9.10074 9.81409 9.21594 9.80129 9.33434 9.67649C9.45274 9.55009 9.84634 9.12609 9.98554 8.93569C10.1247 8.74529 10.2543 8.78209 10.4319 8.85409C10.6095 8.92609 11.5567 9.43329 11.7503 9.53889C11.9439 9.64289 12.0719 9.69729 12.1183 9.78049C12.1647 9.85889 12.1503 10.2493 11.9695 10.6989Z" fill="#1BD741"/>
</svg>
