<svg width="32" height="32" viewBox="0 0 32 32" fill="none" xmlns="http://www.w3.org/2000/svg">
<g clip-path="url(#clip0_735_466)">
<path d="M30.7501 20.755C30.0597 20.755 29.5001 21.3146 29.5001 22.005C29.5001 23.3835 28.3786 24.505 27.0001 24.505H5.00006C3.62156 24.505 2.50006 23.3835 2.50006 22.005V9.50501C2.50006 9.14107 2.57612 8.79076 2.72613 8.46395C3.01406 7.83651 2.73894 7.09438 2.1115 6.80645C1.48394 6.51832 0.741937 6.7937 0.454 7.42107C0.15275 8.07732 0 8.77851 0 9.50501V22.005C0 24.762 2.243 27.005 5 27.005H14.75V29.4974H10.375C9.68463 29.4974 9.125 30.057 9.125 30.7474C9.125 31.4378 9.68463 31.9974 10.375 31.9974H21.625C22.3154 31.9974 22.875 31.4378 22.875 30.7474C22.875 30.057 22.3154 29.4974 21.625 29.4974H17.25V27.005H27C29.757 27.005 32 24.762 32 22.005C32 21.3147 31.4404 20.755 30.7501 20.755Z" fill="white"/>
<path d="M31.546 7.42096C31.258 6.79359 30.5159 6.51846 29.8885 6.80634C29.2611 7.09434 28.986 7.83646 29.2739 8.46384C29.4239 8.79065 29.5 9.14096 29.5 9.5049V15.7549C29.5 16.4453 30.0596 17.0049 30.75 17.0049C31.4403 17.0049 32 16.4453 32 15.7549V9.5049C32 8.7784 31.8472 8.07728 31.546 7.42096Z" fill="white"/>
<path d="M5.8125 11.8174C6.50287 11.8174 7.0625 11.2578 7.0625 10.5674V7.69531L9.11044 8.42475C8.87456 9.12681 8.375 11.0642 8.375 14.8799C8.375 15.5233 8.86331 16.0616 9.50362 16.124C9.53275 16.1269 12.3922 16.4231 15.3095 18.1521C15.5361 18.3414 15.8217 18.4426 16.1121 18.4426C16.1164 18.4426 16.1208 18.4423 16.1251 18.4422C16.1294 18.4422 16.1338 18.4426 16.1381 18.4426C16.4283 18.4426 16.7138 18.3414 16.9404 18.1522C19.8349 16.4376 22.7196 16.1268 22.7464 16.124C23.3867 16.0616 23.8751 15.5233 23.8751 14.8799C23.8751 11.0761 23.3786 9.13894 23.1419 8.43144L26.0409 7.39137C27.0565 7.02712 27.6875 6.21581 27.6875 5.27412C27.6875 4.33244 27.0565 3.52106 26.0461 3.15862L18.4506 0.395498C16.9903 -0.128377 15.315 -0.128439 13.852 0.396436L6.20925 3.15675C5.43219 3.43544 4.88075 3.97587 4.66431 4.636C4.599 4.78762 4.5625 4.95444 4.5625 5.12994V10.5674C4.5625 11.2578 5.12213 11.8174 5.8125 11.8174ZM16.125 15.739C14.0619 14.6018 12.0828 14.0641 10.8894 13.821C10.9669 11.0616 11.3341 9.67944 11.4666 9.264L13.8545 10.1145C14.5847 10.3764 15.3686 10.5074 16.1525 10.5074C16.9364 10.5074 17.7203 10.3764 18.4506 10.1145H18.4506L20.7873 9.27625C20.9232 9.70694 21.2838 11.0896 21.3606 13.821C20.1672 14.0641 18.1881 14.6018 16.125 15.739ZM16.2364 3.87994H11.5664L14.6987 2.74862C15.609 2.42206 16.6961 2.422 17.6011 2.74675L24.5439 5.2725L17.6064 7.76131C16.6961 8.08781 15.6091 8.08794 14.696 7.76031L10.8204 6.37994H16.2364C16.9268 6.37994 17.4864 5.82031 17.4864 5.12994C17.4864 4.43956 16.9268 3.87994 16.2364 3.87994Z" fill="white"/>
</g>
<defs>
<clipPath id="clip0_735_466">
<rect width="32" height="32" fill="white"/>
</clipPath>
</defs>
</svg>
