<svg width="16" height="16" viewBox="0 0 16 16" fill="none" xmlns="http://www.w3.org/2000/svg">
<path d="M13.6996 2.72607H2.27107C1.28502 2.72641 0.485798 3.52574 0.485352 4.51179V11.1795C0.485798 12.1656 1.28502 12.965 2.27107 12.9652H13.6996C14.6857 12.965 15.4849 12.1656 15.4854 11.1795V4.51179C15.4849 3.52574 14.6857 2.72641 13.6996 2.72607ZM2.27107 3.44036H13.6996C14.214 3.4417 14.6554 3.80677 14.7532 4.31168L7.98535 8.08322L1.21749 4.31168C1.31526 3.80677 1.75667 3.4417 2.27107 3.44036ZM13.6996 12.2475H2.27107C1.68011 12.2457 1.20131 11.767 1.19964 11.1761V5.11893L7.81035 8.80453C7.86392 8.834 7.92408 8.85007 7.98535 8.85107C8.04685 8.85174 8.10723 8.83567 8.16035 8.80453L14.7711 5.11893V11.1761C14.7706 11.7676 14.2912 12.2469 13.6996 12.2475Z" fill="#102752"/>
</svg>
