<svg width="16" height="16" viewBox="0 0 16 16" fill="none" xmlns="http://www.w3.org/2000/svg">
<path d="M12.1123 2.05873C12.1123 1.18674 11.4055 0.47998 10.5336 0.47998H5.06617C4.19418 0.47998 3.4873 1.18674 3.4873 2.05873V13.9012C3.4873 14.7732 4.19418 15.48 5.06617 15.48H10.5336C11.4055 15.48 12.1123 14.7732 12.1123 13.9012V2.05873ZM4.2373 3.21748H11.3623V11.955H4.2373V3.21748ZM5.05855 1.22998H10.5412C10.9981 1.22998 11.3623 1.61084 11.3623 2.06787V2.46748H4.2373V2.06787C4.2373 1.61084 4.60164 1.22998 5.05855 1.22998ZM10.5412 14.73H5.05855C4.60809 14.7333 4.24047 14.3705 4.2373 13.92V12.705H11.3623V13.9104C11.3645 14.3609 11.0012 14.7278 10.5508 14.73H10.5412Z" fill="#102752"/>
<path d="M8.53417 13.3423H7.0664C6.85922 13.3423 6.69141 13.5101 6.69141 13.7173C6.69141 13.9245 6.85922 14.0923 7.0664 14.0923H8.53417C8.74124 14.0923 8.90917 13.9245 8.90917 13.7173C8.90917 13.5101 8.74124 13.3423 8.53417 13.3423Z" fill="#102752"/>
</svg>
