<svg width="132" height="60" viewBox="0 0 132 60" fill="none" xmlns="http://www.w3.org/2000/svg">
<g clip-path="url(#clip0_206_4055)">
<path d="M10.655 28.8383H24.4036C24.4944 28.8293 24.5859 28.8293 24.6767 28.8383C24.7738 28.8243 24.9939 28.4855 24.9939 28.0445C24.9939 27.8221 24.4567 27.2328 23.8108 27.2328C23.7228 27.2349 23.6352 27.2186 23.554 27.1848C23.4728 27.1511 23.3998 27.1008 23.3396 27.0372C23.1688 26.8545 23.1041 26.5796 23.1339 26.1706C23.2491 24.6366 23.1132 22.369 21.6285 20.9692L12.0271 21.832C10.9061 23.2804 10.7987 25.0981 10.8478 26.1245C10.8516 26.167 10.8516 26.2098 10.8478 26.2523C10.8195 26.5757 10.7884 26.9439 10.5152 27.2123C10.3804 27.3483 10.202 27.4336 10.0104 27.454C9.95215 27.4624 9.89459 27.4753 9.83831 27.4923C9.4785 27.6022 9.25842 27.7812 9.18204 28.0215C9.12128 28.2831 9.16486 28.5578 9.30373 28.7884C9.44743 28.938 9.75028 28.9163 9.97934 28.8882L9.95215 28.8307H10.5204C10.5654 28.826 10.6108 28.8286 10.655 28.8383ZM20.4067 26.1744C20.5361 26.2268 20.3691 26.8647 20.2863 27.1331C20.2034 27.4015 20.1569 27.5588 20.0197 27.716C19.8469 27.8996 19.626 28.0324 19.3815 28.0995C19.158 28.1748 18.9227 28.2107 18.6865 28.2056C18.3759 28.2056 18.1597 28.1327 17.7507 27.9946C16.4952 27.5728 14.995 27.5191 15.8 27.5102C15.8751 27.5102 16.7359 27.4322 17.673 27.3415C18.0119 27.3195 18.349 27.2768 18.6826 27.2136C19.0515 27.128 19.4709 27.0283 19.8579 26.7177C20.2177 26.4287 20.3225 26.1386 20.4067 26.1744ZM18.3357 21.7209C18.9583 21.6237 19.6094 22.4712 19.7905 23.6127C19.9718 24.7542 19.6133 25.7564 18.9906 25.8535C18.3681 25.9507 17.7157 25.1032 17.5345 23.9617C17.3533 22.8202 17.7067 21.8167 18.3306 21.7209H18.3357ZM15.3017 22.0916C15.9412 22.0391 16.5405 22.9455 16.6388 24.1176C16.7372 25.2898 16.2997 26.2804 15.6603 26.3342C15.0209 26.3878 14.4228 25.479 14.3233 24.3081C14.2236 23.1372 14.6572 22.144 15.2965 22.0916H15.3017Z" fill="#639CFF"/>
<path d="M42.3935 39.9694C42.897 39.9694 43.1247 39.6447 43.1247 38.9161V33.2417C43.1247 32.5489 42.9306 32.1948 42.3883 32.1948C41.9275 32.1948 41.6738 32.5234 41.6738 33.2584V38.9276C41.679 39.6114 41.9107 39.9694 42.3935 39.9694Z" fill="#639CFF"/>
<path d="M17.4052 44.3462V44.0368L10.3315 29.6139L10.2927 29.6217C10.1026 29.6595 9.90932 29.68 9.71539 29.6829C9.53518 29.6925 9.35489 29.6649 9.18599 29.6019C9.01708 29.539 8.86328 29.4421 8.73426 29.3174C8.57656 29.1118 8.46689 28.8743 8.41318 28.6219C8.35947 28.3695 8.36304 28.1085 8.42365 27.8576C8.51942 27.4933 8.80416 27.0088 9.60794 26.7621C9.6958 26.7357 9.7853 26.7153 9.87592 26.7008C9.90311 26.7008 9.94065 26.6893 9.95101 26.6854L9.96784 26.6714C10.0364 26.6036 10.0558 26.4042 10.0726 26.206C10.0726 26.1958 10.0726 26.1805 10.0726 26.1613C10.0234 25.1387 10.1179 23.4015 11.0615 21.8701L10.6564 17.4639L7.09563 17.7835V20.8194C7.20039 20.8626 7.29096 20.9337 7.35726 21.0246C7.42356 21.1156 7.46299 21.223 7.47117 21.3348C7.47936 21.4467 7.45597 21.5585 7.40361 21.6579C7.35125 21.7575 7.27197 21.8406 7.1746 21.8983L8.00686 23.5933H5.70551L6.53907 21.8983C6.44164 21.8408 6.36229 21.7576 6.30983 21.6583C6.25736 21.5589 6.23385 21.447 6.24189 21.3352C6.24995 21.2234 6.28924 21.116 6.35541 21.0249C6.42159 20.9338 6.51204 20.8627 6.61673 20.8194V17.8257L5.19294 17.9535L5.11657 17.1149L27.3277 15.1208L27.4053 15.9593L22.158 16.4298L22.5618 20.836C23.6064 22.0849 24.0814 23.9154 23.908 26.2265C23.8996 26.3068 23.8996 26.3878 23.908 26.4681C24.9033 26.5218 25.768 27.3705 25.768 28.0443C25.768 28.7882 25.3538 29.5897 24.6858 29.6037L17.6472 43.9627H57.2686C59.5647 39.6583 60.7613 34.8651 60.7543 30C60.7543 13.4309 47.1532 0 30.3772 0C13.601 0 0 13.4309 0 30C0 46.5691 13.5997 60 30.3772 60C35.8394 60.0018 41.2009 58.5488 45.8971 55.7938C50.5933 53.0389 54.4501 49.0842 57.0615 44.3462H17.4052ZM52.1404 30.5318H57.5766V32.4185H55.9315V41.6222H53.7751V32.4185H52.1404V30.5318ZM46.1669 38.2015H48.2793V38.9685C48.2793 39.6983 48.4631 40.0371 48.955 40.0371C49.4468 40.0371 49.5697 39.5347 49.5697 39.0144C49.5697 37.9676 49.3705 37.6646 48.2237 36.7136C46.9591 35.6551 46.3093 35.0288 46.3093 33.39C46.3093 31.8062 46.84 30.3464 48.9666 30.3464C51.2253 30.3464 51.5553 31.8675 51.5553 33.1369V33.7761H49.5219V33.1113C49.5219 32.439 49.4106 32.1066 48.9835 32.1066C48.5848 32.1066 48.4566 32.4453 48.4566 33.073C48.4566 33.7402 48.5796 34.0701 49.5077 34.7859C51.1593 36.0642 51.7521 36.7864 51.7521 38.6131C51.7521 40.349 51.1502 41.7794 48.92 41.7794C46.7779 41.7794 46.1669 40.5011 46.1669 38.8611V38.2015ZM39.4881 33.4386C39.4881 31.2975 40.6801 30.363 42.4095 30.363C44.1387 30.363 45.3204 31.2821 45.3204 33.4961V38.6412C45.3204 40.8411 44.272 41.7845 42.3085 41.7845C40.4459 41.7845 39.4881 40.8181 39.4881 38.6629V33.4386ZM32.5815 30.5292H34.743V34.7974H36.1513V30.5318H38.3258V41.6209H36.1513V36.6867H34.743V41.6209H32.5815V30.5292ZM31.2573 33.3414V33.84H29.0828V33.2354C29.0828 32.6985 29.0168 32.1999 28.4175 32.1999C27.923 32.1999 27.7406 32.5578 27.7406 33.2801V38.9646C27.7406 39.7201 27.9865 39.9962 28.4175 39.9962C28.943 39.9962 29.1217 39.5922 29.1217 38.6808V37.0855H28.3787V35.2806H31.2897V41.6209H29.6665C29.614 41.3499 29.5802 41.0757 29.5655 40.8002C29.2096 41.5787 28.4887 41.787 27.7949 41.787C26.0475 41.787 25.5557 40.5087 25.5557 38.691V33.4743C25.5557 31.773 26.2689 30.3656 28.411 30.3656C30.9971 30.3656 31.2573 32.2242 31.2573 33.3427V33.3414Z" fill="#639CFF"/>
<path d="M17.8955 29.605C17.8955 31.6848 17.8955 33.9882 17.8955 36.2942V37.607H19.9004L23.8236 29.605H17.8955Z" fill="#639CFF"/>
<path d="M17.1196 37.607V36.2942C17.1196 33.9933 17.1196 31.6848 17.1196 29.605H11.1914L15.1146 37.607H17.1196Z" fill="#639CFF"/>
<path d="M131.161 44.3458H57.0615L57.2764 43.9624H131.161V44.3458Z" fill="#639CFF"/>
<path d="M64.1607 41.6209L62.8896 30.5317H65.1638C65.323 32.5156 65.5521 36.2725 65.6039 38.0225H65.679C65.9055 35.8494 66.1747 32.8327 66.4129 30.5317H68.2716C68.5019 32.7049 68.7595 35.6781 68.9705 37.9854H69.0572C69.1569 35.9172 69.3614 32.361 69.5089 30.5317H71.6407L70.2169 41.6209H67.9842C67.7642 39.6753 67.482 37.5303 67.2827 35.2384H67.2076C66.9915 37.4946 66.6549 39.6165 66.418 41.6209H64.1607Z" fill="#639CFF"/>
<path d="M74.6593 36.8005V41.6209H72.5029V30.5317H75.3051C77.1871 30.5317 78.1165 31.3486 78.1165 33.2877V33.6865C78.1165 35.2665 77.4783 35.7318 76.9968 35.9619C77.6945 36.2942 78.0233 36.8017 78.0233 38.3485C78.0233 39.4196 78.0065 41.0329 78.0997 41.6209H76.0106C75.8708 41.1198 75.8812 39.6766 75.8812 38.2603C75.8812 37.0126 75.7362 36.8005 74.9143 36.8005H74.6593ZM74.6658 35.1195H74.9324C75.6546 35.1195 75.9485 34.8945 75.9485 33.8629V33.3273C75.9485 32.5834 75.797 32.2127 75.0023 32.2127H74.6658V35.1195Z" fill="#639CFF"/>
<path d="M81.4468 30.5317V41.6209H79.2891V30.5317H81.4468Z" fill="#639CFF"/>
<path d="M83.837 32.4185H82.2021V30.5317H87.6385V32.4185H85.9933V41.6221H83.837V32.4185Z" fill="#639CFF"/>
<path d="M92.8703 36.7237H90.5547V39.7469H93.2734L93.0144 41.6209H88.3936V30.5317H92.9937V32.4185H90.5547V34.8472H92.8703V36.7237Z" fill="#639CFF"/>
<path d="M96.197 36.8005V41.6209H94.041V30.5317H96.8434C98.7249 30.5317 99.6544 31.3486 99.6544 33.2877V33.6865C99.6544 35.2665 99.0149 35.7318 98.5333 35.9619C99.2324 36.2942 99.5603 36.8017 99.5603 38.3485C99.5603 39.4196 99.5431 41.0329 99.638 41.6209H97.5485C97.4087 41.1198 97.4191 39.6766 97.4191 38.2603C97.4191 37.0126 97.2741 36.8005 96.4524 36.8005H96.197ZM96.197 35.1195H96.4636C97.186 35.1195 97.4803 34.8945 97.4803 33.8629V33.3273C97.4803 32.5834 97.3284 32.2127 96.5336 32.2127H96.197V35.1195Z" fill="#639CFF"/>
<path d="M102.063 39.228V39.5847C102.063 40.6072 102.517 41.0291 103.169 41.0291C103.946 41.0291 104.241 40.5434 104.241 39.623C104.241 38.6247 103.937 38.2284 103.015 37.6173C101.902 36.8811 101.399 36.3045 101.399 35.1707C101.399 34.0624 101.886 33.1255 103.21 33.1255C104.634 33.1255 104.979 34.1187 104.979 35.1796V35.5964H104.165V35.1733C104.165 34.3718 103.948 33.8516 103.186 33.8516C102.516 33.8516 102.237 34.3015 102.237 35.0902C102.237 35.8789 102.472 36.21 103.375 36.8184C104.451 37.5356 105.085 38.1095 105.085 39.4939C105.085 40.9485 104.479 41.7539 103.122 41.7539C101.635 41.7539 101.224 40.7313 101.224 39.6102V39.2267L102.063 39.228Z" fill="#639CFF"/>
<path d="M106.99 37.5369V39.0043C106.99 39.9681 107.169 41.0291 108.142 41.0291C109.039 41.0291 109.233 40.3478 109.233 39.4057V39.3162H110.051V39.3916C110.051 40.4258 109.792 41.7539 108.123 41.7539C106.632 41.7539 106.173 40.7313 106.173 39.0298V35.6488C106.173 34.2926 106.682 33.1255 108.162 33.1255C109.671 33.1255 110.07 34.3168 110.07 35.659V37.5369H106.99ZM109.258 36.8312V35.6513C109.258 34.8665 109.17 33.8516 108.148 33.8516C107.165 33.8516 106.993 34.6965 106.993 35.6642V36.8312H109.258Z" fill="#639CFF"/>
<path d="M111.403 36.114C111.403 34.7936 111.403 33.9218 111.387 33.2584H112.181C112.198 33.5204 112.217 33.8911 112.217 34.5366C112.515 33.5779 113.232 33.1868 113.944 33.1587V34.1685C112.84 34.1825 112.229 35.0301 112.229 36.3978V41.626H111.403V36.114Z" fill="#639CFF"/>
<path d="M115.496 33.2583C115.739 34.5046 116.683 39.2662 116.848 40.6633H116.866C116.977 39.4605 118.03 34.6286 118.267 33.2583H119.107L117.32 41.6208H116.363L114.625 33.2583H115.496Z" fill="#639CFF"/>
<path d="M120.137 33.2585H120.962V41.621H120.137V33.2585ZM120.137 30.0244H120.962V31.6632H120.137V30.0244Z" fill="#639CFF"/>
<path d="M126.182 39.0759V39.1922C126.182 40.5894 125.821 41.7488 124.254 41.7488C122.815 41.7488 122.377 40.7325 122.377 39.0644V35.5542C122.377 34.1034 122.944 33.1255 124.319 33.1255C125.809 33.1255 126.177 34.2197 126.177 35.3919V35.7498H125.343V35.5069C125.343 34.6658 125.2 33.8516 124.299 33.8516C123.532 33.8516 123.211 34.4115 123.211 35.6041V39.1641C123.211 40.0474 123.382 41.0291 124.272 41.0291C125.033 41.0291 125.343 40.5702 125.343 39.2395V39.0695L126.182 39.0759Z" fill="#639CFF"/>
<path d="M128.108 37.5369V39.0043C128.108 39.9681 128.288 41.0291 129.261 41.0291C130.157 41.0291 130.351 40.3478 130.351 39.4057V39.3162H131.168V39.3916C131.168 40.4258 130.909 41.7539 129.241 41.7539C127.749 41.7539 127.291 40.7313 127.291 39.0298V35.6488C127.291 34.2926 127.8 33.1255 129.28 33.1255C130.789 33.1255 131.187 34.3168 131.187 35.659V37.5369H128.108ZM130.377 36.8312V35.6513C130.377 34.8665 130.288 33.8516 129.267 33.8516C128.284 33.8516 128.111 34.6965 128.111 35.6642V36.8312H130.377Z" fill="#639CFF"/>
</g>
<defs>
<clipPath id="clip0_206_4055">
<rect width="131.186" height="60" fill="white"/>
</clipPath>
</defs>
</svg>
