<svg width="32" height="32" viewBox="0 0 32 32" fill="none" xmlns="http://www.w3.org/2000/svg">
<path d="M0 0H28C30.2091 0 32 1.79086 32 4V28C32 30.2091 30.2091 32 28 32H0V0Z" fill="#639CFF"/>
<path d="M20 15.2001C20.4418 15.2001 20.8 14.8419 20.8 14.4001C20.8 13.9583 20.4418 13.6001 20 13.6001C19.5582 13.6001 19.2 13.9583 19.2 14.4001C19.2 14.8419 19.5582 15.2001 20 15.2001Z" fill="white"/>
<path d="M21.5 9.25H20.6875V8.625C20.6875 8.27981 20.4077 8 20.0625 8C19.7173 8 19.4375 8.27981 19.4375 8.625V9.25H16.5938V8.625C16.5938 8.27981 16.3139 8 15.9688 8C15.6236 8 15.3438 8.27981 15.3438 8.625V9.25H12.5312V8.625C12.5312 8.27981 12.2514 8 11.9062 8C11.5611 8 11.2812 8.27981 11.2812 8.625V9.25H10.5C9.1215 9.25 8 10.3715 8 11.75V21.5C8 22.8785 9.1215 24 10.5 24H15.2812C15.6264 24 15.9062 23.7202 15.9062 23.375C15.9062 23.0298 15.6264 22.75 15.2812 22.75H10.5C9.81075 22.75 9.25 22.1892 9.25 21.5V11.75C9.25 11.0608 9.81075 10.5 10.5 10.5H11.2812V11.125C11.2812 11.4702 11.5611 11.75 11.9062 11.75C12.2514 11.75 12.5312 11.4702 12.5312 11.125V10.5H15.3438V11.125C15.3438 11.4702 15.6236 11.75 15.9688 11.75C16.3139 11.75 16.5938 11.4702 16.5938 11.125V10.5H19.4375V11.125C19.4375 11.4702 19.7173 11.75 20.0625 11.75C20.4077 11.75 20.6875 11.4702 20.6875 11.125V10.5H21.5C22.1892 10.5 22.75 11.0608 22.75 11.75V15.3125C22.75 15.6577 23.0298 15.9375 23.375 15.9375C23.7202 15.9375 24 15.6577 24 15.3125V11.75C24 10.3715 22.8785 9.25 21.5 9.25Z" fill="white"/>
<path d="M20.4 16.7998C18.4149 16.7998 16.8 18.4147 16.8 20.3998C16.8 22.3849 18.4149 23.9998 20.4 23.9998C22.3851 23.9998 24 22.3849 24 20.3998C24 18.4147 22.3851 16.7998 20.4 16.7998ZM20.4 22.8097C19.0712 22.8097 17.9901 21.7287 17.9901 20.3998C17.9901 19.071 19.0712 17.9899 20.4 17.9899C21.7288 17.9899 22.8099 19.071 22.8099 20.3998C22.8099 21.7287 21.7288 22.8097 20.4 22.8097Z" fill="white"/>
<path d="M20.9043 19.6147H20.5913V18.9925C20.5913 18.6652 20.2799 18.3999 19.8956 18.3999C19.5114 18.3999 19.2 18.6652 19.2 18.9925V20.2073C19.2 20.5346 19.5114 20.7999 19.8956 20.7999H20.9043C21.2886 20.7999 21.6 20.5346 21.6 20.2073C21.6 19.88 21.2886 19.6147 20.9043 19.6147Z" fill="white"/>
<path d="M17.6 15.2001C18.0418 15.2001 18.4 14.8419 18.4 14.4001C18.4 13.9583 18.0418 13.6001 17.6 13.6001C17.1582 13.6001 16.8 13.9583 16.8 14.4001C16.8 14.8419 17.1582 15.2001 17.6 15.2001Z" fill="white"/>
<path d="M15.2 18.3998C15.6418 18.3998 16 18.0416 16 17.5998C16 17.158 15.6418 16.7998 15.2 16.7998C14.7582 16.7998 14.4 17.158 14.4 17.5998C14.4 18.0416 14.7582 18.3998 15.2 18.3998Z" fill="white"/>
<path d="M12 15.2001C12.4418 15.2001 12.8 14.8419 12.8 14.4001C12.8 13.9583 12.4418 13.6001 12 13.6001C11.5582 13.6001 11.2 13.9583 11.2 14.4001C11.2 14.8419 11.5582 15.2001 12 15.2001Z" fill="white"/>
<path d="M12 18.3998C12.4418 18.3998 12.8 18.0416 12.8 17.5998C12.8 17.158 12.4418 16.7998 12 16.7998C11.5582 16.7998 11.2 17.158 11.2 17.5998C11.2 18.0416 11.5582 18.3998 12 18.3998Z" fill="white"/>
<path d="M12 20.8002C12.4418 20.8002 12.8 20.442 12.8 20.0002C12.8 19.5584 12.4418 19.2002 12 19.2002C11.5582 19.2002 11.2 19.5584 11.2 20.0002C11.2 20.442 11.5582 20.8002 12 20.8002Z" fill="white"/>
<path d="M15.2 20.8002C15.6418 20.8002 16 20.442 16 20.0002C16 19.5584 15.6418 19.2002 15.2 19.2002C14.7582 19.2002 14.4 19.5584 14.4 20.0002C14.4 20.442 14.7582 20.8002 15.2 20.8002Z" fill="white"/>
<path d="M15.2 15.2001C15.6418 15.2001 16 14.8419 16 14.4001C16 13.9583 15.6418 13.6001 15.2 13.6001C14.7582 13.6001 14.4 13.9583 14.4 14.4001C14.4 14.8419 14.7582 15.2001 15.2 15.2001Z" fill="white"/>
</svg>
