<svg width="32" height="32" viewBox="0 0 32 32" fill="none" xmlns="http://www.w3.org/2000/svg">
<g clip-path="url(#clip0_735_444)">
<path d="M29.3039 27.9331C29.1636 27.2572 28.5019 26.8228 27.8259 26.9633C27.15 27.1036 26.7158 27.7654 26.8561 28.4413C26.911 28.7058 26.844 28.9785 26.6722 29.1896C26.5779 29.3055 26.3698 29.4997 26.0344 29.4997H17.7334L21.1088 20.8682C22.338 21.5051 23.4497 22.3735 24.3765 23.4432C24.8285 23.965 25.6179 24.0215 26.1397 23.5695C26.6615 23.1175 26.718 22.328 26.266 21.8062C24.7312 20.0346 22.7835 18.7132 20.6257 17.9338C22.1912 16.6143 23.1877 14.6401 23.1877 12.4372C23.1877 11.1433 22.8479 9.90239 22.2112 8.81508L26.0627 7.39595V13.5623C26.0627 14.2526 26.6223 14.8123 27.3127 14.8123C28.0031 14.8123 28.5627 14.2526 28.5627 13.5623V5.68726C28.5627 5.67495 28.5612 5.66295 28.5608 5.6507C28.5614 5.63489 28.5627 5.61914 28.5627 5.6032V5.53289C28.5627 5.01376 28.2418 4.54864 27.7565 4.36433L16.4793 0.0812026C16.1946 -0.0269224 15.8802 -0.0274224 15.5951 0.0798901L4.24725 4.35139C3.76012 4.53476 3.43762 5.00077 3.43762 5.52127V5.59158C3.43762 6.11639 3.76544 6.58533 4.25831 6.76558L9.80206 8.79277C9.15694 9.88502 8.81256 11.1335 8.81256 12.4373C8.81256 14.6426 9.81125 16.6187 11.3797 17.9382C9.93169 18.4628 8.57256 19.2326 7.37144 20.2235C4.98337 22.1935 3.32306 24.9411 2.69625 27.9605C2.48925 28.9576 2.73819 29.9814 3.37931 30.7692C4.01569 31.5513 4.95844 31.9998 5.96581 31.9998H26.0344C27.0349 31.9998 27.9741 31.5506 28.6113 30.7676C29.2599 29.9705 29.5124 28.9373 29.3039 27.9331ZM8.18631 5.53995L16.0335 2.58614L23.8393 5.55089L20.3228 6.84664C19.0943 6.27608 17.1849 6.17345 16.0139 6.17083C14.8426 6.16689 12.9318 6.26158 11.7029 6.82589L8.18631 5.53995ZM11.3126 12.4373C11.3126 11.1813 11.8026 10.004 12.6919 9.11777C12.9333 8.97033 14.0435 8.67076 15.9669 8.67076C15.9815 8.67076 15.9963 8.67076 16.011 8.67076C17.9629 8.67539 19.0853 8.98508 19.3261 9.13514C20.204 10.0192 20.6876 11.1905 20.6876 12.4372C20.6876 15.0219 18.5848 17.1247 16.0001 17.1247C13.4154 17.1247 11.3126 15.022 11.3126 12.4373ZM5.96581 29.4998C5.62094 29.4998 5.41219 29.3065 5.3185 29.1913C5.222 29.0727 5.071 28.8211 5.14412 28.4686C5.83719 25.1301 8.01681 22.3883 10.8969 20.8825L14.2669 29.4998H5.96581ZM13.2289 19.9811C14.1194 19.7485 15.0487 19.6248 16.0001 19.6248C16.9456 19.6248 17.8764 19.7456 18.7732 19.9765L16.0001 27.0676L13.2289 19.9811Z" fill="white"/>
</g>
<defs>
<clipPath id="clip0_735_444">
<rect width="32" height="32" fill="white"/>
</clipPath>
</defs>
</svg>
