<svg width="32" height="32" viewBox="0 0 32 32" fill="none" xmlns="http://www.w3.org/2000/svg">
<circle cx="16" cy="16" r="16" fill="#1BD741"/>
<g clip-path="url(#clip0_128_735)">
<path d="M15.452 9.4668C11.9093 9.4668 9.03731 12.3161 9.03731 15.8321C9.03731 17.0348 9.37331 18.1588 9.95731 19.1188L8.79997 22.5335L12.352 21.4055C13.2706 21.9095 14.328 22.1975 15.452 22.1975C18.9947 22.1975 21.8667 19.3468 21.8667 15.8321C21.8667 12.3161 18.9947 9.4668 15.452 9.4668ZM18.6413 18.2495C18.4907 18.6241 17.808 18.9655 17.5067 18.9801C17.2053 18.9961 17.1973 19.2135 15.5573 18.5015C13.9173 17.7895 12.9306 16.0561 12.8533 15.9441C12.776 15.8335 12.2186 15.0388 12.248 14.2388C12.2786 13.4388 12.716 13.0615 12.872 12.9055C13.028 12.7481 13.2066 12.7201 13.316 12.7188C13.4453 12.7161 13.5293 12.7148 13.624 12.7188C13.72 12.7228 13.8626 12.6988 13.9866 13.0295C14.1106 13.3601 14.408 14.1708 14.4453 14.2548C14.4826 14.3375 14.5066 14.4335 14.448 14.5401C14.3893 14.6468 14.3586 14.7135 14.2746 14.8055C14.1893 14.8975 14.0946 15.0108 14.0186 15.0815C13.9333 15.1588 13.844 15.2441 13.9346 15.4108C14.024 15.5775 14.3333 16.1215 14.8026 16.5695C15.4067 17.1455 15.928 17.3375 16.0893 17.4241C16.2507 17.5121 16.3467 17.5015 16.4453 17.3975C16.544 17.2921 16.872 16.9388 16.988 16.7801C17.104 16.6215 17.212 16.6521 17.36 16.7121C17.508 16.7721 18.2973 17.1948 18.4587 17.2828C18.62 17.3695 18.7267 17.4148 18.7653 17.4841C18.804 17.5495 18.792 17.8748 18.6413 18.2495Z" fill="white"/>
</g>
<defs>
<clipPath id="clip0_128_735">
<rect width="13.3333" height="13.3333" fill="white" transform="translate(8.66666 9.3335)"/>
</clipPath>
</defs>
</svg>
