<svg width="32" height="32" viewBox="0 0 32 32" fill="none" xmlns="http://www.w3.org/2000/svg">
<g clip-path="url(#clip0_128_1015)">
<path d="M29.2829 19.161C29.0244 18.5209 28.2956 18.2118 27.6555 18.4706C27.0156 18.7294 26.7065 19.4579 26.9653 20.098L28.4372 23.7396L24.0649 21.8124C23.7485 21.6727 23.3884 21.6705 23.0703 21.8063C21.5759 22.4437 19.9751 22.767 18.3125 22.767C11.6203 22.767 7.12497 17.5275 7.12497 12.6337C7.12497 7.04602 12.1438 2.50012 18.3125 2.50012C24.4812 2.50012 29.5 7.04602 29.5 12.6337C29.5 13.0695 29.4594 13.5914 29.3886 14.0656C29.2868 14.7484 29.7578 15.3846 30.4404 15.4865C31.1233 15.5883 31.7595 15.1173 31.8613 14.4344C31.9507 13.8351 32 13.1954 32 12.6337C32 9.23792 30.562 6.05188 27.9509 3.66223C25.3708 1.30066 21.948 0.00012207 18.3125 0.00012207C14.677 0.00012207 11.2541 1.30066 8.67404 3.66223C6.34079 5.79773 4.94528 8.56946 4.67453 11.558C1.73972 13.5016 -2.85507e-05 16.6158 -2.85507e-05 19.9703C-2.85507e-05 22.0658 0.660128 24.0543 1.91696 25.7653L0.0910359 30.2816C-0.0996379 30.7533 0.0146199 31.2933 0.379854 31.6476C0.617891 31.8783 0.931856 32.0001 1.25022 32.0001C1.42038 32.0001 1.59201 31.9655 1.75412 31.8939L7.01853 29.5734C8.34274 30.0663 9.74265 30.3158 11.1875 30.3158C11.2187 30.3158 11.2495 30.3134 11.28 30.3112C13.3698 30.2953 15.4016 29.7455 17.1611 28.7169C18.7373 27.7955 20.0339 26.5294 20.9428 25.0345C21.83 24.8751 22.6975 24.6344 23.5395 24.3126L30.2458 27.2689C30.4079 27.3405 30.5793 27.3751 30.7497 27.3751C31.0681 27.3751 31.3818 27.2533 31.6198 27.0226C31.9853 26.6683 32.0993 26.1283 31.9087 25.6566L29.2829 19.161ZM11.1875 27.8126C11.1704 27.8126 11.1538 27.8143 11.1369 27.8151C9.86057 27.8087 8.63205 27.5577 7.48459 27.0682C7.16648 26.9325 6.80637 26.9347 6.48996 27.0741L3.56272 28.3646L4.50705 26.0287C4.68161 25.5968 4.60153 25.1039 4.29929 24.7491C3.12229 23.3683 2.49997 21.7157 2.49997 19.9703C2.49997 17.9728 3.3403 16.0802 4.81052 14.6451C5.26828 17.1403 6.55979 19.5272 8.50827 21.4025C10.9326 23.7357 14.1396 25.0875 17.6023 25.2504C15.9765 26.8505 13.6501 27.8126 11.1875 27.8126ZM20.125 13.8126C20.8154 13.8126 21.375 14.3722 21.375 15.0626C21.375 15.7531 20.8154 16.3126 20.125 16.3126H12.625C11.9345 16.3126 11.375 15.7531 11.375 15.0626C11.375 14.3722 11.9345 13.8126 12.625 13.8126H20.125ZM23.875 11.3126H12.625C11.9345 11.3126 11.375 10.7531 11.375 10.0626C11.375 9.37219 11.9345 8.81262 12.625 8.81262H23.875C24.5654 8.81262 25.125 9.37219 25.125 10.0626C25.125 10.7531 24.5654 11.3126 23.875 11.3126Z" fill="white"/>
</g>
<defs>
<clipPath id="clip0_128_1015">
<rect width="32" height="32" fill="white" transform="translate(0 0.00012207)"/>
</clipPath>
</defs>
</svg>
