<svg width="32" height="28" viewBox="0 0 32 28" fill="none" xmlns="http://www.w3.org/2000/svg">
<path d="M30.75 21.5001C30.0596 21.5001 29.5 22.0597 29.5 22.7501C29.5 24.1286 28.3785 25.2501 27 25.2501H17.4584L14.5844 21.5216L23.6561 9.983L29.7852 17.2949C29.7974 17.3097 29.8099 17.3242 29.8227 17.3383C29.8231 17.3388 29.8236 17.3393 29.824 17.3398C29.8255 17.3415 29.8271 17.3432 29.8286 17.3449C29.9424 17.4692 30.0762 17.5655 30.2209 17.6329C30.3695 17.7024 30.5341 17.7436 30.7076 17.7493C30.7108 17.7494 30.714 17.7496 30.7172 17.7496C30.7178 17.7496 30.7183 17.7496 30.7188 17.7497C30.8081 17.7519 30.8978 17.7447 30.9861 17.7278L30.9894 17.7272C30.9932 17.7264 30.9971 17.7257 31.0011 17.7249C31.0026 17.7246 31.0042 17.7242 31.0059 17.7239C31.0092 17.7232 31.0126 17.7225 31.016 17.7217C31.0179 17.7213 31.0198 17.7209 31.0216 17.7205C31.0247 17.7198 31.0278 17.7191 31.0308 17.7184C31.033 17.7179 31.0352 17.7174 31.0373 17.7169C31.0401 17.7162 31.0428 17.7156 31.0456 17.7149C31.0479 17.7144 31.0503 17.7137 31.0526 17.7132C31.0552 17.7126 31.0578 17.7119 31.0604 17.7112C31.0627 17.7106 31.0651 17.71 31.0674 17.7094C31.0701 17.7087 31.0726 17.708 31.0753 17.7073C31.0776 17.7067 31.08 17.706 31.0824 17.7054L31.0897 17.7034C31.0922 17.7026 31.0948 17.7019 31.0974 17.7012C31.0999 17.7005 31.1023 17.6997 31.1047 17.6991C31.1068 17.6985 31.1088 17.6979 31.1108 17.6972C31.1139 17.6963 31.117 17.6954 31.12 17.6944C31.1217 17.6939 31.1234 17.6934 31.125 17.6929C31.1281 17.6919 31.1312 17.6909 31.1343 17.6899C31.1362 17.6893 31.1381 17.6887 31.1399 17.6881C31.143 17.6871 31.1461 17.686 31.1492 17.685C31.1506 17.6845 31.1521 17.684 31.1535 17.6836C31.1569 17.6824 31.1604 17.6812 31.1639 17.68C31.1652 17.6796 31.1665 17.6791 31.1678 17.6786C31.1714 17.6774 31.1749 17.6761 31.1784 17.6748C31.1795 17.6744 31.1806 17.674 31.1817 17.6736C31.1856 17.6721 31.1894 17.6707 31.1933 17.6692L31.1952 17.6685C31.1994 17.6669 31.2037 17.6652 31.2079 17.6636C31.2082 17.6635 31.2084 17.6634 31.2087 17.6632C31.2132 17.6614 31.2178 17.6596 31.2224 17.6577C31.2779 17.6351 31.3323 17.6081 31.3851 17.5769C31.3858 17.5765 31.3866 17.5761 31.3873 17.5756C31.3909 17.5735 31.3944 17.5714 31.398 17.5692C31.4654 17.5283 31.5286 17.4812 31.5868 17.4286C31.5879 17.4277 31.5889 17.4267 31.5899 17.4258C31.5909 17.4249 31.5918 17.4241 31.5928 17.4232C31.7181 17.3089 31.8151 17.1744 31.8829 17.0288C31.9526 16.8796 31.9937 16.7144 31.9993 16.5402C31.9993 16.5379 31.9994 16.5357 31.9994 16.5335C31.9994 16.5321 31.9995 16.5306 31.9995 16.5292C31.9996 16.525 31.9997 16.5207 31.9998 16.5164C31.9998 16.5163 31.9998 16.5162 31.9998 16.5161C31.9998 16.5096 31.9998 16.5029 31.9998 16.4963V5.25012C31.9998 2.49312 29.7568 0.250122 26.9998 0.250122H5C2.243 0.250122 0 2.49306 0 5.25012V22.7501C0 25.5071 2.243 27.7501 5 27.7501H16.8359C16.8388 27.7501 16.8418 27.7502 16.8447 27.7502C16.8486 27.7502 16.8525 27.7502 16.8564 27.7501H27C29.757 27.7501 32 25.5071 32 22.7501C32 22.0597 31.4404 21.5001 30.75 21.5001ZM5 25.2501C3.6215 25.2501 2.5 24.1286 2.5 22.7501V5.25012C2.5 3.87162 3.6215 2.75012 5 2.75012H27C28.3785 2.75012 29.5 3.87162 29.5 5.25012V13.0631L24.5829 7.19712C24.3411 6.9085 23.9827 6.74456 23.6054 6.75025C23.2289 6.75612 22.8751 6.9315 22.6424 7.2275L13.01 19.4791L9.74 15.2369C9.50338 14.9299 9.13762 14.7501 8.75 14.7501H8.74938C8.3615 14.7502 7.99569 14.9305 7.75919 15.2379L5.00825 18.8141C4.58738 19.3613 4.68969 20.1461 5.23688 20.5671C5.78419 20.988 6.56894 20.8856 6.98981 20.3384L8.751 18.0489L14.302 25.2501H5Z" fill="white"/>
</svg>
