<svg width="32" height="32" viewBox="0 0 32 32" fill="none" xmlns="http://www.w3.org/2000/svg">
<path d="M18.5 20.8828C18.5 20.1924 17.9404 19.6328 17.25 19.6328H10.5C9.80963 19.6328 9.25 20.1924 9.25 20.8828C9.25 21.5732 9.80963 22.1328 10.5 22.1328H17.25C17.9404 22.1328 18.5 21.5732 18.5 20.8828Z" fill="white"/>
<path d="M16 27.5703C16.6904 27.5703 17.25 27.0107 17.25 26.3203C17.25 25.63 16.6904 25.0703 16 25.0703C15.3096 25.0703 14.75 25.63 14.75 26.3203C14.75 27.0107 15.3096 27.5703 16 27.5703Z" fill="white"/>
<path d="M26.5 22.0076C27.1904 22.0076 27.75 21.448 27.75 20.7576V5C27.75 2.243 25.507 0 22.75 0H9.25C6.493 0 4.25 2.243 4.25 5V27C4.25 29.757 6.493 32 9.25 32H22.75C25.507 32 27.75 29.757 27.75 27C27.75 26.3096 27.1904 25.75 26.5 25.75C25.8096 25.75 25.25 26.3096 25.25 27C25.25 28.3785 24.1285 29.5 22.75 29.5H9.25C7.8715 29.5 6.75 28.3785 6.75 27V5C6.75 3.6215 7.8715 2.5 9.25 2.5H22.75C24.1285 2.5 25.25 3.6215 25.25 5V20.7576C25.25 21.448 25.8096 22.0076 26.5 22.0076Z" fill="white"/>
<path d="M22.75 16.0078C22.75 15.3174 22.1904 14.7578 21.5 14.7578H10.5C9.80963 14.7578 9.25 15.3174 9.25 16.0078C9.25 16.6982 9.80963 17.2578 10.5 17.2578H21.5C22.1904 17.2578 22.75 16.6982 22.75 16.0078Z" fill="white"/>
<path d="M21.5 5.00781H10.5C9.80963 5.00781 9.25 5.56744 9.25 6.25781C9.25 6.94819 9.80963 7.50781 10.5 7.50781H21.5C22.1904 7.50781 22.75 6.94819 22.75 6.25781C22.75 5.56744 22.1904 5.00781 21.5 5.00781Z" fill="white"/>
<path d="M21.5 9.88281H10.5C9.80963 9.88281 9.25 10.4424 9.25 11.1328C9.25 11.8232 9.80963 12.3828 10.5 12.3828H21.5C22.1904 12.3828 22.75 11.8232 22.75 11.1328C22.75 10.4424 22.1904 9.88281 21.5 9.88281Z" fill="white"/>
</svg>
