<svg width="16" height="16" viewBox="0 0 16 16" fill="none" xmlns="http://www.w3.org/2000/svg">
<path d="M12.1721 2.25421C11.0441 1.12415 9.51297 0.489258 7.91629 0.489258C6.31951 0.489258 4.78848 1.12415 3.66034 2.25421C2.57266 3.34785 1.91764 4.79839 1.81636 6.3375C1.76409 7.18058 1.88774 8.02512 2.17933 8.81772C2.46699 9.60504 2.93428 10.3491 3.57041 11.0249L7.65393 15.3743C7.72183 15.447 7.8167 15.4886 7.91629 15.4893C8.01611 15.4903 8.11178 15.4485 8.17877 15.3743L12.2621 11.0249C12.8982 10.3491 13.3655 9.60504 13.6531 8.81772C13.9483 8.02613 14.0721 7.18069 14.0162 6.3375C13.9142 4.79861 13.2593 3.3483 12.1721 2.25421ZM12.9737 8.56974C12.7186 9.26702 12.3016 9.92856 11.7336 10.5323L7.91629 14.6014L4.09525 10.5323C3.52736 9.92856 3.11043 9.26702 2.85514 8.56974C2.59581 7.8719 2.48689 7.12719 2.53534 6.38427C2.62425 5.01848 3.20519 3.73116 4.17079 2.76095C5.16371 1.76691 6.51117 1.20812 7.91629 1.20812C9.32142 1.20812 10.6688 1.76691 11.6618 2.76095C12.6273 3.73116 13.2084 5.01848 13.2973 6.38427C13.3429 7.1273 13.2327 7.87179 12.9737 8.56974Z" fill="#102752"/>
<path d="M7.91702 3.42236C6.37138 3.42236 5.11328 4.70901 5.11328 6.29062C5.11328 7.87223 6.37138 9.1591 7.91702 9.1591C9.46266 9.1591 10.7208 7.87223 10.7208 6.29062C10.7208 4.70901 9.46266 3.42236 7.91702 3.42236ZM7.91702 8.44024C6.76672 8.44024 5.83214 7.47688 5.83214 6.29062C5.83214 5.10447 6.76672 4.14123 7.91702 4.14123C9.06731 4.14123 10.0019 5.10447 10.0019 6.29062C10.0019 7.47688 9.06731 8.44024 7.91702 8.44024Z" fill="#102752"/>
</svg>
