<svg width="32" height="32" viewBox="0 0 32 32" fill="none" xmlns="http://www.w3.org/2000/svg">
<path d="M32 1.25V6.25C32 6.9375 31.4375 7.5 30.75 7.5H29.5V17.9375C29.5 18.625 28.9375 19.1875 28.25 19.1875C27.5625 19.1875 27 18.625 27 17.9375V7.5H25.75C25.0625 7.5 24.5 6.9375 24.5 6.25V5H7.5V6.25C7.5 6.9375 6.9375 7.5 6.25 7.5H5V24.5H6.25C6.9375 24.5 7.5 25.0625 7.5 25.75V27H17.75C18.4375 27 19 27.5625 19 28.25C19 28.9375 18.4375 29.5 17.75 29.5H7.5V30.75C7.5 31.4375 6.9375 32 6.25 32H1.25C0.5625 32 0 31.4375 0 30.75V25.75C0 25.0625 0.5625 24.5 1.25 24.5H2.5V7.5H1.25C0.5625 7.5 0 6.9375 0 6.25V1.25C0 0.5625 0.5625 0 1.25 0H6.25C6.9375 0 7.5 0.5625 7.5 1.25V2.5H24.5V1.25C24.5 0.5625 25.0625 0 25.75 0H30.75C31.4375 0 32 0.5625 32 1.25ZM5 27H2.5V29.5H5V27ZM5 2.5H2.5V5H5V2.5ZM29.5 2.5H27V5H29.5V2.5ZM31.9375 22.25V28.875C31.9375 30.6 30.5375 32 28.8125 32H22.0625C21.5562 32 21.1 31.6938 20.9062 31.225C20.7125 30.7563 20.825 30.2188 21.1875 29.8625L29.8125 21.3625C30.1688 21.0062 30.7062 20.9062 31.175 21.1C31.6437 21.2938 31.9375 21.7437 31.9375 22.25ZM29.4375 25.2375L25.1125 29.5H28.8125C29.1562 29.5 29.4375 29.2188 29.4375 28.875V25.2375Z" fill="#E5E5E5"/>
<path d="M10.8937 9.3374H8.28749C7.59374 9.3374 7.02499 9.8999 7.02499 10.5999C7.02499 11.2999 7.58749 11.8624 8.28749 11.8624H9.63124V22.7937C9.63124 23.4874 10.1937 24.0562 10.8937 24.0562C11.5875 24.0562 12.1562 23.4937 12.1562 22.7937V10.5999C12.1562 9.90615 11.5875 9.3374 10.8937 9.3374Z" fill="#E5E5E5"/>
<path d="M20.4625 9.3374C17.9 9.3374 15.8125 11.4249 15.8125 13.9874V19.4062C15.8125 21.9687 17.9 24.0562 20.4625 24.0562C23.025 24.0562 25.1125 21.9687 25.1125 19.4062V13.9874C25.1125 11.4249 23.025 9.3374 20.4625 9.3374ZM22.5875 19.4062C22.5875 20.5812 21.6312 21.5312 20.4625 21.5312C19.2937 21.5312 18.3375 20.5749 18.3375 19.4062V13.9874C18.3375 12.8124 19.2937 11.8624 20.4625 11.8624C21.6312 11.8624 22.5875 12.8187 22.5875 13.9874V19.4062Z" fill="#E5E5E5"/>
<path d="M14.525 24.0562C13.8375 24.0562 13.275 23.4937 13.275 22.8062C13.275 22.1187 13.8375 21.5562 14.525 21.5562C15.2125 21.5562 15.775 22.1187 15.775 22.8062C15.775 23.4999 15.2125 24.0562 14.525 24.0562Z" fill="#E5E5E5"/>
</svg>
