<svg width="24" height="24" viewBox="0 0 24 24" fill="none" xmlns="http://www.w3.org/2000/svg">
<path d="M11.5165 14.7604C9.45856 13.0682 8.08444 10.9801 7.36202 9.79197L6.82314 8.77607C7.01156 8.57391 8.44841 7.03531 9.07108 6.20051C9.85357 5.15224 8.71907 4.2055 8.71907 4.2055C8.71907 4.2055 5.52683 1.01281 4.79931 0.379507C4.0718 -0.254685 3.23434 0.0975449 3.23434 0.0975449C1.70527 1.08552 0.120123 1.94448 0.0250276 6.07549C0.0214809 9.94315 2.95747 13.9323 6.13243 17.0206C9.31248 20.5083 13.6787 24.004 17.8999 24C22.0305 23.9058 22.8892 22.3209 23.8772 20.7918C23.8772 20.7918 24.2296 19.955 23.5961 19.2268C22.9621 18.4989 19.769 15.306 19.769 15.306C19.769 15.306 18.8229 14.1712 17.7744 14.9544C16.9931 15.5385 15.5899 16.8377 15.2519 17.1527C15.2525 17.1538 12.9053 15.9025 11.5165 14.7604Z" fill="white"/>
</svg>
