<svg width="24" height="24" viewBox="0 0 24 24" fill="none" xmlns="http://www.w3.org/2000/svg">
<path d="M12.2136 0.239258C5.83679 0.239258 0.66719 5.36805 0.66719 11.6969C0.66719 13.8617 1.27199 15.8849 2.32319 17.6129L0.23999 23.7593L6.63359 21.7289C8.28719 22.6361 10.1904 23.1545 12.2136 23.1545C18.5904 23.1545 23.76 18.0233 23.76 11.6969C23.76 5.36805 18.5904 0.239258 12.2136 0.239258ZM17.9544 16.0481C17.6832 16.7225 16.4544 17.3369 15.912 17.3633C15.3696 17.3921 15.3552 17.7833 12.4032 16.5017C9.45119 15.2201 7.67519 12.1001 7.53599 11.8985C7.39679 11.6993 6.39359 10.2689 6.44639 8.82885C6.50159 7.38885 7.28879 6.70965 7.56959 6.42885C7.85039 6.14565 8.17199 6.09525 8.36879 6.09285C8.60159 6.08805 8.75279 6.08565 8.92319 6.09285C9.09599 6.10005 9.35279 6.05685 9.57599 6.65205C9.79919 7.24725 10.3344 8.70645 10.4016 8.85765C10.4688 9.00645 10.512 9.17925 10.4064 9.37125C10.3008 9.56325 10.2456 9.68325 10.0944 9.84886C9.94079 10.0145 9.77039 10.2185 9.63359 10.3457C9.47999 10.4849 9.31919 10.6385 9.48239 10.9385C9.64319 11.2385 10.2 12.2177 11.0448 13.0241C12.132 14.0609 13.0704 14.4065 13.3608 14.5625C13.6512 14.7209 13.824 14.7017 14.0016 14.5145C14.1792 14.3249 14.7696 13.6889 14.9784 13.4033C15.1872 13.1177 15.3816 13.1729 15.648 13.2809C15.9144 13.3889 17.3352 14.1497 17.6256 14.3081C17.916 14.4641 18.108 14.5457 18.1776 14.6705C18.2472 14.7881 18.2256 15.3737 17.9544 16.0481Z" fill="white"/>
</svg>
