<svg width="48" height="48" viewBox="0 0 48 48" fill="none" xmlns="http://www.w3.org/2000/svg">
<path d="M35.9023 30.375C35.9023 31.4106 35.0629 32.25 34.0273 32.25H31.9648C29.4771 32.151 29.479 28.5982 31.9648 28.5H34.0273C35.0629 28.5 35.9023 29.3394 35.9023 30.375ZM39.6523 31.125V15.75H8.34735V40.5C8.34735 42.5677 10.0296 44.25 12.0973 44.25H35.9023C37.9701 44.25 39.6523 42.5677 39.6523 40.5C39.6523 39.4644 40.4918 38.625 41.5273 38.625C42.5629 38.625 43.4023 39.4644 43.4023 40.5C43.4023 44.6355 40.0378 48 35.9023 48H12.0973C7.96185 48 4.59735 44.6355 4.59735 40.5V7.5C4.59735 3.3645 7.96185 0 12.0973 0H35.9023C40.0378 0 43.4023 3.3645 43.4023 7.5V31.125C43.3033 33.6128 39.7505 33.6109 39.6523 31.125ZM39.6523 12V7.5C39.6523 5.43225 37.9701 3.75 35.9023 3.75H12.0973C10.0296 3.75 8.34735 5.43225 8.34735 7.5V12H39.6523ZM34.0273 21.375H31.9648C29.4771 21.474 29.479 25.0268 31.9648 25.125H34.0273C36.5151 25.026 36.5132 21.4732 34.0273 21.375ZM34.0273 35.625H31.9648C29.4771 35.724 29.479 39.2768 31.9648 39.375H34.0273C36.5151 39.276 36.5132 35.7232 34.0273 35.625ZM25.0273 28.5H22.9649C20.4771 28.599 20.479 32.1518 22.9649 32.25H25.0273C27.5151 32.151 27.5132 28.5982 25.0273 28.5ZM25.0273 21.375H22.9649C20.4771 21.474 20.479 25.0268 22.9649 25.125H25.0273C27.5151 25.026 27.5132 21.4732 25.0273 21.375ZM13.9723 25.125H16.0348C18.5226 25.026 18.5207 21.4732 16.0348 21.375H13.9723C11.4846 21.474 11.4865 25.0268 13.9723 25.125ZM14.0586 39.375H24.8398C27.3276 39.276 27.3257 35.7232 24.8398 35.625H14.0586C11.5709 35.724 11.5727 39.2768 14.0586 39.375ZM13.9723 32.25H16.0348C18.5226 32.151 18.5207 28.5982 16.0348 28.5H13.9723C11.4846 28.599 11.4865 32.1518 13.9723 32.25Z" fill="#639CFF"/>
</svg>
