<svg width="16" height="16" viewBox="0 0 16 16" fill="none" xmlns="http://www.w3.org/2000/svg">
<path d="M15.9581 6.01519C15.8528 5.69399 15.5654 5.46658 15.2268 5.43621L10.608 5.02049L8.78269 0.78366C8.64792 0.472385 8.34127 0.271484 7.99996 0.271484C7.65865 0.271484 7.35188 0.472385 7.21796 0.78366L5.39262 5.02049L0.773155 5.43621C0.434526 5.46719 0.147778 5.69459 0.0418195 6.01519C-0.063529 6.33639 0.0337627 6.68869 0.28987 6.91138L3.78126 9.94655L2.75183 14.4416C2.67651 14.7722 2.8059 15.1139 3.08252 15.3122C3.2312 15.4193 3.40589 15.4728 3.58119 15.4728C3.73182 15.4728 3.88258 15.4331 4.01723 15.3532L7.99996 12.9923L11.982 15.3532C12.2741 15.5263 12.6414 15.5104 12.9174 15.3122C13.194 15.1139 13.3234 14.7722 13.2481 14.4416L12.2187 9.94655L15.71 6.91138C15.966 6.68869 16.0634 6.33711 15.9581 6.01519Z" fill="#102752"/>
</svg>
