<svg width="16" height="16" viewBox="0 0 16 16" fill="none" xmlns="http://www.w3.org/2000/svg">
<path d="M12.1726 2.25421C11.0445 1.12415 9.51338 0.489258 7.91671 0.489258C6.31992 0.489258 4.7889 1.12415 3.66075 2.25421C2.57307 3.34785 1.91806 4.79839 1.81677 6.3375C1.7645 7.18058 1.88815 8.02512 2.17975 8.81772C2.4674 9.60504 2.93469 10.3491 3.57082 11.0249L7.65434 15.3743C7.72224 15.447 7.81711 15.4886 7.91671 15.4893C8.01653 15.4903 8.11219 15.4485 8.17918 15.3743L12.2625 11.0249C12.8986 10.3491 13.3659 9.60504 13.6536 8.81772C13.9487 8.02613 14.0725 7.18069 14.0166 6.3375C13.9146 4.79861 13.2597 3.3483 12.1726 2.25421ZM12.9741 8.56974C12.719 9.26702 12.302 9.92856 11.734 10.5323L7.91671 14.6014L4.09566 10.5323C3.52777 9.92856 3.11084 9.26702 2.85556 8.56974C2.59623 7.8719 2.4873 7.12719 2.53575 6.38427C2.62467 5.01848 3.2056 3.73116 4.1712 2.76095C5.16412 1.76691 6.51158 1.20812 7.91671 1.20812C9.32183 1.20812 10.6692 1.76691 11.6622 2.76095C12.6277 3.73116 13.2089 5.01848 13.2977 6.38427C13.3433 7.1273 13.2331 7.87179 12.9741 8.56974Z" fill="#102752"/>
<path d="M7.91671 3.42236C6.37107 3.42236 5.11298 4.70901 5.11298 6.29062C5.11298 7.87223 6.37107 9.1591 7.91671 9.1591C9.46235 9.1591 10.7204 7.87223 10.7204 6.29062C10.7204 4.70901 9.46235 3.42236 7.91671 3.42236ZM7.91671 8.44024C6.76642 8.44024 5.83184 7.47688 5.83184 6.29062C5.83184 5.10447 6.76642 4.14123 7.91671 4.14123C9.06701 4.14123 10.0016 5.10447 10.0016 6.29062C10.0016 7.47688 9.06701 8.44024 7.91671 8.44024Z" fill="#102752"/>
</svg>
