<svg width="40" height="40" viewBox="0 0 40 40" fill="none" xmlns="http://www.w3.org/2000/svg">
<path d="M9.375 6.01562C4.20563 6.01562 0 10.2213 0 15.3906C0 17.8626 0.95375 20.1951 2.68547 21.9585C4.36188 23.6656 6.58422 24.6539 8.96477 24.7563C8.97602 24.9051 8.98438 25.1101 8.98438 25.3906C8.98438 26.54 8.11031 30.052 7.5593 31.9956L6.99547 33.9844H13.838L14.2963 33.2459C14.4781 32.9529 18.75 25.9491 18.75 15.3906C18.75 10.2213 14.5444 6.01562 9.375 6.01562ZM12.046 30.8594H11.0984C11.5473 29.095 12.1094 26.6374 12.1094 25.3906C12.1094 24.4013 12.0359 23.6064 11.6773 22.943C11.3578 22.352 10.6897 21.6482 9.31922 21.6407L9.25102 21.639C5.87313 21.5735 3.125 18.7705 3.125 15.3906C3.125 11.9444 5.92875 9.14062 9.375 9.14062C12.8212 9.14062 15.625 11.9444 15.625 15.3906C15.625 23.15 13.0597 28.8933 12.046 30.8594Z" fill="#639CFF"/>
<path d="M30.625 6.01562C25.4556 6.01562 21.25 10.2213 21.25 15.3906C21.25 17.8626 22.2037 20.1951 23.9355 21.9585C25.6119 23.6656 27.8342 24.6539 30.2148 24.7563C30.226 24.9051 30.2344 25.1101 30.2344 25.3906C30.2344 26.54 29.3603 30.052 28.8093 31.9956L28.2455 33.9844H35.088L35.5463 33.2459C35.7281 32.9529 40 25.9491 40 15.3906C40 10.2213 35.7944 6.01562 30.625 6.01562ZM33.296 30.8594H32.3484C32.7973 29.095 33.3594 26.6374 33.3594 25.3906C33.3594 24.4013 33.2859 23.6064 32.9273 22.943C32.6078 22.352 31.9397 21.6482 30.5692 21.6407L30.501 21.639C27.1231 21.5735 24.375 18.7705 24.375 15.3906C24.375 11.9444 27.1788 9.14062 30.625 9.14062C34.0712 9.14062 36.875 11.9444 36.875 15.3906C36.875 23.15 34.3097 28.8933 33.296 30.8594Z" fill="#639CFF"/>
</svg>
