<svg width="48" height="48" viewBox="0 0 48 48" fill="none" xmlns="http://www.w3.org/2000/svg">
<g clip-path="url(#clip0_128_1197)">
<path d="M30.8988 17.6776L18.6359 29.9175C18.4174 30.1356 18.2561 30.4043 18.1664 30.6997L15.9247 38.0801C15.4907 39.4842 16.8117 40.8307 18.2193 40.4319L25.7873 38.3356C26.0988 38.2492 26.3827 38.0839 26.6115 37.8555L38.8525 25.6338C41.0457 23.4406 41.0457 19.8721 38.8525 17.6788C36.6592 15.4856 33.0908 15.4856 30.8988 17.6776ZM24.3109 34.8533L20.5036 35.908L21.6179 32.2395L30.5331 23.341L33.1852 25.9931L24.3109 34.8533ZM36.2018 22.981L35.8388 23.3435L33.1872 20.6918L33.5493 20.3305C34.2803 19.5995 35.4698 19.5995 36.2008 20.3305C36.9319 21.0615 36.9319 22.251 36.2018 22.981ZM44.25 31.125V7.5C44.25 5.42897 42.571 3.75 40.5 3.75H16.405C15.4126 3.75 14.4424 4.15406 13.7433 4.8585L4.62759 14.0625H12.1875C13.2231 14.0625 14.0625 13.2231 14.0625 12.1875V9.375C14.1805 6.86269 17.7193 6.89634 17.8125 9.41991V12.1875C17.8125 15.2941 15.2941 17.8125 12.1875 17.8125H3.75V40.5C3.75 42.571 5.42897 44.25 7.5 44.25H40.5C42.5807 44.25 44.2235 42.556 44.2502 40.4755C44.2634 39.4472 45.1044 38.6183 46.1375 38.6251C47.1883 38.6319 48.0123 39.5421 47.9994 40.5929C47.9496 44.6857 44.6046 48 40.5 48H7.5C3.35784 48 0 44.6422 0 40.5V16.4516C0 14.4693 0.784781 12.5676 2.18288 11.1622L11.0815 2.21709C12.4797 0.808125 14.4201 0 16.405 0H40.5C44.6422 0 48 3.35784 48 7.5V31.0801C47.9059 33.6056 44.367 33.6353 44.25 31.125Z" fill="#639CFF"/>
</g>
<defs>
<clipPath id="clip0_128_1197">
<rect width="48" height="48" fill="white"/>
</clipPath>
</defs>
</svg>
