<svg width="32" height="32" viewBox="0 0 32 32" fill="none" xmlns="http://www.w3.org/2000/svg">
<path d="M23.9625 2.86235L27.1437 5.5186C27.3625 5.69985 27.6312 5.7936 27.8937 5.7936C28.2312 5.7936 28.5625 5.64985 28.7937 5.37485C29.2062 4.87485 29.1437 4.13735 28.6437 3.72485L25.4625 1.06235C24.9625 0.649847 24.225 0.712347 23.8125 1.21235C23.3937 1.71235 23.4625 2.44985 23.9625 2.86235Z" fill="#E5E5E5"/>
<path d="M4.10627 5.78774C4.36877 5.78774 4.63752 5.70024 4.85627 5.51274L8.03752 2.85649C8.53752 2.44399 8.60002 1.70024 8.18752 1.20649C7.77502 0.706487 7.03127 0.643987 6.53752 1.05649L3.35627 3.71899C2.85627 4.13149 2.79377 4.87524 3.20627 5.36899C3.43752 5.64399 3.77502 5.78774 4.10627 5.78774Z" fill="#E5E5E5"/>
<path d="M9.13127 10.5189C8.72502 11.0189 8.80002 11.7626 9.30627 12.1689L13.875 15.8626C13.8563 15.9814 13.8438 16.1064 13.8438 16.2314C13.8438 17.5251 14.8938 18.5751 16.1875 18.5751C17.4813 18.5751 18.5313 17.5251 18.5313 16.2314C18.5313 14.9376 17.4813 13.8876 16.1875 13.8876C15.8938 13.8876 15.6063 13.9439 15.35 14.0439L10.7813 10.3501C10.275 9.93765 9.53752 10.0189 9.13127 10.5189Z" fill="#E5E5E5"/>
<path d="M26.7938 22.8685L24.8125 25.6372C24.7563 25.6997 24.6875 25.7122 24.6563 25.7185C24.6188 25.7185 24.55 25.7185 24.4813 25.656L23.2 24.406C23.0438 24.2497 22.7875 24.256 22.6313 24.4122C22.475 24.5685 22.4813 24.8247 22.6375 24.981L23.9188 26.231C23.9188 26.231 23.9188 26.231 23.925 26.2372C24.1188 26.4185 24.375 26.5247 24.6375 26.5247C24.6625 26.5247 24.6813 26.5247 24.7063 26.5247C24.9938 26.506 25.2625 26.3685 25.4438 26.1435C25.45 26.1372 25.45 26.131 25.4563 26.1247L27.4438 23.3435C27.575 23.1622 27.5313 22.9122 27.35 22.781C27.175 22.6435 26.925 22.6872 26.7938 22.8685Z" fill="#E5E5E5"/>
<path d="M24.6438 26.8936C24.2813 26.8936 23.9375 26.7561 23.675 26.5061L23.6625 26.4936L22.3813 25.2436C22.2313 25.0998 22.15 24.9061 22.15 24.6998C22.15 24.4936 22.225 24.2936 22.3688 24.1498C22.5125 23.9998 22.7063 23.9186 22.9125 23.9186C22.9188 23.9186 22.9188 23.9186 22.925 23.9186C23.1313 23.9186 23.3188 23.9998 23.4688 24.1373L24.625 25.2623L26.4938 22.6498C26.6125 22.4811 26.7938 22.3686 27 22.3373C27.2063 22.3061 27.4125 22.3498 27.5813 22.4748C27.75 22.5936 27.8625 22.7748 27.8938 22.9811C27.925 23.1873 27.8813 23.3936 27.7563 23.5623L25.7688 26.3436C25.7625 26.3561 25.75 26.3686 25.7438 26.3811C25.5 26.6873 25.1313 26.8748 24.7375 26.8998C24.7063 26.8936 24.675 26.8936 24.6438 26.8936ZM22.925 24.6623C22.9125 24.6623 22.9063 24.6686 22.9063 24.6686C22.9063 24.6686 22.9 24.6748 22.9 24.6873C22.9 24.6998 22.9063 24.7061 22.9063 24.7061L24.1875 25.9561C24.3188 26.0811 24.5 26.1498 24.6875 26.1373C24.8688 26.1248 25.0438 26.0373 25.1563 25.8936L27.1438 23.1123C27.15 23.0998 27.15 23.0811 27.1375 23.0748C27.1375 23.0748 27.1313 23.0686 27.1188 23.0686C27.1063 23.0686 27.1 23.0748 27.1 23.0811L25.1063 25.8623L25.0938 25.8748C24.9875 25.9998 24.8375 26.0748 24.675 26.0811C24.5063 26.0936 24.3438 26.0373 24.225 25.9186L24.2188 25.9123L22.9375 24.6623C22.9375 24.6686 22.9375 24.6623 22.925 24.6623Z" fill="#E5E5E5"/>
<path d="M24.8375 31.8126C23.1875 31.8126 21.5813 31.0438 20.325 29.6376C19.1813 28.3688 18.5 26.7313 18.5 25.2626V20.0563C18.5 19.7063 18.7062 19.3938 19.025 19.2563L24.4875 16.8626C24.7125 16.7626 24.9688 16.7626 25.1875 16.8626L30.65 19.2563C30.9688 19.3938 31.175 19.7126 31.175 20.0563V25.2626C31.175 26.7313 30.4938 28.3688 29.35 29.6376C28.0875 31.0376 26.4875 31.8126 24.8375 31.8126ZM20.25 20.6251V25.2626C20.25 26.2938 20.775 27.5251 21.625 28.4688C22.55 29.4938 23.6875 30.0626 24.8375 30.0626C25.9875 30.0626 27.125 29.5001 28.05 28.4688C28.9 27.5251 29.425 26.2938 29.425 25.2626V20.6251L24.8375 18.6126L20.25 20.6251Z" fill="#E5E5E5"/>
<path d="M16.0812 29.6685C12.4125 29.6685 8.96248 28.2372 6.36873 25.6435C3.77498 23.0497 2.34998 19.606 2.34998 15.9372C2.34998 12.2685 3.78123 8.81846 6.37498 6.22471C8.96873 3.63096 12.4187 2.19971 16.0875 2.19971C19.7562 2.19971 23.2062 3.63096 25.8 6.22471C28.3875 8.81846 29.8125 12.2685 29.8125 15.9372C29.8125 16.5247 29.3375 16.9997 28.75 16.9997C28.1625 16.9997 27.6875 16.5247 27.6875 15.9372C27.6875 9.53721 22.4812 4.33096 16.0812 4.33096C9.68122 4.33096 4.47498 9.53721 4.47498 15.9372C4.47498 22.3372 9.68122 27.5435 16.0812 27.5435C16.6687 27.5435 17.1437 28.0185 17.1437 28.606C17.1437 29.1935 16.6687 29.6685 16.0812 29.6685Z" fill="#E5E5E5"/>
<path d="M16 4.14346C15.4125 4.14346 14.9375 3.66846 14.9375 3.08096V1.41846C14.9375 0.830957 15.4125 0.355957 16 0.355957C16.5875 0.355957 17.0625 0.830957 17.0625 1.41846V3.08721C17.0625 3.66846 16.5875 4.14346 16 4.14346Z" fill="#E5E5E5"/>
</svg>
