<svg width="22" height="24" viewBox="0 0 22 24" fill="none" xmlns="http://www.w3.org/2000/svg">
<path d="M21.1016 21.1875C21.1016 21.7053 20.6818 22.125 20.1641 22.125H15.8984C14.6546 22.0755 14.6555 20.2991 15.8984 20.25H20.1641C20.6818 20.25 21.1016 20.6697 21.1016 21.1875ZM19.2266 9.9375V1.875H6.52344V16.5H19.2266V14.625C19.2761 13.3811 21.0525 13.3821 21.1016 14.625V17.4375C21.1016 17.9553 20.6818 18.375 20.1641 18.375H13.0859V23.0625C13.0859 23.4187 12.8841 23.7441 12.5651 23.9024C12.2473 24.0601 11.8655 24.025 11.5812 23.8089L9.80469 22.4588L8.02822 23.8089C7.74472 24.0244 7.36353 24.0607 7.04436 23.9024C6.72528 23.7441 6.52344 23.4187 6.52344 23.0625V18.375H3.71094C3.194 18.375 2.77344 18.7956 2.77344 19.3125C2.77344 19.8294 3.194 20.25 3.71094 20.25C4.22872 20.25 4.64844 20.6697 4.64844 21.1875C4.64844 21.7053 4.22872 22.125 3.71094 22.125C2.16013 22.125 0.898438 20.8633 0.898438 19.3125V2.8125C0.898438 1.26169 2.16013 0 3.71094 0H20.1641C20.6818 0 21.1016 0.419719 21.1016 0.9375V9.9375C21.0521 11.1814 19.2756 11.1804 19.2266 9.9375ZM4.64844 1.875H3.71094C3.194 1.875 2.77344 2.29556 2.77344 2.8125V16.6606C3.06678 16.5566 3.38239 16.5 3.71094 16.5H4.64844V1.875ZM8.39844 21.1725L9.23741 20.5349C9.57266 20.28 10.0367 20.28 10.3719 20.5349L11.2109 21.1725V18.375H8.39844V21.1725ZM9.33594 5.625C8.09206 5.6745 8.093 7.45092 9.33594 7.5H16.4141C17.6579 7.4505 17.657 5.67408 16.4141 5.625H9.33594Z" fill="white"/>
</svg>
