<svg width="24" height="24" viewBox="0 0 24 24" fill="none" xmlns="http://www.w3.org/2000/svg">
<g clip-path="url(#clip0_8_893)">
<path d="M1.53227 3.12556L1.89481 2.84464V5.61406C1.89481 6.13081 2.31373 6.54973 2.83048 6.54973C3.34723 6.54973 3.76615 6.13081 3.76615 5.61406V0.935653C3.76615 0.578606 3.5629 0.25259 3.24232 0.0955123C2.92165 -0.0616596 2.53952 -0.0226127 2.25734 0.196106L0.385994 1.64637C-0.0224283 1.96292 -0.0969595 2.55068 0.219587 2.95915C0.536087 3.36753 1.12376 3.44211 1.53227 3.12556Z" fill="white"/>
<path d="M8.53801 4.2107H23.0409C23.5577 4.2107 23.9766 3.79178 23.9766 3.27503C23.9766 2.75828 23.5577 2.33936 23.0409 2.33936H8.53801C8.02126 2.33936 7.60234 2.75828 7.60234 3.27503C7.60234 3.79182 8.02126 4.2107 8.53801 4.2107Z" fill="white"/>
<path d="M2.39586 16.9355C2.39024 16.9355 2.3848 16.9363 2.37927 16.9364C2.37364 16.9363 2.36825 16.9355 2.36267 16.9355C1.53903 16.9355 0.767706 17.357 0.349722 18.0353C0.0786438 18.4753 0.215566 19.0517 0.655487 19.3227C0.808534 19.417 0.977987 19.462 1.14547 19.462C1.45944 19.462 1.76619 19.304 1.94296 19.017C2.02161 18.8893 2.18638 18.8069 2.36277 18.8069C2.36839 18.8069 2.37383 18.8061 2.37936 18.806C2.38499 18.8061 2.39038 18.8069 2.39596 18.8069C2.6495 18.8069 2.86382 19.0212 2.86382 19.2747C2.86382 19.3473 2.66164 19.5511 2.46271 19.6523L2.47114 19.6482L2.47142 19.649C2.26335 19.7492 2.09141 19.9254 2.00282 20.1583C1.81907 20.6413 2.0616 21.1818 2.54455 21.3656C2.64313 21.4031 2.84207 21.543 2.86377 21.614C2.86377 21.8675 2.6495 22.0818 2.39591 22.0818C2.33549 22.0818 2.27657 22.088 2.21933 22.099C2.11082 22.0574 2.00642 21.9748 1.94286 21.8716C1.67174 21.4317 1.09536 21.2947 0.655441 21.5659C0.215472 21.8369 0.0785969 22.4134 0.349675 22.8533C0.785378 23.5605 1.55671 23.9999 2.36263 23.9999C2.48727 23.9999 2.60591 23.975 2.71466 23.9308C3.85419 23.7748 4.73507 22.7956 4.73507 21.614C4.73507 21.1504 4.57021 20.7652 4.33705 20.4575C4.56303 20.1476 4.73507 19.7546 4.73507 19.2747C4.73507 17.9849 3.68567 16.9355 2.39586 16.9355Z" fill="white"/>
<path d="M23.0409 11.041H8.53801C8.02126 11.041 7.60234 11.4599 7.60234 11.9767C7.60234 12.4934 8.02126 12.9124 8.53801 12.9124H23.0409C23.5577 12.9124 23.9766 12.4934 23.9766 11.9767C23.9766 11.4599 23.5577 11.041 23.0409 11.041Z" fill="white"/>
<path d="M23.0409 19.5088H8.53801C8.02126 19.5088 7.60234 19.9277 7.60234 20.4445C7.60234 20.9612 8.02126 21.3801 8.53801 21.3801H23.0409C23.5577 21.3801 23.9766 20.9612 23.9766 20.4445C23.9766 19.9277 23.5577 19.5088 23.0409 19.5088Z" fill="white"/>
<path d="M3.85967 13.4265H3.1895C4.55628 11.8772 4.73506 11.1134 4.73506 10.6195C4.73506 9.32966 3.68572 8.28027 2.39586 8.28027C2.39023 8.28027 2.38479 8.28102 2.37926 8.28112C2.37364 8.28102 2.36825 8.28027 2.36267 8.28027C1.07286 8.28027 0.0234657 9.32961 0.0234657 10.6195C0.0234657 11.1362 0.442387 11.5551 0.959137 11.5551C1.47589 11.5551 1.89481 11.1362 1.89481 10.6195C1.89481 10.3659 2.10907 10.1517 2.36267 10.1517C2.36829 10.1517 2.37373 10.1509 2.37926 10.1508C2.38489 10.1509 2.39028 10.1517 2.39586 10.1517C2.64622 10.1517 2.85814 10.3604 2.86362 10.6097C2.85448 10.6578 2.73926 11.1398 1.63831 12.3538C0.986137 13.0731 0.3372 13.663 0.330919 13.6687C0.0442313 13.9285 -0.0530812 14.3379 0.0860906 14.6988C0.225263 15.0597 0.572231 15.2978 0.959091 15.2978H3.85967C4.37642 15.2978 4.79534 14.8789 4.79534 14.3622C4.79534 13.8454 4.37647 13.4265 3.85967 13.4265Z" fill="white"/>
</g>
<defs>
<clipPath id="clip0_8_893">
<rect width="24" height="24" fill="white"/>
</clipPath>
</defs>
</svg>
