<svg width="24" height="24" viewBox="0 0 24 24" fill="none" xmlns="http://www.w3.org/2000/svg">
<path d="M24 16.5C24 18.5678 22.3178 20.25 20.25 20.25H17.1562V22.125H19.0312C19.5491 22.125 19.9688 22.5447 19.9688 23.0625C19.9688 23.5803 19.5491 24 19.0312 24H13.4062C12.8884 24 12.4688 23.5803 12.4688 23.0625C12.4688 22.5447 12.8884 22.125 13.4062 22.125H15.2812V20.25H13.4062C12.8884 20.25 12.4688 19.8303 12.4688 19.3125C12.4688 18.7947 12.8884 18.375 13.4062 18.375H20.25C21.2838 18.375 22.125 17.5338 22.125 16.5C22.125 15.9822 22.5447 15.5625 23.0625 15.5625C23.5803 15.5625 24 15.9822 24 16.5ZM20.25 4.3125H13.4062C12.8884 4.3125 12.4688 4.73218 12.4688 5.25C12.4688 5.76782 12.8884 6.1875 13.4062 6.1875H20.25C21.2838 6.1875 22.125 7.02869 22.125 8.0625V11.8125C22.125 12.3303 22.5447 12.75 23.0625 12.75C23.5803 12.75 24 12.3303 24 11.8125V8.0625C24 5.99469 22.3178 4.3125 20.25 4.3125ZM10.5938 2.8125V21.1875C10.5938 22.7384 9.33215 24 7.78125 24H2.8125C1.2616 24 0 22.7384 0 21.1875V2.8125C0 1.2616 1.2616 0 2.8125 0H7.78125C9.33215 0 10.5938 1.2616 10.5938 2.8125ZM8.71875 2.8125C8.71875 2.29559 8.29816 1.875 7.78125 1.875H2.8125C2.29559 1.875 1.875 2.29559 1.875 2.8125V21.1875C1.875 21.7044 2.29559 22.125 2.8125 22.125H7.78125C8.29816 22.125 8.71875 21.7044 8.71875 21.1875V2.8125ZM6.375 12.2812H4.21875C3.70093 12.2812 3.28125 12.7009 3.28125 13.2188C3.28125 13.7366 3.70093 14.1562 4.21875 14.1562H6.375C6.89282 14.1562 7.3125 13.7366 7.3125 13.2188C7.3125 12.7009 6.89282 12.2812 6.375 12.2812ZM6.375 3.75H4.21875C3.70093 3.75 3.28125 4.16968 3.28125 4.6875C3.28125 5.20532 3.70093 5.625 4.21875 5.625H6.375C6.89282 5.625 7.3125 5.20532 7.3125 4.6875C7.3125 4.16968 6.89282 3.75 6.375 3.75ZM6.375 15.5625H4.21875C3.70093 15.5625 3.28125 15.9822 3.28125 16.5C3.28125 17.0178 3.70093 17.4375 4.21875 17.4375H6.375C6.89282 17.4375 7.3125 17.0178 7.3125 16.5C7.3125 15.9822 6.89282 15.5625 6.375 15.5625ZM5.39062 18.8438C4.8728 18.8438 4.45312 19.2634 4.45312 19.7812C4.45312 20.2991 4.8728 20.7188 5.39062 20.7188C5.90845 20.7188 6.32812 20.2991 6.32812 19.7812C6.32812 19.2634 5.90845 18.8438 5.39062 18.8438Z" fill="white"/>
</svg>
