<svg width="24" height="24" viewBox="0 0 24 24" fill="none" xmlns="http://www.w3.org/2000/svg">
<g clip-path="url(#clip0_8_889)">
<path d="M14.625 23.0625C14.625 23.5803 14.2053 24 13.6875 24H5.01562C2.94781 24 1.26562 22.3178 1.26562 20.25V6.7901C1.26562 5.81671 1.64301 4.8999 2.32819 4.20868L5.42395 1.08545C6.10767 0.395691 7.05688 0 8.02826 0H16.5417C18.6094 0 20.2917 1.68219 20.2917 3.75V12.5156C20.2917 13.0334 19.8719 13.4531 19.3542 13.4531C18.8364 13.4531 18.4167 13.0334 18.4167 12.5156V3.75C18.4167 2.71619 17.5756 1.875 16.5417 1.875H8.02826C7.55365 1.875 7.08966 2.06836 6.75568 2.40546L3.65991 5.52869C3.50848 5.6814 3.38818 5.85681 3.30139 6.04688H5.90625C6.68152 6.04688 7.3125 5.41608 7.3125 4.64062C7.3125 4.1228 7.73218 3.70312 8.25 3.70312C8.76782 3.70312 9.1875 4.1228 9.1875 4.64062C9.1875 6.44989 7.71552 7.92188 5.90625 7.92188H3.14062V20.25C3.14062 21.2838 3.98163 22.125 5.01562 22.125H13.6875C14.2053 22.125 14.625 22.5447 14.625 23.0625ZM21.9106 23.1762C21.3624 23.7244 20.642 23.9987 19.9219 23.9987C19.2017 23.9987 18.4814 23.7244 17.9332 23.1762L12.8066 18.0401C12.6923 17.9257 12.6097 17.7838 12.5667 17.6279L11.5184 13.8441C11.4271 13.5145 11.5225 13.1614 11.7673 12.9227C12.0119 12.6839 12.3673 12.5973 12.6943 12.6967L16.3846 13.8177C16.5324 13.8625 16.6668 13.9431 16.7758 14.0524L21.9115 19.1995C23.0072 20.2954 23.0072 22.0796 21.9106 23.1762V23.1762ZM14.3077 16.8898L17.7537 20.3423L19.0798 19.0162L15.6145 15.5433L13.7803 14.9863L14.3077 16.8898ZM20.5847 20.5247L20.4042 20.3436L19.0783 21.6694L19.2596 21.8511C19.6245 22.216 20.2192 22.216 20.5847 21.8505C20.9504 21.4849 20.9504 20.8901 20.5847 20.5247Z" fill="white"/>
</g>
<defs>
<clipPath id="clip0_8_889">
<rect width="24" height="24" fill="white"/>
</clipPath>
</defs>
</svg>
