<svg width="145" height="60" viewBox="0 0 145 60" fill="none" xmlns="http://www.w3.org/2000/svg">
<path d="M18.1933 45.5225C18.1933 45.9945 18.0184 46.3685 17.6686 46.6446C17.3213 46.9206 16.8587 47.0586 16.2808 47.0586C15.5864 47.0586 15.0538 46.9825 14.6833 46.8303V46.4356C15.0927 46.6085 15.6149 46.6949 16.2497 46.6949C16.7162 46.6949 17.0855 46.5891 17.3576 46.3776C17.6323 46.1635 17.7696 45.8836 17.7696 45.5379C17.7696 45.3238 17.7242 45.1472 17.6335 45.0078C17.5428 44.8659 17.3952 44.737 17.1904 44.6209C16.9857 44.5048 16.6851 44.3797 16.2886 44.2456C15.7082 44.0469 15.3065 43.8328 15.0836 43.6032C14.8634 43.3711 14.7532 43.0628 14.7532 42.6784C14.7532 42.2554 14.9191 41.911 15.2508 41.6453C15.5851 41.3771 16.0139 41.2429 16.5374 41.2429C17.0712 41.2429 17.5726 41.3435 18.0417 41.5447L17.8979 41.8852C17.4263 41.6892 16.9754 41.5911 16.5452 41.5911C16.1254 41.5911 15.7911 41.6879 15.5423 41.8813C15.2935 42.0748 15.1692 42.338 15.1692 42.6707C15.1692 42.8797 15.2067 43.0512 15.2819 43.1853C15.3596 43.3195 15.4853 43.4407 15.6589 43.5491C15.8325 43.6548 16.1305 43.7825 16.553 43.9321C16.9961 44.0844 17.3291 44.2327 17.5519 44.3771C17.7748 44.519 17.9367 44.6815 18.0378 44.8646C18.1415 45.0453 18.1933 45.2645 18.1933 45.5225ZM19.6821 46.9812H19.2972V42.7752H19.6821V46.9812ZM19.2428 41.6066C19.2428 41.359 19.3245 41.2352 19.4877 41.2352C19.5681 41.2352 19.6302 41.2674 19.6743 41.3319C19.7209 41.3964 19.7443 41.4879 19.7443 41.6066C19.7443 41.7227 19.7209 41.8143 19.6743 41.8813C19.6302 41.9484 19.5681 41.982 19.4877 41.982C19.3245 41.982 19.2428 41.8568 19.2428 41.6066ZM22.8073 47.0586C22.1931 47.0586 21.7137 46.8703 21.3691 46.4937C21.027 46.1171 20.856 45.5895 20.856 44.9111C20.856 44.2404 21.0218 43.7039 21.3535 43.3014C21.6852 42.8964 22.1322 42.6939 22.6946 42.6939C23.1921 42.6939 23.5847 42.8668 23.8723 43.2124C24.16 43.5581 24.3038 44.0276 24.3038 44.6209V44.9305H21.2602C21.2654 45.5083 21.4002 45.9494 21.6645 46.2538C21.9314 46.5582 22.3123 46.7104 22.8073 46.7104C23.0483 46.7104 23.2595 46.6936 23.4409 46.6601C23.6249 46.6265 23.8568 46.5543 24.1367 46.4434V46.7916C23.8983 46.8948 23.678 46.9645 23.4759 47.0006C23.2738 47.0392 23.0509 47.0586 22.8073 47.0586ZM22.6946 43.0344C22.2877 43.0344 21.9612 43.1686 21.715 43.4369C21.4688 43.7026 21.325 44.0869 21.2836 44.5899H23.8957C23.8957 44.1024 23.7894 43.7219 23.5769 43.4485C23.3645 43.1725 23.0703 43.0344 22.6946 43.0344ZM30.4844 46.9812V44.2533C30.4844 43.8303 30.3949 43.5233 30.2161 43.3324C30.0373 43.1389 29.76 43.0422 29.3843 43.0422C28.8789 43.0422 28.5084 43.1699 28.2726 43.4253C28.0393 43.6781 27.9227 44.0895 27.9227 44.6596V46.9812H27.5379V40.9604H27.9227V42.8758L27.9033 43.4137H27.9305C28.0886 43.1609 28.2881 42.9777 28.5291 42.8642C28.7701 42.7507 29.0694 42.6939 29.427 42.6939C30.3859 42.6939 30.8653 43.206 30.8653 44.2301V46.9812H30.4844ZM34.799 46.9812L34.7018 46.3157H34.6708C34.4583 46.5865 34.2393 46.7788 34.0138 46.8922C33.791 47.0031 33.5266 47.0586 33.2209 47.0586C32.8062 47.0586 32.4836 46.9529 32.253 46.7413C32.0223 46.5298 31.907 46.237 31.907 45.863C31.907 45.4528 32.078 45.1342 32.4201 44.9072C32.7648 44.6802 33.2623 44.5603 33.9127 44.5474L34.7174 44.5242V44.2456C34.7174 43.8457 34.6357 43.5439 34.4725 43.3401C34.3092 43.1364 34.0462 43.0344 33.6834 43.0344C33.2921 43.0344 32.8866 43.1428 32.4668 43.3595L32.323 43.0267C32.7868 42.81 33.2454 42.7017 33.699 42.7017C34.1628 42.7017 34.5088 42.8216 34.7368 43.0615C34.9675 43.3014 35.0828 43.6755 35.0828 44.1836V46.9812H34.799ZM33.2442 46.7104C33.695 46.7104 34.0501 46.5827 34.3092 46.3273C34.571 46.0693 34.7018 45.7121 34.7018 45.2555V44.8414L33.9633 44.8724C33.3699 44.9008 32.9462 44.9936 32.6922 45.151C32.4408 45.3058 32.3152 45.5482 32.3152 45.8785C32.3152 46.1416 32.3955 46.3466 32.5561 46.4937C32.7194 46.6382 32.9487 46.7104 33.2442 46.7104ZM38.2391 42.6939C38.8299 42.6939 39.2744 42.8797 39.5724 43.2512C39.873 43.62 40.0232 44.1604 40.0232 44.8724C40.0232 45.5715 39.8652 46.1106 39.5491 46.4898C39.2355 46.869 38.7936 47.0586 38.2235 47.0586C37.923 47.0586 37.6521 46.9967 37.4111 46.8729C37.1702 46.749 36.9797 46.5736 36.8397 46.3466H36.8048L36.6959 46.9812H36.4549V40.9604H36.8397V42.4734C36.8397 42.7004 36.8346 42.9093 36.8242 43.1002L36.8126 43.4291H36.8397C37.0004 43.1763 37.1935 42.9906 37.4189 42.8719C37.647 42.7533 37.9203 42.6939 38.2391 42.6939ZM38.2313 43.0422C37.7338 43.0422 37.3774 43.1841 37.1624 43.4678C36.9473 43.7516 36.8397 44.2198 36.8397 44.8724V44.9382C36.8397 45.5728 36.9512 46.0281 37.174 46.3041C37.3995 46.5801 37.7493 46.7181 38.2235 46.7181C38.6848 46.7181 39.0321 46.5582 39.2653 46.2383C39.4985 45.9158 39.6151 45.458 39.6151 44.8646C39.6151 43.6497 39.1539 43.0422 38.2313 43.0422ZM42.9036 47.0586C42.2895 47.0586 41.81 46.8703 41.4654 46.4937C41.1233 46.1171 40.9523 45.5895 40.9523 44.9111C40.9523 44.2404 41.1181 43.7039 41.4498 43.3014C41.7816 42.8964 42.2286 42.6939 42.7909 42.6939C43.2884 42.6939 43.6811 42.8668 43.9687 43.2124C44.2563 43.5581 44.4001 44.0276 44.4001 44.6209V44.9305H41.3566C41.3617 45.5083 41.4965 45.9494 41.7608 46.2538C42.0277 46.5582 42.4086 46.7104 42.9036 46.7104C43.1446 46.7104 43.3558 46.6936 43.5372 46.6601C43.7212 46.6265 43.9531 46.5543 44.233 46.4434V46.7916C43.9946 46.8948 43.7743 46.9645 43.5722 47.0006C43.3701 47.0392 43.1472 47.0586 42.9036 47.0586ZM42.7909 43.0344C42.384 43.0344 42.0575 43.1686 41.8114 43.4369C41.5651 43.7026 41.4213 44.0869 41.3799 44.5899H43.992C43.992 44.1024 43.8858 43.7219 43.6733 43.4485C43.4608 43.1725 43.1666 43.0344 42.7909 43.0344ZM48.5127 46.9812V44.2533C48.5127 43.8303 48.4233 43.5233 48.2445 43.3324C48.0657 43.1389 47.7884 43.0422 47.4127 43.0422C46.9073 43.0422 46.5368 43.1699 46.3009 43.4253C46.0677 43.6781 45.9511 44.0895 45.9511 44.6596V46.9812H45.5663V42.7752H45.8928L45.9667 43.3517H45.99C46.2647 42.9132 46.7531 42.6939 47.4554 42.6939C48.4143 42.6939 48.8937 43.206 48.8937 44.2301V46.9812H48.5127ZM54.8953 46.9812L54.7981 46.3157H54.7671C54.5546 46.5865 54.3356 46.7788 54.1101 46.8922C53.8873 47.0031 53.6229 47.0586 53.3171 47.0586C52.9025 47.0586 52.5799 46.9529 52.3493 46.7413C52.1186 46.5298 52.0033 46.237 52.0033 45.863C52.0033 45.4528 52.1744 45.1342 52.5164 44.9072C52.8611 44.6802 53.3586 44.5603 54.009 44.5474L54.8137 44.5242V44.2456C54.8137 43.8457 54.732 43.5439 54.5688 43.3401C54.4055 43.1364 54.1425 43.0344 53.7797 43.0344C53.3884 43.0344 52.9829 43.1428 52.5631 43.3595L52.4192 43.0267C52.8831 42.81 53.3418 42.7017 53.7953 42.7017C54.2591 42.7017 54.6051 42.8216 54.8331 43.0615C55.0638 43.3014 55.1791 43.6755 55.1791 44.1836V46.9812H54.8953ZM53.3405 46.7104C53.7914 46.7104 54.1464 46.5827 54.4055 46.3273C54.6673 46.0693 54.7981 45.7121 54.7981 45.2555V44.8414L54.0596 44.8724C53.4662 44.9008 53.0425 44.9936 52.7885 45.151C52.5371 45.3058 52.4115 45.5482 52.4115 45.8785C52.4115 46.1416 52.4918 46.3466 52.6525 46.4937C52.8157 46.6382 53.045 46.7104 53.3405 46.7104ZM56.8855 42.7752V45.4992C56.8855 45.9223 56.9748 46.2305 57.1539 46.424C57.3324 46.6149 57.6099 46.7104 57.9858 46.7104C58.4885 46.7104 58.8575 46.584 59.0935 46.3312C59.3317 46.0783 59.4511 45.6669 59.4511 45.0968V42.7752H59.8321V46.9812H59.5052L59.4352 46.4008H59.4119C59.1373 46.8393 58.6488 47.0586 57.9466 47.0586C56.985 47.0586 56.5046 46.5466 56.5046 45.5225V42.7752H56.8855ZM62.934 47.0586C62.3301 47.0586 61.857 46.869 61.5153 46.4898C61.1729 46.1106 61.0018 45.5818 61.0018 44.9034C61.0018 44.2068 61.1792 43.6651 61.5346 43.2782C61.8894 42.8887 62.3756 42.6939 62.992 42.6939C63.3576 42.6939 63.7073 42.7571 64.0417 42.8835L63.9365 43.224C63.5714 43.1028 63.2541 43.0422 62.9846 43.0422C62.466 43.0422 62.0737 43.2021 61.8064 43.522C61.5397 43.8393 61.4061 44.2971 61.4061 44.8956C61.4061 45.4631 61.5397 45.9081 61.8064 46.2305C62.0737 46.5504 62.4467 46.7104 62.926 46.7104C63.3098 46.7104 63.6658 46.642 63.995 46.5053V46.8613C63.7255 46.9928 63.3718 47.0586 62.934 47.0586ZM67.9794 46.9812V44.2533C67.9794 43.8303 67.8901 43.5233 67.711 43.3324C67.5325 43.1389 67.255 43.0422 66.8791 43.0422C66.3742 43.0422 66.0034 43.1699 65.7675 43.4253C65.5343 43.6781 65.4178 44.0895 65.4178 44.6596V46.9812H65.0328V40.9604H65.4178V42.8758L65.3984 43.4137H65.4257C65.5838 43.1609 65.7834 42.9777 66.0239 42.8642C66.265 42.7507 66.5647 42.6939 66.9218 42.6939C67.8811 42.6939 68.3604 43.206 68.3604 44.2301V46.9812H67.9794ZM73.3433 42.6939C73.6492 42.6939 73.9136 42.7494 74.1365 42.8603C74.3594 42.9712 74.559 43.1609 74.7353 43.4291H74.7586C74.7427 43.1041 74.7353 42.7855 74.7353 42.4734V40.9604H75.1163V46.9812H74.8632L74.766 46.3389H74.7353C74.414 46.8187 73.9523 47.0586 73.3512 47.0586C72.7684 47.0586 72.3226 46.878 72.0144 46.5169C71.7056 46.1558 71.5515 45.6295 71.5515 44.9382C71.5515 44.2108 71.7045 43.6548 72.0104 43.2705C72.3158 42.8861 72.7604 42.6939 73.3433 42.6939ZM73.3433 43.0422C72.8821 43.0422 72.5353 43.2034 72.3016 43.5258C72.0713 43.8483 71.9558 44.3165 71.9558 44.9305C71.9558 46.1222 72.421 46.7181 73.3512 46.7181C73.8283 46.7181 74.178 46.5801 74.4009 46.3041C74.6238 46.0281 74.7353 45.5728 74.7353 44.9382V44.8724C74.7353 44.2224 74.625 43.7554 74.4049 43.4717C74.1871 43.1853 73.8334 43.0422 73.3433 43.0422ZM78.2454 47.0586C77.6307 47.0586 77.1514 46.8703 76.8068 46.4937C76.4651 46.1171 76.2939 45.5895 76.2939 44.9111C76.2939 44.2404 76.4599 43.7039 76.7914 43.3014C77.1229 42.8964 77.5699 42.6939 78.1323 42.6939C78.6298 42.6939 79.0227 42.8668 79.3105 43.2124C79.5976 43.5581 79.7415 44.0276 79.7415 44.6209V44.9305H76.6982C76.7033 45.5083 76.8381 45.9494 77.1025 46.2538C77.3692 46.5582 77.7501 46.7104 78.2454 46.7104C78.486 46.7104 78.6975 46.6936 78.8789 46.6601C79.0625 46.6265 79.2945 46.5543 79.5743 46.4434V46.7916C79.336 46.8948 79.116 46.9645 78.9136 47.0006C78.7117 47.0392 78.4888 47.0586 78.2454 47.0586ZM78.1323 43.0344C77.7257 43.0344 77.3993 43.1686 77.1531 43.4369C76.9069 43.7026 76.763 44.0869 76.7215 44.5899H79.3338C79.3338 44.1024 79.2274 43.7219 79.0148 43.4485C78.8021 43.1725 78.5081 43.0344 78.1323 43.0344ZM83.8544 46.9812V44.2533C83.8544 43.8303 83.7651 43.5233 83.586 43.3324C83.4074 43.1389 83.1299 43.0422 82.7541 43.0422C82.2491 43.0422 81.8784 43.1699 81.6424 43.4253C81.4093 43.6781 81.2927 44.0895 81.2927 44.6596V46.9812H80.9077V42.7752H81.2341L81.3081 43.3517H81.3314C81.606 42.9132 82.0945 42.6939 82.7967 42.6939C83.756 42.6939 84.2353 43.206 84.2353 44.2301V46.9812H83.8544ZM90.2992 46.9812H87.2826V46.7374L89.7897 43.1157H87.4651V42.7752H90.2912V43.019L87.7688 46.6407H90.2992V46.9812ZM91.6753 42.7752V45.4992C91.6753 45.9223 91.7645 46.2305 91.9431 46.424C92.1222 46.6149 92.3991 46.7104 92.775 46.7104C93.2777 46.7104 93.6473 46.584 93.8827 46.3312C94.1215 46.0783 94.2403 45.6669 94.2403 45.0968V42.7752H94.6213V46.9812H94.2949L94.225 46.4008H94.2017C93.927 46.8393 93.4386 47.0586 92.7363 47.0586C91.7748 47.0586 91.2943 46.5466 91.2943 45.5225V42.7752H91.6753ZM98.6563 45.8862C98.6563 46.2628 98.5124 46.553 98.2247 46.7568C97.937 46.958 97.5293 47.0586 97.0005 47.0586C96.4352 47.0586 95.9872 46.9722 95.6557 46.7994V46.3854C96.0804 46.5969 96.5285 46.7026 97.0005 46.7026C97.4178 46.7026 97.734 46.6342 97.9489 46.4975C98.1667 46.3582 98.2753 46.1738 98.2753 45.9442C98.2753 45.7327 98.1883 45.5547 98.0149 45.4102C97.8437 45.2658 97.5617 45.1239 97.1676 44.9846C96.7451 44.8324 96.4483 44.7021 96.2772 44.5938C96.1066 44.4829 95.9769 44.3591 95.8888 44.2224C95.8029 44.0831 95.7603 43.9141 95.7603 43.7155C95.7603 43.4008 95.8928 43.1518 96.1572 42.9686C96.4239 42.7855 96.7958 42.6939 97.2723 42.6939C97.7289 42.6939 98.1616 42.7791 98.571 42.9493L98.4271 43.2976C98.0126 43.1273 97.6277 43.0422 97.2723 43.0422C96.9277 43.0422 96.6547 43.0989 96.4523 43.2124C96.2504 43.3259 96.1492 43.4833 96.1492 43.6845C96.1492 43.9038 96.2271 44.0791 96.3824 44.2108C96.5404 44.3423 96.8475 44.4894 97.3035 44.6519C97.6845 44.7886 97.962 44.9124 98.1354 45.0233C98.3089 45.1316 98.4385 45.2555 98.5244 45.3948C98.6125 45.5341 98.6563 45.6978 98.6563 45.8862ZM102.31 46.9812L102.213 46.3157H102.182C101.97 46.5865 101.75 46.7788 101.525 46.8922C101.302 47.0031 101.038 47.0586 100.732 47.0586C100.317 47.0586 99.9949 46.9529 99.764 46.7413C99.5337 46.5298 99.4183 46.237 99.4183 45.863C99.4183 45.4528 99.5894 45.1342 99.9312 44.9072C100.276 44.6802 100.773 44.5603 101.424 44.5474L102.228 44.5242V44.2456C102.228 43.8457 102.147 43.5439 101.984 43.3401C101.82 43.1364 101.557 43.0344 101.195 43.0344C100.803 43.0344 100.398 43.1428 99.9778 43.3595L99.8339 43.0267C100.298 42.81 100.757 42.7017 101.21 42.7017C101.674 42.7017 102.02 42.8216 102.248 43.0615C102.479 43.3014 102.594 43.6755 102.594 44.1836V46.9812H102.31ZM100.755 46.7104C101.206 46.7104 101.561 46.5827 101.82 46.3273C102.082 46.0693 102.213 45.7121 102.213 45.2555V44.8414L101.474 44.8724C100.881 44.9008 100.457 44.9936 100.204 45.151C99.9522 45.3058 99.8265 45.5482 99.8265 45.8785C99.8265 46.1416 99.9067 46.3466 100.067 46.4937C100.231 46.6382 100.46 46.7104 100.755 46.7104ZM100.134 41.6066C100.134 41.4879 100.153 41.4029 100.192 41.3512C100.233 41.2997 100.296 41.2739 100.378 41.2739C100.544 41.2739 100.627 41.3848 100.627 41.6066C100.627 41.8285 100.544 41.9394 100.378 41.9394C100.215 41.9394 100.134 41.8285 100.134 41.6066ZM101.614 41.6066C101.614 41.4879 101.634 41.4029 101.673 41.3512C101.714 41.2997 101.776 41.2739 101.859 41.2739C102.025 41.2739 102.108 41.3848 102.108 41.6066C102.108 41.8285 102.025 41.9394 101.859 41.9394C101.696 41.9394 101.614 41.8285 101.614 41.6066ZM105.082 46.7181C105.325 46.7181 105.538 46.6975 105.719 46.6562V46.9658C105.533 47.0276 105.318 47.0586 105.074 47.0586C104.701 47.0586 104.425 46.9593 104.246 46.7607C104.07 46.562 103.981 46.2499 103.981 45.8243V43.1079H103.356V42.8835L103.981 42.7094L104.176 41.7575H104.374V42.7752H105.614V43.1079H104.374V45.7701C104.374 46.0925 104.431 46.3312 104.545 46.4859C104.659 46.6407 104.838 46.7181 105.082 46.7181ZM109.26 46.9812H106.244V46.7374L108.751 43.1157H106.427V42.7752H109.253V43.019L106.73 46.6407H109.26V46.9812ZM110.687 46.9812H110.302V40.9604H110.687V46.9812ZM112.49 46.9812H112.105V42.7752H112.49V46.9812ZM112.051 41.6066C112.051 41.359 112.133 41.2352 112.296 41.2352C112.377 41.2352 112.439 41.2674 112.482 41.3319C112.529 41.3964 112.553 41.4879 112.553 41.6066C112.553 41.7227 112.529 41.8143 112.482 41.8813C112.439 41.9484 112.377 41.982 112.296 41.982C112.133 41.982 112.051 41.8568 112.051 41.6066ZM115.596 47.0586C114.992 47.0586 114.519 46.869 114.178 46.4898C113.835 46.1106 113.665 45.5818 113.665 44.9034C113.665 44.2068 113.842 43.6651 114.197 43.2782C114.552 42.8887 115.038 42.6939 115.655 42.6939C116.02 42.6939 116.37 42.7571 116.704 42.8835L116.599 43.224C116.234 43.1028 115.916 43.0422 115.647 43.0422C115.128 43.0422 114.736 43.2021 114.469 43.522C114.202 43.8393 114.069 44.2971 114.069 44.8956C114.069 45.4631 114.202 45.9081 114.469 46.2305C114.736 46.5504 115.109 46.7104 115.588 46.7104C115.972 46.7104 116.328 46.642 116.657 46.5053V46.8613C116.388 46.9928 116.034 47.0586 115.596 47.0586ZM120.642 46.9812V44.2533C120.642 43.8303 120.552 43.5233 120.373 43.3324C120.195 43.1389 119.917 43.0422 119.542 43.0422C119.036 43.0422 118.666 43.1699 118.43 43.4253C118.197 43.6781 118.08 44.0895 118.08 44.6596V46.9812H117.695V40.9604H118.08V42.8758L118.061 43.4137H118.088C118.246 43.1609 118.446 42.9777 118.687 42.8642C118.927 42.7507 119.227 42.6939 119.585 42.6939C120.543 42.6939 121.023 43.206 121.023 44.2301V46.9812H120.642ZM124.097 47.0586C123.483 47.0586 123.004 46.8703 122.659 46.4937C122.317 46.1171 122.146 45.5895 122.146 44.9111C122.146 44.2404 122.312 43.7039 122.644 43.3014C122.975 42.8964 123.422 42.6939 123.985 42.6939C124.482 42.6939 124.875 42.8668 125.162 43.2124C125.45 43.5581 125.594 44.0276 125.594 44.6209V44.9305H122.551C122.556 45.5083 122.69 45.9494 122.954 46.2538C123.222 46.5582 123.603 46.7104 124.097 46.7104C124.338 46.7104 124.549 46.6936 124.731 46.6601C124.915 46.6265 125.147 46.5543 125.427 46.4434V46.7916C125.188 46.8948 124.968 46.9645 124.766 47.0006C124.564 47.0392 124.341 47.0586 124.097 47.0586ZM123.985 43.0344C123.578 43.0344 123.251 43.1686 123.005 43.4369C122.759 43.7026 122.615 44.0869 122.574 44.5899H125.186C125.186 44.1024 125.079 43.7219 124.867 43.4485C124.655 43.1725 124.361 43.0344 123.985 43.0344ZM129.706 46.9812V44.2533C129.706 43.8303 129.617 43.5233 129.438 43.3324C129.259 43.1389 128.982 43.0422 128.606 43.0422C128.101 43.0422 127.731 43.1699 127.495 43.4253C127.262 43.6781 127.145 44.0895 127.145 44.6596V46.9812H126.76V42.7752H127.087L127.16 43.3517H127.184C127.458 42.9132 127.947 42.6939 128.649 42.6939C129.608 42.6939 130.087 43.206 130.087 44.2301V46.9812H129.706ZM40.5247 53.7041C40.5247 54.2509 40.3382 54.6701 39.965 54.9616C39.5918 55.2531 39.0632 55.3988 38.379 55.3988H37.5005V57.7359H37.1041V52.0789H38.4956C39.8483 52.0789 40.5247 52.6206 40.5247 53.7041ZM37.5005 55.0583H38.2818C38.9219 55.0583 39.3845 54.9539 39.6696 54.7449C39.9546 54.5334 40.0971 54.1916 40.0971 53.7195C40.0971 53.2835 39.9623 52.9611 39.6929 52.7521C39.4233 52.5406 39.0061 52.4349 38.4412 52.4349H37.5005V55.0583ZM44.2291 57.7359L44.1319 57.0703H44.1008C43.8883 57.3414 43.6694 57.5333 43.4439 57.6471C43.221 57.758 42.9567 57.8135 42.6509 57.8135C42.2363 57.8135 41.9137 57.7076 41.6831 57.4959C41.4524 57.2842 41.3371 56.9916 41.3371 56.6175C41.3371 56.2075 41.5082 55.889 41.8502 55.6619C42.1949 55.4349 42.6924 55.315 43.3428 55.3021L44.1475 55.2789V55.0003C44.1475 54.6004 44.0658 54.2986 43.9026 54.0948C43.7393 53.8911 43.4763 53.7891 43.1135 53.7891C42.7222 53.7891 42.3166 53.8975 41.8969 54.1142L41.753 53.7814C42.2169 53.5648 42.6756 53.4564 43.1291 53.4564C43.5929 53.4564 43.9389 53.5764 44.1669 53.8162C44.3976 54.0561 44.5128 54.4302 44.5128 54.9384V57.7359H44.2291ZM42.6743 57.4648C43.1252 57.4648 43.4802 57.3375 43.7393 57.0822C44.0011 56.8241 44.1319 56.4668 44.1319 56.0102V55.5962L43.3934 55.6271C42.8 55.6555 42.3763 55.7484 42.1223 55.9057C41.8709 56.0605 41.7453 56.303 41.7453 56.6333C41.7453 56.8965 41.8256 57.1014 41.9863 57.2486C42.1495 57.3929 42.3788 57.4648 42.6743 57.4648ZM45.1776 53.5299H45.5741L46.4681 55.8903C46.7402 56.6152 46.9125 57.1037 46.9851 57.3567H47.0084C47.1172 57.0239 47.2947 56.5274 47.5409 55.867L48.435 53.5299H48.8315L46.9384 58.4169C46.7855 58.8142 46.6573 59.0825 46.5536 59.2218C46.4499 59.361 46.3281 59.4658 46.1882 59.5354C46.0509 59.605 45.8838 59.6395 45.6868 59.6395C45.539 59.6395 45.3745 59.6124 45.1931 59.5586V59.2258C45.3434 59.2671 45.5054 59.2875 45.679 59.2875C45.8112 59.2875 45.9278 59.2569 46.0289 59.1946C46.1299 59.1329 46.2206 59.0361 46.3009 58.9042C46.3839 58.7758 46.4785 58.5692 46.5847 58.2856C46.6935 58.0042 46.7635 57.8209 46.7946 57.7359L45.1776 53.5299ZM53.0567 53.7041C53.0567 54.2509 52.8701 54.6701 52.497 54.9616C52.1238 55.2531 51.5952 55.3988 50.911 55.3988H50.0326V57.7359H49.6361V52.0789H51.0277C52.3804 52.0789 53.0567 52.6206 53.0567 53.7041ZM50.0326 55.0583H50.8139C51.454 55.0583 51.9165 54.9539 52.2015 54.7449C52.4866 54.5334 52.6292 54.1916 52.6292 53.7195C52.6292 53.2835 52.4944 52.9611 52.2249 52.7521C51.9554 52.5406 51.5382 52.4349 50.9733 52.4349H50.0326V55.0583ZM56.7611 57.7359L56.664 57.0703H56.6329C56.4204 57.3414 56.2014 57.5333 55.9759 57.6471C55.7531 57.758 55.4888 57.8135 55.183 57.8135C54.7683 57.8135 54.4457 57.7076 54.2151 57.4959C53.9845 57.2842 53.8692 56.9916 53.8692 56.6175C53.8692 56.2075 54.0401 55.889 54.3822 55.6619C54.7269 55.4349 55.2244 55.315 55.8749 55.3021L56.6795 55.2789V55.0003C56.6795 54.6004 56.5979 54.2986 56.4346 54.0948C56.2714 53.8911 56.0083 53.7891 55.6455 53.7891C55.2542 53.7891 54.8487 53.8975 54.4289 54.1142L54.285 53.7814C54.7489 53.5648 55.2076 53.4564 55.6611 53.4564C56.125 53.4564 56.4709 53.5764 56.6989 53.8162C56.9299 54.0561 57.0447 54.4302 57.0447 54.9384V57.7359H56.7611ZM55.2063 57.4648C55.6572 57.4648 56.0122 57.3375 56.2714 57.0822C56.5331 56.8241 56.664 56.4668 56.664 56.0102V55.5962L55.9254 55.6271C55.3319 55.6555 54.9083 55.7484 54.6543 55.9057C54.403 56.0605 54.2773 56.303 54.2773 56.6333C54.2773 56.8965 54.3576 57.1014 54.5183 57.2486C54.6816 57.3929 54.9109 57.4648 55.2063 57.4648ZM58.8018 57.7359H58.4168V51.7152H58.8018V57.7359ZM59.8708 55.7548V55.4375H61.7171V55.7548H59.8708ZM66.7046 57.7359H66.2184L64.0377 54.7488L63.2797 55.4143V57.7359H62.8834V52.0789H63.2797V55.0196L63.9097 54.3928L66.1371 52.0789H66.642L64.314 54.4702L66.7046 57.7359ZM69.977 57.7359L69.8803 57.0703H69.8491C69.6364 57.3414 69.4175 57.5333 69.1923 57.6471C68.9694 57.758 68.705 57.8135 68.3991 57.8135C67.9845 57.8135 67.6621 57.7076 67.4313 57.4959C67.2004 57.2842 67.0855 56.9916 67.0855 56.6175C67.0855 56.2075 67.2561 55.889 67.5984 55.6619C67.943 55.4349 68.4406 55.315 69.0911 55.3021L69.8957 55.2789V55.0003C69.8957 54.6004 69.8138 54.2986 69.6506 54.0948C69.4874 53.8911 69.2247 53.7891 68.8619 53.7891C68.4701 53.7891 68.0647 53.8975 67.6451 54.1142L67.5012 53.7814C67.9652 53.5648 68.4235 53.4564 68.8773 53.4564C69.3413 53.4564 69.687 53.5764 69.915 53.8162C70.1459 54.0561 70.2608 54.4302 70.2608 54.9384V57.7359H69.977ZM68.4224 57.4648C68.8733 57.4648 69.2281 57.3375 69.4874 57.0822C69.749 56.8241 69.8803 56.4668 69.8803 56.0102V55.5962L69.1417 55.6271C68.548 55.6555 68.1244 55.7484 67.8702 55.9057C67.6189 56.0605 67.4932 56.303 67.4932 56.6333C67.4932 56.8965 67.574 57.1014 67.7343 57.2486C67.8975 57.3929 68.1273 57.4648 68.4224 57.4648ZM67.8003 52.3614C67.8003 52.2427 67.8202 52.1576 67.8589 52.106C67.9004 52.0544 67.9624 52.0286 68.0454 52.0286C68.2114 52.0286 68.2944 52.1395 68.2944 52.3614C68.2944 52.5832 68.2114 52.6941 68.0454 52.6941C67.8822 52.6941 67.8003 52.5832 67.8003 52.3614ZM69.2816 52.3614C69.2816 52.2427 69.3009 52.1576 69.3396 52.106C69.3811 52.0544 69.4436 52.0286 69.5267 52.0286C69.6921 52.0286 69.7751 52.1395 69.7751 52.3614C69.7751 52.5832 69.6921 52.6941 69.5267 52.6941C69.3629 52.6941 69.2816 52.5832 69.2816 52.3614ZM71.9672 53.5299V56.2539C71.9672 56.6769 72.0571 56.9854 72.2356 57.179C72.4147 57.3697 72.6916 57.4648 73.0675 57.4648C73.5702 57.4648 73.9398 57.3386 74.1752 57.0861C74.414 56.8331 74.5329 56.4217 74.5329 55.8515V53.5299H74.9138V57.7359H74.5874L74.5175 57.1558H74.4942C74.2195 57.5939 73.7311 57.8135 73.0288 57.8135C72.0673 57.8135 71.5868 57.3012 71.5868 56.2772V53.5299H71.9672ZM77.8991 53.8627H76.904V57.7359H76.5191V53.8627H75.7344V53.6382L76.5191 53.4951V53.1701C76.5191 52.6541 76.614 52.2762 76.8028 52.0363C76.995 51.7939 77.3072 51.6726 77.7399 51.6726C77.973 51.6726 78.2062 51.7074 78.4393 51.7771L78.35 52.1098C78.1431 52.0453 77.9367 52.0131 77.732 52.0131C77.4317 52.0131 77.2179 52.1021 77.0905 52.2801C76.966 52.4555 76.904 52.7418 76.904 53.1391V53.5299H77.8991V53.8627ZM80.4221 57.8135C79.808 57.8135 79.3281 57.625 78.9835 57.2486C78.6418 56.8716 78.4706 56.3442 78.4706 55.6658C78.4706 54.9951 78.6366 54.4586 78.9681 54.0561C79.2997 53.6511 79.7466 53.4487 80.309 53.4487C80.8065 53.4487 81.1994 53.6215 81.4872 53.9671C81.7749 54.3128 81.9182 54.7823 81.9182 55.3756V55.6852H78.8749C78.88 56.263 79.0148 56.7041 79.2792 57.0086C79.5459 57.3131 79.9269 57.4648 80.4221 57.4648C80.6627 57.4648 80.8742 57.4484 81.0556 57.415C81.2393 57.381 81.4712 57.3092 81.7516 57.1982V57.5463C81.5128 57.6493 81.2927 57.719 81.0903 57.7552C80.8884 57.7942 80.6655 57.8135 80.4221 57.8135ZM80.309 53.7891C79.9024 53.7891 79.576 53.9233 79.3298 54.1916C79.0836 54.4573 78.9397 54.8416 78.8982 55.3447H81.5105C81.5105 54.8571 81.4042 54.4766 81.1915 54.2032C80.9788 53.9272 80.6848 53.7891 80.309 53.7891ZM84.7482 53.4487C84.9268 53.4487 85.119 53.4667 85.3237 53.5028L85.2498 53.8704C85.0735 53.8265 84.891 53.8046 84.7016 53.8046C84.3417 53.8046 84.046 53.9568 83.8151 54.2612C83.5848 54.5656 83.4694 54.95 83.4694 55.4143V57.7359H83.0844V53.5299H83.4108L83.4501 54.2883H83.4774C83.6508 53.9788 83.8362 53.7621 84.0329 53.6382C84.2302 53.5118 84.4685 53.4487 84.7482 53.4487ZM88.8065 56.6407C88.8065 57.0176 88.6627 57.3075 88.375 57.5118C88.0872 57.7127 87.6789 57.8135 87.1507 57.8135C86.5855 57.8135 86.1374 57.7269 85.8053 57.5542V57.1399C86.2307 57.3516 86.6787 57.4575 87.1507 57.4575C87.5675 57.4575 87.8837 57.389 88.0992 57.2526C88.3164 57.1127 88.4256 56.9288 88.4256 56.699C88.4256 56.4874 88.3386 56.3094 88.1651 56.165C87.994 56.0205 87.7114 55.8787 87.3179 55.7394C86.8954 55.5872 86.5986 55.4569 86.4274 55.3485C86.2562 55.2376 86.1272 55.1138 86.039 54.9771C85.9532 54.8378 85.9105 54.6688 85.9105 54.4702C85.9105 54.1555 86.0424 53.9065 86.3069 53.7234C86.5741 53.5402 86.946 53.4487 87.4225 53.4487C87.8785 53.4487 88.3113 53.5338 88.7207 53.7041L88.5768 54.0523C88.1623 53.882 87.7779 53.7969 87.4225 53.7969C87.0779 53.7969 86.8044 53.8537 86.6025 53.9671C86.4001 54.0806 86.2995 54.238 86.2995 54.4392C86.2995 54.6585 86.3768 54.8339 86.5326 54.9655C86.6907 55.097 86.9977 55.2441 87.4538 55.4066C87.8348 55.5433 88.1117 55.6671 88.2857 55.778C88.4591 55.8864 88.5888 56.0102 88.674 56.1495C88.7622 56.2888 88.8065 56.4526 88.8065 56.6407ZM91.582 57.8135C90.9781 57.8135 90.505 57.6239 90.1627 57.2446C89.821 56.8654 89.6498 56.3365 89.6498 55.6581C89.6498 54.9616 89.8272 54.4199 90.1826 54.0329C90.5374 53.6434 91.0236 53.4487 91.64 53.4487C92.0056 53.4487 92.3553 53.5118 92.6897 53.6382L92.5845 53.9788C92.2194 53.8575 91.9016 53.7969 91.632 53.7969C91.114 53.7969 90.7217 53.9569 90.4544 54.2767C90.1877 54.594 90.0541 55.0518 90.0541 55.6503C90.0541 56.2178 90.1877 56.6627 90.4544 56.9854C90.7217 57.3052 91.0947 57.4648 91.5741 57.4648C91.9573 57.4648 92.3138 57.3969 92.6431 57.2599V57.6159C92.3735 57.7478 92.0199 57.8135 91.582 57.8135ZM96.6274 57.7359V55.008C96.6274 54.585 96.5376 54.278 96.359 54.0871C96.1805 53.8936 95.903 53.7969 95.5271 53.7969C95.0216 53.7969 94.6515 53.9246 94.4155 54.18C94.1823 54.4328 94.0658 54.8442 94.0658 55.4143V57.7359H93.6808V51.7152H94.0658V53.6305L94.0464 54.1684H94.0732C94.2312 53.9156 94.4308 53.7324 94.6719 53.6189C94.913 53.5054 95.2121 53.4487 95.5698 53.4487C96.5285 53.4487 97.0084 53.9607 97.0084 54.9848V57.7359H96.6274ZM98.7109 53.5299V56.2539C98.7109 56.6769 98.8002 56.9854 98.9787 57.179C99.1578 57.3697 99.4348 57.4648 99.8106 57.4648C100.313 57.4648 100.683 57.3386 100.919 57.0861C101.157 56.8331 101.276 56.4217 101.276 55.8515V53.5299H101.657V57.7359H101.331L101.261 57.1558H101.237C100.963 57.5939 100.474 57.8135 99.7719 57.8135C98.8104 57.8135 98.3299 57.3012 98.3299 56.2772V53.5299H98.7109ZM104.188 57.4727C104.431 57.4727 104.644 57.4524 104.825 57.411V57.7207C104.639 57.7824 104.423 57.8135 104.18 57.8135C103.807 57.8135 103.531 57.7139 103.352 57.5152C103.176 57.3165 103.088 57.0046 103.088 56.579V53.8627H102.462V53.6382L103.088 53.4641L103.282 52.5123H103.48V53.5299H104.72V53.8627H103.48V56.5248C103.48 56.8473 103.537 57.0861 103.651 57.2407C103.765 57.3952 103.944 57.4727 104.188 57.4727ZM108.366 57.7359H105.35V57.492L107.857 53.8704H105.533V53.5299H108.359V53.7737L105.836 57.3952H108.366V57.7359Z" fill="#878787"/>
<path d="M55.6299 7.17725H48.3227C48.0808 7.17708 47.8468 7.26294 47.6628 7.41928C47.4789 7.57568 47.3571 7.7923 47.3194 8.03015L44.364 26.6801C44.3504 26.7667 44.3558 26.8551 44.3799 26.9394C44.4039 27.0236 44.446 27.1017 44.5033 27.1682C44.5606 27.2347 44.6317 27.2881 44.7116 27.3246C44.7916 27.3611 44.8786 27.38 44.9666 27.3799H48.4551C48.6972 27.38 48.9314 27.294 49.1153 27.1374C49.2993 26.9808 49.421 26.764 49.4585 26.5259L50.2555 21.4957C50.2929 21.2579 50.4145 21.0412 50.5982 20.8846C50.782 20.728 51.0159 20.6419 51.2577 20.6418H53.571C58.3844 20.6418 61.1627 18.3234 61.8877 13.7292C62.2147 11.7193 61.9019 10.1401 60.9563 9.03408C59.918 7.81959 58.0756 7.17725 55.6299 7.17725ZM56.473 13.9887C56.0733 16.5985 54.07 16.5985 52.1328 16.5985H51.0302L51.8037 11.7246C51.8264 11.582 51.8994 11.4521 52.0097 11.3584C52.12 11.2646 52.2603 11.2131 52.4053 11.2131H52.9107C54.2302 11.2131 55.475 11.2131 56.1182 11.9618C56.5018 12.4084 56.6193 13.072 56.473 13.9887ZM77.4726 13.9047H73.9733C73.8283 13.9047 73.6879 13.9562 73.5776 14.05C73.4678 14.1438 73.3945 14.2737 73.3717 14.4162L73.217 15.3904L72.9725 15.0373C72.2145 13.943 70.5257 13.5772 68.8392 13.5772C64.9725 13.5772 61.6699 16.4921 61.0268 20.5811C60.6925 22.6209 61.1678 24.5712 62.3301 25.9314C63.3968 27.1821 64.9225 27.7032 66.7375 27.7032C69.8536 27.7032 71.5811 25.7092 71.5811 25.7092L71.4253 26.6769C71.4111 26.7635 71.4162 26.8519 71.4401 26.9363C71.464 27.0207 71.5055 27.0989 71.5629 27.1656C71.6198 27.2324 71.6908 27.286 71.7705 27.3228C71.8506 27.3596 71.9376 27.3787 72.0258 27.3788H75.1777C75.4199 27.3789 75.6536 27.2929 75.8378 27.1364C76.0215 26.9797 76.1432 26.7629 76.1807 26.5249L78.072 14.6045C78.0862 14.5181 78.0811 14.4298 78.0572 14.3457C78.0333 14.2614 77.9918 14.1834 77.9349 14.1169C77.8775 14.0503 77.807 13.9969 77.7268 13.9602C77.6472 13.9236 77.5602 13.9047 77.4726 13.9047ZM72.595 20.6832C72.2572 22.673 70.6707 24.0087 68.647 24.0087C67.6308 24.0087 66.8188 23.6843 66.2974 23.0697C65.7805 22.4592 65.5838 21.5904 65.7481 20.6226C66.0637 18.6499 67.6769 17.2706 69.6694 17.2706C70.6633 17.2706 71.4708 17.5992 72.003 18.2192C72.5364 18.8455 72.7479 19.7197 72.595 20.6832ZM96.1088 13.9047H92.5925C92.427 13.905 92.2632 13.9455 92.1171 14.0228C91.9704 14.1001 91.8453 14.2117 91.7515 14.3482L86.9016 21.4585L84.846 14.6257C84.7829 14.4173 84.6544 14.2347 84.4787 14.1049C84.303 13.975 84.0903 13.9048 83.872 13.9047H80.4164C80.3192 13.9044 80.2237 13.9272 80.1372 13.9712C80.0508 14.0152 79.9763 14.0791 79.92 14.1575C79.8632 14.236 79.8262 14.3267 79.812 14.4222C79.7978 14.5177 79.8069 14.6152 79.8381 14.7066L83.7116 26.0197L80.0701 31.136C80.0053 31.2268 79.9672 31.3334 79.9593 31.4444C79.9513 31.5554 79.974 31.6664 80.0258 31.7652C80.077 31.8641 80.1543 31.9469 80.2498 32.0048C80.3454 32.0626 80.4551 32.0932 80.5671 32.0932H84.079C84.2427 32.0934 84.4048 32.054 84.5498 31.9785C84.6954 31.9029 84.8199 31.7934 84.9137 31.6593L96.6087 14.8565C96.6724 14.7656 96.7093 14.6592 96.7167 14.5488C96.7235 14.4383 96.6997 14.3281 96.6485 14.23C96.5967 14.1319 96.5194 14.0498 96.4244 13.9925C96.3289 13.9351 96.2203 13.9048 96.1088 13.9047Z" fill="#253B80"/>
<path d="M107.751 7.17686H100.442C100.201 7.17697 99.967 7.26295 99.7833 7.41929C99.5996 7.57563 99.478 7.79208 99.4404 8.02976L96.4853 26.6797C96.4711 26.7661 96.4767 26.8545 96.5006 26.9387C96.5239 27.0228 96.566 27.1009 96.6234 27.1674C96.6803 27.2339 96.7514 27.2873 96.831 27.324C96.9106 27.3606 96.9976 27.3795 97.0857 27.3795H100.836C101.005 27.3793 101.168 27.3189 101.297 27.2094C101.426 27.0998 101.511 26.9482 101.537 26.7819L102.376 21.4953C102.413 21.2575 102.534 21.0408 102.718 20.8842C102.902 20.7276 103.136 20.6415 103.378 20.6414H105.69C110.504 20.6414 113.281 18.323 114.008 13.7289C114.336 11.7189 114.021 10.1397 113.075 9.03369C112.038 7.8192 110.197 7.17686 107.751 7.17686ZM108.594 13.9884C108.196 16.5981 106.192 16.5981 104.254 16.5981H103.152L103.927 11.7242C103.949 11.5816 104.022 11.4517 104.132 11.3578C104.242 11.264 104.382 11.2125 104.527 11.2127H105.033C106.351 11.2127 107.597 11.2127 108.241 11.9614C108.624 12.4081 108.74 13.0716 108.594 13.9884ZM129.592 13.9043H126.095C125.95 13.9039 125.81 13.9553 125.7 14.0492C125.59 14.1431 125.517 14.2732 125.495 14.4159L125.34 15.39L125.094 15.0369C124.337 13.9426 122.648 13.5768 120.962 13.5768C117.096 13.5768 113.794 16.4917 113.151 20.5808C112.817 22.6205 113.291 24.5709 114.453 25.931C115.522 27.1817 117.046 27.7028 118.861 27.7028C121.976 27.7028 123.704 25.7088 123.704 25.7088L123.549 26.6766C123.534 26.7632 123.539 26.8519 123.563 26.9364C123.587 27.021 123.629 27.0993 123.687 27.1661C123.744 27.2328 123.815 27.2864 123.895 27.323C123.976 27.3597 124.063 27.3786 124.151 27.3785H127.302C127.544 27.3783 127.777 27.2922 127.961 27.1356C128.145 26.9791 128.266 26.7623 128.304 26.5245L130.196 14.6041C130.209 14.5175 130.204 14.429 130.18 14.3448C130.156 14.2605 130.113 14.1825 130.056 14.116C129.999 14.0495 129.928 13.9962 129.848 13.9596C129.768 13.9231 129.681 13.9042 129.592 13.9043ZM124.715 20.6829C124.379 22.6726 122.791 24.0083 120.767 24.0083C119.753 24.0083 118.939 23.684 118.417 23.0693C117.9 22.4589 117.706 21.59 117.869 20.6222C118.186 18.6495 119.797 17.2702 121.79 17.2702C122.783 17.2702 123.591 17.5988 124.123 18.2188C124.658 18.8452 124.87 19.7193 124.715 20.6829ZM133.718 7.68838L130.719 26.6797C130.705 26.7661 130.71 26.8545 130.734 26.9387C130.758 27.0228 130.8 27.1009 130.857 27.1674C130.914 27.2339 130.985 27.2873 131.065 27.324C131.144 27.3606 131.231 27.3795 131.319 27.3795H134.334C134.836 27.3795 135.261 27.018 135.338 26.5256L138.295 7.87665C138.309 7.79016 138.304 7.7018 138.28 7.61757C138.256 7.53335 138.214 7.45523 138.157 7.38861C138.1 7.32205 138.029 7.26855 137.95 7.23182C137.869 7.19508 137.783 7.17595 137.695 7.17578H134.318C134.173 7.17629 134.033 7.2282 133.923 7.3221C133.813 7.41601 133.741 7.54586 133.718 7.68838Z" fill="#179BD7"/>
<path d="M14.0184 31.0041L14.5772 27.4713L13.3325 27.4426H7.38858L11.5193 1.37388C11.5316 1.29422 11.5723 1.22162 11.6338 1.16931C11.6954 1.11699 11.7738 1.08845 11.8548 1.08887H21.877C25.2042 1.08887 27.5004 1.77799 28.6992 3.13817C29.2612 3.77624 29.6192 4.44304 29.7923 5.17683C29.9739 5.94675 29.9771 6.86668 29.7997 7.98862L29.7869 8.07053V8.7894L30.3489 9.10632C30.778 9.32266 31.1636 9.61536 31.4868 9.96987C31.9677 10.5154 32.2786 11.2088 32.41 12.0309C32.5457 12.8763 32.5008 13.8824 32.2786 15.0213C32.0221 16.3315 31.6076 17.4726 31.0477 18.4063C30.5537 19.2428 29.8895 19.9673 29.0977 20.5333C28.3541 21.0586 27.4705 21.4574 26.4714 21.7127C25.5034 21.9636 24.3997 22.0902 23.1891 22.0902H22.4091C21.8514 22.0902 21.3097 22.2901 20.8844 22.6485C20.4598 23.0107 20.1781 23.5112 20.0895 24.0608L20.0307 24.3788L19.0434 30.6053L18.9986 30.834C18.9868 30.9063 18.9665 30.9425 18.9366 30.9669C18.9076 30.9905 18.8714 31.0036 18.834 31.0041H14.0184Z" fill="#253B80"/>
<path d="M30.881 8.15332C30.8511 8.34368 30.8169 8.53828 30.7784 8.73821C29.4567 15.4923 24.9349 17.8255 19.1599 17.8255H16.2195C15.5132 17.8255 14.9181 18.336 14.808 19.0294L13.3025 28.5325L12.8762 31.2263C12.8592 31.3331 12.8657 31.4424 12.8952 31.5465C12.9247 31.6506 12.9765 31.7471 13.0471 31.8294C13.1177 31.9116 13.2053 31.9777 13.304 32.023C13.4027 32.0684 13.5101 32.0918 13.6188 32.0919H18.834C19.4515 32.0919 19.9762 31.6452 20.0734 31.0391L20.1247 30.7754L21.1066 24.5732L21.1697 24.2329C21.2658 23.6246 21.7915 23.1779 22.4091 23.1779H23.1891C28.2418 23.1779 32.1973 21.1361 33.3534 15.2275C33.8363 12.7592 33.5863 10.6982 32.3084 9.24866C31.9034 8.8003 31.4197 8.42909 30.881 8.15332Z" fill="#179BD7"/>
<path d="M29.4984 7.60538C29.0764 7.48385 28.6471 7.38904 28.213 7.32145C27.3554 7.19025 26.4886 7.1273 25.6209 7.13319H17.7655C17.4666 7.13296 17.1774 7.23921 16.9503 7.43268C16.7232 7.62615 16.5731 7.89417 16.5272 8.18817L14.8561 18.7229L14.808 19.0302C14.8601 18.6949 15.031 18.3891 15.2899 18.1683C15.5488 17.9475 15.8785 17.8262 16.2195 17.8263H19.1599C24.935 17.8263 29.4567 15.492 30.7784 8.73904C30.818 8.53912 30.8511 8.34451 30.881 8.15415C30.5322 7.97211 30.1688 7.81951 29.7944 7.69793C29.6962 7.66549 29.5976 7.63464 29.4984 7.60538Z" fill="#222D65"/>
<path d="M16.5271 8.18762C16.5726 7.89351 16.7227 7.62543 16.9499 7.43202C17.1771 7.23866 17.4665 7.13281 17.7655 7.13372H25.6209C26.5515 7.13372 27.4201 7.19434 28.213 7.32198C28.7495 7.40587 29.2785 7.53142 29.7953 7.69738C30.1854 7.82604 30.5476 7.97813 30.882 8.1536C31.2752 5.65763 30.8788 3.95822 29.5229 2.41938C28.0281 0.725281 25.3302 0 21.878 0H11.8558C11.1506 0 10.549 0.510463 10.4401 1.20491L6.26553 27.5416C6.24609 27.6639 6.25348 27.7889 6.2872 27.908C6.32092 28.0272 6.38023 28.1377 6.46092 28.2319C6.54166 28.3261 6.64191 28.4017 6.75478 28.4537C6.86771 28.5056 6.99059 28.5326 7.11495 28.5328H13.3025L14.856 18.7223L16.5271 8.18762Z" fill="#253B80"/>
</svg>
