<svg width="80" height="62" viewBox="0 0 80 62" fill="none" xmlns="http://www.w3.org/2000/svg">
<g clip-path="url(#clip0_128_596)">
<path d="M78.3124 61.129V61.2904H78.4618C78.4947 61.2904 78.5229 61.2828 78.5435 61.27C78.5624 61.2577 78.573 61.236 78.573 61.2091C78.573 61.1828 78.5624 61.1623 78.5435 61.1495C78.5229 61.1354 78.4947 61.129 78.4618 61.129H78.3124ZM78.4629 61.0167C78.54 61.0167 78.6 61.0337 78.6424 61.0682C78.6847 61.1027 78.7053 61.1495 78.7053 61.2091C78.7053 61.2594 78.6894 61.2998 78.6547 61.3331C78.6218 61.3641 78.5747 61.3846 78.5118 61.3922L78.71 61.6191H78.5559L78.3724 61.394H78.3124V61.6191H78.1835V61.0167H78.4629ZM78.4241 61.828C78.4947 61.828 78.5606 61.8133 78.62 61.787C78.6818 61.7601 78.7347 61.7244 78.7806 61.6788C78.8259 61.6338 78.8624 61.5805 78.8888 61.5174C78.9141 61.4565 78.9282 61.391 78.9282 61.3203C78.9282 61.2501 78.9141 61.184 78.8888 61.1231C78.8624 61.0617 78.8259 61.0073 78.7806 60.9617C78.7347 60.9161 78.6818 60.8804 78.62 60.8535C78.5606 60.8284 78.4947 60.8161 78.4241 60.8161C78.3535 60.8161 78.2859 60.8284 78.2247 60.8535C78.1618 60.8804 78.1065 60.9161 78.0612 60.9617C78.0153 61.0073 77.9794 61.0617 77.9541 61.1231C77.9277 61.184 77.9153 61.2501 77.9153 61.3203C77.9153 61.391 77.9277 61.4565 77.9541 61.5174C77.9794 61.5805 78.0153 61.6338 78.0612 61.6788C78.1065 61.7244 78.1618 61.7601 78.2247 61.787C78.2859 61.8133 78.3535 61.828 78.4241 61.828ZM78.4241 60.6704C78.5165 60.6704 78.6012 60.6874 78.6829 60.7219C78.7629 60.7552 78.8324 60.802 78.8935 60.8617C78.9535 60.9196 79.0006 60.9886 79.0347 61.0682C79.0694 61.1465 79.0865 61.2314 79.0865 61.3203C79.0865 61.4097 79.0694 61.494 79.0347 61.5724C79.0006 61.6507 78.9535 61.7198 78.8935 61.7794C78.8324 61.8373 78.7629 61.8841 78.6829 61.9186C78.6012 61.9531 78.5165 61.9701 78.4241 61.9701C78.3294 61.9701 78.2435 61.9531 78.1618 61.9186C78.08 61.8841 78.0094 61.8373 77.9494 61.7794C77.89 61.7198 77.8429 61.6507 77.8082 61.5724C77.7735 61.494 77.7565 61.4097 77.7565 61.3203C77.7565 61.2314 77.7735 61.1465 77.8082 61.0682C77.8429 60.9886 77.89 60.9196 77.9494 60.8617C78.0094 60.802 78.08 60.7552 78.1618 60.7219C78.2435 60.6874 78.3294 60.6704 78.4241 60.6704ZM17.2293 58.3481C17.2293 57.1987 17.9848 56.2543 19.2193 56.2543C20.3989 56.2543 21.1953 57.158 21.1953 58.3481C21.1953 59.5381 20.3989 60.4417 19.2193 60.4417C17.9848 60.4417 17.2293 59.4977 17.2293 58.3481ZM22.5397 58.3481V55.0783H21.1135V55.8723C20.6612 55.2834 19.9748 54.9138 19.0418 54.9138C17.2026 54.9138 15.7607 56.3514 15.7607 58.3481C15.7607 60.3464 17.2026 61.7823 19.0418 61.7823C19.9748 61.7823 20.6612 61.4127 21.1135 60.8237V61.618H22.5397V58.3481ZM70.7341 58.3481C70.7341 57.1987 71.4894 56.2543 72.7241 56.2543C73.9053 56.2543 74.7 57.158 74.7 58.3481C74.7 59.5381 73.9053 60.4417 72.7241 60.4417C71.4894 60.4417 70.7341 59.4977 70.7341 58.3481ZM76.0459 58.3481V52.4521H74.6182V55.8723C74.1659 55.2834 73.4794 54.9138 72.5465 54.9138C70.7071 54.9138 69.2653 56.3514 69.2653 58.3481C69.2653 60.3464 70.7071 61.7823 72.5465 61.7823C73.4794 61.7823 74.1659 61.4127 74.6182 60.8237V61.618H76.0459V58.3481ZM40.2427 56.187C41.1615 56.187 41.7521 56.7617 41.9029 57.7734H38.4992C38.6516 56.8291 39.2265 56.187 40.2427 56.187ZM40.271 54.9138C38.3485 54.9138 37.004 56.3091 37.004 58.3481C37.004 60.4277 38.4034 61.7823 40.3668 61.7823C41.3547 61.7823 42.2594 61.5367 43.0557 60.8664L42.3568 59.8124C41.8071 60.2493 41.1065 60.4967 40.4484 60.4967C39.5296 60.4967 38.6924 60.0721 38.4867 58.8947H43.3573C43.3714 58.7174 43.3856 58.539 43.3856 58.3481C43.3714 56.3091 42.1086 54.9138 40.271 54.9138ZM57.4917 58.3481C57.4917 57.1987 58.2472 56.2543 59.4818 56.2543C60.6612 56.2543 61.4577 57.158 61.4577 58.3481C61.4577 59.5381 60.6612 60.4417 59.4818 60.4417C58.2472 60.4417 57.4917 59.4977 57.4917 58.3481ZM62.8024 58.3481V55.0783H61.3759V55.8723C60.9218 55.2834 60.2371 54.9138 59.3041 54.9138C57.465 54.9138 56.0231 56.3514 56.0231 58.3481C56.0231 60.3464 57.465 61.7823 59.3041 61.7823C60.2371 61.7823 60.9218 61.4127 61.3759 60.8237V61.618H62.8024V58.3481ZM49.4374 58.3481C49.4374 60.3324 50.8227 61.7823 52.9368 61.7823C53.9247 61.7823 54.5828 61.563 55.2959 61.0027L54.6111 59.8527C54.0755 60.2364 53.5132 60.4417 52.8944 60.4417C51.7557 60.4277 50.9185 59.6071 50.9185 58.3481C50.9185 57.089 51.7557 56.2684 52.8944 56.2543C53.5132 56.2543 54.0755 56.4595 54.6111 56.8432L55.2959 55.6938C54.5828 55.1331 53.9247 54.9138 52.9368 54.9138C50.8227 54.9138 49.4374 56.364 49.4374 58.3481ZM67.8253 54.9138C67.0024 54.9138 66.4665 55.2975 66.0959 55.8723V55.0783H64.6824V61.618H66.11V57.9519C66.11 56.8698 66.5765 56.2684 67.5094 56.2684C67.7982 56.2684 68.1 56.3091 68.4018 56.4329L68.8412 55.0924C68.5259 54.9686 68.1141 54.9138 67.8253 54.9138ZM29.5936 55.5982C28.9072 55.1472 27.9617 54.9138 26.9187 54.9138C25.257 54.9138 24.1874 55.7078 24.1874 57.0076C24.1874 58.074 24.9837 58.7315 26.4507 58.9368L27.1245 59.0327C27.9067 59.1421 28.2758 59.3474 28.2758 59.717C28.2758 60.2224 27.7543 60.5108 26.7805 60.5108C25.7925 60.5108 25.0795 60.1961 24.5988 59.8264L23.9266 60.9336C24.7088 61.508 25.6968 61.7823 26.7664 61.7823C28.6606 61.7823 29.7585 60.8927 29.7585 59.648C29.7585 58.4987 28.8946 57.8971 27.4669 57.6919L26.7947 57.5948C26.1774 57.5134 25.6826 57.3913 25.6826 56.9528C25.6826 56.4736 26.1491 56.187 26.9313 56.187C27.7685 56.187 28.5789 56.5018 28.9763 56.7476L29.5936 55.5982ZM47.9955 54.9138C47.1724 54.9138 46.6368 55.2975 46.2677 55.8723V55.0783H44.8541V61.618H46.2803V57.9519C46.2803 56.8698 46.7468 56.2684 47.6798 56.2684C47.9688 56.2684 48.2704 56.3091 48.5719 56.4329L49.0117 55.0924C48.696 54.9686 48.2845 54.9138 47.9955 54.9138ZM35.8244 55.0783H33.492V53.0942H32.0501V55.0783H30.7197V56.378H32.0501V59.3614C32.0501 60.8787 32.6407 61.7823 34.3275 61.7823C34.9464 61.7823 35.6595 61.5911 36.1118 61.2764L35.7003 60.058C35.2747 60.3043 34.8082 60.4277 34.4375 60.4277C33.7244 60.4277 33.492 59.989 33.492 59.3333V56.378H35.8244V55.0783ZM14.4995 61.618V57.5134C14.4995 55.9678 13.5115 54.9279 11.9189 54.9138C11.0817 54.8997 10.2178 55.1597 9.61314 56.0774C9.16078 55.3523 8.44773 54.9138 7.44567 54.9138C6.74514 54.9138 6.06031 55.119 5.52472 55.8848V55.0783H4.09698V61.618H5.53728V57.9926C5.53728 56.8573 6.16867 56.2543 7.14408 56.2543C8.0912 56.2543 8.57025 56.8698 8.57025 57.9785V61.618H10.0121V57.9926C10.0121 56.8573 10.6702 56.2543 11.6173 56.2543C12.5911 56.2543 13.0576 56.8698 13.0576 57.9785V61.618H14.4995Z" fill="#231F20"/>
<path d="M79.1918 39.8698V38.9146H78.9424L78.653 39.5707L78.3659 38.9146H78.1147V39.8698H78.2918V39.1495L78.5624 39.7711H78.7459L79.0159 39.1479V39.8698H79.1918ZM77.6071 39.8698V39.0774H77.9277V38.9161H77.1106V39.0774H77.4312V39.8698H77.6071Z" fill="#F79410"/>
<path d="M50.7943 43.9796H29.1795V5.24951H50.7943V43.9796Z" fill="#FF5F00"/>
<path d="M30.5633 24.6114C30.5633 16.7549 34.2528 9.75647 39.9983 5.2464C35.7967 1.94843 30.4942 -0.0200195 24.7315 -0.0200195C11.0886 -0.0200195 0.0296021 11.0077 0.0296021 24.6114C0.0296021 38.2152 11.0886 49.2429 24.7315 49.2429C30.4942 49.2429 35.7967 47.2744 39.9983 43.9765C34.2528 39.4664 30.5633 32.468 30.5633 24.6114Z" fill="#EB001B"/>
<path d="M79.9459 24.6114C79.9459 38.2152 68.8871 49.2429 55.2441 49.2429C49.4813 49.2429 44.1788 47.2744 39.9756 43.9765C45.7227 39.4664 49.4122 32.468 49.4122 24.6114C49.4122 16.7549 45.7227 9.75647 39.9756 5.2464C44.1788 1.94843 49.4813 -0.0200195 55.2441 -0.0200195C68.8871 -0.0200195 79.9459 11.0077 79.9459 24.6114Z" fill="#F79E1B"/>
</g>
<defs>
<clipPath id="clip0_128_596">
<rect width="80" height="62" fill="white"/>
</clipPath>
</defs>
</svg>
