<svg width="117" height="38" viewBox="0 0 117 38" fill="none" xmlns="http://www.w3.org/2000/svg">
<path d="M50.6999 37.2944H41.2221L47.1502 0.663574H56.6275L50.6999 37.2944Z" fill="#00579F"/>
<path d="M85.0578 1.55952C83.1882 0.81835 80.2234 0 76.5572 0C67.1972 0 60.6066 4.98777 60.5656 12.1188C60.4884 17.38 65.2848 20.3022 68.8726 22.0565C72.5394 23.8491 73.7855 25.0191 73.7855 26.617C73.7486 29.071 70.8224 30.2022 68.094 30.2022C64.3102 30.2022 62.2826 29.619 59.2014 28.2537L57.9533 27.6684L56.627 35.8912C58.8498 36.9033 62.9454 37.8014 67.1972 37.8407C77.1422 37.8407 83.6164 32.9302 83.693 25.331C83.7311 21.161 81.198 17.9658 75.7376 15.3549C72.4224 13.6788 70.3925 12.5487 70.3925 10.8338C70.4317 9.27475 72.1094 7.67793 75.8517 7.67793C78.9329 7.59977 81.1968 8.33989 82.9115 9.08054L83.7691 9.46954L85.0578 1.55952Z" fill="#00579F"/>
<path d="M97.6546 24.3174C98.435 22.213 101.438 14.0684 101.438 14.0684C101.399 14.1466 102.218 11.9252 102.686 10.5614L103.348 13.7178C103.348 13.7178 105.143 22.486 105.533 24.3174C104.052 24.3174 99.5266 24.3174 97.6546 24.3174ZM109.354 0.663574H102.023C99.7618 0.663574 98.0442 1.3255 97.069 3.70285L82.991 37.2939H92.9354C92.9354 37.2939 94.5729 32.7728 94.925 31.7991C96.016 31.7991 105.69 31.7991 107.094 31.7991C107.366 33.0851 108.224 37.2939 108.224 37.2939H117L109.354 0.663574Z" fill="#00579F"/>
<path d="M33.3059 0.663574L24.024 25.6423L23.0096 20.5764C21.2937 14.7308 15.9118 8.37987 9.90593 5.22197L18.4079 37.2556H28.4304L43.3279 0.663574H33.3059Z" fill="#00579F"/>
<path d="M15.4049 0.663574H0.156002L0 1.40371C11.8951 4.4435 19.7729 11.7708 23.0096 20.5779L19.6947 3.74273C19.149 1.40319 17.4718 0.740743 15.4049 0.663574Z" fill="#FAA61A"/>
</svg>
