<svg width="24" height="24" viewBox="0 0 24 24" fill="none" xmlns="http://www.w3.org/2000/svg">
<path d="M23.3628 22.2975H22.65V18.1175H23.3628C23.5569 18.1175 23.7143 17.9601 23.7143 17.7659C23.7143 17.5718 23.5569 17.4143 23.3628 17.4143H16.328V16.4811C16.328 15.8443 15.8098 15.3261 15.173 15.3261H14.5428V14.6009C14.5428 13.9025 13.9844 13.3324 13.2907 13.3127V7.64062C13.2907 7.44647 13.1333 7.28906 12.9392 7.28906C12.745 7.28906 12.5876 7.44647 12.5876 7.64062V13.3118H11.4126V5.18545H12.5876V6C12.5876 6.19416 12.745 6.35156 12.9392 6.35156C13.1333 6.35156 13.2907 6.19416 13.2907 6V5.06827C13.2907 4.74516 13.0279 4.48233 12.7048 4.48233H12.3516V3.28997C12.9874 3.15267 13.4889 2.65116 13.6262 2.01544H17.9349V2.65664L14.4974 9.18816C14.3424 9.2048 14.2021 9.29409 14.1231 9.43073C14.0355 9.58252 14.0355 9.77109 14.1231 9.92292L14.9675 11.3853C15.0551 11.5372 15.2185 11.6315 15.3938 11.6315H18.7032C18.8974 11.6315 19.0548 11.4741 19.0548 11.2799C19.0548 11.0857 18.8974 10.9283 18.7032 10.9283H15.5156L14.9148 9.88772H21.6583L21.0575 10.9283H20.3438C20.1497 10.9283 19.9923 11.0857 19.9923 11.2799C19.9923 11.4741 20.1497 11.6315 20.3438 11.6315H21.1792C21.3545 11.6315 21.5178 11.5372 21.6055 11.3854L22.4499 9.92283C22.5375 9.77105 22.5375 9.58242 22.4498 9.43064C22.3709 9.294 22.2306 9.20466 22.0756 9.18806L18.6381 2.65664V2.01539H19.9541C20.1482 2.01539 20.3056 1.85798 20.3056 1.66383C20.3056 1.46967 20.1482 1.31227 19.9541 1.31227H13.6262C13.4644 0.563156 12.7969 0 12.0001 0C11.2032 0 10.5358 0.563156 10.374 1.31227H4.04609C3.85194 1.31227 3.69453 1.46967 3.69453 1.66383C3.69453 1.85798 3.85194 2.01539 4.04609 2.01539H5.36206V2.65659L1.92458 9.18816C1.76956 9.2048 1.62927 9.29409 1.55033 9.43073C1.46267 9.58252 1.46267 9.77109 1.55028 9.92292V9.92297L2.39469 11.3855C2.48234 11.5373 2.64566 11.6316 2.82092 11.6316H8.60637C8.78164 11.6316 8.94495 11.5373 9.03261 11.3855L9.87697 9.92297C9.96462 9.77119 9.96462 9.58256 9.87697 9.43078C9.79813 9.29414 9.65778 9.2048 9.50272 9.18816L6.06519 2.65664V2.01539H10.3739C10.5113 2.65111 11.0127 3.15262 11.6485 3.28992V4.48228H11.2954C10.9722 4.48228 10.7094 4.74511 10.7094 5.06822V13.3127C10.0157 13.3324 9.45734 13.9024 9.45734 14.6008V15.3261H8.8272C8.19036 15.3261 7.6722 15.8442 7.6722 16.4811V17.4143H3.07897C1.53884 17.4143 0.285828 18.6673 0.285828 20.2074C0.285828 21.7476 1.5388 23.0005 3.07897 23.0005H5.05039V23.5075C5.05039 23.6911 5.15145 23.8582 5.31411 23.9435C5.47677 24.0287 5.67162 24.0168 5.82266 23.9122L6.68206 23.3175L7.54142 23.9122C7.62552 23.9704 7.7232 23.9999 7.82136 23.9999C7.8995 23.9999 7.97787 23.9812 8.04997 23.9434C8.21263 23.8582 8.31369 23.6911 8.31369 23.5074V23.0005H23.3628C23.5569 23.0005 23.7143 22.8431 23.7143 22.6489C23.7143 22.4548 23.5569 22.2975 23.3628 22.2975ZM17.935 9.18464H15.2938L17.935 4.1663V9.18464ZM18.6381 4.1663L21.2792 9.18464H18.6381V4.1663ZM5.36206 4.1663V9.18464H2.72094L5.36206 4.1663ZM8.48455 10.9284H2.9427L2.34191 9.88777H9.08539L8.48455 10.9284ZM8.70636 9.18464H6.06523V4.1663L8.70636 9.18464ZM11.0394 1.66383C11.0394 1.13409 11.4703 0.703125 12.0001 0.703125C12.5298 0.703125 12.9608 1.13409 12.9608 1.66383C12.9608 2.19356 12.5298 2.62453 12.0001 2.62453C11.4703 2.62453 11.0394 2.19356 11.0394 1.66383ZM10.1605 14.6008C10.1605 14.2777 10.4233 14.0149 10.7464 14.0149H13.2537C13.5768 14.0149 13.8396 14.2777 13.8396 14.6008V15.3261H10.1605V14.6008ZM3.07897 22.2975C1.92655 22.2975 0.988953 21.3599 0.988953 20.2074C0.988953 19.055 1.9265 18.1175 3.07897 18.1175H3.56834C3.39336 18.3743 3.29089 18.6844 3.29089 19.018V21.3969C3.29089 21.7305 3.39336 22.0406 3.56839 22.2975H3.07897ZM7.61052 23.1051L6.88208 22.601C6.7617 22.5177 6.60228 22.5176 6.48195 22.601L5.75347 23.1051V19.6825H7.61052V23.1051ZM21.9469 18.9795H14.3478C14.1536 18.9795 13.9962 19.1369 13.9962 19.331C13.9962 19.5252 14.1536 19.6826 14.3478 19.6826H21.947V20.7324H14.3478C14.1536 20.7324 13.9962 20.8898 13.9962 21.084C13.9962 21.2781 14.1536 21.4355 14.3478 21.4355H21.947V22.2975H8.31364V19.6826H11.2801C11.4743 19.6826 11.6317 19.5252 11.6317 19.331C11.6317 19.1369 11.4743 18.9795 11.2801 18.9795H4.89448C4.70033 18.9795 4.54292 19.1369 4.54292 19.331C4.54292 19.5252 4.70033 19.6826 4.89448 19.6826H5.05039V22.2975H4.89448C4.39794 22.2975 3.99397 21.8935 3.99397 21.397V19.018C3.99397 18.5215 4.39794 18.1175 4.89448 18.1175H10.547C10.7411 18.1175 10.8985 17.9601 10.8985 17.766C10.8985 17.5718 10.7411 17.4144 10.547 17.4144H8.37533V16.4812C8.37533 16.232 8.57802 16.0293 8.8272 16.0293H15.173C15.4221 16.0293 15.6248 16.232 15.6248 16.4812V17.4144H12.1876C11.9934 17.4144 11.836 17.5718 11.836 17.766C11.836 17.9601 11.9934 18.1175 12.1876 18.1175H21.9469V18.9795Z" fill="white"/>
</svg>
