<svg width="16" height="16" viewBox="0 0 16 16" fill="none" xmlns="http://www.w3.org/2000/svg">
<path d="M11.5863 4.18396L11.3531 1.80928C11.2806 1.05131 10.641 0.474396 9.87972 0.480021H5.82515C5.0639 0.474396 4.4244 1.05131 4.35186 1.80928L4.11866 4.18759C2.03073 6.24271 2.00413 9.60142 4.05936 11.6895C4.07893 11.7094 4.09874 11.7292 4.11866 11.7488L4.35186 14.1372C4.423 14.8979 5.06132 15.4794 5.82515 15.48H9.87972C10.6438 15.4793 11.2819 14.8975 11.3531 14.1368L11.5863 11.7515C13.6759 9.69212 13.7006 6.32861 11.6412 4.23904C11.623 4.22052 11.6047 4.20213 11.5863 4.18396ZM5.09835 1.8824C5.13433 1.50916 5.45038 1.22568 5.82515 1.23002H9.87972C10.2546 1.22568 10.5705 1.50916 10.6066 1.8824L10.7679 3.52478C8.99917 2.35842 6.70558 2.35889 4.93722 3.52572L5.09835 1.8824ZM10.6066 14.0637C10.5718 14.4397 10.2574 14.728 9.87972 14.73H5.82515C5.44757 14.728 5.13304 14.4397 5.09835 14.0637L4.9371 12.4139C6.70698 13.575 8.99718 13.5752 10.7678 12.4149L10.6066 14.0637ZM7.85238 12.5332C5.33003 12.5332 3.2851 10.4883 3.2851 7.96595C3.2851 5.44349 5.33003 3.39857 7.85238 3.39857C10.3748 3.39857 12.4198 5.44349 12.4198 7.96595C12.4168 10.4871 10.3737 12.5303 7.85238 12.5332Z" fill="#102752"/>
<path d="M9.24391 7.60484H8.22754V6.14832C8.22754 5.94125 8.05973 5.77344 7.85254 5.77344C7.64559 5.77344 7.47754 5.94125 7.47754 6.14832V7.96578C7.47754 8.17273 7.64559 8.35484 7.85254 8.35484H9.24391C9.45098 8.35484 9.61891 8.18703 9.61891 7.97984C9.61891 7.77277 9.45098 7.60484 9.24391 7.60484Z" fill="#102752"/>
<path d="M7.85195 4.23975C5.79414 4.23975 4.12598 5.90791 4.12598 7.96584C4.12598 10.0237 5.79414 11.6918 7.85195 11.6918C9.90988 11.6918 11.578 10.0237 11.578 7.96584C11.5757 5.90897 9.90895 4.24209 7.85195 4.23975ZM7.85195 10.9418C6.2084 10.9418 4.87598 9.6094 4.87598 7.96573C4.87598 6.32217 6.2084 4.98975 7.85195 4.98975C9.49563 4.98975 10.828 6.32217 10.828 7.96573C10.8262 9.60858 9.49492 10.94 7.85195 10.9418Z" fill="#102752"/>
</svg>
