<svg width="16" height="16" viewBox="0 0 16 16" fill="none" xmlns="http://www.w3.org/2000/svg">
<path d="M13.7 2.72607H2.27143C1.28538 2.72641 0.486164 3.52574 0.485718 4.51179V11.1795C0.486164 12.1656 1.28538 12.965 2.27143 12.9652H13.7C14.6861 12.965 15.4853 12.1656 15.4857 11.1795V4.51179C15.4853 3.52574 14.6861 2.72641 13.7 2.72607ZM2.27143 3.44036H13.7C14.2144 3.4417 14.6558 3.80677 14.7536 4.31168L7.98572 8.08322L1.21786 4.31168C1.31563 3.80677 1.75703 3.4417 2.27143 3.44036ZM13.7 12.2475H2.27143C1.68047 12.2457 1.20168 11.767 1.2 11.1761V5.11893L7.81072 8.80453C7.86429 8.834 7.92445 8.85007 7.98572 8.85107C8.04721 8.85174 8.10759 8.83567 8.16072 8.80453L14.7714 5.11893V11.1761C14.771 11.7676 14.2915 12.2469 13.7 12.2475Z" fill="white"/>
</svg>
