<svg width="94" height="94" viewBox="0 0 94 94" fill="none" xmlns="http://www.w3.org/2000/svg">
<g filter="url(#filter0_d_703_6302)">
<path d="M19 62L22.862 48C20.3518 43.6552 19 38.8276 19 33.8068C19 18.5518 31.5518 6 46.9034 6C62.2551 6 75 18.5518 75 33.8068C75 49.0619 62.2552 62 46.9034 62C42.0758 62 37.4414 60.4552 33.2896 58.138L19 62Z" fill="white"/>
<path d="M34.0621 53.1173L34.9311 53.6C38.5035 55.8207 42.6552 57.1725 47 57.1725C59.6483 57.1725 70.1725 46.6483 70.1725 33.8069C70.1725 20.9655 59.6483 10.8276 46.9035 10.8276C34.1587 10.8276 23.8276 21.0621 23.8276 33.8069C23.8276 38.2483 25.0828 42.5931 27.4 46.2621L27.9794 47.1311L25.7588 55.2414L34.0621 53.1173Z" fill="#1BD741"/>
<path d="M39.469 20.869L37.6345 20.7725C37.0552 20.7725 36.4759 20.9656 36.0897 21.3518C35.2207 22.1242 33.7725 23.5725 33.3863 25.5036C32.7105 28.4002 33.7725 31.876 36.2829 35.3518C38.7933 38.8277 43.6209 44.4277 52.1173 46.8414C54.8207 47.6139 56.9449 47.1311 58.6829 46.069C60.0347 45.2001 60.9035 43.8484 61.1933 42.4001L61.4829 41.0483C61.5795 40.6621 61.3863 40.1793 61.0001 39.9863L54.9173 37.1863C54.5311 36.9931 54.0483 37.0897 53.7587 37.4759L51.3449 40.5655C51.1518 40.7587 50.8621 40.8551 50.5725 40.7587C48.9311 40.1793 43.4277 37.8621 40.4345 32.069C40.338 31.7794 40.338 31.4897 40.5311 31.2966L42.8483 28.6898C43.0415 28.4002 43.138 28.014 43.0415 27.7242L40.2415 21.4484C40.1448 21.1587 39.8552 20.869 39.469 20.869Z" fill="#FEFEFE"/>
</g>
<defs>
<filter id="filter0_d_703_6302" x="0" y="0" width="94" height="94" filterUnits="userSpaceOnUse" color-interpolation-filters="sRGB">
<feFlood flood-opacity="0" result="BackgroundImageFix"/>
<feColorMatrix in="SourceAlpha" type="matrix" values="0 0 0 0 0 0 0 0 0 0 0 0 0 0 0 0 0 0 127 0" result="hardAlpha"/>
<feOffset dy="13"/>
<feGaussianBlur stdDeviation="9.5"/>
<feColorMatrix type="matrix" values="0 0 0 0 0 0 0 0 0 0 0 0 0 0 0 0 0 0 0.07 0"/>
<feBlend mode="normal" in2="BackgroundImageFix" result="effect1_dropShadow_703_6302"/>
<feBlend mode="normal" in="SourceGraphic" in2="effect1_dropShadow_703_6302" result="shape"/>
</filter>
</defs>
</svg>
