<svg width="32" height="32" viewBox="0 0 32 32" fill="none" xmlns="http://www.w3.org/2000/svg">
<path d="M8.04331 12.8538H14.9506L15.6562 13.5407C15.7519 13.6348 15.8807 13.6876 16.0149 13.6876C16.149 13.6876 16.2778 13.6348 16.3735 13.5407L17.0797 12.8537H23.8985C24.2358 12.8532 24.5593 12.719 24.7978 12.4805C25.0364 12.242 25.1706 11.9186 25.1711 11.5813V1.89763C25.1707 1.56016 25.0364 1.23665 24.7978 0.998064C24.5591 0.759481 24.2355 0.625314 23.8981 0.625H17.1066C16.8777 0.624908 16.6515 0.674722 16.4438 0.770972C16.2361 0.867222 16.0519 1.00759 15.9039 1.18231C15.756 1.00759 15.5718 0.867222 15.3641 0.770972C15.1564 0.674722 14.9302 0.624908 14.7012 0.625H8.04331C7.70585 0.625331 7.3823 0.759503 7.14364 0.998082C6.90498 1.23666 6.7707 1.56017 6.77025 1.89763V11.5813C6.77071 11.9187 6.905 12.2422 7.14366 12.4808C7.38232 12.7193 7.70586 12.8535 8.04331 12.8538ZM16.2796 2.2C16.2801 1.98101 16.3675 1.77116 16.5225 1.6165C16.6776 1.46183 16.8876 1.37498 17.1066 1.375H23.8981C24.0367 1.3751 24.1696 1.43018 24.2677 1.52816C24.3657 1.62613 24.4209 1.75901 24.4211 1.89763V11.5813C24.4209 11.7199 24.3657 11.8527 24.2677 11.9507C24.1696 12.0487 24.0367 12.1038 23.8981 12.1039H16.9837C16.8498 12.1036 16.721 12.1559 16.6252 12.2495L16.3815 12.487L16.2782 2.2H16.2796ZM7.52025 1.89763C7.52046 1.75901 7.57565 1.62613 7.67371 1.52816C7.77177 1.43018 7.90469 1.3751 8.04331 1.375H14.7012C14.81 1.3751 14.9176 1.39661 15.018 1.43832C15.1184 1.48002 15.2096 1.5411 15.2864 1.61806C15.3632 1.69502 15.4241 1.78636 15.4656 1.88685C15.5071 1.98734 15.5284 2.09503 15.5282 2.20375L15.6312 12.4695L15.4052 12.2496C15.3094 12.1558 15.1806 12.1035 15.0466 12.1038H8.04331C7.90469 12.1037 7.77177 12.0486 7.67371 11.9507C7.57565 11.8527 7.52046 11.7198 7.52025 11.5812V1.89763Z" fill="#639CFF"/>
<path d="M11.2409 3.33301H14.0445C14.144 3.33301 14.2393 3.2935 14.3097 3.22317C14.38 3.15285 14.4195 3.05746 14.4195 2.95801C14.4195 2.85855 14.38 2.76317 14.3097 2.69284C14.2393 2.62252 14.144 2.58301 14.0445 2.58301H11.2409C11.1414 2.58301 11.046 2.62252 10.9757 2.69284C10.9054 2.76317 10.8659 2.85855 10.8659 2.95801C10.8659 3.05746 10.9054 3.15285 10.9757 3.22317C11.046 3.2935 11.1414 3.33301 11.2409 3.33301Z" fill="#639CFF"/>
<path d="M8.8125 3.33301H9.89494C9.99439 3.33301 10.0898 3.2935 10.1601 3.22317C10.2304 3.15285 10.2699 3.05746 10.2699 2.95801C10.2699 2.85855 10.2304 2.76317 10.1601 2.69284C10.0898 2.62252 9.99439 2.58301 9.89494 2.58301H8.8125C8.71304 2.58301 8.61766 2.62252 8.54733 2.69284C8.47701 2.76317 8.4375 2.85855 8.4375 2.95801C8.4375 3.05746 8.47701 3.15285 8.54733 3.22317C8.61766 3.2935 8.71304 3.33301 8.8125 3.33301Z" fill="#639CFF"/>
<path d="M14.0445 5.02148H13.3972C13.2978 5.02148 13.2024 5.06099 13.1321 5.13132C13.0618 5.20165 13.0222 5.29703 13.0222 5.39648C13.0222 5.49594 13.0618 5.59132 13.1321 5.66165C13.2024 5.73198 13.2978 5.77148 13.3972 5.77148H14.0445C14.144 5.77148 14.2393 5.73198 14.3097 5.66165C14.38 5.59132 14.4195 5.49594 14.4195 5.39648C14.4195 5.29703 14.38 5.20165 14.3097 5.13132C14.2393 5.06099 14.144 5.02148 14.0445 5.02148Z" fill="#639CFF"/>
<path d="M8.8125 5.77148H12.0536C12.1531 5.77148 12.2485 5.73198 12.3188 5.66165C12.3891 5.59132 12.4286 5.49594 12.4286 5.39648C12.4286 5.29703 12.3891 5.20165 12.3188 5.13132C12.2485 5.06099 12.1531 5.02148 12.0536 5.02148H8.8125C8.71304 5.02148 8.61766 5.06099 8.54733 5.13132C8.47701 5.20165 8.4375 5.29703 8.4375 5.39648C8.4375 5.49594 8.47701 5.59132 8.54733 5.66165C8.61766 5.73198 8.71304 5.77148 8.8125 5.77148Z" fill="#639CFF"/>
<path d="M14.0445 7.45996H10.161C10.0615 7.45996 9.96616 7.49947 9.89583 7.5698C9.8255 7.64012 9.786 7.7355 9.786 7.83496C9.786 7.93441 9.8255 8.02979 9.89583 8.10012C9.96616 8.17045 10.0615 8.20995 10.161 8.20995H14.0445C14.144 8.20995 14.2393 8.17045 14.3097 8.10012C14.38 8.02979 14.4195 7.93441 14.4195 7.83496C14.4195 7.7355 14.38 7.64012 14.3097 7.5698C14.2393 7.49947 14.144 7.45996 14.0445 7.45996Z" fill="#639CFF"/>
<path d="M8.80433 8.20995H8.81252C8.91197 8.20995 9.00736 8.17045 9.07768 8.10012C9.14801 8.02979 9.18752 7.93441 9.18752 7.83496C9.18752 7.7355 9.14801 7.64012 9.07768 7.5698C9.00736 7.49947 8.91197 7.45996 8.81252 7.45996H8.80458C8.70512 7.45996 8.60974 7.49947 8.53942 7.5698C8.46909 7.64012 8.42958 7.7355 8.42958 7.83496C8.42958 7.93441 8.46909 8.02979 8.53942 8.10012C8.60974 8.17045 8.70512 8.20995 8.80458 8.20995H8.80433Z" fill="#639CFF"/>
<path d="M14.0445 9.89868H13.6739C13.5745 9.89868 13.4791 9.93819 13.4088 10.0085C13.3384 10.0788 13.2989 10.1742 13.2989 10.2737C13.2989 10.3731 13.3384 10.4685 13.4088 10.5388C13.4791 10.6092 13.5745 10.6487 13.6739 10.6487H14.0445C14.144 10.6487 14.2393 10.6092 14.3097 10.5388C14.38 10.4685 14.4195 10.3731 14.4195 10.2737C14.4195 10.1742 14.38 10.0788 14.3097 10.0085C14.2393 9.93819 14.144 9.89868 14.0445 9.89868Z" fill="#639CFF"/>
<path d="M12.3106 9.89868H8.8125C8.71304 9.89868 8.61766 9.93819 8.54733 10.0085C8.47701 10.0788 8.4375 10.1742 8.4375 10.2737C8.4375 10.3731 8.47701 10.4685 8.54733 10.5388C8.61766 10.6092 8.71304 10.6487 8.8125 10.6487H12.3106C12.4101 10.6487 12.5055 10.6092 12.5758 10.5388C12.6461 10.4685 12.6856 10.3731 12.6856 10.2737C12.6856 10.1742 12.6461 10.0788 12.5758 10.0085C12.5055 9.93819 12.4101 9.89868 12.3106 9.89868Z" fill="#639CFF"/>
<path d="M22.4505 3.33301H23.0255C23.125 3.33301 23.2203 3.2935 23.2907 3.22317C23.361 3.15285 23.4005 3.05746 23.4005 2.95801C23.4005 2.85855 23.361 2.76317 23.2907 2.69284C23.2203 2.62252 23.125 2.58301 23.0255 2.58301H22.4505C22.351 2.58301 22.2557 2.62252 22.1853 2.69284C22.115 2.76317 22.0755 2.85855 22.0755 2.95801C22.0755 3.05746 22.115 3.15285 22.1853 3.22317C22.2557 3.2935 22.351 3.33301 22.4505 3.33301Z" fill="#639CFF"/>
<path d="M17.7931 3.33301H21.0625C21.162 3.33301 21.2573 3.2935 21.3277 3.22317C21.398 3.15285 21.4375 3.05746 21.4375 2.95801C21.4375 2.85855 21.398 2.76317 21.3277 2.69284C21.2573 2.62252 21.162 2.58301 21.0625 2.58301H17.7931C17.6937 2.58301 17.5983 2.62252 17.528 2.69284C17.4576 2.76317 17.4181 2.85855 17.4181 2.95801C17.4181 3.05746 17.4576 3.15285 17.528 3.22317C17.5983 3.2935 17.6937 3.33301 17.7931 3.33301Z" fill="#639CFF"/>
<path d="M23.0254 5.02148H19.9629C19.8635 5.02148 19.7681 5.06099 19.6978 5.13132C19.6274 5.20165 19.5879 5.29703 19.5879 5.39648C19.5879 5.49594 19.6274 5.59132 19.6978 5.66165C19.7681 5.73198 19.8635 5.77148 19.9629 5.77148H23.0254C23.1249 5.77148 23.2203 5.73198 23.2906 5.66165C23.3609 5.59132 23.4004 5.49594 23.4004 5.39648C23.4004 5.29703 23.3609 5.20165 23.2906 5.13132C23.2203 5.06099 23.1249 5.02148 23.0254 5.02148Z" fill="#639CFF"/>
<path d="M17.7931 5.77148H18.5975C18.697 5.77148 18.7923 5.73198 18.8627 5.66165C18.933 5.59132 18.9725 5.49594 18.9725 5.39648C18.9725 5.29703 18.933 5.20165 18.8627 5.13132C18.7923 5.06099 18.697 5.02148 18.5975 5.02148H17.7931C17.6937 5.02148 17.5983 5.06099 17.528 5.13132C17.4576 5.20165 17.4181 5.29703 17.4181 5.39648C17.4181 5.49594 17.4576 5.59132 17.528 5.66165C17.5983 5.73198 17.6937 5.77148 17.7931 5.77148Z" fill="#639CFF"/>
<path d="M23.0254 7.45996H22.0225C21.923 7.45996 21.8277 7.49947 21.7573 7.5698C21.687 7.64012 21.6475 7.7355 21.6475 7.83496C21.6475 7.93441 21.687 8.02979 21.7573 8.10012C21.8277 8.17045 21.923 8.20995 22.0225 8.20995H23.0254C23.1249 8.20995 23.2203 8.17045 23.2906 8.10012C23.3609 8.02979 23.4004 7.93441 23.4004 7.83496C23.4004 7.7355 23.3609 7.64012 23.2906 7.5698C23.2203 7.49947 23.1249 7.45996 23.0254 7.45996Z" fill="#639CFF"/>
<path d="M17.7931 8.20995H20.6796C20.779 8.20995 20.8744 8.17045 20.9447 8.10012C21.015 8.02979 21.0546 7.93441 21.0546 7.83496C21.0546 7.7355 21.015 7.64012 20.9447 7.5698C20.8744 7.49947 20.779 7.45996 20.6796 7.45996H17.7931C17.6937 7.45996 17.5983 7.49947 17.528 7.5698C17.4576 7.64012 17.4181 7.7355 17.4181 7.83496C17.4181 7.93441 17.4576 8.02979 17.528 8.10012C17.5983 8.17045 17.6937 8.20995 17.7931 8.20995Z" fill="#639CFF"/>
<path d="M23.0254 9.89868H19.6792C19.5797 9.89868 19.4843 9.93819 19.414 10.0085C19.3437 10.0788 19.3042 10.1742 19.3042 10.2737C19.3042 10.3731 19.3437 10.4685 19.414 10.5388C19.4843 10.6092 19.5797 10.6487 19.6792 10.6487H23.0254C23.1249 10.6487 23.2203 10.6092 23.2906 10.5388C23.3609 10.4685 23.4004 10.3731 23.4004 10.2737C23.4004 10.1742 23.3609 10.0788 23.2906 10.0085C23.2203 9.93819 23.1249 9.89868 23.0254 9.89868Z" fill="#639CFF"/>
<path d="M17.7931 10.6487H18.3398C18.4393 10.6487 18.5346 10.6092 18.605 10.5388C18.6753 10.4685 18.7148 10.3731 18.7148 10.2737C18.7148 10.1742 18.6753 10.0788 18.605 10.0085C18.5346 9.93819 18.4393 9.89868 18.3398 9.89868H17.7931C17.6937 9.89868 17.5983 9.93819 17.528 10.0085C17.4576 10.0788 17.4181 10.1742 17.4181 10.2737C17.4181 10.3731 17.4576 10.4685 17.528 10.5388C17.5983 10.6092 17.6937 10.6487 17.7931 10.6487Z" fill="#639CFF"/>
<path d="M15.9979 13.959C15.1161 13.96 14.2707 14.3107 13.6472 14.9342C13.0237 15.5577 12.673 16.403 12.672 17.2848V18.7901C12.673 19.6719 13.0237 20.5172 13.6472 21.1407C14.2707 21.7642 15.1161 22.115 15.9979 22.116H16.0139C16.8957 22.115 17.7411 21.7642 18.3646 21.1407C18.9881 20.5172 19.3388 19.6719 19.3398 18.7901V17.2848C19.3388 16.403 18.988 15.5577 18.3645 14.9342C17.741 14.3107 16.8957 13.96 16.0139 13.959H15.9979ZM18.5898 17.2848V18.7901C18.589 19.473 18.3174 20.1278 17.8345 20.6107C17.3516 21.0936 16.6969 21.3652 16.0139 21.366H15.9979C15.3149 21.3652 14.6602 21.0936 14.1773 20.6107C13.6944 20.1278 13.4228 19.473 13.422 18.7901V17.2848C13.4228 16.6019 13.6944 15.9471 14.1773 15.4643C14.6602 14.9814 15.315 14.7097 15.9979 14.709H16.0139C16.6969 14.7097 17.3516 14.9814 17.8345 15.4643C18.3174 15.9471 18.589 16.6019 18.5898 17.2848Z" fill="#639CFF"/>
<path d="M24.6536 15.8523C23.8693 15.8532 23.1175 16.1651 22.563 16.7196C22.0085 17.2742 21.6966 18.026 21.6957 18.8102V20.1279C21.6966 20.9121 22.0085 21.6639 22.563 22.2184C23.1175 22.7729 23.8694 23.0849 24.6536 23.0857H24.6676C25.4518 23.0849 26.2037 22.7729 26.7582 22.2184C27.3127 21.6639 27.6246 20.9121 27.6255 20.1279V18.8102C27.6246 18.026 27.3127 17.2742 26.7582 16.7197C26.2037 16.1651 25.4518 15.8532 24.6676 15.8523H24.6536ZM26.8755 18.8102V20.1279C26.8748 20.7132 26.642 21.2744 26.2281 21.6883C25.8142 22.1023 25.253 22.3351 24.6676 22.3357H24.6536C24.0682 22.3351 23.507 22.1023 23.0931 21.6883C22.6792 21.2744 22.4463 20.7132 22.4457 20.1279V18.8102C22.4463 18.2249 22.6792 17.6637 23.0931 17.2497C23.507 16.8358 24.0682 16.603 24.6536 16.6023H24.6676C25.253 16.603 25.8142 16.8358 26.2281 17.2497C26.642 17.6637 26.8748 18.2249 26.8755 18.8102Z" fill="#639CFF"/>
<path d="M26.7562 23.3138C26.5599 23.3018 26.4587 23.4246 26.3614 23.5434C26.1558 23.7951 25.8955 23.9965 25.6002 24.1322C25.305 24.2678 24.9826 24.3342 24.6577 24.3263C24.3329 24.3183 24.0142 24.2362 23.7259 24.0862C23.4376 23.9362 23.1875 23.7224 22.9945 23.4609C22.9587 23.4123 22.9118 23.3731 22.8576 23.3466C22.8034 23.3201 22.7437 23.3071 22.6834 23.3086C22.0915 23.3218 21.5145 23.4963 21.0146 23.8134C20.6925 23.4245 20.2941 23.1057 19.8439 22.8769C19.3937 22.6481 18.9014 22.5141 18.3973 22.4832C18.1996 22.4711 18.1026 22.5891 17.9904 22.726C17.7505 23.0199 17.4465 23.255 17.1018 23.4134C16.7571 23.5718 16.3807 23.6494 16.0014 23.6401C15.6221 23.6308 15.25 23.5349 14.9135 23.3598C14.5769 23.1847 14.2848 22.935 14.0596 22.6297C14.024 22.581 13.977 22.5416 13.9228 22.5151C13.8686 22.4886 13.8088 22.4757 13.7484 22.4775C12.7829 22.5 11.8649 22.901 11.1922 23.594C11.1218 23.6661 11.0556 23.7411 10.9918 23.8179C10.5241 23.5208 9.98863 23.3473 9.43556 23.3138C9.2385 23.3018 9.138 23.4246 9.04075 23.5434C8.83521 23.7951 8.57486 23.9965 8.27959 24.1322C7.98432 24.2678 7.66194 24.3342 7.33708 24.3263C7.01223 24.3183 6.69349 24.2362 6.40522 24.0862C6.11695 23.9362 5.86677 23.7224 5.67381 23.4609C5.6381 23.4123 5.59114 23.373 5.53696 23.3465C5.48278 23.32 5.42298 23.307 5.36268 23.3086C4.50452 23.331 3.68902 23.6877 3.09007 24.3026C2.49112 24.9176 2.15609 25.7422 2.15643 26.6007V29.5188C2.15643 29.6182 2.19594 29.7136 2.26627 29.7839C2.33659 29.8543 2.43198 29.8938 2.53143 29.8938H10.1378V31C10.1378 31.0995 10.1773 31.1948 10.2476 31.2652C10.318 31.3355 10.4134 31.375 10.5128 31.375H21.4989C21.5984 31.375 21.6938 31.3355 21.7641 31.2652C21.8344 31.1948 21.8739 31.0995 21.8739 31V29.8938H29.4687C29.5682 29.8938 29.6636 29.8543 29.7339 29.7839C29.8042 29.7136 29.8437 29.6182 29.8437 29.5188V26.6007C29.8434 25.763 29.5239 24.9569 28.9504 24.3463C28.3769 23.7357 27.5923 23.3665 26.7562 23.3138ZM2.90625 29.1438V26.6007C2.90975 25.9704 3.1457 25.3636 3.56889 24.8965C3.99208 24.4294 4.57275 24.1349 5.19962 24.0695C5.46947 24.3845 5.80415 24.6377 6.1808 24.8115C6.55746 24.9854 6.96721 25.0759 7.38205 25.0768C7.79689 25.0778 8.20705 24.9892 8.58451 24.8171C8.96197 24.645 9.29782 24.3934 9.56912 24.0796C9.92544 24.127 10.2675 24.25 10.5724 24.4405C10.2861 24.9773 10.1368 25.5765 10.1378 26.185V29.1438H2.90625ZM21.1239 30.625H10.8878V26.1851C10.8875 25.4457 11.1641 24.733 11.6632 24.1874C12.1622 23.6418 12.8475 23.3029 13.584 23.2375C13.8873 23.5979 14.2655 23.8877 14.6923 24.0869C15.1191 24.2861 15.5842 24.3899 16.0552 24.3909C16.5262 24.3919 16.9918 24.2902 17.4195 24.0929C17.8471 23.8956 18.2266 23.6074 18.5315 23.2483C19.2472 23.3381 19.9055 23.686 20.3828 24.2267C20.8601 24.7675 21.1237 25.4639 21.1239 26.1851V30.625ZM29.0937 29.1438H21.8739V26.1851C21.8743 25.5749 21.7234 24.9742 21.4347 24.4366C21.7634 24.2317 22.1351 24.106 22.5206 24.0693C22.7904 24.3845 23.1251 24.6376 23.5018 24.8115C23.8785 24.9854 24.2882 25.076 24.7031 25.077C25.118 25.0779 25.5281 24.9894 25.9056 24.8172C26.2831 24.6451 26.619 24.3936 26.8903 24.0797C27.5004 24.1623 28.0598 24.4633 28.465 24.9268C28.8701 25.3904 29.0935 25.9851 29.0937 26.6007V29.1438Z" fill="#639CFF"/>
<path d="M7.33237 23.0857H7.34643C8.13063 23.0849 8.88246 22.7729 9.43697 22.2184C9.99149 21.6639 10.3034 20.9121 10.3043 20.1279V18.8102C10.3034 18.026 9.99151 17.2742 9.437 16.7196C8.88248 16.1651 8.13064 15.8532 7.34643 15.8523H7.33237C6.54816 15.8532 5.79633 16.1651 5.24182 16.7197C4.68731 17.2742 4.37539 18.026 4.3745 18.8102V20.1279C4.37539 20.9121 4.68731 21.6639 5.24182 22.2184C5.79634 22.7729 6.54817 23.0849 7.33237 23.0857ZM5.1245 18.8102C5.12516 18.2249 5.35798 17.6637 5.77189 17.2497C6.1858 16.8358 6.747 16.603 7.33237 16.6023H7.34643C7.9318 16.603 8.49299 16.8358 8.90691 17.2497C9.32082 17.6637 9.55364 18.2249 9.5543 18.8102V20.1279C9.55364 20.7132 9.32081 21.2744 8.9069 21.6883C8.49299 22.1023 7.93179 22.3351 7.34643 22.3357H7.33237C6.74701 22.3351 6.18581 22.1023 5.7719 21.6883C5.35798 21.2744 5.12516 20.7132 5.1245 20.1279V18.8102Z" fill="#639CFF"/>
</svg>
