<svg width="32" height="32" viewBox="0 0 32 32" fill="none" xmlns="http://www.w3.org/2000/svg">
<g clip-path="url(#clip0_8_1384)">
<path d="M8.73864 14.2568H17.953C18.2119 14.2568 18.4217 14.047 18.4217 13.7881C18.4217 13.5291 18.2119 13.3193 17.953 13.3193H8.73864C8.47977 13.3193 8.2699 13.5291 8.2699 13.7881C8.2699 14.047 8.47977 14.2568 8.73864 14.2568Z" fill="#639CFF"/>
<path d="M8.73864 16.5857H17.953C18.2119 16.5857 18.4217 16.3759 18.4217 16.1169C18.4217 15.858 18.2119 15.6482 17.953 15.6482H8.73864C8.47977 15.6482 8.2699 15.858 8.2699 16.1169C8.2699 16.3759 8.47977 16.5857 8.73864 16.5857Z" fill="#639CFF"/>
<path d="M8.73864 18.9143H14.3176C14.5764 18.9143 14.7863 18.7045 14.7863 18.4455C14.7863 18.1866 14.5764 17.9768 14.3176 17.9768H8.73864C8.47977 17.9768 8.2699 18.1866 8.2699 18.4455C8.2699 18.7045 8.47977 18.9143 8.73864 18.9143Z" fill="#639CFF"/>
<path d="M17.6194 23.8139C17.5011 23.789 17.378 23.7006 17.3131 23.5943C17.2866 23.5509 17.2586 23.4864 17.2754 23.4255C17.34 23.1902 17.2133 22.9447 16.9841 22.861C16.7549 22.7775 16.4999 22.8835 16.3977 23.1052C16.32 23.2736 16.2269 23.4616 16.1028 23.5609C16.0319 23.6176 15.9503 23.6266 15.9315 23.6182C15.91 23.6048 15.8456 23.4592 15.9496 23.0356C15.9905 22.8689 15.937 22.6932 15.8102 22.5775C15.6884 22.4664 15.5178 22.4278 15.3607 22.4746C15.2082 22.5035 14.6294 22.5148 13.9937 22.5161C14.0712 22.1176 14.135 21.7167 14.1851 21.315C14.2171 21.0581 14.0348 20.824 13.7779 20.792C13.5207 20.76 13.2868 20.9423 13.2548 21.1992C13.2001 21.6384 13.1279 22.0767 13.0387 22.5117C12.6107 22.507 12.2485 22.4994 12.0868 22.4914C11.4974 22.4625 10.9223 22.4535 10.3703 22.6578C9.96383 22.8082 9.64047 23.1138 9.48316 23.4961C9.31866 23.8959 9.33766 24.3234 9.5381 24.7328C9.85109 25.372 10.5271 25.8063 11.0582 25.953C11.2374 26.0026 11.4205 26.0266 11.6014 26.0266C12.1055 26.0266 12.5929 25.8402 12.9311 25.4992C13.2719 25.1555 13.4281 24.7067 13.5477 24.3131C13.634 24.0293 13.7133 23.7428 13.7855 23.4543C14.199 23.455 14.6175 23.4513 14.9573 23.4378C14.9591 23.8173 15.0747 24.1897 15.4372 24.4147C15.8042 24.6426 16.3013 24.5965 16.6783 24.3012C16.8772 24.5166 17.1428 24.6716 17.4262 24.7313C17.9171 24.8348 18.4589 24.7094 19.0368 24.3589C19.2581 24.2246 19.3287 23.9363 19.1943 23.715C19.06 23.4936 18.7717 23.4231 18.5504 23.5574C18.1828 23.7803 17.8697 23.8665 17.6194 23.8139ZM12.6508 24.0404C12.5598 24.3395 12.4552 24.6476 12.2654 24.839C12.0442 25.062 11.6593 25.1465 11.308 25.0494C10.9316 24.9453 10.5326 24.6319 10.3801 24.3204C10.2988 24.1544 10.289 24.0014 10.3501 23.8528C10.4081 23.7119 10.5341 23.5967 10.6956 23.537C10.956 23.4406 11.2548 23.4136 11.5717 23.4136C11.7247 23.4136 11.8819 23.4199 12.041 23.4277C12.0505 23.4281 12.3717 23.4372 12.8199 23.4446C12.7671 23.6445 12.7107 23.8432 12.6508 24.0404Z" fill="#639CFF"/>
<path d="M28.413 4.3157C28.3066 4.14651 28.2061 3.98664 28.1614 3.84846C28.1127 3.69859 28.0986 3.50284 28.0837 3.29554C28.0564 2.91717 28.0255 2.48831 27.7648 2.13019C27.502 1.76901 27.102 1.60727 26.7491 1.46452C26.5581 1.38733 26.3778 1.3144 26.2533 1.22378C26.1318 1.1354 26.0086 0.988032 25.8783 0.831911C25.6326 0.537981 25.3542 0.20474 24.9237 0.0649934C24.509 -0.0695032 24.0951 0.0324943 23.7298 0.122804C23.5246 0.173491 23.3306 0.221364 23.1672 0.221364C23.0038 0.221364 22.8098 0.173428 22.6046 0.122804C22.2394 0.0325567 21.8256 -0.0696282 21.4108 0.0649934C20.9803 0.20474 20.7018 0.537919 20.4562 0.831911C20.3258 0.987907 20.2027 1.13528 20.0812 1.22371C19.9584 1.31315 19.7809 1.3854 19.5926 1.46158H4.43843C3.72783 1.46158 3.14978 2.03969 3.14978 2.75024V30.7113C3.14978 31.4219 3.72789 32 4.43843 32H24.1967C24.9073 32 25.4854 31.4219 25.4854 30.7113V15.8327C25.5125 15.8352 25.5396 15.8365 25.5668 15.8365C25.7421 15.8365 25.916 15.7841 26.0646 15.682C26.3035 15.518 26.4462 15.2469 26.4462 14.9571V9.60756C26.5386 9.56313 26.6419 9.52107 26.749 9.47782C27.1019 9.33507 27.502 9.17326 27.7649 8.81208C28.0255 8.45397 28.0564 8.02504 28.0837 7.64668C28.0986 7.43949 28.1127 7.24375 28.1614 7.09381C28.2062 6.95569 28.3066 6.79582 28.413 6.62664C28.6179 6.30052 28.8502 5.93091 28.8502 5.47117C28.8502 5.01143 28.6179 4.64182 28.413 4.3157ZM24.5479 30.7113C24.5479 30.905 24.3904 31.0625 24.1967 31.0625H4.43843C4.24481 31.0625 4.08726 30.905 4.08726 30.7113V2.75024C4.08726 2.55656 4.24481 2.39906 4.43843 2.39906H18.4186C18.2946 2.69168 18.2715 3.00817 18.2508 3.29566C18.238 3.47366 18.2256 3.64297 18.1916 3.78227H8.50271C8.32109 3.78227 8.15034 3.85302 8.02197 3.98152C7.8936 4.11002 7.82297 4.28076 7.82304 4.46207C7.82304 5.27005 7.16543 5.92734 6.35714 5.92734C6.33132 5.92734 6.30564 5.92666 6.28083 5.92547C6.09452 5.91547 5.9099 5.98403 5.77503 6.11215C5.6409 6.23952 5.56403 6.41871 5.56403 6.60377V21.6311C5.56403 21.89 5.7739 22.0998 6.03277 22.0998C6.29164 22.0998 6.50151 21.89 6.50151 21.6311V6.86057C7.67398 6.79082 8.62277 5.87697 8.74676 4.71975H17.6849C17.5709 4.94381 17.4843 5.19068 17.4843 5.47117C17.4843 5.93091 17.7165 6.30052 17.9215 6.62651C18.0278 6.79576 18.1283 6.95563 18.1731 7.09381C18.2048 7.19125 18.2217 7.30831 18.2338 7.43506H8.98913C8.59258 7.43506 8.26996 7.75767 8.26996 8.15423V10.813C8.26996 11.2096 8.59258 11.5322 8.98913 11.5322H19.8882V14.9572C19.8882 15.247 20.0309 15.5181 20.2699 15.6822C20.5088 15.8462 20.813 15.882 21.0837 15.7778L22.1336 15.3734V26.6011C20.9611 26.6708 20.0124 27.5847 19.8883 28.7419H8.7467C8.62283 27.5848 7.67392 26.6708 6.50145 26.6011V23.817C6.50145 23.5581 6.29158 23.3483 6.03271 23.3483C5.77384 23.3483 5.56397 23.5581 5.56397 23.817V26.8578C5.56397 27.0429 5.64084 27.2221 5.77496 27.3494C5.90996 27.4777 6.09414 27.5453 6.28001 27.5362C6.30558 27.5349 6.33126 27.5342 6.35707 27.5342C7.16537 27.5342 7.82297 28.1916 7.82297 28.9993C7.82291 29.1808 7.89354 29.3516 8.02191 29.4801C8.15034 29.6086 8.32102 29.6793 8.50264 29.6793H20.1324C20.314 29.6793 20.4848 29.6086 20.6131 29.4801C20.7415 29.3516 20.8122 29.1809 20.8121 28.9996C20.8121 28.1916 21.4696 27.5343 22.278 27.5343C22.3038 27.5343 22.3295 27.535 22.3543 27.5362C22.5413 27.5463 22.7252 27.4777 22.8602 27.3495C22.9943 27.2221 23.0711 27.0429 23.0711 26.8579V15.0122L23.1672 14.9752L24.5479 15.507V30.7113ZM18.5696 8.81208C18.8324 9.17326 19.2325 9.33501 19.5854 9.47775C19.6925 9.52107 19.7959 9.56313 19.8883 9.60756V10.5947H9.20738V8.37247H18.3576C18.4028 8.5249 18.469 8.67384 18.5696 8.81208ZM25.5087 14.8726L23.4834 14.0924C23.3815 14.0531 23.2743 14.0335 23.1672 14.0335C23.0601 14.0335 22.953 14.0531 22.851 14.0923L20.8257 14.8726V10.5161C20.9888 10.6686 21.1773 10.8015 21.4107 10.8773C21.555 10.9241 21.6991 10.9423 21.8412 10.9423C22.1075 10.9423 22.3664 10.8783 22.6046 10.8195C22.8099 10.7688 23.0038 10.7209 23.1672 10.7209C23.3306 10.7209 23.5245 10.7688 23.7298 10.8195C24.0949 10.9096 24.5088 11.0118 24.9237 10.8773C25.1572 10.8015 25.3457 10.6686 25.5087 10.5161V14.8726ZM27.6192 6.12784C27.4871 6.33802 27.3504 6.55545 27.2696 6.80426C27.1857 7.06269 27.1668 7.32531 27.1485 7.5793C27.1285 7.85686 27.1097 8.1191 27.0067 8.26041C26.9017 8.40478 26.6567 8.50384 26.3974 8.60865C26.1623 8.70371 25.9193 8.80202 25.7015 8.96045C25.4865 9.11695 25.3199 9.31632 25.1587 9.50913C24.9782 9.72512 24.8077 9.92912 24.634 9.98549C24.4739 10.0375 24.2214 9.9753 23.9544 9.90924C23.7154 9.85025 23.4446 9.78331 23.167 9.78331C22.8895 9.78331 22.6187 9.85018 22.3796 9.90924C22.1127 9.9753 21.8602 10.0376 21.7001 9.98549C21.5264 9.92912 21.3559 9.72512 21.1753 9.50913C21.0142 9.31626 20.8476 9.11689 20.6325 8.96039C20.4148 8.80196 20.1717 8.70365 19.9365 8.60859C19.6772 8.50372 19.4323 8.40466 19.3273 8.26041C19.2244 8.11904 19.2056 7.85686 19.1856 7.5793C19.1672 7.32531 19.1483 7.06263 19.0644 6.80426C18.9836 6.55545 18.847 6.33796 18.7148 6.12771C18.5639 5.8876 18.4214 5.66079 18.4214 5.47117C18.4214 5.28149 18.564 5.05462 18.7149 4.81444C18.8469 4.60419 18.9836 4.38682 19.0644 4.13802C19.1483 3.87965 19.1672 3.61697 19.1856 3.36303C19.2055 3.08542 19.2244 2.82317 19.3274 2.68186C19.4324 2.53749 19.6774 2.43843 19.9367 2.33362C20.1718 2.23856 20.4148 2.14025 20.6326 1.98182C20.8476 1.82532 21.0142 1.62595 21.1754 1.43315C21.3559 1.21715 21.5263 1.01316 21.7001 0.956783C21.7418 0.943221 21.7898 0.937409 21.8426 0.937409C21.9926 0.937409 22.1821 0.984158 22.3796 1.03297C22.6186 1.09197 22.8895 1.1589 23.167 1.1589C23.4446 1.1589 23.7154 1.09203 23.9545 1.03291C24.2216 0.966971 24.474 0.904785 24.634 0.956721C24.8077 1.01309 24.9782 1.21709 25.1587 1.43308C25.3198 1.62595 25.4865 1.82532 25.7015 1.98182C25.9193 2.14025 26.1624 2.23856 26.3975 2.33362C26.6568 2.4385 26.9017 2.53756 27.0067 2.6818C27.1096 2.82317 27.1285 3.08535 27.1485 3.36291C27.1668 3.6169 27.1857 3.87958 27.2696 4.13795C27.3504 4.38676 27.487 4.60419 27.6192 4.81444C27.7701 5.05462 27.9127 5.28142 27.9127 5.47111C27.9127 5.66079 27.7702 5.88766 27.6192 6.12784Z" fill="#639CFF"/>
<path d="M23.1672 1.88672C21.1907 1.88672 19.5827 3.49474 19.5827 5.47125C19.5827 7.44776 21.1907 9.05579 23.1672 9.05579C24.216 9.05579 25.209 8.59849 25.8916 7.80101C26.0599 7.60439 26.0369 7.30846 25.8403 7.14009C25.6437 6.97184 25.3477 6.99471 25.1794 7.1914C24.6752 7.78051 23.9418 8.11831 23.1673 8.11831C21.7077 8.11831 20.5202 6.93084 20.5202 5.47125C20.5202 4.01166 21.7077 2.82419 23.1673 2.82419C24.6269 2.82419 25.8144 4.01166 25.8144 5.47125C25.8144 5.73018 26.0242 5.93999 26.2831 5.93999C26.542 5.93999 26.7518 5.73018 26.7518 5.47125C26.7518 3.49474 25.1437 1.88672 23.1672 1.88672Z" fill="#639CFF"/>
</g>
<defs>
<clipPath id="clip0_8_1384">
<rect width="32" height="32" fill="white"/>
</clipPath>
</defs>
</svg>
