<svg width="32" height="32" viewBox="0 0 32 32" fill="none" xmlns="http://www.w3.org/2000/svg">
<g clip-path="url(#clip0_8_1372)">
<path d="M30.6518 14.3654C30.6003 11.8715 29.9106 9.42738 28.6535 7.28031C29.6764 2.38711 24.5025 -1.59189 20.0466 0.633155C15.8461 -0.619227 10.9624 0.0467319 7.11013 3.02908C6.62142 3.40383 7.21191 4.13189 7.68037 3.77283C8.86346 2.8657 10.1741 2.16244 11.576 1.68242C13.0375 1.18197 14.5681 0.935489 16.1264 0.948734C17.1006 0.957231 18.0688 1.06882 19.0124 1.28075C18.6443 1.56646 18.3099 1.8936 18.0163 2.2551C10.7269 1.00978 3.78802 6.64652 3.45545 13.9704C3.07114 13.9517 2.67509 13.9784 2.30353 14.0798C2.43292 10.9736 3.61708 7.96326 5.59902 5.74277C6.00251 5.2908 5.30331 4.66677 4.89989 5.11874C2.67284 7.61376 1.38547 11.0332 1.35504 14.5217C0.540325 15.0848 0.00550842 16.0252 0.00550842 17.0883V21.6163C0.00550842 23.6176 1.70955 24.7807 3.55579 24.7342C4.20906 26.6218 6.96299 26.2117 7.00985 24.1863V14.3574C7.03078 13.1058 5.66937 12.2162 4.53439 12.7335C5.48787 6.74986 11.2587 2.3107 17.4302 3.11836C16.1055 5.3799 16.5502 8.55656 18.4685 10.3795V11.6519C18.5311 12.0287 18.7481 12.1726 19.1195 12.0835L20.2601 11.6016C22.4116 12.6096 25.2147 12.0948 26.858 10.4836C27.1407 11.2143 27.3473 11.9678 27.4762 12.7381C26.3403 12.2126 24.9693 13.0994 24.9903 14.3574V24.1862C24.9768 25.519 26.4637 26.392 27.6168 25.7355C27.6145 26.1496 27.6069 26.5635 27.5906 26.9733C27.4791 28.3159 26.4439 29.4431 25.1237 29.6608C24.7043 29.702 24.2259 29.718 23.6408 29.7097C23.4311 28.9397 22.7258 28.3721 21.8903 28.3721H19.4021C16.9962 28.4714 16.9957 31.9005 19.4021 32H21.8902C22.7312 32 23.4403 31.4247 23.6448 30.647C24.1736 30.6541 24.7334 30.6726 25.2584 30.5884C27.0093 30.3082 28.408 28.8155 28.5501 27.0391C28.5506 27.0328 28.5498 27.0266 28.5501 27.0205C28.5827 26.2051 28.5581 25.3815 28.5501 24.5733C30.3613 24.6611 31.9945 23.3411 31.9945 21.4554V16.9274C31.9945 15.8673 31.4627 14.9291 30.6518 14.3654ZM0.942686 21.6163V17.0883C0.942686 15.7223 2.14496 14.8335 3.43602 14.9076V23.797C2.14427 23.8686 0.942686 22.9865 0.942686 21.6163ZM5.23946 13.5242C5.69893 13.5242 6.07267 13.898 6.07267 14.3574V24.1863C6.02675 25.292 4.45173 25.2911 4.40625 24.1863V14.3574C4.40625 13.898 4.78005 13.5242 5.23946 13.5242ZM21.8902 31.0628H19.4021C18.9186 31.0628 18.5253 30.6695 18.5253 30.186C18.5253 29.7025 18.9186 29.3092 19.4021 29.3092H21.8902C23.0527 29.3571 23.0536 31.0146 21.8902 31.0628ZM29.6972 13.9191C29.3253 13.8176 28.9288 13.7909 28.5441 13.8096C28.4481 12.3909 28.1157 11.0144 27.5539 9.70997C27.832 9.34197 28.0691 8.94142 28.2584 8.51507C29.1028 10.1939 29.5941 12.0362 29.6972 13.9191ZM22.7193 11.1848C21.9323 11.1848 21.1774 11.0109 20.4752 10.668C20.3466 10.6083 20.2173 10.6048 20.0872 10.6573L19.4057 10.9452V10.1788C19.4057 10.0477 19.3509 9.92265 19.2544 9.83393C15.8424 6.70276 18.0833 0.945673 22.7193 0.948234C29.5105 1.2292 29.5089 10.9046 22.7193 11.1848ZM31.0573 21.4554C31.0573 22.8363 29.8382 23.7147 28.5392 23.6361C28.5333 23.1325 28.53 22.629 28.5309 22.1254C28.5309 21.5195 27.5938 21.5195 27.5938 22.1254V24.1862C27.5938 24.6457 27.22 25.0195 26.7606 25.0195C26.3012 25.0195 25.9273 24.6457 25.9273 24.1862V14.3574C25.9718 13.2548 27.547 13.2497 27.5938 14.3574V19.6309C27.5938 20.2367 28.5309 20.2367 28.5309 19.6309V14.7467C29.8331 14.673 31.0573 15.5347 31.0573 16.9274V21.4554Z" fill="#639CFF"/>
<path d="M20.263 26.3976C20.6345 26.4866 20.8515 26.3428 20.914 25.9659V24.4359C25.4031 20.0712 22.2709 12.3579 15.9999 12.366C12.1202 12.3659 8.96362 15.5219 8.96362 19.4011C8.90414 24.4341 14.3313 27.9383 18.8894 25.8173L20.263 26.3976ZM18.6737 24.8833C14.7112 26.8787 9.84638 23.8425 9.90086 19.4011C9.9008 16.0386 12.6369 13.3031 16 13.3031C21.5239 13.3006 24.1931 20.1597 20.1282 23.8896C20.0317 23.9783 19.9768 24.1034 19.9768 24.2345V25.2593L19.0617 24.8727C18.9369 24.8199 18.7954 24.8238 18.6737 24.8833Z" fill="#639CFF"/>
<path d="M14.7467 17.2414H17.2534C17.8592 17.2414 17.8592 16.3042 17.2534 16.3042H14.7467C14.1408 16.3042 14.1408 17.2414 14.7467 17.2414Z" fill="#639CFF"/>
<path d="M17.2534 21.5605H14.7467C14.1408 21.5605 14.1408 22.4977 14.7467 22.4977H17.2534C17.8592 22.4977 17.8592 21.5605 17.2534 21.5605Z" fill="#639CFF"/>
<path d="M18.5944 18.9324H13.4056C12.7997 18.9324 12.7997 19.8696 13.4056 19.8696H18.5944C19.2003 19.8696 19.2003 18.9324 18.5944 18.9324Z" fill="#639CFF"/>
<path d="M22.7603 2.49035C21.6534 2.46917 20.7177 3.38442 20.7177 4.49148C20.7177 5.09733 21.6549 5.09733 21.6549 4.49148C21.6549 3.91461 22.1627 3.41472 22.7414 3.42734C23.2962 3.43852 23.7534 3.88081 23.7821 4.43425C23.8134 5.03591 23.3225 5.55586 22.7193 5.55586C22.4605 5.55586 22.2507 5.76566 22.2507 6.02445V7.6274C22.2507 7.88618 22.4605 8.09599 22.7193 8.09599C22.978 8.09599 23.1878 7.88618 23.1878 7.6274V6.43681C24.1135 6.21232 24.7674 5.33744 24.718 4.38564C24.664 3.34393 23.804 2.51141 22.7603 2.49035Z" fill="#639CFF"/>
<path d="M22.7193 8.76758C22.1162 8.76758 22.1152 9.70476 22.7193 9.70476C23.3222 9.70476 23.3232 8.76758 22.7193 8.76758Z" fill="#639CFF"/>
</g>
<defs>
<clipPath id="clip0_8_1372">
<rect width="32" height="32" fill="white"/>
</clipPath>
</defs>
</svg>
