<svg width="32" height="32" viewBox="0 0 32 32" fill="none" xmlns="http://www.w3.org/2000/svg">
<path d="M29.0374 23.2348C28.9631 23.2347 28.8901 23.2154 28.8254 23.1789C28.7607 23.1423 28.7065 23.0897 28.668 23.0262C28.6296 22.9626 28.6081 22.8902 28.6058 22.8159C28.6035 22.7416 28.6203 22.668 28.6547 22.6021C29.6436 20.6886 30.1905 18.5776 30.2551 16.4246C30.3197 14.2717 29.9003 12.1317 29.0279 10.1623C28.9811 10.0576 28.9778 9.93862 29.0188 9.83149C29.0598 9.72436 29.1416 9.63789 29.2463 9.5911C29.351 9.5443 29.47 9.54102 29.5771 9.58198C29.6843 9.62293 29.7708 9.70476 29.8175 9.80947C30.743 11.8982 31.1878 14.168 31.1191 16.4515C31.0505 18.735 30.4702 20.974 29.421 23.0034C29.3843 23.0733 29.3291 23.1318 29.2615 23.1726C29.1939 23.2134 29.1164 23.2349 29.0374 23.2348Z" fill="#639CFF"/>
<path d="M22.8631 29.4356C22.7663 29.4357 22.6724 29.4033 22.5962 29.3436C22.5201 29.2839 22.4661 29.2005 22.443 29.1065C22.4199 29.0126 22.429 28.9136 22.4688 28.8254C22.5085 28.7372 22.5767 28.6649 22.6624 28.6201C23.0382 28.4233 23.3976 28.2149 23.7254 28.0004C23.8215 27.9378 23.9386 27.916 24.0508 27.9398C24.1631 27.9636 24.2613 28.0309 24.3238 28.1271C24.3864 28.2233 24.4082 28.3404 24.3844 28.4526C24.3607 28.5648 24.2933 28.663 24.1971 28.7256C23.8447 28.9548 23.462 29.1771 23.0629 29.3863C23.0012 29.4186 22.9327 29.4355 22.8631 29.4356Z" fill="#639CFF"/>
<path d="M16.0108 31.1321C11.994 31.1332 8.14107 29.5396 5.29863 26.7014C5.21986 26.6198 5.17628 26.5106 5.17726 26.3972C5.17825 26.2838 5.22373 26.1753 5.3039 26.0952C5.38408 26.015 5.49254 25.9695 5.60592 25.9685C5.7193 25.9675 5.82854 26.0111 5.91009 26.0899C7.70349 27.88 9.9406 29.1612 12.3922 29.8021C14.8437 30.4429 17.4216 30.4205 19.8617 29.737C19.9721 29.7061 20.0903 29.7202 20.1903 29.7764C20.2903 29.8326 20.3639 29.9263 20.3948 30.0367C20.4258 30.1472 20.4116 30.2654 20.3554 30.3654C20.2992 30.4654 20.2056 30.5389 20.0952 30.5699C18.7658 30.943 17.3916 31.1321 16.0108 31.1321Z" fill="#639CFF"/>
<path d="M26.3265 26.8931C26.2375 26.8931 26.1507 26.8656 26.0779 26.8145C26.0051 26.7633 25.9499 26.691 25.9197 26.6073C25.8895 26.5236 25.8859 26.4326 25.9093 26.3468C25.9328 26.261 25.9821 26.1844 26.0506 26.1277C26.0653 26.1156 26.0774 26.1026 26.0899 26.0901C26.3684 25.8111 26.6344 25.5201 26.8804 25.2252C26.9161 25.1796 26.9605 25.1417 27.011 25.1136C27.0615 25.0855 27.1172 25.0678 27.1747 25.0616C27.2322 25.0554 27.2904 25.0608 27.3458 25.0774C27.4011 25.0941 27.4526 25.1217 27.4971 25.1586C27.5417 25.1955 27.5783 25.241 27.605 25.2923C27.6316 25.3437 27.6477 25.3998 27.6522 25.4575C27.6568 25.5151 27.6497 25.5731 27.6315 25.628C27.6132 25.6829 27.5841 25.7335 27.546 25.777C27.283 26.0935 26.9994 26.4044 26.7018 26.7015C26.6705 26.7338 26.6374 26.7644 26.6028 26.7932C26.5252 26.8577 26.4274 26.8931 26.3265 26.8931Z" fill="#639CFF"/>
<path d="M2.65338 22.6093C2.57082 22.6093 2.48997 22.5857 2.42039 22.5413C2.35081 22.4968 2.29541 22.4334 2.26073 22.3584C0.768362 19.1322 0.458987 15.4836 1.38682 12.0521C2.31465 8.62057 4.4205 5.62504 7.33536 3.59041C10.2502 1.55577 13.7881 0.611825 17.3291 0.923981C20.8701 1.23614 24.1883 2.78448 26.7022 5.29769C26.7424 5.33787 26.7743 5.38557 26.796 5.43806C26.8178 5.49055 26.829 5.54682 26.829 5.60364C26.829 5.66046 26.8178 5.71672 26.796 5.76921C26.7743 5.82171 26.7424 5.86941 26.7022 5.90958C26.6621 5.94976 26.6144 5.98163 26.5619 6.00337C26.5094 6.02512 26.4531 6.03631 26.3963 6.03631C26.3395 6.03631 26.2832 6.02512 26.2307 6.00337C26.1782 5.98163 26.1305 5.94976 26.0904 5.90958C23.72 3.54002 20.5913 2.08021 17.2527 1.78596C13.914 1.49171 10.5782 2.3818 7.82995 4.30024C5.08167 6.21868 3.09619 9.0431 2.22143 12.2786C1.34668 15.514 1.63844 18.9541 3.0456 21.9961C3.07608 22.0619 3.08949 22.1344 3.0846 22.2069C3.07971 22.2793 3.05666 22.3493 3.01759 22.4105C2.97851 22.4716 2.92467 22.522 2.86102 22.5569C2.79737 22.5918 2.72596 22.6101 2.65338 22.6101V22.6093Z" fill="#639CFF"/>
<path d="M26.3965 6.03599H23.1702C23.0555 6.03599 22.9455 5.99043 22.8644 5.90933C22.7833 5.82824 22.7377 5.71825 22.7377 5.60356C22.7377 5.48887 22.7833 5.37888 22.8644 5.29778C22.9455 5.21669 23.0555 5.17113 23.1702 5.17113H25.9641V2.37848C25.9641 2.26379 26.0097 2.1538 26.0908 2.0727C26.1719 1.9916 26.2818 1.94604 26.3965 1.94604C26.5112 1.94604 26.6212 1.9916 26.7023 2.0727C26.7834 2.1538 26.829 2.26379 26.829 2.37848V5.60486C26.8286 5.71932 26.7829 5.82898 26.7019 5.90979C26.6208 5.99061 26.511 6.03599 26.3965 6.03599Z" fill="#639CFF"/>
<path d="M5.60351 30.0541C5.48883 30.0541 5.37883 30.0085 5.29774 29.9274C5.21664 29.8463 5.17108 29.7363 5.17108 29.6216V26.3965C5.17108 26.2819 5.21664 26.1719 5.29774 26.0908C5.37883 26.0097 5.48883 25.9641 5.60351 25.9641H8.82989C8.94458 25.9641 9.05457 26.0097 9.13567 26.0908C9.21676 26.1719 9.26233 26.2819 9.26233 26.3965C9.26233 26.5112 9.21676 26.6212 9.13567 26.7023C9.05457 26.7834 8.94458 26.829 8.82989 26.829H6.03595V29.6216C6.03595 29.7363 5.99039 29.8463 5.90929 29.9274C5.82819 30.0085 5.7182 30.0541 5.60351 30.0541Z" fill="#639CFF"/>
<path d="M16 25.5136C14.1184 25.5136 12.2791 24.9556 10.7146 23.9103C9.1501 22.8649 7.93073 21.3791 7.21067 19.6408C6.49062 17.9024 6.30222 15.9895 6.6693 14.1441C7.03638 12.2987 7.94246 10.6035 9.27294 9.27302C10.6034 7.94253 12.2986 7.03646 14.144 6.66938C15.9895 6.3023 17.9023 6.49069 19.6407 7.21075C21.379 7.9308 22.8649 9.15018 23.9102 10.7147C24.9556 12.2792 25.5135 14.1185 25.5135 16.0001C25.5107 18.5224 24.5074 20.9405 22.7239 22.724C20.9404 24.5075 18.5223 25.5107 16 25.5136ZM16 7.35144C14.2895 7.35144 12.6173 7.85868 11.1951 8.809C9.77282 9.75933 8.6643 11.1101 8.0097 12.6904C7.35511 14.2707 7.18384 16.0097 7.51755 17.6874C7.85126 19.365 8.67496 20.9061 9.8845 22.1156C11.094 23.3251 12.6351 24.1488 14.3127 24.4826C15.9904 24.8163 17.7294 24.645 19.3097 23.9904C20.89 23.3358 22.2408 22.2273 23.1911 20.805C24.1414 19.3828 24.6487 17.7106 24.6487 16.0001C24.646 13.7071 23.734 11.5088 22.1126 9.88748C20.4913 8.26611 18.293 7.35407 16 7.35144Z" fill="#639CFF"/>
<path d="M17.2635 19.6378C18.0613 19.6378 18.754 19.4053 19.3415 18.9403C19.5605 18.7669 19.8793 18.7579 20.0784 18.9539L20.1738 19.0478C20.3621 19.2332 20.376 19.5362 20.1786 19.7119C19.8585 19.9968 19.4897 20.2239 19.072 20.3934C18.5022 20.6246 17.8787 20.7403 17.2016 20.7403C16.4831 20.7403 15.8183 20.6081 15.2072 20.3439C14.5961 20.0714 14.08 19.6915 13.6588 19.2043C13.2377 18.717 12.9404 18.1514 12.767 17.5072H11.4548C11.3996 17.5072 11.3548 17.4625 11.3548 17.4072V16.9135C11.3548 16.8583 11.3996 16.8135 11.4548 16.8135H12.6431C12.6266 16.5988 12.6183 16.4295 12.6183 16.3057C12.6183 16.1818 12.6266 16.0125 12.6431 15.7978H11.4548C11.3996 15.7978 11.3548 15.753 11.3548 15.6978V15.2041C11.3548 15.1489 11.3996 15.1041 11.4548 15.1041H12.767C12.9404 14.46 13.2377 13.8943 13.6588 13.4071C14.08 12.9199 14.5961 12.5441 15.2072 12.2799C15.8183 12.0074 16.4831 11.8711 17.2016 11.8711C17.887 11.8711 18.5105 11.9867 19.072 12.2179C19.4869 12.3863 19.8536 12.6094 20.1722 12.8872C20.3727 13.0621 20.3603 13.3676 20.1707 13.5542L20.0785 13.645C19.8794 13.841 19.5605 13.8319 19.3407 13.6593C18.7585 13.2021 18.0661 12.9735 17.2635 12.9735C16.512 12.9735 15.8514 13.1676 15.2816 13.5557C14.7117 13.9439 14.3112 14.46 14.08 15.1041H17.9067C17.9619 15.1041 18.0067 15.1489 18.0067 15.2041V15.7978H13.9066C13.8818 15.9547 13.8694 16.124 13.8694 16.3057C13.8694 16.4791 13.8818 16.6484 13.9066 16.8135H17.9067C17.9619 16.8135 18.0067 16.8583 18.0067 16.9135V17.4072C18.0067 17.4625 17.9619 17.5072 17.9067 17.5072H14.08C14.3112 18.1514 14.7117 18.6675 15.2816 19.0556C15.8514 19.4437 16.512 19.6378 17.2635 19.6378Z" fill="#639CFF"/>
</svg>
