<svg width="32" height="32" viewBox="0 0 32 32" fill="none" xmlns="http://www.w3.org/2000/svg">
<path d="M30.2984 13.3503C30.2249 11.0547 29.2704 8.87544 27.633 7.26475C25.9189 5.56677 23.6009 4.61871 21.1882 4.62887C20.9644 4.62887 20.7421 4.63679 20.5211 4.65263V2C20.5211 1.90054 20.4816 1.80516 20.4112 1.73483C20.3409 1.66451 20.2455 1.625 20.1461 1.625H3.48256C1.90688 1.625 0.625 2.87594 0.625 4.41362V27.5847V27.5864C0.625 29.1241 1.90688 30.375 3.48256 30.375H18.9937C19.0932 30.375 19.1886 30.3355 19.2589 30.2652C19.3292 30.1948 19.3687 30.0995 19.3687 30V25.4849L20.1472 25.482C20.2464 25.4816 20.3414 25.442 20.4115 25.3717C20.4815 25.3014 20.5208 25.2062 20.5208 25.107V22.2594C21.0932 22.0989 21.7708 22.2166 22.5396 22.6116L24.392 23.5632C24.7996 23.7715 25.2449 23.8959 25.7015 23.9289C26.1581 23.962 26.6166 23.9031 27.05 23.7556L27.0577 23.753C27.6658 23.5451 28.2022 23.1686 28.6046 22.6675C29.007 22.1664 29.2587 21.5613 29.3304 20.9227H29.8679C30.267 20.9227 30.6499 20.7643 30.9324 20.4824C31.215 20.2004 31.3742 19.8179 31.375 19.4188V14.7914C31.3744 14.4674 31.2693 14.1522 31.0754 13.8926C30.8814 13.633 30.609 13.4428 30.2984 13.3503ZM27.1056 7.79794C28.5847 9.25282 29.4568 11.2147 29.5457 13.2875H28.8134C28.7243 11.4082 27.9298 9.63172 26.5884 8.3125C25.1502 6.89964 23.2147 6.10804 21.1986 6.10812C19.1825 6.10821 17.247 6.89996 15.8089 8.31294C14.4678 9.63208 13.6733 11.4083 13.5839 13.2873H12.8313C12.9204 11.2147 13.7924 9.25312 15.2712 7.79825C16.8504 6.24761 18.9752 5.37879 21.1885 5.3787C23.4017 5.37861 25.5266 6.24724 27.1059 7.79775L27.1056 7.79794ZM27.3281 20.1729V14.0375H28.1093V20.1727L27.3281 20.1729ZM12.5863 14.0375H13.5948V20.1727H12.5863C12.386 20.1729 12.1939 20.0936 12.052 19.9522C11.9101 19.8109 11.83 19.619 11.8294 19.4188V14.7914C11.83 14.5912 11.9101 14.3993 12.052 14.258C12.1939 14.1166 12.386 14.0373 12.5863 14.0375ZM14.3448 14.0375H15.1261V20.1727H14.3448V14.0375ZM4.08531 2.375H6.4405V7.15994L5.5875 6.28188L5.54944 6.25794C5.46353 6.20435 5.36431 6.17595 5.26306 6.17595C5.16181 6.17595 5.0626 6.20435 4.97669 6.25794L4.93856 6.28188L4.08544 7.16L4.08531 2.375ZM18.6187 29.625H3.48256C2.32044 29.625 1.375 28.7105 1.375 27.5829C1.375 26.4589 2.32044 25.5444 3.48394 25.5444L18.6187 25.4875V29.625ZM3.48256 24.7944C3.08779 24.7933 2.69701 24.8733 2.33447 25.0296C1.97192 25.1858 1.64534 25.4148 1.375 25.7025V4.41362C1.375 3.3375 2.24169 2.45394 3.33531 2.38056V7.68937C3.3354 7.78549 3.36123 7.87983 3.41011 7.96258C3.459 8.04533 3.52916 8.11348 3.6133 8.15993C3.69744 8.20639 3.79249 8.22946 3.88857 8.22675C3.98465 8.22403 4.07824 8.19563 4.15963 8.1445L4.19775 8.12056L5.26294 7.02419L6.32806 8.1205L6.36619 8.1445C6.44757 8.19565 6.54117 8.22407 6.63725 8.2268C6.73333 8.22952 6.82839 8.20645 6.91254 8.15999C6.99669 8.11353 7.06685 8.04538 7.11574 7.96261C7.16462 7.87985 7.19043 7.7855 7.1905 7.68937V2.375H19.7711V4.73669C17.8696 5.02526 16.1091 5.91074 14.7437 7.26525C13.1003 8.88219 12.1451 11.0715 12.0776 13.3761C11.7858 13.4807 11.5335 13.6727 11.3549 13.926C11.1763 14.1793 11.0803 14.4815 11.0798 14.7914V19.4188C11.0806 19.8179 11.2397 20.2004 11.5222 20.4823C11.8047 20.7642 12.1875 20.9226 12.5866 20.9227H15.3616C15.4982 20.9226 15.6291 20.8683 15.7257 20.7718C15.8223 20.6753 15.8767 20.5444 15.8769 20.4078V13.8024C15.8767 13.6659 15.8223 13.535 15.7257 13.4384C15.6291 13.3419 15.4982 13.2876 15.3616 13.2875H14.3353C14.4245 11.6092 15.1383 10.025 16.3363 8.84631C17.2783 7.912 18.4717 7.27191 19.7711 7.00406V24.7334L3.48256 24.7944ZM26.8148 23.0434L26.8071 23.046C26.4693 23.1609 26.1118 23.2068 25.7559 23.1811C25.3999 23.1553 25.0528 23.0584 24.735 22.896L22.8826 21.9444C22.0335 21.5082 21.2284 21.356 20.5211 21.4911V6.89062C20.7448 6.86921 20.9706 6.85844 21.1986 6.85831C23.0187 6.85025 24.7677 7.56511 26.0611 8.84581C27.2593 10.0245 27.9732 11.609 28.0621 13.2875H27.0933C26.9568 13.2876 26.8258 13.3419 26.7292 13.4384C26.6326 13.535 26.5783 13.6659 26.5781 13.8024V20.4078C26.5783 20.5444 26.6326 20.6753 26.7292 20.7718C26.8258 20.8683 26.9568 20.9226 27.0933 20.9227H28.5742C28.5046 21.4039 28.3034 21.8565 27.993 22.2307C27.6825 22.6049 27.2748 22.8861 26.8148 23.0434ZM30.625 19.4188C30.6244 19.619 30.5444 19.8109 30.4025 19.9522C30.2606 20.0936 30.0684 20.1729 29.8681 20.1727H28.8596V14.0375H29.8681C30.0684 14.0373 30.2606 14.1166 30.4025 14.258C30.5444 14.3993 30.6244 14.5912 30.625 14.7914V19.4188Z" fill="#639CFF"/>
<path d="M11.2605 13.3586C11.2605 13.2592 11.221 13.1638 11.1506 13.0935C11.0803 13.0232 10.9849 12.9836 10.8855 12.9836H9.5011C9.40164 12.9836 9.30626 13.0232 9.23593 13.0935C9.16561 13.1638 9.1261 13.2592 9.1261 13.3586C9.1261 13.4581 9.16561 13.5535 9.23593 13.6238C9.30626 13.6941 9.40164 13.7336 9.5011 13.7336H10.8855C10.9849 13.7336 11.0803 13.6941 11.1506 13.6238C11.221 13.5535 11.2605 13.4581 11.2605 13.3586Z" fill="#639CFF"/>
<path d="M4.36676 13.7336H8.12564C8.22509 13.7336 8.32047 13.6941 8.3908 13.6238C8.46113 13.5535 8.50064 13.4581 8.50064 13.3586C8.50064 13.2592 8.46113 13.1638 8.3908 13.0935C8.32047 13.0232 8.22509 12.9836 8.12564 12.9836H4.36676C4.2673 12.9836 4.17192 13.0232 4.1016 13.0935C4.03127 13.1638 3.99176 13.2592 3.99176 13.3586C3.99176 13.4581 4.03127 13.5535 4.1016 13.6238C4.17192 13.6941 4.2673 13.7336 4.36676 13.7336Z" fill="#639CFF"/>
<path d="M9.63551 16.104H6.29376C6.19431 16.104 6.09892 16.1435 6.0286 16.2138C5.95827 16.2842 5.91876 16.3795 5.91876 16.479C5.91876 16.5785 5.95827 16.6738 6.0286 16.7442C6.09892 16.8145 6.19431 16.854 6.29376 16.854H9.63551C9.73497 16.854 9.83035 16.8145 9.90068 16.7442C9.971 16.6738 10.0105 16.5785 10.0105 16.479C10.0105 16.3795 9.971 16.2842 9.90068 16.2138C9.83035 16.1435 9.73497 16.104 9.63551 16.104Z" fill="#639CFF"/>
<path d="M4.36676 16.854H4.94051C5.03997 16.854 5.13535 16.8145 5.20568 16.7442C5.27601 16.6738 5.31551 16.5785 5.31551 16.479C5.31551 16.3795 5.27601 16.2842 5.20568 16.2138C5.13535 16.1435 5.03997 16.104 4.94051 16.104H4.36676C4.2673 16.104 4.17192 16.1435 4.1016 16.2138C4.03127 16.2842 3.99176 16.3795 3.99176 16.479C3.99176 16.5785 4.03127 16.6738 4.1016 16.7442C4.17192 16.8145 4.2673 16.854 4.36676 16.854Z" fill="#639CFF"/>
<path d="M9.6355 19.229H9.63288C9.53319 19.2294 9.43771 19.2692 9.3674 19.3399C9.29709 19.4106 9.2577 19.5063 9.25787 19.606C9.25805 19.7057 9.29777 19.8012 9.36833 19.8716C9.43888 19.9421 9.5345 19.9816 9.63419 19.9816C9.73388 19.9816 9.8295 19.9421 9.90005 19.8716C9.9706 19.8012 10.0103 19.7057 10.0105 19.606C10.0107 19.5063 9.97128 19.4106 9.90098 19.3399C9.83067 19.2692 9.73519 19.2294 9.6355 19.229Z" fill="#639CFF"/>
<path d="M8.25301 19.229H4.36676C4.2673 19.229 4.17192 19.2685 4.1016 19.3388C4.03127 19.4092 3.99176 19.5045 3.99176 19.604C3.99176 19.7035 4.03127 19.7988 4.1016 19.8692C4.17192 19.9395 4.2673 19.979 4.36676 19.979H8.25301C8.35247 19.979 8.44785 19.9395 8.51818 19.8692C8.5885 19.7988 8.62801 19.7035 8.62801 19.604C8.62801 19.5045 8.5885 19.4092 8.51818 19.3388C8.44785 19.2685 8.35247 19.229 8.25301 19.229Z" fill="#639CFF"/>
</svg>
