<svg width="32" height="32" viewBox="0 0 32 32" fill="none" xmlns="http://www.w3.org/2000/svg">
<path d="M16 0C7.16347 0 0 7.16347 0 16C0 24.8365 7.16347 32 16 32C24.8365 32 32 24.8365 32 16C31.99 7.1676 24.8324 0.01 16 0ZM16 30.9333C7.75253 30.9333 1.06667 24.2475 1.06667 16C1.06667 7.75253 7.75253 1.06667 16 1.06667C24.2475 1.06667 30.9333 7.75253 30.9333 16C30.9239 24.2435 24.2435 30.9239 16 30.9333Z" fill="#639CFF"/>
<path d="M16 2.66675C8.63621 2.66675 2.66667 8.63628 2.66667 16.0001C2.66667 23.3639 8.63621 29.3334 16 29.3334C23.3638 29.3334 29.3333 23.3639 29.3333 16.0001C29.3251 8.63968 23.3604 2.67495 16 2.66675ZM16 28.2668C9.22534 28.2668 3.73334 22.7747 3.73334 16.0001C3.73334 9.22541 9.22534 3.73341 16 3.73341C22.7747 3.73341 28.2667 9.22541 28.2667 16.0001C28.259 22.7716 22.7715 28.2591 16 28.2668Z" fill="#639CFF"/>
<path d="M16.5333 5.33325H15.4667V6.39992H16.5333V5.33325Z" fill="#639CFF"/>
<path d="M16.5333 25.6001H15.4667V26.6668H16.5333V25.6001Z" fill="#639CFF"/>
<path d="M11.1272 6.49637L10.2041 7.02954L10.7372 7.95271L11.6604 7.41953L11.1272 6.49637Z" fill="#639CFF"/>
<path d="M21.2581 24.0445L20.335 24.5776L20.8682 25.5008L21.7913 24.9676L21.2581 24.0445Z" fill="#639CFF"/>
<path d="M7.02859 10.2049L6.49525 11.1287L7.41899 11.662L7.95232 10.7383L7.02859 10.2049Z" fill="#639CFF"/>
<path d="M24.5782 20.3399L24.0449 21.2637L24.9686 21.797L25.502 20.8733L24.5782 20.3399Z" fill="#639CFF"/>
<path d="M6.39999 15.4666H5.33333V16.5332H6.39999V15.4666Z" fill="#639CFF"/>
<path d="M26.6667 15.4666H25.6V16.5332H26.6667V15.4666Z" fill="#639CFF"/>
<path d="M7.4194 20.3393L6.49556 20.8726L7.02879 21.7964L7.95262 21.2632L7.4194 20.3393Z" fill="#639CFF"/>
<path d="M24.9685 10.2049L24.0447 10.7383L24.5781 11.662L25.5018 11.1287L24.9685 10.2049Z" fill="#639CFF"/>
<path d="M10.7345 24.0466L10.2014 24.9697L11.1245 25.5029L11.6577 24.5797L10.7345 24.0466Z" fill="#639CFF"/>
<path d="M20.8706 6.49749L20.3374 7.42065L21.2606 7.95383L21.7938 7.03066L20.8706 6.49749Z" fill="#639CFF"/>
<path d="M15.4667 7.46655V15.698L10.392 18.7428L10.9413 19.657L16.2747 16.457C16.4351 16.3606 16.5333 16.1871 16.5333 15.9999V7.46655H15.4667Z" fill="#639CFF"/>
</svg>
