<svg width="32" height="32" viewBox="0 0 32 32" fill="none" xmlns="http://www.w3.org/2000/svg">
<path d="M29.8722 16.4146C29.7434 16.1511 29.7434 15.849 29.8722 15.5857L31.0657 13.1441C31.7302 11.7847 31.2037 10.1644 29.8671 9.45519L27.4665 8.18144C27.2075 8.04407 27.0299 7.79957 26.9792 7.51089L26.5097 4.83409C26.2483 3.34372 24.8697 2.34223 23.3717 2.55416L20.6809 2.93479C20.3905 2.97579 20.1033 2.88241 19.8926 2.6786L17.9395 0.789113C16.8519 -0.263006 15.1482 -0.263069 14.0607 0.789113L12.1074 2.67879C11.8967 2.88266 11.6095 2.97585 11.3191 2.93498L8.62832 2.55435C7.12989 2.34229 5.75178 3.34391 5.49034 4.83428L5.02084 7.51095C4.97016 7.7997 4.79259 8.04413 4.53366 8.18157L2.13305 9.45531C0.79643 10.1644 0.269933 11.7849 0.934429 13.1443L2.12786 15.5858C2.25661 15.8492 2.25661 16.1513 2.12786 16.4147L0.934367 18.8562C0.26987 20.2156 0.796367 21.8359 2.13298 22.5451L4.5336 23.8189C4.79259 23.9562 4.97016 24.2007 5.02084 24.4894L5.49034 27.1662C5.72834 28.5229 6.89171 29.4744 8.22876 29.4743C8.36045 29.4743 8.49407 29.4651 8.62838 29.4461L11.3192 29.0654C11.6094 29.0243 11.8967 29.1178 12.1075 29.3216L14.0607 31.2111C14.6045 31.7372 15.3022 32.0002 16 32.0002C16.6977 32.0001 17.3958 31.7371 17.9394 31.2111L19.8926 29.3216C20.1034 29.1178 20.3906 29.0247 20.6809 29.0654L23.3717 29.4461C24.8703 29.6581 26.2483 28.6565 26.5097 27.1661L26.9793 24.4895C27.03 24.2007 27.2075 23.9563 27.4665 23.8189L29.8671 22.5451C31.2037 21.836 31.7302 20.2156 31.0657 18.8561L29.8722 16.4146ZM12.3087 7.69482C14.1745 7.69482 15.6924 9.21275 15.6924 11.0785C15.6924 12.9442 14.1745 14.4622 12.3087 14.4622C10.443 14.4622 8.92507 12.9442 8.92507 11.0785C8.92507 9.21275 10.443 7.69482 12.3087 7.69482ZM10.5622 22.7429C10.3821 22.923 10.1459 23.0132 9.90975 23.0132C9.67363 23.0132 9.43738 22.9231 9.25726 22.7429C8.89688 22.3825 8.89688 21.7982 9.25726 21.4378L21.4377 9.25731C21.7981 8.89694 22.3824 8.89694 22.7428 9.25731C23.1032 9.61769 23.1032 10.202 22.7428 10.5624L10.5622 22.7429ZM19.6912 24.3055C17.8255 24.3055 16.3075 22.7875 16.3075 20.9218C16.3075 19.0561 17.8255 17.5381 19.6912 17.5381C21.5569 17.5381 23.0749 19.0561 23.0749 20.9218C23.0749 22.7875 21.5569 24.3055 19.6912 24.3055Z" fill="#639CFF"/>
</svg>
