<svg width="32" height="32" viewBox="0 0 32 32" fill="none" xmlns="http://www.w3.org/2000/svg">
<g clip-path="url(#clip0_5_1236)">
<path d="M30.8958 16.1155C30.8724 16.0918 30.8477 16.0694 30.8223 16.0476L22.4141 8.88821C21.2251 7.87575 19.712 7.31911 18.1509 7.31911C18.1433 7.31911 18.1358 7.31911 18.1282 7.31911C16.3804 7.32521 14.7371 8.00905 13.501 9.24514L12.367 10.3792C11.8887 10.8575 11.1038 10.8653 10.617 10.3965C10.3833 10.1719 10.253 9.86184 10.2498 9.52419C10.2464 9.1697 10.3865 8.82424 10.6341 8.57644C10.6436 8.56692 10.6531 8.55715 10.6624 8.54739L13.1216 5.92262C15.0235 3.89283 17.6704 2.6858 20.441 2.5713L29.8965 10.2808C30.4315 10.7171 31.2191 10.637 31.6551 10.1021C32.0914 9.56692 32.0113 8.77956 31.4764 8.34328L21.6646 0.343507C21.4415 0.161866 21.1626 0.0625 20.8748 0.0625C18.523 0.0625 16.2239 0.703371 14.2237 1.8772C12.2058 0.688722 9.9153 0.0625 7.5652 0.0625C7.23366 0.0625 6.91579 0.194092 6.68141 0.428224L0.303956 6.803C-0.184326 7.29128 -0.184571 8.08254 0.303468 8.57082C0.547609 8.81521 0.867433 8.93728 1.1875 8.93728C1.50733 8.93728 1.82715 8.81521 2.07105 8.57131L8.07082 2.57447C9.43142 2.63868 10.7588 2.96387 11.9898 3.52833C11.7512 3.74757 11.52 3.9756 11.2974 4.21315L8.85036 6.82497C8.14113 7.54299 7.74025 8.5342 7.75002 9.54812C7.75954 10.5625 8.16213 11.5037 8.88332 12.1978C9.59426 12.8819 10.5298 13.2535 11.5169 13.2449C12.5056 13.2361 13.4353 12.8462 14.1346 12.1468L15.2688 11.0127C16.0347 10.2466 17.0535 9.82278 18.1368 9.81887H18.1509C19.1184 9.81887 20.0564 10.1641 20.7935 10.7915L29.1563 17.9124C29.5421 18.3284 29.5328 18.9813 29.128 19.3858C28.9293 19.5848 28.6624 19.6941 28.3768 19.6941C28.0911 19.6941 27.8243 19.5848 27.6255 19.3858L27.3692 19.1292C26.8809 18.6412 26.0894 18.6409 25.6014 19.1292C25.1133 19.6172 25.1131 20.4087 25.6014 20.897L25.858 21.1534C25.9334 21.2291 26.0123 21.3003 26.0933 21.368C26.1292 21.4163 26.1675 21.4632 26.2112 21.5069C26.6255 21.9212 26.6255 22.5953 26.2112 23.0096C25.7972 23.4239 25.1231 23.4239 24.7088 23.0096C24.7056 23.0064 24.7022 23.003 24.699 22.9998L24.2847 22.5884C23.7964 22.1004 23.0052 22.1004 22.5171 22.5887C22.0289 23.0767 22.0289 23.8682 22.5171 24.3563L22.8025 24.6417L22.8028 24.6419C23.0191 24.8582 23.1497 25.1666 23.1607 25.4876C23.1666 25.6627 23.1397 25.9927 22.8924 26.2401C22.5013 26.6314 21.824 26.5909 21.3831 26.15C21.3597 26.1265 21.3355 26.1041 21.3101 26.0826L21.1226 25.9227C20.6121 25.4874 19.8487 25.533 19.3936 26.0259C18.9383 26.5189 18.9534 27.2833 19.4278 27.7579C19.6363 27.9664 19.753 28.2393 19.7564 28.5262C19.7596 28.8043 19.6543 29.0643 19.4602 29.2584C19.0459 29.6727 18.3636 29.6641 17.9349 29.2357L17.7581 29.0604C18.2686 27.7589 17.9995 26.2193 16.9493 25.169V25.1688C16.479 24.6988 15.906 24.3694 15.2852 24.2044C15.4395 23.1307 15.1043 21.9996 14.2801 21.1751C13.6624 20.5574 12.8723 20.2154 12.0633 20.147C12.0022 19.3428 11.6585 18.5538 11.0301 17.9253C10.4087 17.304 9.61306 16.9615 8.79909 16.896C8.73366 16.0821 8.39113 15.2864 7.76979 14.6651C6.3838 13.2791 4.13014 13.2762 2.74048 14.6563L0.993654 16.3428C0.988527 16.3479 0.983156 16.3531 0.978029 16.3582C0.30713 17.0291 -0.0625 17.9239 -0.0625 18.8772C-0.0625 19.8304 0.30713 20.7252 0.978029 21.3961C1.50904 21.9273 2.16773 22.2545 2.85596 22.3795C2.82374 23.3318 3.16944 24.2947 3.89478 25.0201C4.54176 25.6671 5.40504 26.0206 6.33302 26.0206C6.3506 26.0206 6.36842 26.0203 6.386 26.0201C6.48707 26.763 6.82106 27.4786 7.38942 28.0467C8.08058 28.7379 8.98928 29.0831 9.90041 29.0831C9.97707 29.0831 10.0535 29.0797 10.1301 29.0748C10.2625 29.8023 10.6096 30.4715 11.1406 31.0025C11.8474 31.7091 12.7754 32.0623 13.7039 32.0623C14.6101 32.0623 15.5164 31.7242 16.2166 31.0504C16.9136 31.7242 17.816 32.0623 18.7168 32.0623C19.628 32.0623 20.5369 31.7171 21.2278 31.0262C21.7808 30.473 22.126 29.7694 22.2259 29.0064C23.1158 29.005 23.9944 28.6734 24.66 28.0076C25.2447 27.4229 25.5882 26.6549 25.6504 25.8126C26.532 25.7667 27.3528 25.4034 27.9791 24.7772C28.7044 24.0518 29.0501 23.0887 29.0179 22.136C29.7264 22.0086 30.3777 21.6714 30.8958 21.1534C32.2847 19.7645 32.2847 17.5044 30.8958 16.1155ZM4.26392 19.6131C4.2588 19.6182 4.25343 19.6233 4.2483 19.6285C4.04957 19.8274 3.78272 19.9368 3.49708 19.9368C3.21143 19.9368 2.94459 19.8274 2.74586 19.6285C2.54688 19.4295 2.43751 19.1629 2.43751 18.8772C2.43751 18.5945 2.54468 18.3306 2.73951 18.1324L4.4839 16.448C4.48927 16.4429 4.49439 16.4378 4.49952 16.4327C4.6985 16.2339 4.96534 16.1243 5.25099 16.1243C5.53639 16.1243 5.80323 16.2339 6.00221 16.4327C6.20094 16.6316 6.31056 16.8985 6.31056 17.1841C6.31056 17.4214 6.23414 17.6453 6.09425 17.8287C6.06154 17.8587 6.02882 17.889 5.99708 17.9207L4.71485 19.1778L4.26392 19.6131ZM7.13576 23.2029C6.6985 23.6065 6.03956 23.6295 5.66261 23.2525C5.24952 22.8394 5.2483 22.1678 5.65895 21.7532L6.45949 20.9683L7.75417 19.7186C7.75954 19.7134 7.76466 19.7083 7.76979 19.7032C7.80348 19.6695 7.83547 19.6353 7.8672 19.6006C8.28346 19.2828 8.8821 19.3128 9.26247 19.6932C9.67409 20.1048 9.67653 20.7005 9.26906 21.1116L7.13576 23.2029ZM10.6829 26.2559C10.6814 26.2574 10.6797 26.2591 10.6782 26.2606C10.2537 26.6851 9.57131 26.6934 9.157 26.2791C8.74343 25.8655 8.75124 25.1846 9.17385 24.7598L11.0051 22.9476C11.0069 22.9461 11.0083 22.9444 11.0098 22.9429C11.2088 22.744 11.4756 22.6346 11.7613 22.6346C12.0467 22.6346 12.3135 22.744 12.5125 22.9429C12.9261 23.3565 12.9268 24.0291 12.5144 24.4437L10.6829 26.2559ZM15.1817 28.5277C15.1763 28.5328 15.1709 28.5382 15.1658 28.5438L14.4927 29.2413C14.0537 29.6734 13.3448 29.6712 12.9085 29.2349C12.6929 29.0194 12.5725 28.7303 12.5694 28.4212C12.5662 28.1185 12.6778 27.8387 12.8833 27.6329L13.6333 26.8829C13.8335 26.6827 14.0933 26.5836 14.3589 26.5836C14.6494 26.5836 14.9471 26.7022 15.1814 26.9366C15.6201 27.3753 15.6201 28.0889 15.1817 28.5277Z" fill="white"/>
</g>
<defs>
<clipPath id="clip0_5_1236">
<rect width="32" height="32" fill="white"/>
</clipPath>
</defs>
</svg>
