<svg width="32" height="32" viewBox="0 0 32 32" fill="none" xmlns="http://www.w3.org/2000/svg">
<g clip-path="url(#clip0_4_1234)">
<path d="M11.7499 7.49994C13.8176 7.49994 15.4998 5.8177 15.4998 3.74997C15.4998 1.68224 13.8176 0 11.7499 0C9.68213 0 7.9999 1.68224 7.9999 3.74997C7.9999 5.8177 9.68213 7.49994 11.7499 7.49994ZM11.7499 2.49998C12.4391 2.49998 12.9999 3.06073 12.9999 3.74997C12.9999 4.43922 12.4391 4.99996 11.7499 4.99996C11.0606 4.99996 10.4999 4.43922 10.4999 3.74997C10.4999 3.06073 11.0607 2.49998 11.7499 2.49998ZM25.7499 30.2053C26.0507 30.8268 25.7906 31.5743 25.1692 31.8749C24.9938 31.9598 24.8083 32 24.6256 32C24.1613 32 23.7154 31.7402 23.4996 31.2942L19.7583 23.5623H11.3749C9.30714 23.5623 7.6249 21.8801 7.6249 19.8123V12.4374C7.6249 10.3697 9.30714 8.68743 11.3749 8.68743C13.4426 8.68743 15.1248 10.3697 15.1248 12.4374V17.3124C15.1248 18.0027 14.5652 18.5624 13.8749 18.5624C13.1845 18.5624 12.6249 18.0027 12.6249 17.3124V12.4374C12.6249 11.7482 12.0641 11.1874 11.3749 11.1874C10.6856 11.1874 10.1249 11.7482 10.1249 12.4374V19.8123C10.1249 20.5016 10.6856 21.0623 11.3749 21.0623H20.542C21.0214 21.0623 21.4585 21.3364 21.6672 21.7679L25.7499 30.2053ZM20.3013 30.1826C20.6145 30.7979 20.3697 31.5505 19.7544 31.8637C19.5727 31.9562 19.3791 32 19.1883 32C18.733 32 18.2941 31.7504 18.0734 31.3168L16.6711 28.5623H11.3749C9.79876 28.5623 8.31864 28.1432 7.03997 27.4108L5.05142 31.3169C4.83073 31.7504 4.39174 32.0001 3.93649 32.0001C3.74568 32.0001 3.55212 31.9562 3.37037 31.8638C2.75519 31.5506 2.51031 30.7979 2.8235 30.1827L5.03561 25.8375C3.54256 24.2672 2.62494 22.145 2.62494 19.8123V9.93742C2.62494 9.24705 3.18456 8.68743 3.87493 8.68743C4.5653 8.68743 5.12492 9.24705 5.12492 9.93742V19.8123C5.12492 23.2586 7.92865 26.0623 11.3749 26.0623H17.4373C17.9075 26.0623 18.3379 26.3262 18.5513 26.7452L20.3013 30.1826ZM29.3106 10.2077L26.8106 17.7077C26.6405 18.218 26.1628 18.5624 25.6248 18.5624H18.6873C17.9969 18.5624 17.4373 18.0027 17.4373 17.3124C17.4373 16.622 17.9969 16.0624 18.6873 16.0624H24.7238L26.9389 9.41711C27.1572 8.76218 27.8649 8.40818 28.52 8.62656C29.175 8.84487 29.5289 9.5528 29.3106 10.2077Z" fill="white"/>
</g>
<defs>
<clipPath id="clip0_4_1234">
<rect width="32" height="32" fill="white"/>
</clipPath>
</defs>
</svg>
