<svg width="32" height="32" viewBox="0 0 32 32" fill="none" xmlns="http://www.w3.org/2000/svg">
<path d="M7.5 12.6875H5.03006C5.44731 7 10.2079 2.5 16 2.5C20.5834 2.5 24.7307 5.38687 26.3203 9.68369C26.5598 10.3311 27.2788 10.6618 27.9264 10.4224C28.5738 10.1828 28.9046 9.46381 28.6651 8.81631C27.7177 6.25531 26.0346 4.06381 23.7979 2.47869C21.5098 0.857125 18.8133 0 16 0C12.3941 0 9.00387 1.40425 6.45406 3.95406C3.9375 6.47062 2.53781 9.80587 2.50169 13.3592C1.00781 14.2248 0 15.8402 0 17.6875V21.9375C0 24.6945 2.243 26.9375 5 26.9375H7.5C8.19038 26.9375 8.75 26.3779 8.75 25.6875V13.9375C8.75 13.2471 8.19038 12.6875 7.5 12.6875ZM6.25 24.4375H5C3.6215 24.4375 2.5 23.316 2.5 21.9375V17.6875C2.5 16.309 3.6215 15.1875 5 15.1875H6.25V24.4375Z" fill="white"/>
<path d="M27 12.6875H24.5C23.8096 12.6875 23.25 13.2471 23.25 13.9375V22.5V25.6875V27C23.25 27.6892 22.6892 28.25 22 28.25H18.1875V28.2896C17.7611 27.5207 16.9415 27 16 27C14.6193 27 13.5 28.1193 13.5 29.5C13.5 30.8807 14.6193 32 16 32C16.9415 32 17.7611 31.4793 18.1875 30.7104V30.75H22C24.0677 30.75 25.75 29.0677 25.75 27V26.9375H27C29.757 26.9375 32 24.6945 32 21.9375V17.6875C32 14.9305 29.757 12.6875 27 12.6875ZM29.5 21.9375C29.5 23.316 28.3785 24.4375 27 24.4375H25.75V22.5V15.1875H27C28.3785 15.1875 29.5 16.309 29.5 17.6875V21.9375Z" fill="white"/>
</svg>
