<svg width="46" height="45" viewBox="0 0 46 45" fill="none" xmlns="http://www.w3.org/2000/svg">
<path d="M35.0709 1.62402L11.3325 3.75674L12.2778 14.0509L36.0162 11.9181L35.0709 1.62402Z" fill="#639CFF"/>
<path d="M45.4767 0.435059L0.434082 4.4818L0.52059 5.42384L45.5632 1.3771L45.4767 0.435059Z" fill="#639CFF"/>
<path d="M0.160279 5.85521L0 4.1219L45.8397 0L46 1.73331L0.160279 5.85521ZM0.870848 4.84058L0.884204 4.99383L45.1292 1.01462L45.1158 0.86137L0.870848 4.84058Z" fill="#639CFF"/>
<path d="M3.59289 13.2773L1.64551 17.246H5.54028L3.59289 13.2773Z" fill="#639CFF"/>
<path d="M5.96519 17.5104H1.21826L3.59306 12.6831L5.96519 17.5104ZM2.07041 16.982H5.11304L3.59306 13.8826L2.07041 16.982Z" fill="#639CFF"/>
<path d="M21.7506 23.1751C23.0708 23.0662 23.9755 21.015 23.7712 18.5937C23.567 16.1725 22.3311 14.298 21.0108 14.4069C19.6906 14.5159 18.7859 16.5671 18.9902 18.9883C19.1944 21.4096 20.4303 23.2841 21.7506 23.1751Z" fill="#639CFF"/>
<path d="M28.6264 22.1816C29.912 21.9823 30.6511 19.9087 30.2772 17.5501C29.9034 15.1916 28.5582 13.4412 27.2727 13.6405C25.9872 13.8399 25.2481 15.9135 25.6219 18.272C25.9957 20.6306 27.3409 22.3809 28.6264 22.1816Z" fill="#639CFF"/>
<path d="M22.0516 25.6111C22.2039 25.6111 23.9803 25.4526 25.917 25.265C26.6155 25.2196 27.3105 25.1313 27.998 25.0007C28.7593 24.8211 29.6275 24.6176 30.4235 23.9756C31.1688 23.3758 31.3799 22.776 31.5562 22.85C31.8233 22.9583 31.4787 24.2768 31.3104 24.8316C31.1421 25.3865 31.0433 25.7115 30.7574 26.0365C30.4009 26.416 29.9451 26.6904 29.4405 26.8292C28.98 26.985 28.4953 27.0592 28.0087 27.0485C27.3649 27.0485 26.9188 26.8979 26.0746 26.6125C23.4835 25.7406 20.3874 25.6296 22.0516 25.6111Z" fill="#639CFF"/>
<path d="M3.8145 4.93066H3.36572V12.1069H3.8145V4.93066Z" fill="#639CFF"/>
<path d="M4.08167 4.66602H3.09863V12.3708H4.08167V4.66602Z" fill="#639CFF"/>
<path d="M3.59279 13.9274C4.14751 13.9274 4.5972 13.4826 4.5972 12.9339C4.5972 12.3852 4.14751 11.9404 3.59279 11.9404C3.03807 11.9404 2.58838 12.3852 2.58838 12.9339C2.58838 13.4826 3.03807 13.9274 3.59279 13.9274Z" fill="#639CFF"/>
<path d="M3.59299 14.1912C3.34083 14.1917 3.0942 14.1181 2.88447 13.9796C2.67473 13.8411 2.51135 13.6441 2.41511 13.4136C2.31886 13.183 2.29409 12.9294 2.34394 12.6849C2.3938 12.4404 2.51602 12.2161 2.69508 12.0404C2.87415 11.8648 3.10196 11.7458 3.34956 11.6986C3.59716 11.6513 3.85338 11.678 4.08563 11.7751C4.31789 11.8723 4.51569 12.0355 4.65391 12.2442C4.79213 12.4528 4.86452 12.6973 4.86187 12.9467C4.85835 13.2776 4.72321 13.5937 4.4857 13.8266C4.2482 14.0596 3.92746 14.1906 3.59299 14.1912ZM3.59299 12.2043C3.44763 12.2038 3.30537 12.2458 3.18408 12.325C3.06279 12.4043 2.96789 12.5172 2.91131 12.6497C2.85473 12.7821 2.83899 12.9281 2.86607 13.0694C2.89315 13.2106 2.96184 13.3408 3.06351 13.4436C3.16518 13.5464 3.29529 13.6171 3.43749 13.6469C3.57969 13.6767 3.72763 13.6643 3.86271 13.6112C3.9978 13.5581 4.114 13.4667 4.19672 13.3485C4.27943 13.2303 4.32497 13.0905 4.32761 12.9467C4.32902 12.8502 4.3111 12.7543 4.27488 12.6646C4.23866 12.575 4.18486 12.4933 4.11657 12.4242C4.04828 12.3552 3.96687 12.3003 3.87701 12.2625C3.78715 12.2247 3.69062 12.205 3.59299 12.2043Z" fill="#639CFF"/>
<path d="M36.4047 44.9999L34.9008 44.5797C34.3665 44.4291 21.4747 40.7828 14.5373 34.3781C12.4297 32.4334 11.7405 30.8612 11.5348 29.8862C11.3142 29.9148 11.0921 29.9298 10.8696 29.9312L10.6853 29.9629C10.0202 30.0844 8.46011 30.3698 7.47974 29.3367C7.15285 28.9119 6.92551 28.4206 6.81417 27.8983C6.70283 27.376 6.71027 26.8357 6.83595 26.3166C7.0363 25.5662 7.62132 24.5648 9.28287 24.0548C9.46312 24 9.64699 23.9577 9.83316 23.928C9.88926 23.928 9.96673 23.9042 9.99077 23.8963L10.0228 23.8646C10.1644 23.7245 10.2045 23.3124 10.2419 22.9028C10.2419 22.879 10.2419 22.85 10.2419 22.8103C10.1137 20.1443 10.4556 15.1478 14.1767 11.594C17.23 8.68756 21.8514 7.45892 27.9206 7.96094C35.4991 8.58715 39.466 14.0513 38.7982 22.9477C38.781 23.1137 38.781 23.2811 38.7982 23.4471C40.8524 23.5581 42.6369 25.3125 42.6369 26.7023C42.6369 28.256 41.7687 29.9312 40.3689 29.9312H40.3315C39.6076 29.8968 38.8329 29.8651 38.2559 29.844C38.4616 31.1651 38.5658 33.3291 36.6959 36.1563C34.4573 39.5383 35.8678 43.4991 35.8811 43.5387L36.4047 44.9999ZM13.0521 29.1464C13.0521 29.1464 12.9185 30.7318 15.6299 33.226C21.0153 38.1961 30.4984 41.5385 33.9925 42.6535C33.6853 40.9519 33.5464 38.0217 35.3442 35.3028C37.142 32.584 36.7974 30.8295 36.5837 29.6432C36.5516 29.4608 36.5222 29.2997 36.5035 29.1517L36.4555 28.7871L36.7092 28.5229C36.9951 28.2164 36.9951 28.2137 40.3663 28.3722C40.5639 28.3511 41.0234 27.6483 41.0234 26.7288C41.0234 26.2717 39.9148 25.0536 38.5845 25.0536C38.4021 25.0578 38.2209 25.0237 38.0529 24.9536C37.8848 24.8834 37.7337 24.7788 37.6095 24.6467C37.2569 24.2715 37.1233 23.7034 37.1874 22.8552C37.5347 18.1943 36.7733 10.3046 27.7817 9.54893C22.1853 9.08918 17.9807 10.1619 15.2746 12.7434C12.021 15.8533 11.7138 20.3451 11.8286 22.7443C11.8346 22.8322 11.8346 22.9205 11.8286 23.0085C11.7699 23.677 11.7031 24.438 11.1421 24.9902C10.8634 25.2724 10.4942 25.4499 10.0976 25.4922C9.97736 25.5098 9.8586 25.5363 9.74234 25.5715C8.99972 25.7987 8.54559 26.166 8.39066 26.6654C8.26337 27.2057 8.3524 27.7738 8.63909 28.2507C9.02109 28.647 9.94536 28.4779 10.3888 28.396C10.5383 28.3643 10.6902 28.3449 10.8429 28.3379C11.1853 28.3263 11.5263 28.2901 11.8634 28.2296C12.1786 28.1767 12.6087 28.108 12.9078 28.5149L13.1269 28.8161L13.0468 29.1226L13.0521 29.1464Z" fill="#639CFF"/>
</svg>
