<svg width="20" height="20" viewBox="0 0 20 20" fill="none" xmlns="http://www.w3.org/2000/svg">
<path d="M15 9C15.5523 9 16 8.55228 16 8C16 7.44772 15.5523 7 15 7C14.4477 7 14 7.44772 14 8C14 8.55228 14.4477 9 15 9Z" fill="white"/>
<path d="M16.875 1.5625H15.8594V0.78125C15.8594 0.349766 15.5096 0 15.0781 0C14.6466 0 14.2969 0.349766 14.2969 0.78125V1.5625H10.7422V0.78125C10.7422 0.349766 10.3924 0 9.96094 0C9.52945 0 9.17969 0.349766 9.17969 0.78125V1.5625H5.66406V0.78125C5.66406 0.349766 5.3143 0 4.88281 0C4.45133 0 4.10156 0.349766 4.10156 0.78125V1.5625H3.125C1.40188 1.5625 0 2.96438 0 4.6875V16.875C0 18.5981 1.40188 20 3.125 20H9.10156C9.53305 20 9.88281 19.6502 9.88281 19.2188C9.88281 18.7873 9.53305 18.4375 9.10156 18.4375H3.125C2.26344 18.4375 1.5625 17.7366 1.5625 16.875V4.6875C1.5625 3.82594 2.26344 3.125 3.125 3.125H4.10156V3.90625C4.10156 4.33773 4.45133 4.6875 4.88281 4.6875C5.3143 4.6875 5.66406 4.33773 5.66406 3.90625V3.125H9.17969V3.90625C9.17969 4.33773 9.52945 4.6875 9.96094 4.6875C10.3924 4.6875 10.7422 4.33773 10.7422 3.90625V3.125H14.2969V3.90625C14.2969 4.33773 14.6466 4.6875 15.0781 4.6875C15.5096 4.6875 15.8594 4.33773 15.8594 3.90625V3.125H16.875C17.7366 3.125 18.4375 3.82594 18.4375 4.6875V9.14062C18.4375 9.57211 18.7873 9.92188 19.2188 9.92188C19.6502 9.92188 20 9.57211 20 9.14062V4.6875C20 2.96438 18.5981 1.5625 16.875 1.5625Z" fill="white"/>
<path d="M15.5 11C13.0187 11 11 13.0187 11 15.5C11 17.9813 13.0187 20 15.5 20C17.9813 20 20 17.9813 20 15.5C20 13.0187 17.9813 11 15.5 11ZM15.5 18.5124C13.839 18.5124 12.4876 17.1611 12.4876 15.5C12.4876 13.8389 13.839 12.4876 15.5 12.4876C17.161 12.4876 18.5124 13.8389 18.5124 15.5C18.5124 17.1611 17.161 18.5124 15.5 18.5124Z" fill="white"/>
<path d="M16.1304 14.5185H15.7391V13.7407C15.7391 13.3316 15.3498 13 14.8696 13C14.3893 13 14 13.3316 14 13.7407V15.2593C14 15.6684 14.3893 16 14.8696 16H16.1304C16.6107 16 17 15.6684 17 15.2593C17 14.8501 16.6107 14.5185 16.1304 14.5185Z" fill="white"/>
<path d="M12 9C12.5523 9 13 8.55228 13 8C13 7.44772 12.5523 7 12 7C11.4477 7 11 7.44772 11 8C11 8.55228 11.4477 9 12 9Z" fill="white"/>
<path d="M9 13C9.55228 13 10 12.5523 10 12C10 11.4477 9.55228 11 9 11C8.44772 11 8 11.4477 8 12C8 12.5523 8.44772 13 9 13Z" fill="white"/>
<path d="M5 9C5.55228 9 6 8.55228 6 8C6 7.44772 5.55228 7 5 7C4.44772 7 4 7.44772 4 8C4 8.55228 4.44772 9 5 9Z" fill="white"/>
<path d="M5 13C5.55228 13 6 12.5523 6 12C6 11.4477 5.55228 11 5 11C4.44772 11 4 11.4477 4 12C4 12.5523 4.44772 13 5 13Z" fill="white"/>
<path d="M5 16C5.55228 16 6 15.5523 6 15C6 14.4477 5.55228 14 5 14C4.44772 14 4 14.4477 4 15C4 15.5523 4.44772 16 5 16Z" fill="white"/>
<path d="M9 16C9.55228 16 10 15.5523 10 15C10 14.4477 9.55228 14 9 14C8.44772 14 8 14.4477 8 15C8 15.5523 8.44772 16 9 16Z" fill="white"/>
<path d="M9 9C9.55228 9 10 8.55228 10 8C10 7.44772 9.55228 7 9 7C8.44772 7 8 7.44772 8 8C8 8.55228 8.44772 9 9 9Z" fill="white"/>
</svg>
