<svg width="28" height="32" viewBox="0 0 28 32" fill="none" xmlns="http://www.w3.org/2000/svg">
<path d="M26.2188 16.9998C26.9091 16.9998 27.4688 16.4401 27.4688 15.7498V1.24976C27.4688 0.559381 26.9091 -0.000244141 26.2188 -0.000244141H4.28125C2.2135 -0.000244141 0.53125 1.68201 0.53125 3.74976V28.2498C0.53125 30.3175 2.2135 31.9998 4.28125 31.9998H26.2188C26.9091 31.9998 27.4688 31.4401 27.4688 30.7498C27.4688 30.0594 26.9091 29.4998 26.2188 29.4998H4.28125C3.592 29.4998 3.03125 28.939 3.03125 28.2498C3.03125 27.5605 3.592 26.9998 4.28125 26.9998H26.2188C26.9091 26.9998 27.4688 26.4401 27.4688 25.7498V21.9998C27.4688 21.3094 26.9091 20.7498 26.2188 20.7498C25.5284 20.7498 24.9688 21.3094 24.9688 21.9998V24.4998H8.03125V17.3105C8.03125 16.6201 7.47162 16.0605 6.78125 16.0605C6.09088 16.0605 5.53125 16.6201 5.53125 17.3105V24.4998H4.28125C3.84306 24.4998 3.4225 24.576 3.03125 24.7148V3.74976C3.03125 3.06051 3.592 2.49976 4.28125 2.49976H5.53125V12.3748C5.53125 12.8496 5.80038 13.2836 6.22581 13.4946C6.65125 13.7056 7.1595 13.6573 7.53763 13.3699L9.90625 11.5698L12.2749 13.3699C12.4966 13.5384 12.7631 13.6248 13.0314 13.6248C13.2206 13.6248 13.4107 13.5818 13.5867 13.4946C14.0121 13.2836 14.2812 12.8496 14.2812 12.3748V2.49976H24.9688V15.7498C24.9688 16.4401 25.5284 16.9998 26.2188 16.9998ZM11.7812 9.85476L10.6626 9.00457C10.2156 8.66482 9.59694 8.66482 9.14994 9.00457L8.03125 9.85476V2.49976H11.7812V9.85476Z" fill="white"/>
</svg>
