<svg width="32" height="32" viewBox="0 0 32 32" fill="none" xmlns="http://www.w3.org/2000/svg">
<path d="M30.75 29.5H27.875V25.6875C27.875 24.9971 27.3154 24.4375 26.625 24.4375H19.75V7.5H22V19.4375C22 20.1279 22.5596 20.6875 23.25 20.6875C23.9404 20.6875 24.5 20.1279 24.5 19.4375V12.285C24.8913 12.4237 25.3118 12.5 25.75 12.5C29.1963 12.5 32 9.69625 32 6.25C32 2.80375 29.1963 0 25.75 0H6.25C2.80369 0 0 2.80375 0 6.25C0 9.69625 2.80369 12.5 6.25 12.5C6.68819 12.5 7.10875 12.4237 7.5 12.285V24.4375H5.375C4.68463 24.4375 4.125 24.9971 4.125 25.6875V29.5H1.25C0.559625 29.5 0 30.0596 0 30.75C0 31.4404 0.559625 32 1.25 32H30.75C31.4404 32 32 31.4404 32 30.75C32 30.0596 31.4404 29.5 30.75 29.5ZM6.25 10C4.18225 10 2.5 8.31775 2.5 6.25C2.5 4.18225 4.18225 2.5 6.25 2.5H25.75C27.8177 2.5 29.5 4.18225 29.5 6.25C29.5 8.31775 27.8177 10 25.75 10C25.0608 10 24.5 9.43925 24.5 8.75C24.5 8.06075 25.0608 7.5 25.75 7.5C26.4404 7.5 27 6.94037 27 6.25C27 5.55963 26.4404 5 25.75 5H6.25C5.55963 5 5 5.55963 5 6.25C5 6.94037 5.55963 7.5 6.25 7.5C6.93925 7.5 7.5 8.06075 7.5 8.75C7.5 9.43925 6.93925 10 6.25 10ZM17.25 7.5V24.4375H14.75V7.5H17.25ZM12.25 7.5V24.4375H10V7.5H12.25ZM25.375 29.5H6.625V26.9375H25.375V29.5Z" fill="white"/>
</svg>
