<svg width="32" height="32" viewBox="0 0 32 32" fill="none" xmlns="http://www.w3.org/2000/svg">
<path d="M11.125 23.4375C11.8154 23.4375 12.375 22.8779 12.375 22.1875V13.375C12.375 12.6846 11.8154 12.125 11.125 12.125C10.4346 12.125 9.875 12.6846 9.875 13.375V22.1875C9.875 22.8779 10.4346 23.4375 11.125 23.4375Z" fill="white"/>
<path d="M25.125 10.25V19.6875C25.125 20.3779 25.6846 20.9375 26.375 20.9375C27.0654 20.9375 27.625 20.3779 27.625 19.6875V10.25C27.625 9.55963 27.0654 9 26.375 9C25.6846 9 25.125 9.55963 25.125 10.25Z" fill="white"/>
<path d="M30.75 20.875C31.4404 20.875 32 20.3154 32 19.625V1.25C32 0.559625 31.4404 0 30.75 0H21.9375C21.2471 0 20.6875 0.559625 20.6875 1.25V5H16.75V3.9375C16.75 3.24713 16.1904 2.6875 15.5 2.6875H7.9375V1.25C7.9375 0.559625 7.37787 0 6.6875 0H1.25C0.559625 0 0 0.559625 0 1.25V30.75C0 31.4404 0.559625 32 1.25 32H30.75C31.4404 32 32 31.4404 32 30.75V25.75C32 25.0596 31.4404 24.5 30.75 24.5H23.1875V2.5H29.5V19.625C29.5 20.3154 30.0596 20.875 30.75 20.875ZM5.4375 29.5H2.5V27H5.4375V29.5ZM5.4375 24.5H2.5V7.5H5.4375V24.5ZM5.4375 5H2.5V2.5H5.4375V5ZM14.25 29.5H7.9375V5.1875H14.25V29.5ZM20.6875 29.5H16.75V12.5H20.6875V29.5ZM20.6875 10H16.75V7.5H20.6875V10ZM29.5 27V29.5H23.1875V27H29.5Z" fill="white"/>
</svg>
