<svg width="32" height="32" viewBox="0 0 32 32" fill="none" xmlns="http://www.w3.org/2000/svg">
<path d="M30.7497 13.7499C31.4401 13.7499 31.9997 13.1903 31.9997 12.4999V7.49994C31.9997 4.74294 29.7567 2.5 26.9997 2.5H17.2498V1.25C17.2498 0.559625 16.6902 0 15.9998 0C15.3094 0 14.7498 0.559625 14.7498 1.25V2.5H4.99994C2.24294 2.5 0 4.74294 0 7.49994V18.7498C0 21.5068 2.243 23.7498 4.99994 23.7498H7.11369L4.29169 30.252C4.01687 30.8853 4.30744 31.6215 4.94069 31.8963C5.10281 31.9666 5.27163 31.9999 5.43775 31.9999C5.92056 31.9999 6.38056 31.7185 6.585 31.2473L9.83894 23.7498H22.6694L23.8215 26.3121H11.7499C11.0595 26.3121 10.4999 26.8717 10.4999 27.5621C10.4999 28.2524 11.0595 28.8121 11.7499 28.8121H24.9456L26.0472 31.2623C26.2554 31.7255 26.7109 32 27.1879 32C27.3593 32 27.5334 31.9646 27.6998 31.8897C28.3294 31.6067 28.6103 30.8668 28.3273 30.2371L25.4104 23.7498H26.9997C29.7567 23.7498 31.9996 21.5068 31.9996 18.7498C31.9996 18.0594 31.44 17.4998 30.7496 17.4998C30.0593 17.4998 29.4996 18.0594 29.4996 18.7498C29.4996 20.1283 28.3781 21.2498 26.9996 21.2498H4.99994C3.62144 21.2498 2.49994 20.1283 2.49994 18.7498V7.49994C2.49994 6.12144 3.62144 4.99994 4.99994 4.99994H26.9998C28.3783 4.99994 29.4998 6.12144 29.4998 7.49994V12.4999C29.4997 13.1903 30.0593 13.7499 30.7497 13.7499Z" fill="white"/>
<path d="M23.9284 7.80365L17.7468 13.9853L14.0995 10.3631C13.6135 9.88034 12.8294 9.87884 12.3416 10.3595L6.12287 16.4844C5.631 16.9688 5.625 17.7603 6.10943 18.2521C6.35406 18.5005 6.67693 18.625 7.00006 18.625C7.31675 18.625 7.63368 18.5053 7.87712 18.2655L13.215 13.0081L16.8691 16.6369C17.3576 17.1221 18.1467 17.1208 18.6337 16.6338L25.6961 9.57134C26.1842 9.08315 26.1842 8.29171 25.6961 7.80359C25.208 7.31546 24.4165 7.31546 23.9284 7.80365Z" fill="white"/>
</svg>
