<svg width="32" height="32" viewBox="0 0 32 32" fill="none" xmlns="http://www.w3.org/2000/svg">
<g clip-path="url(#clip0_737_505)">
<path d="M10.8839 16.7013L10.8813 16.7039C10.8039 16.7813 10.7573 16.8746 10.7253 16.9719C10.7226 16.9826 10.7119 16.9879 10.7093 16.9986L9.38792 21.7919C9.32392 22.0226 9.38925 22.2706 9.55859 22.4399C9.68525 22.5666 9.85592 22.6346 10.0306 22.6346C10.0893 22.6346 10.1493 22.6266 10.2079 22.6106L15.0013 21.2893C15.0119 21.2866 15.0173 21.2773 15.0279 21.2733C15.1253 21.2413 15.2186 21.1946 15.2959 21.1173L15.2986 21.1146L31.5253 4.88793C32.1573 4.25593 32.1573 3.22927 31.5253 2.59727L29.4013 0.473268C28.7693 -0.158732 27.7426 -0.158732 27.1106 0.473268L10.8839 16.7013ZM14.8239 19.7039L14.0306 18.9106L28.2559 4.6866L29.0493 5.47993L14.8239 19.7039ZM28.0546 1.41727C28.1666 1.30527 28.3479 1.30527 28.4599 1.41727L30.5839 3.54127C30.6946 3.65327 30.6946 3.8346 30.5839 3.9466L29.9933 4.53727L27.4653 2.00927L28.0546 1.41727ZM26.5213 2.9506L27.3146 3.74393L13.0879 17.9693L12.2946 17.1759L26.5213 2.9506ZM11.6919 18.4573L13.5439 20.3093L10.9866 21.0133L11.6919 18.4573Z" fill="white"/>
<path d="M2.424 32H25.576C26.9133 32 28 30.9133 28 29.576V13.8853C28 13.5173 27.7013 13.2187 27.3333 13.2187C26.9653 13.2187 26.6667 13.5173 26.6667 13.8853V29.576C26.6667 30.1773 26.1773 30.6667 25.576 30.6667H2.424C1.82267 30.6667 1.33333 30.1773 1.33333 29.576V6.424C1.33333 5.82267 1.82267 5.33333 2.424 5.33333H18.1147C18.4827 5.33333 18.7813 5.03467 18.7813 4.66667C18.7813 4.29867 18.4827 4 18.1147 4H2.424C1.08667 4 0 5.08667 0 6.424V29.576C0 30.9133 1.08667 32 2.424 32Z" fill="white"/>
</g>
<defs>
<clipPath id="clip0_737_505">
<rect width="32" height="32" fill="white"/>
</clipPath>
</defs>
</svg>
