<svg width="48" height="48" viewBox="0 0 48 48" fill="none" xmlns="http://www.w3.org/2000/svg">
<path d="M37.6407 27.5625C32.9882 27.5625 29.2032 31.3476 29.2032 36C29.2032 37.5757 29.6378 39.0516 30.3928 40.3148L25.9085 44.7991C25.1763 45.5313 25.1763 46.7185 25.9085 47.4508C26.2747 47.8168 26.7545 47.9999 27.2344 47.9999C27.7143 47.9999 28.1942 47.8168 28.5603 47.4508L32.9808 43.0303C34.317 43.9189 35.9192 44.4375 37.6407 44.4375C42.2931 44.4375 46.0782 40.6524 46.0782 36C46.0782 31.3476 42.2931 27.5625 37.6407 27.5625ZM37.6407 40.6875C35.056 40.6875 32.9532 38.5847 32.9532 36C32.9532 33.4153 35.056 31.3125 37.6407 31.3125C40.2254 31.3125 42.3282 33.4153 42.3282 36C42.3282 38.5847 40.2254 40.6875 37.6407 40.6875Z" fill="#639CFF"/>
<path d="M23.0156 36.75H13.1719V9.375C13.1719 8.33944 12.3324 7.5 11.2969 7.5C10.2613 7.5 9.42188 8.33944 9.42188 9.375V36.75H7.54688C6.88959 36.75 6.25875 36.8644 5.67188 37.0725V5.625C5.67188 4.59113 6.513 3.75 7.54688 3.75H38.5781V21.375C38.5781 22.4106 39.4176 23.25 40.4531 23.25C41.4887 23.25 42.3281 22.4106 42.3281 21.375V1.875C42.3281 0.839438 41.4887 0 40.4531 0H7.54688C4.44525 0 1.92188 2.52338 1.92188 5.625V42.375C1.92188 45.4766 4.44525 48 7.54688 48H18.8906C19.9262 48 20.7656 47.1606 20.7656 46.125C20.7656 45.0894 19.9262 44.25 18.8906 44.25H7.54688C6.513 44.25 5.67188 43.4089 5.67188 42.375C5.67188 41.3411 6.513 40.5 7.54688 40.5H23.0156C24.0512 40.5 24.8906 39.6606 24.8906 38.625C24.8906 37.5894 24.0512 36.75 23.0156 36.75Z" fill="#639CFF"/>
</svg>
