<svg width="32" height="32" viewBox="0 0 32 32" fill="none" xmlns="http://www.w3.org/2000/svg">
<path d="M26.4064 16.9133C26.1492 16.9133 25.9407 17.1218 25.9407 17.379C25.9407 17.705 25.6755 17.9703 25.3494 17.9703C25.0234 17.9703 24.7581 17.705 24.7581 17.379C24.7581 17.1217 24.5496 16.9133 24.2924 16.9133C24.0352 16.9133 23.8267 17.1218 23.8267 17.379C23.8267 18.2186 24.5099 18.9017 25.3494 18.9017C26.189 18.9017 26.8721 18.2185 26.8721 17.379C26.8721 17.1217 26.6636 16.9133 26.4064 16.9133Z" fill="white"/>
<path d="M30.7778 16.9894L29.467 16.5695C29.2991 16.5157 29.1668 16.3817 29.1131 16.211C28.8369 15.3327 28.42 14.5081 27.8741 13.7601C27.6252 13.4192 27.3486 13.0936 27.0463 12.7837C27.2397 11.9354 27.3448 10.9753 27.3312 10.1459C27.3117 8.95931 27.0746 8.26337 26.6063 8.01812C26.3541 7.88587 25.5866 7.48412 21.4324 9.38575C21.3341 9.43075 21.2422 9.48619 21.1571 9.54969C20.8771 9.47444 20.5908 9.40481 20.3028 9.34231C20.2681 9.33475 20.2324 9.32806 20.1974 9.32069C20.5341 8.58531 20.7306 7.78662 20.7676 6.96212C20.7791 6.70512 20.5801 6.4875 20.3231 6.47606C20.0668 6.46331 19.8485 6.66344 19.8371 6.92044C19.7764 8.27612 19.214 9.55169 18.2536 10.5121C17.6798 11.0859 17.0079 11.5027 16.2919 11.7652C15.0501 11.591 13.7852 11.591 12.5434 11.7652C11.8273 11.5027 11.1554 11.0859 10.5816 10.5121C9.557 9.4875 8.99269 8.12519 8.99269 6.67612C8.99269 5.227 9.557 3.86475 10.5816 2.84012C11.6062 1.81544 12.9686 1.25112 14.4176 1.25112C15.8666 1.25112 17.229 1.81544 18.2536 2.84012C18.6654 3.25187 19.0056 3.72175 19.2649 4.23656C19.3806 4.46631 19.6607 4.55881 19.8904 4.44306C20.1201 4.32744 20.2126 4.04737 20.0969 3.81769C19.7929 3.214 19.3944 2.66356 18.9123 2.18144C17.7117 0.980874 16.1155 0.319687 14.4177 0.319687C12.7199 0.319687 11.1236 0.980874 9.92306 2.18144C8.7225 3.38206 8.06131 4.97825 8.06131 6.67606C8.06131 8.37387 8.7225 9.97012 9.92306 11.1707C10.2694 11.517 10.6461 11.8148 11.0446 12.0643C11.0448 12.0643 11.0449 12.0642 11.045 12.0642C10.7554 12.1395 10.4681 12.224 10.1839 12.319C9.93994 12.4006 9.80831 12.6644 9.88988 12.9084C9.97138 13.1523 10.2353 13.2839 10.4792 13.2024C13.0189 12.3534 15.8164 12.3534 18.3562 13.2024C18.4052 13.2188 18.4549 13.2266 18.5039 13.2266C18.6987 13.2266 18.8803 13.1033 18.9455 12.9084C19.0271 12.6644 18.8954 12.4006 18.6515 12.319C18.3673 12.224 18.0799 12.1394 17.7904 12.0642C17.7905 12.0642 17.7906 12.0643 17.7908 12.0643C18.1893 11.8148 18.566 11.517 18.9123 11.1707C19.2187 10.8643 19.4891 10.5297 19.7239 10.1742C19.8523 10.1991 19.9797 10.2252 20.1053 10.2525C20.2726 10.2888 20.4391 10.3278 20.6041 10.3687C20.5989 10.389 20.5936 10.4092 20.5893 10.4297C20.3621 11.5076 20.3769 12.4608 20.6331 13.2629C20.8633 13.9838 21.2789 14.5679 21.8681 14.9989C22.5625 15.5069 23.4009 15.7264 24.1603 15.7264C24.7319 15.7264 25.2588 15.602 25.6458 15.3828C26.0836 15.1349 26.4503 14.6124 26.7406 13.8281C26.8748 13.9847 27.002 14.1451 27.1219 14.3094C27.6079 14.9752 27.979 15.7091 28.2248 16.4905C28.3691 16.9494 28.7273 17.3106 29.183 17.4566L30.4937 17.8765C30.8377 17.9867 31.0688 18.3033 31.0688 18.6644V20.8378C31.0688 21.1989 30.8377 21.5155 30.4937 21.6257L28.3819 22.3021C28.0441 22.4104 27.7581 22.6426 27.5768 22.956C26.7471 24.3899 25.4427 25.5764 23.6995 26.4827C23.4981 26.5876 23.3586 26.775 23.3166 26.9971L22.6402 30.5786C22.6216 30.6772 22.5351 30.7488 22.4347 30.7488H20.2355C20.1351 30.7488 20.0486 30.6772 20.0299 30.5786L19.6553 28.5993C19.5816 28.2098 19.2163 27.9511 18.8232 28.0107C17.8759 28.1539 16.8998 28.2265 15.9221 28.2265C15.1947 28.2265 14.4766 28.1859 13.7877 28.1059C13.4067 28.0621 13.0519 28.3217 12.9807 28.6979L12.6247 30.5786C12.606 30.6772 12.5196 30.7488 12.4191 30.7488H10.2199C10.1195 30.7488 10.0331 30.6772 10.0141 30.5771L9.36287 27.1944C9.32094 26.9765 9.18406 26.7912 8.98713 26.686C6.01563 25.0997 4.445 22.4494 4.445 19.0219C4.445 17.2902 4.82388 15.7589 5.57106 14.4704C6.26831 13.2679 7.28669 12.2737 8.59787 11.5153C8.8205 11.3865 8.89656 11.1016 8.76781 10.8789C8.63906 10.6563 8.35419 10.5804 8.1315 10.709C5.58906 12.1797 4.05562 14.4488 3.63344 17.3306V17.3306C3.58862 17.3265 3.54375 17.3226 3.49906 17.318C3.50719 17.0071 3.45094 16.6933 3.32844 16.3888C3.05825 15.7172 2.50325 15.2324 1.91444 15.1539C1.45044 15.0917 1.00888 15.2887 0.702438 15.6936C0.258125 16.2807 0.330563 16.7454 0.4695 17.0317C0.704063 17.5151 1.307 17.8569 2.30756 18.0719C2.28006 18.1131 2.24981 18.1544 2.21669 18.196C1.6255 18.9374 0.929 19.1014 0.47675 19.1168C0.212 19.1257 0 19.3383 0 19.6033V19.6055C0 19.8668 0.206187 20.0799 0.46725 20.0919C0.500687 20.0934 0.535625 20.0942 0.572 20.0942C1.14425 20.0942 2.06269 19.8832 2.94506 18.7768C3.08437 18.6021 3.19788 18.4179 3.28513 18.2275C3.373 18.2374 3.45744 18.2459 3.53831 18.2534C3.53831 18.2532 3.53831 18.2531 3.53837 18.2529C3.5225 18.5053 3.51369 18.7614 3.51369 19.0219C3.51369 20.9612 3.976 22.6902 4.88769 24.1613C5.72831 25.5176 6.93187 26.6281 8.46612 27.4632L9.09925 30.7517C9.20106 31.2897 9.67237 31.6802 10.2199 31.6802H12.4191C12.9667 31.6802 13.438 31.2897 13.5398 30.7517L13.8617 29.0512C14.5302 29.122 15.2223 29.1579 15.922 29.1579C16.882 29.1579 17.8409 29.091 18.7754 28.959L19.1147 30.7518C19.2166 31.2898 19.6879 31.6803 20.2354 31.6803H22.4346C22.9821 31.6803 23.4534 31.2897 23.5553 30.7516L24.2139 27.2646C26.0744 26.2808 27.4768 24.9884 28.3829 23.4224C28.4482 23.3096 28.5488 23.2268 28.666 23.1892L30.7778 22.5128C31.5088 22.2784 32 21.6054 32 20.8377V18.6642C32 17.8966 31.5088 17.2236 30.7778 16.9894ZM26.3299 11.4546C26.1506 12.9874 25.6698 14.2987 25.1867 14.5723C24.6376 14.8834 23.3698 14.9434 22.4179 14.2471C21.4649 13.55 21.1477 12.2964 21.5005 10.6217C21.5005 10.6217 21.5005 10.6217 21.5005 10.6217C21.5359 10.4535 21.6554 10.308 21.8201 10.2326C24.1516 9.16537 25.4958 8.81631 25.9952 8.81631C26.0706 8.81631 26.1267 8.82425 26.1641 8.83887C26.3141 8.99875 26.5108 9.90756 26.3299 11.4546ZM1.30756 16.6251C1.25937 16.5257 1.37313 16.351 1.44525 16.2556C1.55956 16.1046 1.66487 16.0737 1.74444 16.0737C1.76125 16.0737 1.77694 16.0751 1.79131 16.0771C2.00544 16.1056 2.30544 16.3413 2.46438 16.7363C2.50181 16.8293 2.55044 16.9834 2.56181 17.1755C1.91712 17.0419 1.41625 16.8494 1.30756 16.6251Z" fill="white"/>
<path d="M14.6535 9.03661C15.2274 9.03661 15.7271 8.8802 16.1526 8.56738C16.3298 8.4371 16.5786 8.42947 16.739 8.57991V8.57991C16.9016 8.73239 16.9132 8.99023 16.7397 9.13012C16.517 9.3096 16.2635 9.45432 15.9791 9.56427C15.5614 9.72574 15.1044 9.80648 14.6081 9.80648C14.0815 9.80648 13.5942 9.71421 13.1463 9.52967C12.6984 9.33937 12.3201 9.07409 12.0114 8.73385C11.7027 8.39361 11.4848 7.99859 11.3577 7.54877H10.4226C10.3674 7.54877 10.3226 7.504 10.3226 7.44877V7.16436C10.3226 7.10913 10.3674 7.06436 10.4226 7.06436H11.2669C11.2548 6.91443 11.2487 6.79621 11.2487 6.7097C11.2487 6.6232 11.2548 6.50498 11.2669 6.35505H10.4226C10.3674 6.35505 10.3226 6.31027 10.3226 6.25505V5.97063C10.3226 5.91541 10.3674 5.87063 10.4226 5.87063H11.3577C11.4848 5.42082 11.7027 5.0258 12.0114 4.68556C12.3201 4.34531 12.6984 4.08292 13.1463 3.89839C13.5942 3.70808 14.0815 3.61293 14.6081 3.61293C15.1105 3.61293 15.5675 3.69367 15.9791 3.85514C16.2618 3.96445 16.514 4.1068 16.7358 4.28219C16.9109 4.42072 16.9006 4.67933 16.7377 4.83207V4.83207C16.578 4.98182 16.3303 4.97413 16.1535 4.84505C15.7315 4.53688 15.2314 4.3828 14.6535 4.3828C14.1027 4.3828 13.6184 4.51832 13.2008 4.78936C12.7831 5.0604 12.4896 5.42082 12.3201 5.87063H15.0982C15.1535 5.87063 15.1982 5.91541 15.1982 5.97063V6.25505C15.1982 6.31027 15.1535 6.35505 15.0982 6.35505H12.193C12.1748 6.46462 12.1657 6.58283 12.1657 6.7097C12.1657 6.83081 12.1748 6.94903 12.193 7.06436H15.0982C15.1535 7.06436 15.1982 7.10913 15.1982 7.16436V7.44877C15.1982 7.504 15.1535 7.54877 15.0982 7.54877H12.3201C12.4896 7.99859 12.7831 8.35901 13.2008 8.63005C13.6184 8.90109 14.1027 9.03661 14.6535 9.03661Z" fill="white"/>
</svg>
