<svg width="32" height="32" viewBox="0 0 32 32" fill="none" xmlns="http://www.w3.org/2000/svg">
<g clip-path="url(#clip0_128_197)">
<path d="M30.6518 14.3655C30.6003 11.8716 29.9106 9.42741 28.6535 7.28034C29.6764 2.38715 24.5025 -1.59186 20.0466 0.633188C15.8461 -0.619194 10.9624 0.0467643 7.11012 3.02911C6.62141 3.40386 7.2119 4.13192 7.68036 3.77286C8.86345 2.86573 10.1741 2.16247 11.576 1.68245C13.0375 1.182 14.5681 0.935521 16.1264 0.948767C17.1006 0.957264 18.0688 1.06885 19.0124 1.28078C18.6443 1.56649 18.3099 1.89363 18.0162 2.25513C10.7269 1.00981 3.78801 6.64656 3.45544 13.9704C3.07113 13.9517 2.67508 13.9785 2.30352 14.0798C2.43292 10.9736 3.61707 7.96329 5.59901 5.74281C6.0025 5.29084 5.3033 4.6668 4.89988 5.11877C2.67283 7.61379 1.38546 11.0332 1.35504 14.5217C0.540317 15.0848 0.00550079 16.0253 0.00550079 17.0883V21.6163C0.00550079 23.6176 1.70954 24.7807 3.55578 24.7342C4.20905 26.6218 6.96298 26.2118 7.00984 24.1863V14.3575C7.03077 13.1058 5.66937 12.2163 4.53438 12.7335C5.48787 6.7499 11.2587 2.31074 17.4302 3.1184C16.1055 5.37993 16.5502 8.55659 18.4685 10.3795V11.6519C18.5311 12.0287 18.7481 12.1726 19.1195 12.0836L20.2601 11.6017C22.4116 12.6096 25.2147 12.0949 26.858 10.4837C27.1407 11.2143 27.3473 11.9678 27.4762 12.7382C26.3403 12.2126 24.9693 13.0994 24.9903 14.3574V24.1863C24.9768 25.5191 26.4636 26.3921 27.6168 25.7356C27.6144 26.1496 27.6069 26.5635 27.5906 26.9734C27.4791 28.3159 26.4439 29.4432 25.1237 29.6608C24.7043 29.7021 24.2259 29.7181 23.6408 29.7097C23.4311 28.9398 22.7257 28.3721 21.8903 28.3721H19.4021C16.9962 28.4714 16.9957 31.9005 19.4021 32H21.8902C22.7312 32 23.4403 31.4247 23.6448 30.647C24.1736 30.6541 24.7334 30.6727 25.2584 30.5884C27.0093 30.3082 28.408 28.8156 28.5501 27.0391C28.5506 27.0329 28.5498 27.0267 28.5501 27.0205C28.5827 26.2051 28.5581 25.3816 28.5501 24.5733C30.3612 24.6611 31.9945 23.3411 31.9945 21.4555V16.9275C31.9945 15.8673 31.4627 14.9291 30.6518 14.3655ZM0.942678 21.6163V17.0883C0.942678 15.7223 2.14495 14.8335 3.43601 14.9077V23.797C2.14427 23.8686 0.942678 22.9866 0.942678 21.6163ZM5.23945 13.5243C5.69892 13.5243 6.07266 13.8981 6.07266 14.3575V24.1863C6.02674 25.292 4.45172 25.2911 4.40624 24.1863V14.3575C4.40624 13.898 4.78005 13.5243 5.23945 13.5243ZM21.8902 31.0628H19.4021C18.9186 31.0628 18.5253 30.6695 18.5253 30.186C18.5253 29.7025 18.9186 29.3092 19.4021 29.3092H21.8902C23.0527 29.3571 23.0536 31.0146 21.8902 31.0628ZM29.6972 13.9192C29.3253 13.8176 28.9288 13.7909 28.5441 13.8096C28.4481 12.391 28.1157 11.0144 27.5539 9.71C27.832 9.34201 28.0691 8.94146 28.2583 8.5151C29.1028 10.194 29.5941 12.0362 29.6972 13.9192ZM22.7192 11.1849C21.9323 11.1849 21.1773 11.0109 20.4752 10.668C20.3466 10.6083 20.2173 10.6048 20.0872 10.6574L19.4057 10.9453V10.1788C19.4057 10.0478 19.3508 9.92268 19.2544 9.83396C15.8424 6.70279 18.0833 0.945705 22.7193 0.948267C29.5105 1.22923 29.5089 10.9047 22.7192 11.1849ZM31.0573 21.4555C31.0573 22.8363 29.8382 23.7147 28.5392 23.6362C28.5333 23.1326 28.53 22.629 28.5309 22.1254C28.5309 21.5196 27.5938 21.5196 27.5938 22.1254V24.1863C27.5938 24.6457 27.22 25.0195 26.7605 25.0195C26.3011 25.0195 25.9273 24.6457 25.9273 24.1863V14.3575C25.9718 13.2548 27.547 13.2497 27.5938 14.3575V19.6309C27.5938 20.2368 28.5309 20.2368 28.5309 19.6309V14.7468C29.8331 14.673 31.0573 15.5347 31.0573 16.9275V21.4555Z" fill="white"/>
<path d="M20.263 26.3976C20.6345 26.4866 20.8515 26.3428 20.914 25.9659V24.4359C25.4031 20.0712 22.2709 12.3579 15.9999 12.366C12.1202 12.3659 8.96362 15.5219 8.96362 19.4011C8.90414 24.4341 14.3313 27.9383 18.8894 25.8173L20.263 26.3976ZM18.6737 24.8833C14.7112 26.8786 9.84638 23.8424 9.90086 19.401C9.9008 16.0386 12.6369 13.3031 16 13.3031C21.5239 13.3006 24.1931 20.1596 20.1282 23.8896C20.0317 23.9783 19.9768 24.1034 19.9768 24.2345V25.2593L19.0617 24.8726C18.9369 24.8199 18.7954 24.8238 18.6737 24.8833Z" fill="white"/>
<path d="M14.7467 17.2414H17.2534C17.8592 17.2414 17.8592 16.3042 17.2534 16.3042H14.7467C14.1408 16.3042 14.1408 17.2414 14.7467 17.2414Z" fill="white"/>
<path d="M17.2534 21.5607H14.7467C14.1408 21.5607 14.1408 22.4978 14.7467 22.4978H17.2534C17.8592 22.4978 17.8592 21.5607 17.2534 21.5607Z" fill="white"/>
<path d="M18.5944 18.9324H13.4056C12.7997 18.9324 12.7997 19.8696 13.4056 19.8696H18.5944C19.2003 19.8696 19.2003 18.9324 18.5944 18.9324Z" fill="white"/>
<path d="M22.7603 2.49049C21.6534 2.46931 20.7177 3.38456 20.7177 4.49161C20.7177 5.09747 21.6549 5.09747 21.6549 4.49161C21.6549 3.91475 22.1627 3.41486 22.7414 3.42748C23.2962 3.43866 23.7534 3.88095 23.7821 4.43438C23.8134 5.03605 23.3225 5.556 22.7192 5.556C22.4605 5.556 22.2507 5.7658 22.2507 6.02459V7.62754C22.2507 7.88632 22.4605 8.09613 22.7192 8.09613C22.978 8.09613 23.1878 7.88632 23.1878 7.62754V6.43695C24.1135 6.21246 24.7674 5.33757 24.718 4.38578C24.664 3.34407 23.804 2.51155 22.7603 2.49049Z" fill="white"/>
<path d="M22.7192 8.76773C22.1162 8.76773 22.1152 9.70491 22.7192 9.70491C23.3222 9.70491 23.3232 8.76773 22.7192 8.76773Z" fill="white"/>
</g>
<defs>
<clipPath id="clip0_128_197">
<rect width="32" height="32" fill="white"/>
</clipPath>
</defs>
</svg>
