<svg width="32" height="32" viewBox="0 0 32 32" fill="none" xmlns="http://www.w3.org/2000/svg">
<g clip-path="url(#clip0_128_210)">
<path d="M8.73864 14.2568H17.953C18.2119 14.2568 18.4217 14.047 18.4217 13.7881C18.4217 13.5292 18.2119 13.3194 17.953 13.3194H8.73864C8.47977 13.3194 8.2699 13.5292 8.2699 13.7881C8.2699 14.047 8.47977 14.2568 8.73864 14.2568Z" fill="white"/>
<path d="M8.73864 16.5856H17.953C18.2119 16.5856 18.4217 16.3758 18.4217 16.1169C18.4217 15.858 18.2119 15.6482 17.953 15.6482H8.73864C8.47977 15.6482 8.2699 15.858 8.2699 16.1169C8.2699 16.3758 8.47977 16.5856 8.73864 16.5856Z" fill="white"/>
<path d="M8.73864 18.9144H14.3176C14.5764 18.9144 14.7863 18.7046 14.7863 18.4457C14.7863 18.1868 14.5764 17.977 14.3176 17.977H8.73864C8.47977 17.977 8.2699 18.1868 8.2699 18.4457C8.2699 18.7046 8.47977 18.9144 8.73864 18.9144Z" fill="white"/>
<path d="M17.6195 23.814C17.5011 23.7891 17.378 23.7008 17.3132 23.5944C17.2867 23.551 17.2587 23.4865 17.2754 23.4256C17.34 23.1903 17.2133 22.9448 16.9841 22.8611C16.7549 22.7776 16.4999 22.8837 16.3977 23.1053C16.3201 23.2737 16.2269 23.4617 16.1028 23.561C16.0319 23.6177 15.9503 23.6268 15.9315 23.6183C15.91 23.605 15.8456 23.4593 15.9496 23.0357C15.9905 22.869 15.937 22.6933 15.8102 22.5776C15.6885 22.4665 15.5178 22.4279 15.3607 22.4747C15.2082 22.5036 14.6294 22.5149 13.9937 22.5162C14.0712 22.1177 14.1351 21.7168 14.1851 21.3151C14.2171 21.0583 14.0348 20.8241 13.7779 20.7921C13.5207 20.7601 13.2868 20.9424 13.2548 21.1993C13.2001 21.6385 13.1279 22.0769 13.0387 22.5119C12.6107 22.5072 12.2485 22.4995 12.0869 22.4915C11.4974 22.4626 10.9223 22.4537 10.3703 22.6579C9.96385 22.8083 9.64048 23.1139 9.48317 23.4963C9.31868 23.896 9.33768 24.3236 9.53811 24.7329C9.8511 25.3721 10.5271 25.8064 11.0582 25.9531C11.2374 26.0027 11.4205 26.0268 11.6014 26.0268C12.1055 26.0268 12.5929 25.8403 12.9311 25.4993C13.272 25.1556 13.4281 24.7068 13.5478 24.3132C13.634 24.0294 13.7133 23.7429 13.7855 23.4545C14.199 23.4551 14.6175 23.4514 14.9573 23.4379C14.9592 23.8174 15.0747 24.1898 15.4372 24.4149C15.8042 24.6427 16.3013 24.5966 16.6783 24.3013C16.8772 24.5167 17.1428 24.6717 17.4262 24.7314C17.9171 24.8349 18.4589 24.7096 19.0368 24.359C19.2581 24.2247 19.3287 23.9364 19.1944 23.7151C19.0601 23.4938 18.7717 23.4233 18.5504 23.5575C18.1828 23.7804 17.8697 23.8666 17.6195 23.814ZM12.6508 24.0406C12.5598 24.3396 12.4552 24.6477 12.2654 24.8391C12.0442 25.0621 11.6593 25.1467 11.3081 25.0495C10.9316 24.9454 10.5326 24.632 10.3801 24.3206C10.2988 24.1545 10.289 24.0016 10.3502 23.8529C10.4082 23.712 10.5341 23.5968 10.6956 23.5371C10.956 23.4407 11.2548 23.4137 11.5717 23.4137C11.7247 23.4137 11.8819 23.42 12.041 23.4278C12.0505 23.4283 12.3717 23.4373 12.82 23.4448C12.7672 23.6446 12.7107 23.8433 12.6508 24.0406Z" fill="white"/>
<path d="M28.413 4.31577C28.3066 4.14659 28.2062 3.98672 28.1614 3.84854C28.1127 3.69866 28.0986 3.50292 28.0837 3.29561C28.0564 2.91725 28.0255 2.48838 27.7648 2.13027C27.502 1.76909 27.102 1.60734 26.7491 1.4646C26.5581 1.38741 26.3778 1.31448 26.2533 1.22385C26.1318 1.13548 26.0086 0.988109 25.8783 0.831988C25.6326 0.538058 25.3542 0.204816 24.9237 0.0650697C24.509 -0.0694269 24.0951 0.0325705 23.7298 0.122881C23.5246 0.173567 23.3306 0.221441 23.1672 0.221441C23.0038 0.221441 22.8099 0.173504 22.6046 0.122881C22.2394 0.032633 21.8256 -0.0695519 21.4108 0.0650697C20.9803 0.204816 20.7018 0.537995 20.4562 0.831988C20.3259 0.987984 20.2027 1.13536 20.0812 1.22379C19.9584 1.31323 19.7809 1.38547 19.5926 1.46166H4.43844C3.72784 1.46166 3.14979 2.03977 3.14979 2.75031V30.7114C3.14979 31.422 3.7279 32.0001 4.43844 32.0001H24.1968C24.9073 32.0001 25.4854 31.422 25.4854 30.7114V15.8328C25.5125 15.8353 25.5397 15.8366 25.5668 15.8366C25.7421 15.8366 25.916 15.7842 26.0646 15.6821C26.3035 15.5181 26.4462 15.247 26.4462 14.9571V9.60764C26.5386 9.5632 26.6419 9.52114 26.749 9.47789C27.1019 9.33515 27.502 9.17334 27.7649 8.81216C28.0255 8.45404 28.0564 8.02512 28.0837 7.64675C28.0986 7.43957 28.1127 7.24382 28.1614 7.09389C28.2062 6.95577 28.3066 6.7959 28.413 6.62672C28.6179 6.3006 28.8502 5.93098 28.8502 5.47125C28.8502 5.01151 28.6179 4.64189 28.413 4.31577ZM24.5479 30.7114C24.5479 30.9051 24.3904 31.0626 24.1968 31.0626H4.43844C4.24482 31.0626 4.08726 30.905 4.08726 30.7114V2.75031C4.08726 2.55663 4.24482 2.39914 4.43844 2.39914H18.4186C18.2946 2.69175 18.2715 3.00824 18.2508 3.29574C18.238 3.47373 18.2257 3.64304 18.1916 3.78235H8.50271C8.32109 3.78235 8.15035 3.8531 8.02198 3.9816C7.8936 4.11009 7.82298 4.28084 7.82304 4.46215C7.82304 5.27012 7.16544 5.92742 6.35714 5.92742C6.33133 5.92742 6.30565 5.92673 6.28083 5.92555C6.09453 5.91555 5.90991 5.98411 5.77503 6.11223C5.64091 6.2396 5.56404 6.41878 5.56404 6.60384V21.6311C5.56404 21.8901 5.77391 22.0999 6.03278 22.0999C6.29165 22.0999 6.50152 21.8901 6.50152 21.6311V6.86065C7.67399 6.7909 8.62277 5.87705 8.74677 4.71983H17.6849C17.5709 4.94388 17.4843 5.19075 17.4843 5.47125C17.4843 5.93098 17.7165 6.3006 17.9215 6.62659C18.0278 6.79584 18.1283 6.95571 18.1731 7.09389C18.2048 7.19133 18.2217 7.30839 18.2338 7.43513H8.98914C8.59259 7.43513 8.26997 7.75775 8.26997 8.1543V10.8131C8.26997 11.2097 8.59259 11.5323 8.98914 11.5323H19.8882V14.9573C19.8882 15.2471 20.0309 15.5182 20.2699 15.6822C20.5088 15.8463 20.813 15.882 21.0837 15.7779L22.1336 15.3734V26.6011C20.9611 26.6709 20.0124 27.5847 19.8883 28.742H8.74671C8.62284 27.5849 7.67392 26.6709 6.50145 26.6011V23.8171C6.50145 23.5582 6.29158 23.3484 6.03271 23.3484C5.77385 23.3484 5.56398 23.5582 5.56398 23.8171V26.8579C5.56398 27.0429 5.64085 27.2221 5.77497 27.3495C5.90997 27.4777 6.09415 27.5454 6.28002 27.5362C6.30558 27.5349 6.33127 27.5343 6.35708 27.5343C7.16537 27.5343 7.82298 28.1917 7.82298 28.9993C7.82292 29.1809 7.89354 29.3517 8.02191 29.4801C8.15035 29.6086 8.32103 29.6794 8.50265 29.6794H20.1324C20.314 29.6794 20.4848 29.6086 20.6132 29.4801C20.7415 29.3517 20.8122 29.181 20.8121 28.9996C20.8121 28.1917 21.4696 27.5344 22.278 27.5344C22.3038 27.5344 22.3295 27.5351 22.3543 27.5362C22.5414 27.5464 22.7252 27.4777 22.8602 27.3496C22.9943 27.2221 23.0712 27.043 23.0712 26.858V15.0123L23.1672 14.9753L24.5479 15.5071V30.7114ZM18.5696 8.81216C18.8325 9.17334 19.2325 9.33508 19.5854 9.47783C19.6926 9.52114 19.7959 9.5632 19.8883 9.60764V10.5947H9.20738V8.37255H18.3577C18.4028 8.52498 18.469 8.67391 18.5696 8.81216ZM25.5087 14.8726L23.4835 14.0925C23.3815 14.0532 23.2743 14.0335 23.1672 14.0335C23.0601 14.0335 22.953 14.0532 22.851 14.0924L20.8257 14.8726V10.5162C20.9888 10.6687 21.1773 10.8015 21.4107 10.8774C21.555 10.9242 21.6991 10.9424 21.8412 10.9424C22.1076 10.9424 22.3664 10.8784 22.6046 10.8195C22.8099 10.7689 23.0038 10.721 23.1672 10.721C23.3306 10.721 23.5245 10.7689 23.7298 10.8195C24.0949 10.9097 24.5088 11.0119 24.9237 10.8774C25.1572 10.8015 25.3457 10.6687 25.5087 10.5162V14.8726ZM27.6192 6.12792C27.4871 6.3381 27.3504 6.55553 27.2696 6.80434C27.1857 7.06277 27.1668 7.32539 27.1485 7.57938C27.1286 7.85693 27.1097 8.11918 27.0067 8.26049C26.9017 8.40486 26.6568 8.50392 26.3974 8.60873C26.1623 8.70379 25.9193 8.8021 25.7015 8.96053C25.4865 9.11703 25.3199 9.3164 25.1587 9.5092C24.9782 9.7252 24.8077 9.92919 24.634 9.98557C24.4739 10.0376 24.2214 9.97538 23.9544 9.90932C23.7155 9.85032 23.4446 9.78339 23.167 9.78339C22.8895 9.78339 22.6187 9.85026 22.3796 9.90932C22.1127 9.97538 21.8602 10.0377 21.7001 9.98557C21.5264 9.92919 21.3559 9.7252 21.1753 9.5092C21.0142 9.31633 20.8476 9.11696 20.6325 8.96047C20.4148 8.80204 20.1717 8.70373 19.9365 8.60867C19.6772 8.50379 19.4323 8.40473 19.3273 8.26049C19.2244 8.11911 19.2056 7.85693 19.1856 7.57938C19.1673 7.32539 19.1483 7.06271 19.0644 6.80434C18.9836 6.55553 18.847 6.33804 18.7148 6.12779C18.5639 5.88767 18.4214 5.66087 18.4214 5.47125C18.4214 5.28156 18.564 5.05469 18.7149 4.81451C18.847 4.60427 18.9836 4.3869 19.0644 4.13809C19.1483 3.87972 19.1673 3.61704 19.1856 3.36311C19.2055 3.08549 19.2244 2.82325 19.3274 2.68194C19.4324 2.53757 19.6774 2.43851 19.9367 2.3337C20.1718 2.23864 20.4148 2.14033 20.6326 1.9819C20.8476 1.8254 21.0142 1.62603 21.1754 1.43322C21.3559 1.21723 21.5263 1.01323 21.7001 0.95686C21.7418 0.943297 21.7898 0.937485 21.8426 0.937485C21.9926 0.937485 22.1821 0.984234 22.3796 1.03305C22.6186 1.09204 22.8895 1.15898 23.167 1.15898C23.4446 1.15898 23.7155 1.09211 23.9545 1.03298C24.2216 0.967047 24.4741 0.904861 24.634 0.956797C24.8077 1.01317 24.9782 1.21717 25.1587 1.43316C25.3198 1.62603 25.4865 1.8254 25.7015 1.9819C25.9193 2.14033 26.1624 2.23864 26.3975 2.3337C26.6568 2.43857 26.9017 2.53763 27.0067 2.68188C27.1096 2.82325 27.1285 3.08543 27.1485 3.36299C27.1668 3.61698 27.1857 3.87966 27.2696 4.13803C27.3504 4.38684 27.487 4.60427 27.6192 4.81451C27.7701 5.05469 27.9127 5.2815 27.9127 5.47118C27.9127 5.66087 27.7702 5.88773 27.6192 6.12792Z" fill="white"/>
<path d="M23.1672 1.88673C21.1907 1.88673 19.5827 3.49476 19.5827 5.47127C19.5827 7.44778 21.1907 9.0558 23.1672 9.0558C24.216 9.0558 25.209 8.5985 25.8916 7.80102C26.0599 7.6044 26.0369 7.30847 25.8403 7.1401C25.6437 6.97185 25.3477 6.99473 25.1794 7.19141C24.6752 7.78052 23.9418 8.11833 23.1673 8.11833C21.7077 8.11833 20.5202 6.93086 20.5202 5.47127C20.5202 4.01168 21.7077 2.82421 23.1673 2.82421C24.6269 2.82421 25.8144 4.01168 25.8144 5.47127C25.8144 5.7302 26.0242 5.94001 26.2831 5.94001C26.542 5.94001 26.7518 5.7302 26.7518 5.47127C26.7518 3.49476 25.1437 1.88673 23.1672 1.88673Z" fill="white"/>
</g>
<defs>
<clipPath id="clip0_128_210">
<rect width="32" height="32" fill="white"/>
</clipPath>
</defs>
</svg>
