<svg width="32" height="32" viewBox="0 0 32 32" fill="none" xmlns="http://www.w3.org/2000/svg">
<g clip-path="url(#clip0_128_224)">
<path d="M6.24869 2.80896H9.66444V1.79202C9.66444 1.36502 9.83806 0.977083 10.1198 0.695333C10.3997 0.415396 10.7876 0.240021 11.2164 0.240021C11.6434 0.240021 12.0314 0.415458 12.3113 0.695333C12.593 0.977083 12.7684 1.36502 12.7684 1.79202V2.80896H16.1824V1.79202C16.1824 1.36502 16.3578 0.977083 16.6377 0.695333C16.9194 0.415396 17.3074 0.240021 17.7343 0.240021C18.1613 0.240021 18.5493 0.415458 18.8311 0.695333C19.1127 0.977083 19.2864 1.36502 19.2864 1.79202V2.80896H22.7021V1.8044C22.7021 1.37746 22.8757 0.989396 23.1574 0.707708C23.4373 0.427833 23.8253 0.252458 24.2541 0.252458C24.6811 0.252458 25.0691 0.427833 25.349 0.707708C25.6308 0.989396 25.8061 1.37746 25.8061 1.8044V2.80896H26.3199C27.0446 2.80896 27.7018 3.10477 28.1784 3.57965C28.6549 4.05621 28.9508 4.71352 28.9508 5.43802V10.3226C28.9508 10.5813 28.74 10.7921 28.4813 10.7921C28.2226 10.7921 28.0118 10.5813 28.0118 10.3226V8.97077H15.5374C15.277 8.97077 15.0679 8.76171 15.0679 8.50308C15.0679 8.24265 15.277 8.03358 15.5374 8.03358H28.0118V5.43808C28.0118 4.97215 27.8223 4.55052 27.5157 4.24396C27.2074 3.93571 26.7857 3.74615 26.3198 3.74615H25.806V4.74896C25.806 5.1759 25.6306 5.5639 25.3489 5.84558C25.0689 6.12727 24.681 6.3009 24.254 6.3009C23.8252 6.3009 23.4372 6.12727 23.1572 5.84558C22.8756 5.5639 22.7019 5.1759 22.7019 4.74896V3.74615H19.2862V4.73652C19.2862 5.16352 19.1126 5.55146 18.8309 5.83321C18.5492 6.11315 18.1612 6.28852 17.7342 6.28852C17.3073 6.28852 16.9192 6.11308 16.6376 5.83321C16.3576 5.55146 16.1822 5.16352 16.1822 4.73652V3.74615H12.7683V4.73652C12.7683 5.16352 12.5929 5.55146 12.3112 5.83321C12.0312 6.11315 11.6432 6.28852 11.2163 6.28852C10.7876 6.28852 10.3996 6.11308 10.1196 5.83321C9.83794 5.55146 9.66431 5.16352 9.66431 4.73652V3.74615H6.24869V4.73652C6.24869 5.16352 6.07325 5.55146 5.79338 5.83321C5.51169 6.11315 5.12369 6.28852 4.69669 6.28852C4.26975 6.28852 3.88169 6.11308 3.6 5.83321C3.32006 5.55146 3.14469 5.16352 3.14469 4.73652V3.74615H2.62913C2.16494 3.74615 1.7415 3.93571 1.43506 4.24396C1.12856 4.55046 0.937187 4.97208 0.937187 5.43808V8.03365H13.4134C13.6721 8.03365 13.8829 8.24271 13.8829 8.50315C13.8829 8.76183 13.6721 8.97083 13.4134 8.97083H0.93725V22.8129C0.93725 23.0716 0.728188 23.2806 0.469563 23.2806C0.210875 23.2806 6.25e-05 23.0715 6.25e-05 22.8129V5.43808C0 4.71352 0.295875 4.05621 0.772438 3.57965C1.249 3.10477 1.90631 2.80896 2.62913 2.80896H3.14469V1.79202C3.14469 1.36502 3.31831 0.977083 3.6 0.695333C3.88169 0.415396 4.26975 0.240021 4.69669 0.240021C5.12369 0.240021 5.51162 0.415458 5.79338 0.695333C6.07331 0.977083 6.24869 1.36502 6.24869 1.79202V2.80896ZM24.9293 21.0288C24.9293 20.7701 25.1383 20.5611 25.3969 20.5611C25.6574 20.5611 25.8664 20.7702 25.8664 21.0288V25.1568C25.8664 25.2844 25.8168 25.3978 25.7336 25.4829L22.8687 28.8525C22.7022 29.051 22.4081 29.0758 22.2097 28.9075C22.0131 28.741 21.9882 28.4469 22.1548 28.2484L24.9293 24.9868V21.0288ZM22.0716 20.57C21.8607 20.7223 21.5684 20.6745 21.4178 20.4655C21.2654 20.2563 21.3115 19.9641 21.5223 19.8117C22.0751 19.4095 22.6934 19.0924 23.3596 18.8763C24.0028 18.6671 24.6884 18.5538 25.3971 18.5538C26.3272 18.5538 27.2113 18.7451 28.0121 19.0924V12.4451C28.0121 12.1864 28.2229 11.9773 28.4816 11.9773C28.7402 11.9773 28.9511 12.1865 28.9511 12.4451V19.5902C29.355 19.8489 29.7288 20.1501 30.0672 20.4885C31.2613 21.6826 32 23.3338 32 25.1568C32 26.9799 31.2612 28.6311 30.0671 29.8252C28.8712 31.0212 27.2218 31.7599 25.3969 31.7599C23.5739 31.7599 21.9244 31.0212 20.7286 29.8252C20.2751 29.3716 19.8871 28.8525 19.5806 28.2821H2.43781C1.76638 28.2821 1.15688 28.0093 0.71575 27.5681C0.274625 27.1252 0 26.5175 0 25.846V24.9354C0 24.6767 0.210875 24.4678 0.4695 24.4678C0.728125 24.4678 0.937187 24.6768 0.937187 24.9354V25.846C0.937187 26.257 1.10725 26.6326 1.37838 26.9037C1.65119 27.1765 2.02506 27.3449 2.43781 27.3449H19.166C18.9251 26.661 18.7939 25.9241 18.7939 25.1568C18.7939 24.4836 18.8968 23.8316 19.0863 23.2151C19.2829 22.5791 19.5718 21.9838 19.9367 21.447C20.0819 21.2326 20.3743 21.1776 20.5868 21.323C20.7994 21.4683 20.8543 21.7606 20.7091 21.9732C20.3955 22.4356 20.1475 22.9458 19.9791 23.4898C19.8197 24.0142 19.7329 24.5741 19.7329 25.1569C19.7329 26.7213 20.3671 28.1386 21.3911 29.1626C22.4169 30.1885 23.8325 30.8227 25.3969 30.8227C26.9613 30.8227 28.3786 30.1885 29.4044 29.1626C30.4285 28.1386 31.0627 26.7213 31.0627 25.1569C31.0627 23.5925 30.4285 22.1751 29.4044 21.1511C28.3786 20.1253 26.9613 19.4911 25.3969 19.4911C24.7858 19.4911 24.1976 19.5886 23.6483 19.7657C23.0778 19.9517 22.5463 20.2245 22.0716 20.57ZM20.0199 10.9604H25.5546C25.8133 10.9604 26.0242 11.1695 26.0242 11.4281V16.9628C26.0242 17.2233 25.8133 17.4323 25.5546 17.4323H20.0199C19.7612 17.4323 19.5504 17.2233 19.5504 16.9628V11.4281C19.5505 11.1695 19.7613 10.9604 20.0199 10.9604ZM25.0869 11.8976H20.4894V16.4951H25.0869V11.8976ZM11.7072 18.8834H17.2419C17.5024 18.8834 17.7114 19.0942 17.7114 19.3529V24.8876C17.7114 25.1463 17.5024 25.3571 17.2419 25.3571H11.7072C11.4485 25.3571 11.2395 25.1463 11.2395 24.8876V19.3529C11.2395 19.0942 11.4486 18.8834 11.7072 18.8834ZM16.7743 19.8223H12.1768V24.4199H16.7743V19.8223ZM11.7072 10.9604H17.2419C17.5024 10.9604 17.7114 11.1695 17.7114 11.4281V16.9628C17.7114 17.2233 17.5024 17.4323 17.2419 17.4323H11.7072C11.4485 17.4323 11.2395 17.2233 11.2395 16.9628V11.4281C11.2395 11.1695 11.4486 10.9604 11.7072 10.9604ZM16.7743 11.8976H12.1768V16.4951H16.7743V11.8976ZM3.3945 18.8834H8.93094C9.18962 18.8834 9.39869 19.0942 9.39869 19.3529V24.8876C9.39869 25.1463 9.18962 25.3571 8.93094 25.3571H3.3945C3.13581 25.3571 2.92681 25.1463 2.92681 24.8876V19.3529C2.92681 19.0942 3.13587 18.8834 3.3945 18.8834ZM8.4615 19.8223H3.864V24.4199H8.4615V19.8223ZM3.3945 10.9604H8.93094C9.18962 10.9604 9.39869 11.1695 9.39869 11.4281V16.9628C9.39869 17.2233 9.18962 17.4323 8.93094 17.4323H3.3945C3.13581 17.4323 2.92681 17.2233 2.92681 16.9628V11.4281C2.92681 11.1695 3.13587 10.9604 3.3945 10.9604ZM8.4615 11.8976H3.864V16.4951H8.4615V11.8976ZM24.2542 1.1914C24.0859 1.1914 23.9318 1.26046 23.8201 1.37208C23.7086 1.48371 23.6394 1.63615 23.6394 1.8044V3.27671V4.74902C23.6394 4.91727 23.7085 5.0714 23.8201 5.18302C23.9318 5.29465 24.0859 5.36377 24.2542 5.36377C24.4225 5.36377 24.5749 5.29471 24.6865 5.18302C24.7981 5.0714 24.8673 4.91727 24.8673 4.74902V3.27671V1.8044C24.8673 1.63615 24.7982 1.48371 24.6865 1.37208C24.5749 1.26052 24.4226 1.1914 24.2542 1.1914ZM5.13081 1.35796C5.01919 1.2464 4.86506 1.17727 4.69675 1.17727C4.5285 1.17727 4.37431 1.24633 4.26269 1.35796C4.15106 1.46958 4.082 1.62371 4.082 1.79202V3.27671V4.73658C4.082 4.9049 4.15106 5.05902 4.26269 5.17065C4.37431 5.28221 4.5285 5.35133 4.69675 5.35133C4.86506 5.35133 5.01919 5.28227 5.13081 5.17065C5.24244 5.05902 5.3115 4.9049 5.3115 4.73658V3.27671V1.79202C5.3115 1.62365 5.24238 1.46958 5.13081 1.35796ZM11.2165 1.17727C11.0464 1.17727 10.8941 1.24633 10.7824 1.35796C10.6708 1.46958 10.6018 1.62371 10.6018 1.79202V3.27671V4.73658C10.6018 4.9049 10.6708 5.05902 10.7824 5.17065C10.8941 5.28221 11.0464 5.35133 11.2165 5.35133C11.3848 5.35133 11.5371 5.28227 11.6488 5.17065C11.7604 5.05902 11.8295 4.9049 11.8295 4.73658V3.27671V1.79202C11.8295 1.62371 11.7604 1.46958 11.6488 1.35796C11.5371 1.24633 11.3848 1.17727 11.2165 1.17727ZM17.7344 1.17727C17.5662 1.17727 17.412 1.24633 17.3004 1.35796C17.1888 1.46958 17.1197 1.62371 17.1197 1.79202V3.27671V4.73658C17.1197 4.9049 17.1888 5.05902 17.3004 5.17065C17.412 5.28221 17.5662 5.35133 17.7344 5.35133C17.9028 5.35133 18.0569 5.28227 18.1685 5.17065C18.2801 5.05902 18.3493 4.9049 18.3493 4.73658V3.27671V1.79202C18.3493 1.62371 18.2802 1.46958 18.1685 1.35796C18.0569 1.24633 17.9028 1.17727 17.7344 1.17727Z" fill="white"/>
</g>
<defs>
<clipPath id="clip0_128_224">
<rect width="32" height="32" fill="white"/>
</clipPath>
</defs>
</svg>
