<svg width="40" height="48" viewBox="0 0 40 48" fill="none" xmlns="http://www.w3.org/2000/svg">
<path d="M31.9023 30.375C31.9023 31.4106 31.0629 32.25 30.0273 32.25H27.9648C25.4771 32.151 25.479 28.5982 27.9648 28.5H30.0273C31.0629 28.5 31.9023 29.3394 31.9023 30.375ZM35.6523 31.125V15.75H4.34735V40.5C4.34735 42.5677 6.0296 44.25 8.09735 44.25H31.9023C33.9701 44.25 35.6523 42.5677 35.6523 40.5C35.6523 39.4644 36.4918 38.625 37.5273 38.625C38.5629 38.625 39.4023 39.4644 39.4023 40.5C39.4023 44.6355 36.0378 48 31.9023 48H8.09735C3.96185 48 0.597351 44.6355 0.597351 40.5V7.5C0.597351 3.3645 3.96185 0 8.09735 0H31.9023C36.0378 0 39.4023 3.3645 39.4023 7.5V31.125C39.3033 33.6128 35.7505 33.6109 35.6523 31.125ZM35.6523 12V7.5C35.6523 5.43225 33.9701 3.75 31.9023 3.75H8.09735C6.0296 3.75 4.34735 5.43225 4.34735 7.5V12H35.6523ZM30.0273 21.375H27.9648C25.4771 21.474 25.479 25.0268 27.9648 25.125H30.0273C32.5151 25.026 32.5132 21.4732 30.0273 21.375ZM30.0273 35.625H27.9648C25.4771 35.724 25.479 39.2768 27.9648 39.375H30.0273C32.5151 39.276 32.5132 35.7232 30.0273 35.625ZM21.0273 28.5H18.9649C16.4771 28.599 16.479 32.1518 18.9649 32.25H21.0273C23.5151 32.151 23.5132 28.5982 21.0273 28.5ZM21.0273 21.375H18.9649C16.4771 21.474 16.479 25.0268 18.9649 25.125H21.0273C23.5151 25.026 23.5132 21.4732 21.0273 21.375ZM9.97235 25.125H12.0348C14.5226 25.026 14.5207 21.4732 12.0348 21.375H9.97235C7.4846 21.474 7.48647 25.0268 9.97235 25.125ZM10.0586 39.375H20.8398C23.3276 39.276 23.3257 35.7232 20.8398 35.625H10.0586C7.57085 35.724 7.57273 39.2768 10.0586 39.375ZM9.97235 32.25H12.0348C14.5226 32.151 14.5207 28.5982 12.0348 28.5H9.97235C7.4846 28.599 7.48647 32.1518 9.97235 32.25Z" fill="#639CFF"/>
</svg>
