<svg width="48" height="48" viewBox="0 0 48 48" fill="none" xmlns="http://www.w3.org/2000/svg">
<path d="M30.6458 21.3755H17.3438C14.856 21.2765 14.8579 17.7236 17.3438 17.6255H30.6458C33.1336 17.7246 33.1317 21.2774 30.6458 21.3755ZM46.125 25.5106C47.1606 25.5106 48 24.6712 48 23.6356V14.2606C48 10.1251 44.6355 6.76061 40.5 6.76061H40.0887C39.716 2.97105 36.5108 0.000488281 32.625 0.000488281H15.375C11.4892 0.000488281 8.28403 2.97105 7.91128 6.76052H7.5C3.3645 6.76052 0 10.125 0 14.2605V33.0105C0 37.146 3.3645 40.5105 7.5 40.5105H22.125V44.2491H15.5625C13.0747 44.3481 13.0766 47.9009 15.5625 47.9991H32.4375C34.9253 47.9001 34.9234 44.3472 32.4375 44.2491H25.875V40.5105H40.5C44.6355 40.5105 48 37.146 48 33.0105C48 31.975 47.1606 31.1355 46.125 31.1355C45.0894 31.1355 44.25 31.975 44.25 33.0105C44.25 35.0783 42.5677 36.7605 40.5 36.7605H7.5C5.43225 36.7605 3.75 35.0783 3.75 33.0105V14.2605C3.75 12.1928 5.43225 10.5105 7.5 10.5105H7.875V31.1241C7.974 33.6118 11.5268 33.61 11.625 31.1241V7.50049C11.625 5.43274 13.3073 3.75049 15.375 3.75049H32.625C34.6927 3.75049 36.375 5.43274 36.375 7.50049V31.1241C36.474 33.6118 40.0268 33.61 40.125 31.1241V10.5106H40.5C42.5677 10.5106 44.25 12.1929 44.25 14.2606V23.6356C44.25 24.6712 45.0894 25.5106 46.125 25.5106ZM17.3438 25.1255C14.856 25.2245 14.8579 28.7773 17.3438 28.8755H23.0625C25.5502 28.7765 25.5484 25.2236 23.0625 25.1255H17.3438ZM30.6458 10.1255H17.3438C14.856 10.2245 14.8579 13.7773 17.3438 13.8755H30.6458C33.1336 13.7765 33.1317 10.2236 30.6458 10.1255Z" fill="#639CFF"/>
</svg>
