<svg width="14" height="14" viewBox="0 0 14 14" fill="none" xmlns="http://www.w3.org/2000/svg">
<g clip-path="url(#clip0_128_741)">
<path d="M12.9115 7.84136C12.9475 7.57603 12.9675 7.3067 12.9675 7.03203C12.9675 3.73606 10.2808 1.06406 6.96747 1.06406C6.63814 1.06406 6.31547 1.09072 6.00081 1.14272C5.43814 0.774725 4.76747 0.560059 4.04614 0.560059C2.06747 0.560059 0.466141 2.16406 0.466141 4.14139C0.466141 4.86139 0.678141 5.52939 1.04214 6.09072C0.992807 6.39739 0.967474 6.71206 0.967474 7.03203C0.967474 10.3294 3.65281 13.0014 6.96747 13.0014C7.34213 13.0014 7.70613 12.9654 8.05946 12.9014C8.6088 13.2427 9.25679 13.4414 9.95146 13.4414C11.9301 13.44 13.5328 11.836 13.5328 9.8587C13.5328 9.1107 13.3035 8.41603 12.9115 7.84136ZM7.52879 11.4307C5.62214 11.5307 4.73014 11.108 3.91281 10.3414C2.99947 9.48536 3.36614 8.50803 4.11014 8.45736C4.85281 8.40803 5.29948 9.30003 5.69681 9.54803C6.09281 9.7947 7.60079 10.3587 8.39679 9.44803C9.26346 8.45736 7.8208 7.94403 6.76214 7.78936C5.25147 7.56536 3.34347 6.74806 3.49147 5.13739C3.63947 3.52806 4.85947 2.70272 6.14214 2.58672C7.77679 2.43872 8.84213 2.83472 9.68346 3.55339C10.6568 4.38406 10.1301 5.31206 9.51013 5.38672C8.89279 5.46139 8.19813 4.02139 6.83547 4.00006C5.43147 3.97739 4.48214 5.46139 6.21548 5.88272C7.95013 6.30406 9.80746 6.47739 10.4768 8.0627C11.1461 9.6467 9.4368 11.3307 7.52879 11.4307Z" fill="white"/>
</g>
<defs>
<clipPath id="clip0_128_741">
<rect width="13.3333" height="13.3333" fill="white" transform="translate(0.333328 0.333496)"/>
</clipPath>
</defs>
</svg>
