<svg width="16" height="17" viewBox="0 0 16 17" fill="none" xmlns="http://www.w3.org/2000/svg">
<g clip-path="url(#clip0_128_753)">
<path d="M15.9581 7.03904C15.8528 6.71506 15.5654 6.48568 15.2268 6.45504L10.608 6.03572L8.78269 1.76222C8.64792 1.44825 8.34127 1.24561 7.99996 1.24561C7.65865 1.24561 7.35188 1.44825 7.21796 1.76222L5.39262 6.03572L0.773155 6.45504C0.434526 6.48629 0.147778 6.71567 0.0418195 7.03904C-0.063529 7.36302 0.0337627 7.71837 0.28987 7.94298L3.78126 11.0044L2.75183 15.5384C2.67651 15.8718 2.8059 16.2166 3.08252 16.4165C3.2312 16.5245 3.40589 16.5785 3.58119 16.5785C3.73182 16.5785 3.88258 16.5385 4.01723 16.4579L7.99996 14.0765L11.982 16.4579C12.2741 16.6325 12.6414 16.6165 12.9174 16.4165C13.194 16.2166 13.3234 15.8718 13.2481 15.5384L12.2187 11.0044L15.71 7.94298C15.966 7.71837 16.0634 7.36375 15.9581 7.03904Z" fill="#48525E"/>
</g>
<defs>
<clipPath id="clip0_128_753">
<rect width="16" height="16" fill="white" transform="translate(0 0.902344)"/>
</clipPath>
</defs>
</svg>
