<svg width="1735" height="789" viewBox="0 0 1735 789" fill="none" xmlns="http://www.w3.org/2000/svg">
<path d="M140.912 379.223H322.744C323.945 379.104 325.155 379.104 326.355 379.223C327.64 379.038 330.55 374.583 330.55 368.784C330.55 365.859 323.446 358.11 314.903 358.11C313.739 358.137 312.582 357.923 311.507 357.479C310.433 357.036 309.468 356.374 308.672 355.538C306.413 353.135 305.557 349.52 305.951 344.141C307.475 323.97 305.677 294.15 286.042 275.744L159.058 287.09C144.233 306.135 142.813 330.039 143.462 343.536C143.512 344.095 143.512 344.658 143.462 345.217C143.087 349.469 142.676 354.311 139.063 357.841C137.28 359.628 134.921 360.751 132.387 361.018C131.616 361.13 130.855 361.299 130.111 361.522C125.352 362.968 122.442 365.322 121.431 368.481C120.628 371.921 121.204 375.534 123.041 378.567C124.941 380.534 128.947 380.248 131.976 379.879L131.616 379.122H139.132C139.728 379.06 140.328 379.095 140.912 379.223ZM269.882 344.192C271.594 344.881 269.386 353.269 268.29 356.799C267.194 360.328 266.579 362.397 264.764 364.464C262.479 366.878 259.558 368.624 256.324 369.507C253.368 370.497 250.256 370.97 247.132 370.902C243.024 370.902 240.165 369.944 234.755 368.128C218.151 362.582 198.31 361.875 208.958 361.758C209.951 361.758 221.334 360.732 233.728 359.539C238.211 359.25 242.669 358.688 247.081 357.858C251.959 356.732 257.506 355.421 262.624 351.336C267.383 347.536 268.769 343.721 269.882 344.192ZM242.493 285.628C250.727 284.35 259.338 295.495 261.734 310.505C264.131 325.517 259.389 338.695 251.155 339.972C242.921 341.25 234.293 330.105 231.896 315.095C229.5 300.084 234.173 286.888 242.425 285.628H242.493ZM202.367 290.503C210.824 289.813 218.75 301.732 220.05 317.145C221.351 332.56 215.565 345.586 207.11 346.293C198.653 346.999 190.743 335.048 189.426 319.65C188.108 304.253 193.842 291.192 202.298 290.503H202.367Z" fill="#639CFF"/>
<path d="M560.668 525.595C567.327 525.595 570.339 521.326 570.339 511.745V437.127C570.339 428.016 567.772 423.36 560.599 423.36C554.505 423.36 551.15 427.68 551.15 437.345V511.896C551.219 520.888 554.283 525.595 560.668 525.595Z" fill="#639CFF"/>
<path d="M230.191 583.152V579.084L136.639 389.423L136.126 389.525C133.611 390.022 131.055 390.292 128.49 390.331C126.107 390.456 123.723 390.093 121.489 389.266C119.255 388.438 117.221 387.163 115.514 385.523C113.429 382.821 111.978 379.697 111.268 376.378C110.558 373.059 110.605 369.626 111.406 366.327C112.673 361.537 116.439 355.166 127.069 351.922C128.231 351.575 129.415 351.306 130.614 351.115C130.973 351.115 131.47 350.964 131.607 350.913L131.829 350.729C132.735 349.837 132.992 347.215 133.215 344.609C133.215 344.475 133.215 344.273 133.215 344.021C132.564 330.574 133.814 307.73 146.294 287.592L140.936 229.65L93.8429 233.853V273.775C95.2284 274.343 96.4261 275.278 97.303 276.473C98.1799 277.671 98.7014 279.083 98.8096 280.553C98.9179 282.024 98.6085 283.494 97.9161 284.802C97.2236 286.111 96.175 287.204 94.8872 287.962L105.894 310.252H75.4579L86.4821 287.962C85.1936 287.206 84.1442 286.113 83.4503 284.806C82.7564 283.499 82.4455 282.028 82.5519 280.558C82.6584 279.087 83.1781 277.675 84.0532 276.478C84.9285 275.28 86.1247 274.344 87.5092 273.775V234.407L68.6789 236.088L67.669 225.061L361.421 198.838L362.447 209.865L293.049 216.052L298.39 273.994C312.205 290.416 318.488 314.488 316.193 344.879C316.083 345.935 316.083 347 316.193 348.056C329.358 348.762 340.793 359.923 340.793 368.782C340.793 378.564 335.315 389.104 326.481 389.289L233.392 578.109H757.403C787.77 521.506 803.595 458.477 803.502 394.5C803.502 176.617 623.623 0 401.752 0C179.88 0 0 176.617 0 394.5C0 612.383 179.862 789 401.752 789C473.992 789.024 544.901 769.916 607.01 733.689C669.119 697.461 720.128 645.457 754.664 583.152H230.191ZM689.58 401.493H761.477V426.303H739.719V547.332H711.2V426.303H689.58V401.493ZM610.578 502.35H638.515V512.435C638.515 522.033 640.947 526.487 647.452 526.487C653.957 526.487 655.582 519.881 655.582 513.039C655.582 499.274 652.947 495.289 637.78 482.783C621.055 468.864 612.462 460.628 612.462 439.078C612.462 418.251 619.481 399.055 647.606 399.055C677.477 399.055 681.842 419.058 681.842 435.75V444.155H654.95V435.414C654.95 426.573 653.477 422.202 647.828 422.202C642.556 422.202 640.861 426.656 640.861 434.91C640.861 443.684 642.487 448.021 654.761 457.434C676.604 474.244 684.445 483.742 684.445 507.762C684.445 530.589 676.484 549.399 646.989 549.399C618.659 549.399 610.578 532.59 610.578 511.023V502.35ZM522.247 439.718C522.247 411.562 538.013 399.273 560.884 399.273C583.754 399.273 599.383 411.36 599.383 440.474V508.132C599.383 537.061 585.517 549.466 559.549 549.466C534.915 549.466 522.247 536.758 522.247 508.417V439.718ZM430.904 401.459H459.492V457.586H478.117V401.493H506.876V547.315H478.117V482.43H459.492V547.315H430.904V401.459ZM413.392 438.439V444.996H384.633V437.045C384.633 429.985 383.76 423.429 375.834 423.429C369.295 423.429 366.882 428.135 366.882 437.634V512.384C366.882 522.319 370.134 525.95 375.834 525.95C382.784 525.95 385.147 520.637 385.147 508.653V487.674H375.32V463.94H413.82V547.315H392.353C391.658 543.752 391.212 540.146 391.018 536.522C386.31 546.76 376.776 549.499 367.6 549.499C344.49 549.499 337.986 532.69 337.986 508.787V440.188C337.986 417.815 347.418 399.307 375.748 399.307C409.951 399.307 413.392 423.748 413.392 438.456V438.439Z" fill="#639CFF"/>
<path d="M236.673 389.305C236.673 416.654 236.673 446.944 236.673 477.269V494.532H263.189L315.075 389.305H236.673Z" fill="#639CFF"/>
<path d="M226.411 494.532V477.269C226.411 447.012 226.411 416.654 226.411 389.305H148.009L199.894 494.532H226.411Z" fill="#639CFF"/>
<path d="M1734.67 583.151H754.67L757.512 578.109H1734.67V583.151Z" fill="#639CFF"/>
<path d="M848.551 547.32L831.741 401.498H861.818C863.923 427.586 866.954 476.99 867.639 500.001H868.632C871.627 471.425 875.187 431.755 878.337 401.498H902.919C905.966 430.075 909.373 469.173 912.163 499.513H913.31C914.628 472.316 917.333 425.552 919.284 401.498H947.478L928.648 547.32H899.118C896.209 521.736 892.478 493.529 889.841 463.391H888.848C885.99 493.059 881.538 520.963 878.406 547.32H848.551Z" fill="#639CFF"/>
<path d="M987.403 483.932V547.32H958.884V401.498H995.944C1020.83 401.498 1033.13 412.24 1033.13 437.739V442.984C1033.13 463.76 1024.69 469.878 1018.32 472.905C1027.55 477.275 1031.89 483.949 1031.89 504.288C1031.89 518.374 1031.67 539.588 1032.9 547.32H1005.27C1003.43 540.731 1003.56 521.753 1003.56 503.128C1003.56 486.721 1001.64 483.932 990.775 483.932H987.403ZM987.489 461.827H991.014C1000.57 461.827 1004.45 458.868 1004.45 445.303V438.26C1004.45 428.477 1002.45 423.602 991.939 423.602H987.489V461.827Z" fill="#639CFF"/>
<path d="M1077.17 401.498V547.32H1048.64V401.498H1077.17Z" fill="#639CFF"/>
<path d="M1108.78 426.309H1087.16V401.498H1159.06V426.309H1137.3V547.337H1108.78V426.309Z" fill="#639CFF"/>
<path d="M1228.26 482.923H1197.63V522.677H1233.59L1230.16 547.32H1169.05V401.498H1229.89V426.309H1197.63V458.246H1228.26V482.923Z" fill="#639CFF"/>
<path d="M1272.24 483.932V547.32H1243.73V401.498H1280.79C1305.68 401.498 1317.97 412.24 1317.97 437.739V442.984C1317.97 463.76 1309.51 469.878 1303.14 472.905C1312.39 477.275 1316.73 483.949 1316.73 504.288C1316.73 518.374 1316.5 539.588 1317.75 547.32H1290.12C1288.27 540.731 1288.41 521.753 1288.41 503.128C1288.41 486.721 1286.49 483.932 1275.62 483.932H1272.24ZM1272.24 461.827H1275.77C1285.33 461.827 1289.22 458.868 1289.22 445.303V438.26C1289.22 428.477 1287.21 423.602 1276.7 423.602H1272.24V461.827Z" fill="#639CFF"/>
<path d="M1349.82 515.847V520.537C1349.82 533.984 1355.82 539.532 1364.45 539.532C1374.73 539.532 1378.63 533.144 1378.63 521.041C1378.63 507.913 1374.61 502.702 1362.42 494.667C1347.7 484.985 1341.04 477.404 1341.04 462.494C1341.04 447.92 1347.49 435.599 1365 435.599C1383.83 435.599 1388.39 448.659 1388.39 462.611V468.091H1377.63V462.528C1377.63 451.988 1374.76 445.147 1364.68 445.147C1355.81 445.147 1352.13 451.064 1352.13 461.436C1352.13 471.806 1355.24 476.16 1367.18 484.161C1381.4 493.592 1389.79 501.139 1389.79 519.344C1389.79 538.472 1381.78 549.063 1363.83 549.063C1344.17 549.063 1338.72 535.615 1338.72 520.873V515.83L1349.82 515.847Z" fill="#639CFF"/>
<path d="M1414.99 493.609V512.905C1414.99 525.58 1417.36 539.532 1430.23 539.532C1442.09 539.532 1444.66 530.572 1444.66 518.184V517.007H1455.47V517.999C1455.47 531.598 1452.05 549.063 1429.98 549.063C1410.26 549.063 1404.19 535.615 1404.19 513.241V468.781C1404.19 450.946 1410.92 435.599 1430.5 435.599C1450.45 435.599 1455.72 451.265 1455.72 468.915V493.609H1414.99ZM1444.99 484.329V468.814C1444.99 458.494 1443.83 445.147 1430.3 445.147C1417.31 445.147 1415.03 456.257 1415.03 468.983V484.329H1444.99Z" fill="#639CFF"/>
<path d="M1473.36 474.898C1473.36 457.534 1473.36 446.07 1473.14 437.346H1483.64C1483.87 440.792 1484.12 445.667 1484.12 454.155C1488.06 441.548 1497.54 436.405 1506.96 436.035V449.314C1492.36 449.499 1484.28 460.644 1484.28 478.63V547.38H1473.36V474.898Z" fill="#639CFF"/>
<path d="M1527.49 437.344C1530.7 453.732 1543.18 516.347 1545.37 534.72H1545.6C1547.07 518.903 1561 455.363 1564.14 437.344H1575.24L1551.62 547.31H1538.96L1515.97 437.344H1527.49Z" fill="#639CFF"/>
<path d="M1588.86 437.346H1599.77V547.312H1588.86V437.346ZM1588.86 394.817H1599.77V416.367H1588.86V394.817Z" fill="#639CFF"/>
<path d="M1668.82 513.847V515.376C1668.82 533.75 1664.05 548.995 1643.32 548.995C1624.28 548.995 1618.49 535.632 1618.49 513.696V467.537C1618.49 448.459 1625.99 435.599 1644.18 435.599C1663.88 435.599 1668.75 449.988 1668.75 465.402V470.109H1657.72V466.915C1657.72 455.854 1655.83 445.147 1643.91 445.147C1633.77 445.147 1629.52 452.51 1629.52 468.193V515.006C1629.52 526.622 1631.79 539.532 1643.56 539.532C1653.62 539.532 1657.72 533.497 1657.72 515.998V513.763L1668.82 513.847Z" fill="#639CFF"/>
<path d="M1694.28 493.609V512.905C1694.28 525.58 1696.66 539.532 1709.53 539.532C1721.38 539.532 1723.95 530.572 1723.95 518.184V517.007H1734.75V517.999C1734.75 531.598 1731.32 549.063 1709.26 549.063C1689.54 549.063 1683.48 535.615 1683.48 513.241V468.781C1683.48 450.946 1690.21 435.599 1709.79 435.599C1729.74 435.599 1735 451.265 1735 468.915V493.609H1694.28ZM1724.29 484.329V468.814C1724.29 458.494 1723.11 445.147 1709.6 445.147C1696.61 445.147 1694.32 456.257 1694.32 468.983V484.329H1724.29Z" fill="#639CFF"/>
</svg>
