<svg width="16" height="16" viewBox="0 0 16 16" fill="none" xmlns="http://www.w3.org/2000/svg">
<path d="M11.5862 4.18396L11.353 1.80928C11.2804 1.05131 10.6408 0.474396 9.87957 0.480021H5.82499C5.06374 0.474396 4.42425 1.05131 4.35171 1.80928L4.11851 4.18759C2.03058 6.24271 2.00397 9.60142 4.05921 11.6895C4.07878 11.7094 4.09859 11.7292 4.11851 11.7488L4.35171 14.1372C4.42284 14.8979 5.06117 15.4794 5.82499 15.48H9.87957C10.6436 15.4793 11.2817 14.8975 11.353 14.1368L11.5862 11.7515C13.6757 9.69212 13.7005 6.32861 11.641 4.23904C11.6229 4.22052 11.6046 4.20213 11.5862 4.18396ZM5.0982 1.8824C5.13417 1.50916 5.45023 1.22568 5.82499 1.23002H9.87957C10.2545 1.22568 10.5704 1.50916 10.6065 1.8824L10.7677 3.52478C8.99902 2.35842 6.70543 2.35889 4.93706 3.52572L5.0982 1.8824ZM10.6065 14.0637C10.5717 14.4397 10.2573 14.728 9.87957 14.73H5.82499C5.44742 14.728 5.13288 14.4397 5.0982 14.0637L4.93695 12.4139C6.70683 13.575 8.99703 13.5752 10.7676 12.4149L10.6065 14.0637ZM7.85222 12.5332C5.32988 12.5332 3.28495 10.4883 3.28495 7.96595C3.28495 5.44349 5.32988 3.39857 7.85222 3.39857C10.3747 3.39857 12.4196 5.44349 12.4196 7.96595C12.4167 10.4871 10.3735 12.5303 7.85222 12.5332Z" fill="#48525E"/>
<path d="M9.2436 7.60484H8.22724V6.14832C8.22724 5.94125 8.05942 5.77344 7.85223 5.77344C7.64528 5.77344 7.47723 5.94125 7.47723 6.14832V7.96578C7.47723 8.17273 7.64528 8.35484 7.85223 8.35484H9.2436C9.45068 8.35484 9.61861 8.18703 9.61861 7.97984C9.61861 7.77277 9.45068 7.60484 9.2436 7.60484Z" fill="#48525E"/>
<path d="M7.85223 4.23975C5.79442 4.23975 4.12625 5.90791 4.12625 7.96585C4.12625 10.0237 5.79442 11.6918 7.85223 11.6918C9.91016 11.6918 11.5783 10.0237 11.5783 7.96585C11.576 5.90897 9.90922 4.24209 7.85223 4.23975ZM7.85223 10.9418C6.20867 10.9418 4.87625 9.6094 4.87625 7.96573C4.87625 6.32217 6.20867 4.98975 7.85223 4.98975C9.4959 4.98975 10.8283 6.32217 10.8283 7.96573C10.8264 9.60858 9.4952 10.94 7.85223 10.9418Z" fill="#48525E"/>
</svg>
