<svg width="14" height="14" viewBox="0 0 14 14" fill="none" xmlns="http://www.w3.org/2000/svg">
<path d="M7.452 0.466797C3.90931 0.466797 1.03731 3.31613 1.03731 6.83215C1.03731 8.03481 1.37331 9.15881 1.95731 10.1188L0.799973 13.5335L4.35197 12.4055C5.27064 12.9095 6.32797 13.1975 7.452 13.1975C10.9947 13.1975 13.8667 10.3468 13.8667 6.83215C13.8667 3.31613 10.9947 0.466797 7.452 0.466797ZM10.6413 9.24948C10.4907 9.62415 9.808 9.96548 9.50666 9.98015C9.20533 9.99615 9.19733 10.2135 7.55733 9.50148C5.9173 8.78948 4.93064 7.05615 4.8533 6.94415C4.77597 6.83348 4.21864 6.03879 4.24797 5.23879C4.27864 4.4388 4.71597 4.06146 4.87197 3.90546C5.02797 3.74813 5.20664 3.72013 5.31597 3.71879C5.4453 3.71613 5.5293 3.71479 5.62397 3.71879C5.71997 3.7228 5.86264 3.6988 5.98664 4.02946C6.11064 4.36013 6.40797 5.17079 6.44531 5.2548C6.48264 5.33746 6.50664 5.43346 6.44797 5.54013C6.38931 5.6468 6.35864 5.71346 6.27464 5.80546C6.1893 5.89746 6.09464 6.0108 6.01864 6.08146C5.93331 6.1588 5.84397 6.24413 5.93464 6.4108C6.02397 6.57746 6.3333 7.12148 6.80264 7.56948C7.40666 8.14548 7.928 8.33748 8.08933 8.42415C8.25066 8.51215 8.34666 8.50148 8.44533 8.39748C8.544 8.29215 8.872 7.93881 8.988 7.78015C9.104 7.62148 9.212 7.65215 9.36 7.71215C9.508 7.77215 10.2973 8.19481 10.4587 8.28281C10.62 8.36948 10.7267 8.41481 10.7653 8.48415C10.804 8.54948 10.792 8.87481 10.6413 9.24948Z" fill="white"/>
</svg>
