<svg width="40" height="48" viewBox="0 0 40 48" fill="none" xmlns="http://www.w3.org/2000/svg">
<path d="M35.2706 31.125V10.4062C35.2706 8.33862 33.5886 6.65625 31.5206 6.65625H19.7188V20.0625C19.7188 23.1643 17.1956 25.6875 14.0938 25.6875C10.9919 25.6875 8.46875 23.1643 8.46875 20.0625V12C8.46875 10.9644 9.30811 10.125 10.3438 10.125C11.3794 10.125 12.2188 10.9644 12.2188 12V20.0625C12.2188 21.0963 13.0599 21.9375 14.0938 21.9375C15.1276 21.9375 15.9688 21.0963 15.9688 20.0625V5.625C15.9688 4.59119 15.1276 3.75 14.0938 3.75C13.2284 3.75 12.4597 4.36047 12.2664 5.20129C12.0562 6.11646 11.2084 6.71777 10.2998 6.64893C10.2526 6.65259 10.205 6.65625 10.1562 6.65625H8.46875C6.40112 6.65625 4.71875 8.33862 4.71875 10.4062V40.5C4.71875 42.5676 6.40112 44.25 8.46875 44.25H31.521C33.5886 44.25 35.271 42.5676 35.271 40.5C35.271 39.4644 36.1104 38.625 37.146 38.625C38.1813 38.625 39.021 39.4644 39.021 40.5C39.021 44.6356 35.6562 48 31.521 48H8.46875C4.33313 48 0.96875 44.6356 0.96875 40.5V10.4062C0.96875 6.27063 4.33313 2.90625 8.46875 2.90625H9.16528C10.1313 1.14148 11.9902 0 14.0938 0C16.2097 0 18.0558 1.1748 19.016 2.90625H31.5206C35.6562 2.90625 39.0206 6.27063 39.0206 10.4062V31.125C39.0206 32.1606 38.1813 33 37.1456 33C36.1104 33 35.2706 32.1606 35.2706 31.125ZM10.3438 36.75C9.30811 36.75 8.46875 37.5894 8.46875 38.625C8.46875 39.6606 9.30811 40.5 10.3438 40.5H23.9375C24.9731 40.5 25.8125 39.6606 25.8125 38.625C25.8125 37.5894 24.9731 36.75 23.9375 36.75H10.3438ZM31.4375 31.2188C31.4375 30.1831 30.5981 29.3438 29.5625 29.3438H10.3438C9.30811 29.3438 8.46875 30.1831 8.46875 31.2188C8.46875 32.2544 9.30811 33.0938 10.3438 33.0938H29.5625C30.5981 33.0938 31.4375 32.2544 31.4375 31.2188ZM29.5625 22.0312H25.25C24.2144 22.0312 23.375 22.8706 23.375 23.9062C23.375 24.9419 24.2144 25.7812 25.25 25.7812H29.5625C30.5981 25.7812 31.4375 24.9419 31.4375 23.9062C31.4375 22.8706 30.5981 22.0312 29.5625 22.0312ZM29.5625 14.625H25.25C24.2144 14.625 23.375 15.4644 23.375 16.5C23.375 17.5356 24.2144 18.375 25.25 18.375H29.5625C30.5981 18.375 31.4375 17.5356 31.4375 16.5C31.4375 15.4644 30.5981 14.625 29.5625 14.625Z" fill="#639CFF"/>
</svg>
